<svg style="display: none"><defs/><symbol id="icon-accessibility" viewBox="0 0 100 100" fill="#D47C41"><path d="M49.863 0C22.324 0 0 22.324 0 49.863c0 27.539 22.324 49.863 49.863 49.863 27.539 0 49.863-22.324 49.863-49.863C99.726 22.324 77.402 0 49.863 0zm-.758 9.902c3.57 0 6.465 2.89 6.465 6.442 0 3.57-2.89 6.464-6.465 6.464-3.547 0-6.437-2.89-6.441-6.464.004-3.551 2.894-6.442 6.441-6.442zM77.05 30.726l-19.184 2.426.008 19.203 9.293 31.023c.492 1.961-.687 3.918-2.625 4.402s-3.918-.582-4.406-2.543L50.616 57h-2.933l-8.758 28.828c-.734 1.883-2.828 2.746-4.707 2.012-1.86-.726-2.996-2.844-2.262-4.726L40 52.67v-19.52l-17.676-2.406c-1.812-.144-3.047-1.742-2.898-3.558.133-1.828 1.781-3.184 3.598-3.04L44.496 26h9.418l22.867-1.886a3.284 3.284 0 0 1 3.418 3.171c.07 1.82-1.332 3.368-3.149 3.442z"/></symbol><symbol id="icon-attention" viewBox="0 0 100 100" fill="#868686"><path d="M50 9.375C27.656 9.375 9.375 27.656 9.375 50S27.656 90.625 50 90.625 90.625 72.344 90.625 50 72.344 9.375 50 9.375zm4.688 60.938h-9.376V62.5h9.376zm0-17.188h-9.376v-25h9.376z"/></symbol><symbol id="icon-bash" viewBox="0 0 100 100" fill="#4A4A4A"><path d="M13.5 91.32h73.75a5.003 5.003 0 0 0 5-5V12.57c0-1.328-.527-2.598-1.465-3.535S88.575 7.57 87.25 7.57H13.5a5 5 0 0 0-5 5v73.75a5.003 5.003 0 0 0 5 5zM53 64.179h26.5a3 3 0 0 1 0 6H53a3 3 0 0 1 0-6zM21.129 31.827a3 3 0 1 1 4.242-4.238l18.738 18.73a2.994 2.994 0 0 1 0 4.238L25.371 69.299a3.004 3.004 0 0 1-4.168-.074 3.003 3.003 0 0 1-.074-4.168L37.75 48.44z"/></symbol><symbol id="icon-blog"><path fill="#454546" d="M181.507 199.929H5.982A5.982 5.982 0 010 193.947V6A5.982 5.982 0 015.982.018h175.524A5.983 5.983 0 01187.489 6v187.947a5.982 5.982 0 01-5.982 5.982zM11.965 187.964h163.559V11.982H11.965v175.982z"/><path fill="#454546" d="M157.147 51.727H30.126a5.983 5.983 0 010-11.964h127.021a5.982 5.982 0 010 11.964zM141.052 86.758H30.126a5.983 5.983 0 010-11.965h110.926a5.983 5.983 0 010 11.965zM110.601 121.786H30.126a5.983 5.983 0 010-11.965h80.475a5.983 5.983 0 010 11.965zM110.601 159.511H30.126a5.983 5.983 0 010-11.965h80.475a5.982 5.982 0 010 11.965z"/><path fill="#52A7DD" d="M215.654 40.581l-19.792 20.432-62.64 64.671-1.523 31.212h35.887l84.608-90.717-34.146-28.293"/><path fill="#454546" d="M167.586 162.879h-35.887a5.981 5.981 0 01-5.975-6.275l1.523-31.212a5.98 5.98 0 011.678-3.87l82.432-85.104c.374-.385.787-.71 1.228-.974a5.985 5.985 0 019.28-2.165l34.146 28.294a5.984 5.984 0 01.558 8.687l-84.608 90.717a5.979 5.979 0 01-4.375 1.902zm-29.606-11.965h27.004l78.507-84.175-24.878-20.614-79.526 82.104-1.107 22.685z"/><path fill="#1D7CBA" d="M164.96 150.599l78.157-83.809-7.724-6.389-85.976 90.198"/><g><path fill="#454546" d="M231.096 93.044a5.96 5.96 0 01-3.953-1.494l-32.625-28.743a5.982 5.982 0 01-.534-8.443 5.981 5.981 0 018.444-.534l32.625 28.743a5.982 5.982 0 01-3.957 10.471z"/></g></symbol><symbol id="icon-contentful" viewBox="0 0 19 22"><g fill-rule="nonzero" fill="none"><path d="M6.2 15.35a5.79 5.79 0 0 1 0-8.2A2.263 2.263 0 1 0 3 3.95a10.46 10.46 0 0 0-3 7.3 10.64 10.64 0 0 0 3 7.3 2.263 2.263 0 0 0 3.2-3.2z" fill="#FFD85F"/><path d="M6.2 7.15a5.79 5.79 0 0 1 8.2 0 2.263 2.263 0 1 0 3.2-3.2 10.46 10.46 0 0 0-7.3-3 10.64 10.64 0 0 0-7.3 3 2.263 2.263 0 1 0 3.2 3.2z" fill="#3BB4E7"/><path d="M14.4 15.35a5.79 5.79 0 0 1-8.2 0 2.263 2.263 0 1 0-3.2 3.2 10.46 10.46 0 0 0 7.3 3 10.64 10.64 0 0 0 7.3-3 2.263 2.263 0 0 0-3.2-3.2z" fill="#ED5C68"/><circle fill="#308BC5" transform="rotate(-45.02 4.644 5.554)" cx="4.644" cy="5.554" r="2.3"/><circle fill="#D5465F" transform="rotate(-45.02 4.634 16.942)" cx="4.634" cy="16.942" r="2.3"/></g></symbol><symbol id="icon-css" viewBox="0 0 100 100" fill="#1C7CBA">
	<path d="M11.512 21.594h68.352c-.719 3.648-1.422 7.21-2.133 10.824H9.341c-1.106 5.61-2.204 11.164-3.317 16.82h68.352c-1.258 6.293-2.492 12.492-3.754 18.684-.047.23-.34.508-.578.586a7860.361 7860.361 0 0 1-26.523 8.789c-.293.098-.68.098-.965-.012-7.637-2.898-15.27-5.82-22.902-8.722-.402-.153-.504-.34-.414-.75.242-1.094.445-2.192.66-3.29.29-1.464.57-2.933.856-4.394-.141-.039-.192-.062-.243-.062-5.34-.004-10.68 0-16.02-.02-.52 0-.566.281-.64.668-.653 3.32-1.32 6.637-1.977 9.953-.629 3.156-1.246 6.316-1.875 9.5.227.102.41.195.602.27 12.78 4.894 25.562 9.785 38.352 14.66.328.125.773.117 1.11.007 14.77-4.886 29.534-9.793 44.304-14.68.461-.152.676-.37.766-.832 1.453-7.351 2.914-14.699 4.379-22.05 3.21-16.13 6.425-32.259 9.64-48.384.285-1.437.563-2.879.848-4.347H14.869c-1.113 5.57-2.219 11.102-3.356 16.78z"/>
	<path d="M11.512 21.594c1.137-5.68 2.242-11.211 3.356-16.781H100c-.285 1.465-.562 2.906-.847 4.348-3.211 16.129-6.426 32.258-9.64 48.383-1.466 7.347-2.927 14.699-4.38 22.05-.09.462-.304.68-.765.833-14.77 4.886-29.535 9.793-44.305 14.68-.336.11-.782.117-1.11-.008-12.789-4.875-25.57-9.766-38.352-14.66-.191-.074-.375-.164-.601-.27.629-3.183 1.246-6.347 1.87-9.507.657-3.317 1.329-6.633 1.977-9.954.075-.386.122-.671.641-.667 5.34.019 10.68.015 16.02.019.05 0 .098.023.242.063-.285 1.46-.566 2.93-.855 4.394-.215 1.098-.418 2.2-.66 3.29-.09.41.011.597.414.75 7.636 2.901 15.266 5.823 22.902 8.722.285.11.672.11.965.012 8.847-2.915 17.688-5.84 26.523-8.79.238-.078.53-.355.578-.585 1.261-6.196 2.496-12.395 3.754-18.684H6.019c1.117-5.657 2.21-11.211 3.316-16.82h68.391c.71-3.614 1.414-7.176 2.133-10.824-22.785.007-45.512.007-68.348.007z"/>
</symbol><symbol id="icon-electron" viewBox="0 0 32 32"><g stroke="#555" stroke-width="2" fill="none" fill-rule="evenodd"><path d="M11.701 7.726c-3.783-.682-6.888-.032-8.086 2.023-.888 1.525-.576 3.563.66 5.7m2.051 2.74c1.566 1.704 3.64 3.36 6.086 4.758 5.83 3.333 11.881 4.13 14.755 2.19m2.679-1.08c0-.86-.704-1.556-1.571-1.556-.868 0-1.57.696-1.57 1.556 0 .859.702 1.555 1.57 1.555.867 0 1.57-.696 1.57-1.555h0z"/><path d="M26.102 17.7c2.477-2.9 3.454-5.879 2.259-7.93-.874-1.5-2.764-2.251-5.192-2.283m-3.472.374c-2.292.486-4.802 1.444-7.273 2.857-6.001 3.432-9.77 8.41-9.258 11.863m.519 3.031c.868 0 1.57-.696 1.57-1.555 0-.86-.702-1.556-1.57-1.556-.867 0-1.57.696-1.57 1.556 0 .859.703 1.555 1.57 1.555h0z"/><path d="M10.186 25.07c1.295 3.583 3.414 5.918 5.808 5.918 1.735 0 3.326-1.226 4.563-3.265m1.494-3.387c.686-2.172 1.083-4.741 1.083-7.493 0-6.755-2.39-12.404-5.585-13.81m-1.555 1.22c.868 0 1.571-.696 1.571-1.556 0-.859-.703-1.556-1.57-1.556-.868 0-1.572.697-1.572 1.556 0 .86.704 1.556 1.571 1.556zM16.298 18.233a1.437 1.437 0 0 1-1.708-1.09 1.423 1.423 0 0 1 1.1-1.691 1.437 1.437 0 0 1 1.708 1.09 1.423 1.423 0 0 1-1.1 1.691z"/></g></symbol><symbol id="icon-git" viewBox="0 0 97 97"><path fill="#F05133" d="M92.71 44.408L52.591 4.291a5.918 5.918 0 0 0-8.369 0l-8.33 8.332L46.459 23.19a7.022 7.022 0 0 1 7.229 1.685 7.03 7.03 0 0 1 1.67 7.275l10.186 10.185a7.028 7.028 0 0 1 7.275 1.671 7.043 7.043 0 0 1-9.961 9.958 7.043 7.043 0 0 1-1.531-7.658l-9.5-9.499v24.997a7.042 7.042 0 1 1-8.096 11.291 7.042 7.042 0 0 1 2.307-11.496v-25.23a7.041 7.041 0 0 1-3.823-9.235L31.798 16.715 4.288 44.222a5.92 5.92 0 0 0 0 8.371l40.121 40.118a5.918 5.918 0 0 0 8.369 0L92.71 52.779a5.92 5.92 0 0 0 0-8.371z"/></symbol><symbol id="icon-github" viewBox="0 0 438.549 438.549"><g><path d="M409.132,114.573c-19.608-33.596-46.205-60.194-79.798-79.8C295.736,15.166,259.057,5.365,219.271,5.365
c-39.781,0-76.472,9.804-110.063,29.408c-33.596,19.605-60.192,46.204-79.8,79.8C9.803,148.168,0,184.854,0,224.63 c0,47.78,13.94,90.745,41.827,128.906c27.884,38.164,63.906,64.572,108.063,79.227c5.14,0.954,8.945,0.283,11.419-1.996 c2.475-2.282,3.711-5.14,3.711-8.562c0-0.571-0.049-5.708-0.144-15.417c-0.098-9.709-0.144-18.179-0.144-25.406l-6.567,1.136 c-4.187,0.767-9.469,1.092-15.846,1c-6.374-0.089-12.991-0.757-19.842-1.999c-6.854-1.231-13.229-4.086-19.13-8.559 c-5.898-4.473-10.085-10.328-12.56-17.556l-2.855-6.57c-1.903-4.374-4.899-9.233-8.992-14.559 c-4.093-5.331-8.232-8.945-12.419-10.848l-1.999-1.431c-1.332-0.951-2.568-2.098-3.711-3.429c-1.142-1.331-1.997-2.663-2.568-3.997 c-0.572-1.335-0.098-2.43,1.427-3.289c1.525-0.859,4.281-1.276,8.28-1.276l5.708,0.853c3.807,0.763,8.516,3.042,14.133,6.851 c5.614,3.806,10.229,8.754,13.846,14.842c4.38,7.806,9.657,13.754,15.846,17.847c6.184,4.093,12.419,6.136,18.699,6.136 c6.28,0,11.704-0.476,16.274-1.423c4.565-0.952,8.848-2.383,12.847-4.285c1.713-12.758,6.377-22.559,13.988-29.41 c-10.848-1.14-20.601-2.857-29.264-5.14c-8.658-2.286-17.605-5.996-26.835-11.14c-9.235-5.137-16.896-11.516-22.985-19.126 c-6.09-7.614-11.088-17.61-14.987-29.979c-3.901-12.374-5.852-26.648-5.852-42.826c0-23.035,7.52-42.637,22.557-58.817 c-7.044-17.318-6.379-36.732,1.997-58.24c5.52-1.715,13.706-0.428,24.554,3.853c10.85,4.283,18.794,7.952,23.84,10.994 c5.046,3.041,9.089,5.618,12.135,7.708c17.705-4.947,35.976-7.421,54.818-7.421s37.117,2.474,54.823,7.421l10.849-6.849 c7.419-4.57,16.18-8.758,26.262-12.565c10.088-3.805,17.802-4.853,23.134-3.138c8.562,21.509,9.325,40.922,2.279,58.24 c15.036,16.18,22.559,35.787,22.559,58.817c0,16.178-1.958,30.497-5.853,42.966c-3.9,12.471-8.941,22.457-15.125,29.979 c-6.191,7.521-13.901,13.85-23.131,18.986c-9.232,5.14-18.182,8.85-26.84,11.136c-8.662,2.286-18.415,4.004-29.263,5.146 c9.894,8.562,14.842,22.077,14.842,40.539v60.237c0,3.422,1.19,6.279,3.572,8.562c2.379,2.279,6.136,2.95,11.276,1.995 c44.163-14.653,80.185-41.062,108.068-79.226c27.88-38.161,41.825-81.126,41.825-128.906 C438.536,184.851,428.728,148.168,409.132,114.573z"/></g></symbol><symbol id="icon-graphql" viewBox="0 0 400 400"><path fill="#E535AB" d="M57.468 302.66l-14.376-8.3 160.15-277.38 14.376 8.3z"/><path fill="#E535AB" d="M39.8 272.2h320.3v16.6H39.8z"/><path fill="#E535AB" d="M206.348 374.026l-160.21-92.5 8.3-14.376 160.21 92.5zM345.522 132.947l-160.21-92.5 8.3-14.376 160.21 92.5z"/><path fill="#E535AB" d="M54.482 132.883l-8.3-14.375 160.21-92.5 8.3 14.376z"/><path fill="#E535AB" d="M342.568 302.663l-160.15-277.38 14.376-8.3 160.15 277.38zM52.5 107.5h16.6v185H52.5z"/><path fill="#E535AB" d="M330.9 107.5h16.6v185h-16.6z"/><path fill="#E535AB" d="M203.522 367l-7.25-12.558 139.34-80.45 7.25 12.557z"/><path fill="#E535AB" d="M369.5 297.9c-9.6 16.7-31 22.4-47.7 12.8-16.7-9.6-22.4-31-12.8-47.7 9.6-16.7 31-22.4 47.7-12.8 16.8 9.7 22.5 31 12.8 47.7M90.9 137c-9.6 16.7-31 22.4-47.7 12.8-16.7-9.6-22.4-31-12.8-47.7 9.6-16.7 31-22.4 47.7-12.8 16.7 9.7 22.4 31 12.8 47.7M30.5 297.9c-9.6-16.7-3.9-38 12.8-47.7 16.7-9.6 38-3.9 47.7 12.8 9.6 16.7 3.9 38-12.8 47.7-16.8 9.6-38.1 3.9-47.7-12.8M309.1 137c-9.6-16.7-3.9-38 12.8-47.7 16.7-9.6 38-3.9 47.7 12.8 9.6 16.7 3.9 38-12.8 47.7-16.7 9.6-38.1 3.9-47.7-12.8M200 395.8c-19.3 0-34.9-15.6-34.9-34.9 0-19.3 15.6-34.9 34.9-34.9 19.3 0 34.9 15.6 34.9 34.9 0 19.2-15.6 34.9-34.9 34.9M200 74c-19.3 0-34.9-15.6-34.9-34.9 0-19.3 15.6-34.9 34.9-34.9 19.3 0 34.9 15.6 34.9 34.9 0 19.3-15.6 34.9-34.9 34.9"/></symbol><symbol id="icon-hash" viewBox="0 0 190 190" fill="#1c7cbb">
	<path d="M31.686 187.333H70.61l2.293-40.266h38.262l-2.293 40.266h38.924l2.293-40.266H190v-38.86h-37.697l1.504-26.413H190v-38.86h-33.98l2.293-40.266h-38.925l-2.293 40.266h-38.26l2.293-40.266H42.205l-2.293 40.266H0v38.86h37.698l-1.504 26.413H0v38.86h33.98l-2.294 40.266zM76.622 81.794h38.261l-1.505 26.413H75.117l1.505-26.413z"/>
</symbol><symbol id="icon-heart" viewBox="0 0 190 190">
	<path fill="#52A7DD" d="M153.008 7.783C111.457 1.196 95.75 33.625 95.75 33.625S80.043 1.196 38.493 7.783C16.246 11.31 5.197 35.278 7.946 55.953c3.356 25.241 24.265 44.838 38.755 64.199 13.076 17.475 26.795 34.578 40.322 51.713 2.939 3.721 5.771 7.529 8.727 11.236 2.955-3.707 5.787-7.516 8.727-11.236 13.527-17.135 27.246-34.238 40.322-51.713 14.49-19.361 35.398-38.958 38.756-64.199 2.748-20.675-8.301-44.643-30.547-48.17z">
	</path>
	<path fill="#1D7CBA" d="M138.75 11.358s44.065 36.935-44.173 163.245c-.001.001 165.333-156.333 44.173-163.245z">
	</path>
	<path fill="none" stroke="#454546" stroke-width="12" stroke-linecap="round" stroke-linejoin="round" d="M153.008 7.783C111.457 1.196 95.75 33.625 95.75 33.625S80.043 1.196 38.493 7.783C16.246 11.31 5.197 35.278 7.946 55.953c3.356 25.241 24.265 44.838 38.755 64.199 13.076 17.475 26.795 34.578 40.322 51.713 2.939 3.721 5.771 7.529 8.727 11.236 2.955-3.707 5.787-7.516 8.727-11.236 13.527-17.135 27.246-34.238 40.322-51.713 14.49-19.361 35.398-38.958 38.756-64.199 2.748-20.675-8.301-44.643-30.547-48.17z">
	</path>
</symbol><symbol id="icon-home" viewBox="0 0 196 200">
	<path fill="#52A7DD" d="M22.838 87.45l75.633-55.004 76.285 55.004v106.734h-49.111v-63.08H74.133v63.08H22.838z"/>
	<path fill="#1D7CBA" d="M98.796 40.194l51.887 59.419 1.026 86.723v6.3l15.652 1.548 10.52-16.57-3.769-90.628-75.641-54.54z"/>
	<path fill="#454546" d="M191.121 80.387c-1.2 0-2.412-.372-3.453-1.14L98.155 13.058 9.288 79.235a5.816 5.816 0 01-6.945-9.328L94.669 1.153a5.816 5.816 0 016.931-.011l92.983 68.754a5.816 5.816 0 01-3.462 10.491z"/>
	<path fill="#454546" d="M174.756 199.999h-49.111a5.815 5.815 0 01-5.814-5.814v-57.266H79.948v57.266a5.815 5.815 0 01-5.815 5.814H22.838a5.815 5.815 0 01-5.815-5.814V87.45c0-1.86.89-3.608 2.395-4.703l75.633-55.004a5.817 5.817 0 016.821-.014l76.285 55.004a5.814 5.814 0 012.414 4.716v106.734a5.816 5.816 0 01-5.815 5.816zm-43.297-11.629h37.482V90.426L98.485 39.625 28.653 90.411v97.958h39.666v-57.266a5.815 5.815 0 015.815-5.815h51.511a5.816 5.816 0 015.815 5.815v57.267h-.001zM174.756 67.508a5.815 5.815 0 01-5.814-5.815V41.395a5.815 5.815 0 0111.629 0v20.299a5.815 5.815 0 01-5.815 5.814z"/>
</symbol><symbol id="icon-html" viewBox="0 0 100 100" fill="#D47C41"><path d="M10 10l6.668 73.332L50 90l33.332-6.668L90 10zm67.145 67.773L50 83.199l-27.145-5.426-5.559-61.105h65.398z"/><path d="M27.328 53.332h38.648l-1.21 13.32-14.767 2.95-14.77-2.95L34.624 60h-6.692l1.11 12.215 20.957 4.183 20.957-4.183 2.32-25.547H33.413L31.9 30h42.891l.606-6.668H24.6z"/></symbol><symbol id="icon-instagram" viewBox="0 0 512 512"><path d="M256 49.471c67.266 0 75.233.257 101.8 1.469 24.562 1.121 37.9 5.224 46.778 8.674a78.052 78.052 0 0 1 28.966 18.845 78.052 78.052 0 0 1 18.845 28.966c3.45 8.877 7.554 22.216 8.674 46.778 1.212 26.565 1.469 34.532 1.469 101.8s-.257 75.233-1.469 101.8c-1.121 24.562-5.225 37.9-8.674 46.778a83.427 83.427 0 0 1-47.811 47.811c-8.877 3.45-22.216 7.554-46.778 8.674-26.56 1.212-34.527 1.469-101.8 1.469s-75.237-.257-101.8-1.469c-24.562-1.121-37.9-5.225-46.778-8.674a78.051 78.051 0 0 1-28.966-18.845 78.053 78.053 0 0 1-18.845-28.966c-3.45-8.877-7.554-22.216-8.674-46.778-1.212-26.564-1.469-34.532-1.469-101.8s.257-75.233 1.469-101.8c1.121-24.562 5.224-37.9 8.674-46.778a78.052 78.052 0 0 1 18.847-28.967 78.053 78.053 0 0 1 28.966-18.845c8.877-3.45 22.216-7.554 46.778-8.674 26.565-1.212 34.532-1.469 101.8-1.469m0-45.391c-68.418 0-77 .29-103.866 1.516-26.815 1.224-45.127 5.482-61.151 11.71a123.488 123.488 0 0 0-44.62 29.057A123.488 123.488 0 0 0 17.3 90.982c-6.223 16.025-10.481 34.337-11.7 61.152C4.369 179 4.079 187.582 4.079 256s.29 77 1.521 103.866c1.224 26.815 5.482 45.127 11.71 61.151a123.489 123.489 0 0 0 29.057 44.62 123.486 123.486 0 0 0 44.62 29.057c16.025 6.228 34.337 10.486 61.151 11.71 26.87 1.226 35.449 1.516 103.866 1.516s77-.29 103.866-1.516c26.815-1.224 45.127-5.482 61.151-11.71a128.817 128.817 0 0 0 73.677-73.677c6.228-16.025 10.486-34.337 11.71-61.151 1.226-26.87 1.516-35.449 1.516-103.866s-.29-77-1.516-103.866c-1.224-26.815-5.482-45.127-11.71-61.151a123.486 123.486 0 0 0-29.057-44.62A123.487 123.487 0 0 0 421.018 17.3c-16.025-6.223-34.337-10.481-61.152-11.7C333 4.369 324.418 4.079 256 4.079z"/><path d="M256 126.635A129.365 129.365 0 1 0 385.365 256 129.365 129.365 0 0 0 256 126.635zm0 213.338A83.973 83.973 0 1 1 339.974 256 83.974 83.974 0 0 1 256 339.973z"/><circle cx="390.476" cy="121.524" r="30.23"/></symbol><symbol id="icon-javascript" viewBox="0 0 18 18"><path d="M0 0v18h18V0H0zm9.521 15.338c-.266.54-.773.894-1.36 1.066-.903.207-1.767.089-2.41-.297-.43-.264-.765-.67-.993-1.138l1.37-.84c.012.006.048.071.097.155.174.293.325.5.621.646.292.1.93.163 1.178-.35.15-.26.102-1.098.102-2.025 0-1.456.007-2.907.007-4.347H9.82c0 1.584.009 3.084 0 4.63.004.947.086 1.792-.298 2.5zm6.995-.476c-.586 2.004-3.854 2.07-5.16.745-.276-.312-.449-.475-.613-.835.694-.399.694-.399 1.369-.79.367.564.706.874 1.316 1.001.828.101 1.66-.183 1.474-1.062-.192-.718-1.695-.893-2.718-1.66-1.038-.698-1.282-2.393-.428-3.36.284-.36.769-.626 1.278-.755l.53-.068c1.02-.021 1.658.248 2.126.77.13.133.236.275.435.583-.543.346-.541.343-1.32.847a1.255 1.255 0 0 0-.733-.68c-.452-.138-1.023.011-1.141.49-.041.147-.033.284.032.527.184.418.799.6 1.35.854 1.59.644 2.126 1.335 2.258 2.157.127.708-.031 1.167-.055 1.236z" fill-rule="nonzero" fill="#F0DB4F"/></symbol><symbol id="icon-learn"><path fill="#52A7DD" d="M284.357 69.724L150.37 122.916 61.348 87.012 5.409 64.449 151.525 5.985 295.33 64.451l-10.973 5.273"/><path fill="#52A7DD" d="M60.999 94.113v99.922h185.825V86.901"/><path fill="#1D7CBA" d="M150.37 12.22l82.373 51.005-81.79 52.441 57.609-10.357.185 88.726h38.077l2.693-110.248 44.9-18.131L150.953 5.985z"/><path fill="#454546" d="M295.915 131.316a5.992 5.992 0 01-5.991-5.993V73.052a5.957 5.957 0 01-2.774 2.241l-133.987 53.191a5.99 5.99 0 01-4.452-.012L3.75 70.006A5.99 5.99 0 010 64.441a5.987 5.987 0 013.766-5.554L149.883.423a6.01 6.01 0 014.482.012L298.17 58.901a5.99 5.99 0 013.735 5.55v60.872a5.99 5.99 0 01-5.99 5.993zM22.063 64.472l128.906 51.989 130.013-51.612-128.89-52.402L22.063 64.472z"/><path fill="#454546" d="M246.824 200.026H60.999a5.991 5.991 0 01-5.991-5.991V89.121a5.992 5.992 0 0111.983 0v98.925h173.842V86.901a5.991 5.991 0 0111.982 0v107.134a5.99 5.99 0 01-5.991 5.991z"/></symbol><symbol id="icon-letter" viewBox="0 0 226 190">
	<path fill="#52A7DD" d="M19.255 6.657l94.257 87.999 94.045-88.02z"/>
	<path fill="#1D7CBA" d="M167.824 9.396l-58 74.5 3.582 7.5 91.203-82z"/>
	<path fill="none" stroke="#454546" stroke-width="12" stroke-linecap="round" stroke-linejoin="round" d="M6.512 33.949v149.582h213.789V33.926l-106.776 99.933z"/>
	<path fill="none" stroke="#454546" stroke-width="12" stroke-linecap="round" stroke-linejoin="round" d="M19.255 6.657l94.257 87.999 94.045-88.02z"/>
</symbol><symbol id="icon-macos" viewBox="0 0 100 100" fill="#10967A"><path d="M61.281 5c-3.512.887-7.176 2.969-9.313 5.406s-3.675 5.645-4.375 9.656c-20.508-9.379-40.465 6.22-39.469 29.344.997 23.13 18.051 55.59 41.594 42.31C72.191 104.585 87 76.937 91.029 56.683c-9.762-1.34-17.313-10.559-17.313-21.719 0-5.21 1.626-9.992 4.376-13.75-6.555-4.058-15.13-5.101-25.16-.812.597-2.84 1.535-4.738 3.093-6.531 1.559-1.793 4.184-3.227 7.313-4.438-.168-2.12-.969-3.617-2.063-4.437"/></symbol><symbol id="icon-megaphone" viewBox="0 0 100 100" fill="#868686"><path d="M78.125 0c-5.559 0-10.617 3.883-14.477 10.227-14.297 9.578-34.723 11.648-44.898 11.648C8.395 21.875 0 30.27 0 40.625s8.394 18.75 18.75 18.75c10.176 0 30.602 2.07 44.898 11.648 3.86 6.344 8.918 10.227 14.477 10.227C90.207 81.25 100 63.062 100 40.625S90.207 0 78.125 0zm0 68.75c-1.742-.555-5.992-5.875-8.117-15.754 6.305-.637 11.242-5.898 11.242-12.371s-4.938-11.734-11.242-12.371c2.16-10.043 6.433-15.352 8.117-15.754 2.11.547 9.375 10.039 9.375 28.125 0 17.867-7.008 27.367-9.375 28.125zM18.75 65.625c-1.398 0-2.766-.145-4.106-.367 1.258 11.527 3.243 25.297 4.106 29.34.918 4.3 4.375 5.402 6.25 5.402h12.5c2.23 0 6.332-1.629 6.25-6.594-.043-2.738-3.555-13.855-5.043-25.59-7.152-1.543-14.266-2.191-19.957-2.191z"/></symbol><symbol id="icon-newsletter" viewBox="0 0 100 100" fill="#1C7CBA">
	<g fill-rule="evenodd">
		<path d="M91.176 24.895v51.602c0 3.234-2.644 5.856-5.922 5.856H14.746c-3.27 0-5.922-2.618-5.922-5.856V24.895v1.39L50 60.599l41.176-34.312z"/>
		<path d="M14.707 17.648L50 47.058l35.293-29.41z"/>
	</g>
</symbol><symbol id="icon-nodejs" viewBox="0 0 256 289"><path d="M128 288.464c-3.975 0-7.685-1.06-11.13-2.915l-35.247-20.936c-5.3-2.915-2.65-3.975-1.06-4.505 7.155-2.385 8.48-2.915 15.9-7.156.796-.53 1.856-.265 2.65.265l27.032 16.166c1.06.53 2.385.53 3.18 0l105.74-61.217c1.06-.53 1.59-1.59 1.59-2.915V83.08c0-1.325-.53-2.385-1.59-2.915l-105.74-60.953c-1.06-.53-2.385-.53-3.18 0L20.405 80.166c-1.06.53-1.59 1.855-1.59 2.915v122.17c0 1.06.53 2.385 1.59 2.915l28.887 16.695c15.636 7.95 25.44-1.325 25.44-10.6V93.68c0-1.59 1.326-3.18 3.181-3.18h13.516c1.59 0 3.18 1.325 3.18 3.18v120.58c0 20.936-11.396 33.126-31.272 33.126-6.095 0-10.865 0-24.38-6.625l-27.827-15.9C4.24 220.885 0 213.465 0 205.515V83.346C0 75.396 4.24 67.976 11.13 64L116.87 2.783c6.625-3.71 15.635-3.71 22.26 0L244.87 64C251.76 67.975 256 75.395 256 83.346v122.17c0 7.95-4.24 15.37-11.13 19.345L139.13 286.08c-3.445 1.59-7.42 2.385-11.13 2.385zm32.596-84.009c-46.377 0-55.917-21.2-55.917-39.221 0-1.59 1.325-3.18 3.18-3.18h13.78c1.59 0 2.916 1.06 2.916 2.65 2.12 14.045 8.215 20.936 36.306 20.936 22.261 0 31.802-5.035 31.802-16.96 0-6.891-2.65-11.926-37.367-15.372-28.886-2.915-46.907-9.275-46.907-32.33 0-21.467 18.02-34.187 48.232-34.187 33.921 0 50.617 11.66 52.737 37.101 0 .795-.265 1.59-.795 2.385-.53.53-1.325 1.06-2.12 1.06h-13.78c-1.326 0-2.65-1.06-2.916-2.385-3.18-14.575-11.395-19.345-33.126-19.345-24.38 0-27.296 8.48-27.296 14.84 0 7.686 3.445 10.07 36.306 14.31 32.597 4.24 47.967 10.336 47.967 33.127-.265 23.321-19.345 36.571-53.002 36.571z" fill="#539E43"/></symbol><symbol id="icon-performance" viewBox="0 0 100 100" fill="#1D7CBB"><path d="M81.031 38.305l6-5.234-5.086-5.832-6.008 5.238a39.143 39.143 0 0 1 5.094 5.828zm-27.668-12.23V18.11h7.738V6.501H37.886v11.61h7.739v7.964c-17.41 1.926-30.957 16.676-30.957 34.598 0 19.234 15.594 34.824 34.824 34.824 19.234.004 34.828-15.59 34.828-34.82 0-17.926-13.543-32.672-30.957-34.602zm-3.871 61.688c-14.961 0-27.086-12.125-27.086-27.086 0-14.961 12.125-27.086 27.086-27.086 14.96 0 27.086 12.125 27.086 27.086.004 14.961-12.125 27.086-27.086 27.086zm3.871-46.438h-7.738v23.219h19.348v-7.738h-11.61z" fill-rule="evenodd"/></symbol><symbol id="icon-productivity" viewBox="0 10 100 90" fill="#D5403A"><path d="M92.602 71.301h-.3V23.399c0-3.8-3.102-6.8-6.802-6.8l-70.898.003c-3.8 0-6.8 3.102-6.8 6.8v47.899h-6.5v4.602c0 4.199 3.398 7.5 7.5 7.5H91c4.199 0 7.5-3.399 7.5-7.5V71.3zm-9.703 0H59.102v.5c0 1.398-1.2 2.602-2.602 2.602l-13-.004c-1.398 0-2.601-1.2-2.601-2.602v-.5l-23.797.004V25.899H83v45.402zm-15.5-22.102c-.602-1.398 0-3 1.398-3.7 1.399-.6 3 0 3.7 1.4.601 1.398 0 3.1-1.399 3.698-.3.102-.5.2-.8.2-1.196.101-2.4-.496-2.9-1.598zm4.703 8.5c1.5.2 2.602 1.602 2.398 3.2-.199 1.3-1.199 2.198-2.398 2.3h-.8a2.699 2.699 0 0 1-2.302-3.2c.2-1.398 1.602-2.5 3.102-2.3zm-28.203-4.2c-2 3.2-1.102 7.5 2.102 9.5 3.199 2 7.5 1.102 9.5-2.1 1.199-1.9 1.398-4.102.601-6.102l8.2-15.398c.699-1.301.3-2.899-1-3.7-1.2-.8-2.801-.5-3.7.7l-10.5 14c-2 .101-4 1.203-5.203 3.101zm7.3 1.4c1.302.8 1.7 2.5.802 3.8-.801 1.3-2.5 1.7-3.801.8-1.301-.8-1.7-2.5-.801-3.8.8-1.3 2.5-1.7 3.8-.8zm-25.897 8.5c-.602-2.4-.899-4.9-.801-7.4.102-2.5.602-4.898 1.398-7.3.399-1.2.899-2.3 1.5-3.5l.399-.7.101-.198.2-.301.199-.399c.3-.5.7-1 1-1.601 1.5-2 3.2-3.801 5.2-5.301s4.198-2.7 6.6-3.602c2.4-.898 4.801-1.398 7.4-1.601 2.5-.2 5.1.101 7.5.699.6.102 1.1.3 1.6.5l-1.199 1.2-3.699 4.898c-1.3-.2-2.601-.301-3.898-.301-1.8.101-3.7.398-5.399 1-1.699.601-3.398 1.398-4.898 2.5-1.5 1.101-2.8 2.398-4 3.898-.3.399-.602.7-.8 1.102l-.2.3v.102s.102-.101 0 0l-.102.2-.398.699c-.398.699-.8 1.601-1.102 2.5-.699 1.699-1 3.601-1.199 5.5-.101 1.898 0 3.8.5 5.601.399 1.7 1 3.301 1.899 4.801h-6.5c-.602-.996-1-2.195-1.301-3.297z"/></symbol><symbol id="icon-project" viewBox="0 0 68 68"><style>.st0{fill:#010101}</style><path class="st0" d="M63.7 8H32.6l-3-4.6s0-.1-.1-.1C28.2 1.8 26.4 1 24.4 1H3.1C1.9 1 1 1.9 1 3.1v45.4c0 1.8 1.5 3.2 3.3 3.2h19.1c.6 0 1-.4 1-1s-.4-1-1-1H4.3c-.7 0-1.3-.5-1.3-1.2V19.7h62v28.8c0 .7-.6 1.2-1.3 1.2h-1.8c-.6 0-1 .4-1 1s.4 1 1 1h1.8c1.8 0 3.3-1.4 3.3-3.2V11.3C67 10 65.6 8 63.7 8zM3 17.7V3.1C3 3 3 3 3.1 3h21.3c1.4 0 2.7.6 3.5 1.6l3.3 5c.2.3.5.4.8.4h31.6c.7 0 1.3.9 1.3 1.2v6.5H3z"/><path class="st0" d="M51.3 42.8L62.1 33c.7-.6 1.1-1.4 1.1-2.3 0-.9-.3-1.8-.9-2.4l-2.8-3.1c-1.3-1.4-3.4-1.5-4.8-.2l-4.6 4s-.1 0-.1.1L43.5 35 32.3 23.6c-.4-.4-1-.4-1.4 0L20.5 33.8c-.2.2-.3.4-.3.7 0 .3.1.5.3.7l10.8 10.9-7.4 6.8-.2.2-7 12.4c-.2.4-.2.8.1 1.2.3.3.8.4 1.1.2l12.9-5.7c.1 0 .3-.1.4-.2l7.8-7.1c.7.7 12.4 12.6 12.4 12.6.2.2.5.3.7.3.3 0 .5-.1.7-.3l10.4-10.2c.2-.2.3-.4.3-.7 0-.3-.1-.5-.3-.7L51.3 42.8zm-3.2-3.2l5.6-5 1.7 1.8-5.5 5-1.8-1.8zM56 26.4c.6-.5 1.4-.5 2 .1l2.8 3.1c.2.3.4.6.4 1s-.2.7-.4 1l-3.9 3.5-2.3-2.6-2.3-2.6 3.7-3.5zm-5.4 4.9l1.7 1.8-5.6 5.1-1.7-1.8 5.6-5.1zM25.9 53.7l6.8-6.2 1.7 1.7-6.9 6.2-1.6-1.7zm-1.2 1.6l4.2 4.6-9 4 4.8-8.6zm5.9 3.5l-1.8-2 6.9-6.2 1.8 1.9-6.9 6.3zm21.6 5.6l-2.5-2.5 5.8-5.7c.4-.4.4-1 0-1.4-.4-.4-1-.4-1.4 0l-5.8 5.7-2.5-2.5 3.2-3.2c.4-.4.4-1 0-1.4-.4-.4-1-.4-1.4 0l-3.2 3.2-2.4-2.5 5.8-5.7c.4-.4.4-1 0-1.4-.4-.4-1-.4-1.4 0l-5.8 5.7-2.4-2.5 3.2-3.2c.4-.4.4-1 0-1.4-.4-.4-1-.4-1.4 0l-3.2 3.2-2.4-2.5 5.8-5.7c.4-.4.4-1 0-1.4-.4-.4-1-.4-1.4 0L33 44.9l-2.4-2.5 3.2-3.2c.4-.4.4-1 0-1.4-.4-.4-1-.4-1.4 0L29 41l-2.4-2.5 5.8-5.7c.4-.4.4-1 0-1.4-.4-.4-1-.4-1.4 0l-5.8 5.7-2.5-2.6 8.9-8.8 17.5 17.8 12 12.2-8.9 8.7zM6.8 28.2h15.7c.6 0 1-.4 1-1s-.4-1-1-1H6.8c-.6 0-1 .4-1 1 0 .5.5 1 1 1zM6.8 36.1h10.7c.6 0 1-.4 1-1s-.4-1-1-1H6.8c-.6 0-1 .4-1 1s.5 1 1 1z"/><path class="st0" d="M6.8 44.1h15.7c.6 0 1-.4 1-1s-.4-1-1-1H6.8c-.6 0-1 .4-1 1 0 .5.5 1 1 1z"/></symbol><symbol id="icon-pwa" viewBox="0 0 740 280"><g fill-rule="nonzero" fill="none"><path fill="#616161" d="M544.62 229.7l21.378-54.059h61.724L598.43 93.637 635.066.989 740 279.6h-77.385l-17.932-49.9H544.62z"/><path fill="#FB8C00" d="M478.6 279.601L590.935.99H516.46l-76.843 180.046L384.974.99H327.73l-58.672 180.045-41.377-82.043-37.445 115.36 38.018 65.249h73.291l53.02-161.462 50.55 161.462z"/><path d="M70.693 183.958h45.872c13.895 0 26.269-1.551 37.12-4.653l11.863-36.548 33.156-102.146a81.616 81.616 0 0 0-8.653-11.358C173.028 10.41 148.121.989 115.331.989H0V279.6h70.693v-95.643.001zm60.718-118.872c6.65 6.692 9.974 15.648 9.974 26.867 0 11.306-2.924 20.272-8.771 26.9-6.411 7.364-18.215 11.045-35.412 11.045h-26.51v-74.85h26.705c16.027 0 27.365 3.346 34.014 10.038z" fill="#616161"/></g></symbol><symbol id="icon-regular-expressions" viewBox="0 0 175 101"><path d="M11.9 82.2L.6 78.5 31.5.8l11.3 3.9-30.9 77.5zm41.5 0l-11.3-3.7L73 .8l11.3 3.9-30.9 77.5zm90.1-9.9c0 4.867-.7 9.1-2.1 12.7-1.4 3.6-3.367 6.583-5.9 8.95-2.533 2.367-5.617 4.133-9.25 5.3-3.633 1.167-7.65 1.75-12.05 1.75s-8.917-.667-13.55-2c-4.633-1.333-8.65-3.267-12.05-5.8l8.2-11.7c2.4 2.133 5.05 3.717 7.95 4.75 2.9 1.033 5.75 1.55 8.55 1.55 4.8 0 8.35-1.267 10.65-3.8 2.3-2.533 3.45-5.9 3.45-10.1v-3h-.3c-1.533 2-3.6 3.6-6.2 4.8-2.6 1.2-5.567 1.8-8.9 1.8-3.8 0-7.167-.683-10.1-2.05-2.933-1.367-5.417-3.217-7.45-5.55-2.033-2.333-3.583-5.05-4.65-8.15-1.067-3.1-1.6-6.383-1.6-9.85 0-3.467.533-6.767 1.6-9.9 1.067-3.133 2.617-5.9 4.65-8.3 2.033-2.4 4.517-4.317 7.45-5.75 2.933-1.433 6.267-2.15 10-2.15 3.133 0 6.133.633 9 1.9s5.167 3.233 6.9 5.9h.2v-6.4h15.5v45.1zm-15.6-20.5c0-1.667-.283-3.267-.85-4.8a12.207 12.207 0 0 0-2.45-4.05 11.587 11.587 0 0 0-3.8-2.75c-1.467-.667-3.133-1-5-1s-3.517.333-4.95 1c-1.433.667-2.65 1.567-3.65 2.7-1 1.133-1.767 2.467-2.3 4-.533 1.533-.8 3.167-.8 4.9 0 1.667.267 3.267.8 4.8s1.3 2.883 2.3 4.05c1 1.167 2.217 2.1 3.65 2.8 1.433.7 3.083 1.05 4.95 1.05s3.55-.35 5.05-1.05c1.5-.7 2.767-1.617 3.8-2.75s1.833-2.467 2.4-4 .85-3.167.85-4.9zm46.4-40.5c0 1.267-.25 2.45-.75 3.55a9.16 9.16 0 0 1-2 2.85c-.833.8-1.833 1.433-3 1.9a9.739 9.739 0 0 1-3.65.7c-2.667 0-4.9-.883-6.7-2.65-1.8-1.767-2.7-3.883-2.7-6.35 0-1.2.233-2.35.7-3.45a8.18 8.18 0 0 1 2-2.85c.867-.8 1.867-1.45 3-1.95s2.367-.75 3.7-.75c1.267 0 2.483.233 3.65.7 1.167.467 2.167 1.1 3 1.9.833.8 1.5 1.75 2 2.85s.75 2.283.75 3.55zM156.7 77V27.2h16.4V77h-16.4z" fill="#5A5A5A" fill-rule="evenodd"/></symbol><symbol id="icon-resources"><path fill="#454546" d="M149.195 185.906H6a6 6 0 01-6-6V7.311c0-.224.012-.444.036-.661A6 6 0 016-.012h105.362a6 6 0 014.118 1.637l37.833 35.71a5.998 5.998 0 011.881 4.363v138.208a5.999 5.999 0 01-5.999 6zM12 173.906h131.195V44.285l-34.217-32.297H12v161.918z"/><path fill="#52A7DD" d="M96.197 132.519l58.77 61.493 16.706-12.399-58.079-62.46"/><ellipse fill="#52A7DD" cx="77.597" cy="94.288" rx="43.003" ry="40.214"/><path fill="#1D7CBA" d="M52.994 64.786s48.509-6.184 58.368 50.459l2.725 2.604 5.709-15.794-1.576-20.977-28.155-25.286-26.74.554-10.331 8.44z"/><path fill="#454546" d="M147.251 47.202h-35.889a6 6 0 01-6-6V5.988a6 6 0 0112 0v29.214h29.889a6 6 0 010 12zM77.598 140.501c-27.021 0-49.003-20.731-49.003-46.214 0-25.483 21.983-46.216 49.003-46.216s49.003 20.732 49.003 46.216c0 25.483-21.983 46.214-49.003 46.214zm0-80.429c-20.404 0-37.003 15.35-37.003 34.216 0 18.865 16.6 34.214 37.003 34.214s37.003-15.349 37.003-34.214c0-18.867-16.6-34.216-37.003-34.216z"/><path fill="#454546" d="M154.969 200.012a5.989 5.989 0 01-4.339-1.854l-58.77-61.493a6 6 0 018.675-8.291l55.11 57.664 7.07-5.248-53.515-57.551a6 6 0 018.788-8.171l58.079 62.46a6.003 6.003 0 01-.817 8.905l-16.706 12.399a5.996 5.996 0 01-3.575 1.18zM97.993 90.846H57.204a6 6 0 010-12h40.789a6 6 0 010 12zM97.993 110.684H57.204a6 6 0 010-12h40.789a6 6 0 010 12z"/></symbol><symbol id="icon-rss" viewBox="0 0 187 190">
	<path fill="none" stroke="#454546" stroke-width="12" stroke-linecap="round" stroke-linejoin="round" d="M6.366 74.581v33.952s69.81-3.258 74.697 74.971h34.769c0-.001 0-103.219-109.466-108.923z"/>
	<path fill="none" stroke="#454546" stroke-width="12" stroke-linecap="round" stroke-linejoin="round" d="M6.366 6.403v33.952s132.281.544 142.061 143.148h32.595c-.001 0 4.347-162.705-174.656-177.1z"/>
	<circle fill="#52A7DD" cx="27.862" cy="162.269" r="21.496"/>
	<path fill="#1D7CBA" d="M24.247 144.259s21.845 16.865 1.698 35.488c0 0 14.378 5.066 19.34-4.143s4.509-33.316-8.178-34.088c-12.684-.771-12.86 2.743-12.86 2.743z"/>
	<circle fill="none" stroke="#454546" stroke-width="12" stroke-linecap="round" stroke-linejoin="round" cx="27.862" cy="162.269" r="21.496"/>
</symbol><symbol id="icon-serverless" viewBox="0 0 100 100" fill="#1C7CBA"><path d="M50 13c7.156 0 14.355 2.73 19.812 8.188 4.059 4.058 6.52 9.093 7.563 14.344C87.965 37.586 95.998 46.837 95.998 58c0 12.668-10.331 23-23 23H62a2.998 2.998 0 0 1-3.042-3c0-.805.32-1.575.894-2.137A2.982 2.982 0 0 1 62 75h11c9.426 0 17-7.575 17-17 0-8.899-6.769-16.148-15.437-16.938a3 3 0 0 1-2.688-2.625 21.955 21.955 0 0 0-6.313-13.031C61.257 21.102 55.636 19 50 19s-11.223 2.098-15.53 6.407a22.007 22.007 0 0 0-6.313 18.219 3.01 3.01 0 0 1-.723 2.355 3.017 3.017 0 0 1-2.246 1.02H24c-7.809 0-14 6.19-14 14s6.191 14 14 14h14a2.981 2.981 0 0 1 2.148.863A3 3 0 0 1 38 81H24C12.973 81 4 72.028 4 61c0-10.406 8.02-18.883 18.188-19.812-.047-7.239 2.523-14.492 8.03-20C35.673 15.735 42.845 13 50 13zm0 34c1 0 1.527.32 2.031.781l11 10c1.27 1.18 1.246 3.094.188 4.25s-3.086 1.242-4.25.188l-5.97-5.438v27.22a3 3 0 0 1-6 0V56.78l-5.968 5.438c-1.164 1.054-3.129.91-4.25-.188-1.184-1.156-.965-3.183.188-4.25l11-10c.593-.543 1.03-.781 2.03-.781z"/></symbol><symbol id="icon-share" viewBox="0 0 100 100"><path d="M73.449 58.324c-.512 0-1.012.031-1.512.082-.113.012-.218.02-.324.031-.48.063-.957.137-1.437.239-.075.02-.145.043-.22.05-.425.106-.843.22-1.26.356-.083.031-.177.05-.263.082-.449.156-.886.332-1.312.531-.094.043-.188.094-.281.137-.407.199-.793.406-1.176.637a.7.7 0 0 0-.125.074c-.406.25-.8.52-1.176.812-.082.063-.176.137-.262.2-.375.3-.738.605-1.093.937-.032.031-.063.074-.094.105-.324.313-.637.645-.926 1a1.446 1.446 0 0 0-.125.137L41.281 53.437c.012-.05.02-.105.031-.156.051-.23.106-.457.137-.688a.897.897 0 0 0 .02-.175c.042-.23.074-.457.105-.676.012-.113.02-.219.031-.332.02-.176.031-.356.043-.531.02-.293.02-.582.02-.875 0-.293-.012-.582-.02-.875-.012-.125-.02-.25-.031-.375-.012-.168-.02-.325-.043-.489-.012-.113-.031-.218-.05-.332a8.267 8.267 0 0 0-.075-.531c-.012-.074-.031-.137-.043-.207-.043-.207-.082-.418-.125-.625l20.582-10.293c.043.043.082.082.125.137.293.343.605.675.926 1 .031.031.062.074.094.105.343.332.718.645 1.093.938.082.074.176.136.262.199.387.293.77.562 1.176.812a.7.7 0 0 1 .125.075c.387.23.77.437 1.176.636.093.043.187.094.28.137.427.2.864.375 1.313.531.082.032.176.051.262.082.418.137.832.25 1.262.356.074.02.144.043.219.05.468.106.949.176 1.437.239.106.012.219.02.324.031.5.05 1 .082 1.512.082 8.332 0 15.113-6.781 15.113-15.113s-6.781-15.113-15.113-15.113-15.113 6.781-15.113 15.113c0 1.168.137 2.324.395 3.438L38.137 40.305a15.021 15.021 0 0 0-11.574-5.418c-8.332 0-15.125 6.78-15.125 15.113s6.78 15.113 15.125 15.113c4.55 0 8.738-2.012 11.574-5.418L58.73 69.988a15.114 15.114 0 0 0-.395 3.437c0 8.332 6.781 15.113 15.113 15.113s15.113-6.781 15.113-15.113c0-8.344-6.781-15.102-15.113-15.102zm0-39.875c4.469 0 8.105 3.637 8.105 8.105s-3.636 8.106-8.105 8.106a8.05 8.05 0 0 1-7.238-4.488 7.976 7.976 0 0 1-.864-3.614c-.015-4.476 3.633-8.109 8.102-8.109zM33.801 53.613a8.068 8.068 0 0 1-7.238 4.488c-4.47 0-8.106-3.636-8.106-8.105s3.637-8.106 8.106-8.106A8.05 8.05 0 0 1 33.8 46.38a8 8 0 0 1 .863 3.613 7.887 7.887 0 0 1-.863 3.621zm39.648 27.938c-4.469 0-8.105-3.637-8.105-8.105 0-1.262.292-2.481.863-3.614a8.068 8.068 0 0 1 7.238-4.488c4.469 0 8.106 3.637 8.106 8.105s-3.633 8.102-8.102 8.102z"/></symbol><symbol id="icon-smalltalk"><path fill="#52A7DD" d="M6.006 6.006h186.748v139.035h-43.807v48.945L90.33 144.418H6.006z"/><path fill="#1D7CBA" d="M153.28 9.761l18.344 110.063H119.214l23.324 60.623 6.409 3.931.405-8.91.698-24.021-.173-5.94s21.838-2.271 22.36-2.271c.525 0 10.658.086 10.658.086l6.291-2.184 3.569-6.811-1.562-109.541-1.572-18.781-36.341 3.756z"/><path fill="#454546" d="M148.948 199.992a6.004 6.004 0 01-3.878-1.419l-56.938-48.148H6.006A6.005 6.005 0 010 144.419V6.006A6.006 6.006 0 016.006 0h186.748a6.006 6.006 0 016.006 6.006v139.035a6.007 6.007 0 01-6.006 6.006h-37.801v42.939a6.006 6.006 0 01-6.005 6.006zM12.012 138.414H90.33c1.42 0 2.793.504 3.877 1.421l48.734 41.208v-36.002a6.005 6.005 0 016.005-6.006h37.801V12.012H12.012v126.402z"/><path fill="#454546" d="M145.039 56.435H30.686a6.006 6.006 0 010-12.011h114.353a6.006 6.006 0 010 12.011zM76.343 106.002H30.686a6.006 6.006 0 010-12.012h45.658a6.006 6.006 0 11-.001 12.012zM145.039 106.002H99.38a6.007 6.007 0 010-12.012h45.659a6.007 6.007 0 010 12.012z"/></symbol><symbol id="icon-static-sites" viewBox="0 0 21 14"><g fill-rule="nonzero" fill="#1C7CBA"><path d="M5.056 2L0 7l5.056 5 1.415-1.4L2.831 7l3.64-3.6zM15.167 2L13.75 3.4l3.64 3.6-3.64 3.6 1.416 1.4 5.055-5zM9.06 13.994l-1.938-.57L11.162.004l1.938.57z"/></g></symbol><symbol id="icon-stopwatch" viewBox="0 0 100 100" fill="#1D7CBB"><path d="M81.031 38.305l6-5.234-5.086-5.832-6.008 5.238a39.143 39.143 0 0 1 5.094 5.828zm-27.668-12.23V18.11h7.738V6.501H37.886v11.61h7.739v7.964c-17.41 1.926-30.957 16.676-30.957 34.598 0 19.234 15.594 34.824 34.824 34.824 19.234.004 34.828-15.59 34.828-34.82 0-17.926-13.543-32.672-30.957-34.602zm-3.871 61.688c-14.961 0-27.086-12.125-27.086-27.086 0-14.961 12.125-27.086 27.086-27.086 14.96 0 27.086 12.125 27.086 27.086.004 14.961-12.125 27.086-27.086 27.086zm3.871-46.438h-7.738v23.219h19.348v-7.738h-11.61z" fill-rule="evenodd"/></symbol><symbol id="icon-svg" viewBox="0 0 284 284"><g fill="#FFB13B" fill-rule="nonzero"><g stroke-width="38.009" stroke="#000"><path d="M57.851 126.149c-8.754-8.755-22.948-8.755-31.702 0-8.755 8.754-8.755 22.948 0 31.702 8.754 8.755 22.948 8.755 31.702 0H226.15c8.754 8.755 22.948 8.755 31.702 0 8.755-8.754 8.755-22.948 0-31.702-8.754-8.755-22.948-8.755-31.702 0H57.85z"/><path d="M93.706 71.29c0-12.381-10.036-22.418-22.417-22.418-12.38 0-22.417 10.037-22.417 22.417 0 12.381 10.037 22.417 22.417 22.417l119.005 119.005c0 12.38 10.036 22.417 22.417 22.417 12.38 0 22.417-10.037 22.417-22.417 0-12.381-10.037-22.417-22.417-22.417L93.706 71.289z"/><path d="M157.851 57.851c8.755-8.754 8.755-22.948 0-31.702-8.754-8.755-22.948-8.755-31.702 0-8.755 8.754-8.755 22.948 0 31.702V226.15c-8.755 8.754-8.755 22.948 0 31.702 8.754 8.755 22.948 8.755 31.702 0 8.755-8.754 8.755-22.948 0-31.702V57.85z"/><path d="M212.71 93.706c12.381 0 22.418-10.036 22.418-22.417 0-12.38-10.037-22.417-22.417-22.417-12.381 0-22.417 10.037-22.417 22.417L71.289 190.294c-12.38 0-22.417 10.036-22.417 22.417 0 12.38 10.037 22.417 22.417 22.417 12.381 0 22.417-10.037 22.417-22.417L212.711 93.706z"/></g><path d="M57.851 126.149c-8.754-8.755-22.948-8.755-31.702 0-8.755 8.754-8.755 22.948 0 31.702 8.754 8.755 22.948 8.755 31.702 0H226.15c8.754 8.755 22.948 8.755 31.702 0 8.755-8.754 8.755-22.948 0-31.702-8.754-8.755-22.948-8.755-31.702 0H57.85z"/><path d="M93.706 71.29c0-12.381-10.036-22.418-22.417-22.418-12.38 0-22.417 10.037-22.417 22.417 0 12.381 10.037 22.417 22.417 22.417l119.005 119.005c0 12.38 10.036 22.417 22.417 22.417 12.38 0 22.417-10.037 22.417-22.417 0-12.381-10.037-22.417-22.417-22.417L93.706 71.289z"/><path d="M157.851 57.851c8.755-8.754 8.755-22.948 0-31.702-8.754-8.755-22.948-8.755-31.702 0-8.755 8.754-8.755 22.948 0 31.702V226.15c-8.755 8.754-8.755 22.948 0 31.702 8.754 8.755 22.948 8.755 31.702 0 8.755-8.754 8.755-22.948 0-31.702V57.85z"/><path d="M212.71 93.706c12.381 0 22.418-10.036 22.418-22.417 0-12.38-10.037-22.417-22.417-22.417-12.381 0-22.417 10.037-22.417 22.417L71.289 190.294c-12.38 0-22.417 10.036-22.417 22.417 0 12.38 10.037 22.417 22.417 22.417 12.381 0 22.417-10.037 22.417-22.417L212.711 93.706z"/></g></symbol><symbol id="icon-talk"><path fill="#454546" d="M185.628 159.056a5.993 5.993 0 01-3.871-1.417l-44.175-37.358H73.814a5.993 5.993 0 01-5.993-5.993V6.013A5.993 5.993 0 0173.814.02h146.083a5.993 5.993 0 015.992 5.993v108.759a5.993 5.993 0 01-5.992 5.992h-28.276v32.299a5.993 5.993 0 01-5.993 5.993zm-105.821-50.76h59.969c1.417 0 2.788.502 3.87 1.417l35.989 30.433v-25.374a5.993 5.993 0 015.993-5.993h28.275V12.006H79.807v96.29z"/><path fill="#52A7DD" d="M164.017 34.919H5.993v117.649h37.069v41.419l49.602-41.944h71.353z"/><path fill="#1D7CBA" d="M139.584 132.47l-55.259.26-36.199 50.927-5.064 6.88 49.602-38.494 70.251 1.02V34.919l-3.355 1.743z"/><path fill="#454546" d="M131.848 83.944H41.76a5.993 5.993 0 110-11.985h90.088a5.993 5.993 0 010 11.985zM97.951 116.013H41.76a5.994 5.994 0 010-11.986h56.191a5.994 5.994 0 010 11.986zM202.279 51.911h-20.37a5.993 5.993 0 110-11.986h20.37c3.309 0 5.994 2.683 5.994 5.993s-2.685 5.993-5.994 5.993zM202.279 83.944h-20.37a5.993 5.993 0 110-11.985h20.37a5.994 5.994 0 015.994 5.993 5.994 5.994 0 01-5.994 5.992z"/><path fill="#454546" d="M43.061 199.98a5.99 5.99 0 01-5.991-5.994V158.56H5.993A5.993 5.993 0 010 152.568V34.919a5.993 5.993 0 015.993-5.993h158.024a5.994 5.994 0 015.993 5.993v117.124a5.993 5.993 0 01-5.993 5.993H94.858l-47.926 40.526a5.983 5.983 0 01-3.871 1.418zm-31.075-53.405h31.076a5.993 5.993 0 015.993 5.993v28.504l39.739-33.604a6.003 6.003 0 013.87-1.416h65.36V40.912H11.986v105.663z"/></symbol><symbol id="icon-testing" viewBox="8 10 90 92" fill="#10967A"><path d="M85.82 14.969a4.057 4.057 0 0 0-2.75 1.281C72.539 27.27 55.691 45.81 44.508 57.625l-14.094-10.78c-1.66-1.298-4.352-.958-5.637.714-1.28 1.668-.918 4.36.762 5.629l17 13c1.547 1.195 3.992 1.012 5.344-.406 11.199-11.715 29.977-32.465 41-44 1.133-1.14 1.469-2.993.808-4.457-.66-1.465-2.27-2.446-3.87-2.356zM9.976 25.031v56c0 2.094 1.906 4 4 4h56c2.094 0 4-1.906 4-4v-26c.031-2.113-1.887-4.059-4-4.059s-4.031 1.946-4 4.059v22h-48v-48h42c2.113.031 4.059-1.887 4.059-4s-1.946-4.031-4.059-4h-46c-2.203.035-3.957 2.313-4 4z"/></symbol><symbol id="icon-tools" viewBox="0 0 100 100" fill="#1C7CBA"><path d="M50 5C25.148 5 5 25.145 5 50s20.148 45 45 45c24.855 0 45-20.145 45-45S74.855 5 50 5zm11.168 48.434c.77.77 2.281 1.008 3.313.84 3.41-.55 6.902.574 9.343 3.02a10.766 10.766 0 0 1 3.133 8.363.584.584 0 0 1-.578.543c-.188-.004-.188-.004-5.715-4.004a3.386 3.386 0 0 0-2.578-.606 3.406 3.406 0 0 0-2.234 1.414l-.368.528a3.489 3.489 0 0 0 .856 4.855L72.5 72.7c.028.015.055.039.078.062a.59.59 0 0 1 .168.461.568.568 0 0 1-.238.426 10.75 10.75 0 0 1-6.3 2.047 10.74 10.74 0 0 1-7.614-3.172 10.824 10.824 0 0 1-3.02-9.332c.164-1.031-.07-2.547-.84-3.317l-5.261-5.265-1.387 1.394 1.344 1.344c.746.746.746 1.961 0 2.707L34.403 75.082a6.363 6.363 0 0 1-4.531 1.871 6.366 6.366 0 0 1-4.535-1.87l-.461-.462a6.366 6.366 0 0 1-1.872-4.535 6.373 6.373 0 0 1 1.872-4.531l15.05-15.02a1.913 1.913 0 0 1 2.708.004l1.328 1.328 1.394-1.387-5.168-5.172c-.765-.77-2.277-1.008-3.312-.84-3.41.551-6.907-.574-9.348-3.015a10.75 10.75 0 0 1-3.129-8.36.593.593 0 0 1 .29-.468.59.59 0 0 1 .546-.016c.031.012.055.031.086.05l5.371 3.891c.75.547 1.664.758 2.574.606a3.396 3.396 0 0 0 2.239-1.414l.367-.524a3.491 3.491 0 0 0-.856-4.855l-6.16-4.313a.582.582 0 0 1-.254-.472c0-.188.086-.367.238-.48a10.715 10.715 0 0 1 13.91 1.124 10.813 10.813 0 0 1 3.02 9.336c-.164 1.027.074 2.543.844 3.317l5.187 5.19 9.961-9.913c.45-.445 1.082-1.301 1.371-1.867l2.477-4.786c.34-.66 1.129-1.43 1.789-1.761l4.863-2.414c.703-.348 1.766-.168 2.313.379l1.87 1.87c.575.575.723 1.587.34 2.301l-2.535 4.711c-.351.649-1.136 1.422-1.793 1.762l-4.785 2.477c-.562.293-1.422.922-1.867 1.37l-9.91 9.966z"/><path d="M43.91 42.602a.964.964 0 0 0 0 1.355l12.188 12.184a.957.957 0 0 0 1.352-1.355L45.266 42.602a.957.957 0 0 0-1.356 0z"/></symbol><symbol id="icon-twitter-mono" viewBox="0 0 203 190">
	<path fill="#f9f9f9" d="M155.936 42.506h40.851s-35.945 26.2-35.974 26.218c-.193.142 3.154 10.443 3.311 11.087 2.085 8.585 3.476 17.398 3.781 26.234 1.118 32.262-16.411 59.314-46.303 70.701-9.122 3.476-13.61 5.247-23.33 6.327-46.589 5.178-73.218-12.18-91.722-34.552l37.805-26.751S-12.35 83.357 32.159 29.091c0 0 61.042 52.525 61.177 52.639-10.397-8.958-18.13-24.854-17.994-38.576.313-31.339 40.042-46.235 62.243-30.741 5.426 3.789 11.302 12.131 14.288 18.1 1.471 2.949 3.661 11.993 4.063 11.993z"/>
	<circle fill="#444" stroke="#444" stroke-width="12" stroke-linecap="round" stroke-linejoin="round" cx="121.914" cy="46.925" r="11.356"/>
</symbol><symbol id="icon-twitter" viewBox="0 0 203 190">
	<path fill="#52A7DD" d="M155.936 42.506h40.851s-35.945 26.2-35.974 26.218c-.193.142 3.154 10.443 3.311 11.087 2.085 8.585 3.476 17.398 3.781 26.234 1.118 32.262-16.411 59.314-46.303 70.701-9.122 3.476-13.61 5.247-23.33 6.327-46.589 5.178-73.218-12.18-91.722-34.552l37.805-26.751S-12.35 83.357 32.159 29.091c0 0 61.042 52.525 61.177 52.639-10.397-8.958-18.13-24.854-17.994-38.576.313-31.339 40.042-46.235 62.243-30.741 5.426 3.789 11.302 12.131 14.288 18.1 1.471 2.949 3.661 11.993 4.063 11.993z"/>
	<path fill="#1D7CBA" d="M137.108 128.875c-6.886 11.335-16.76 20.67-28.382 27.035-4.793 2.624-9.904 4.688-15.16 6.181-5.103 1.447-10.581 2.603-15.878 3.031a90.904 90.904 0 01-29.141-2.372 133.187 133.187 0 01-20.144-6.705c-1.779-.758-7.495-3.62-9.205-4.522-2.789-1.474-9.356-4.967-12.649-5.014v2.014s33.152 48.827 95.119 33.458c16.19-4.015 34.558-12.748 46.714-24.261 14.865-14.079 19.555-34.314 20.213-54.103.303-9.095-10.609-27.863-13.11-36.641-.303-1.057-.623.973-.655 1.181-.201 1.303-.243 2.621-.449 3.923-.402 2.554-.954 5.082-1.445 7.621-.144.742-.283 1.486-.413 2.232-.634 3.652-1.261 7.307-1.995 10.939a167.376 167.376 0 01-.666 3.13c-2.564 11.446-6.65 22.828-12.754 32.873z"/>
	<path fill="none" stroke="#454546" stroke-width="12" stroke-linecap="round" stroke-linejoin="round" d="M155.936 42.506h40.851s-35.945 26.2-35.974 26.218c-.193.142 3.154 10.443 3.311 11.087 2.085 8.585 3.476 17.398 3.781 26.234 1.212 35.036-21.617 64.38-54.805 73.405-24.273 6.6-50.614 6.706-73.651-4.45-6.029-2.921-12.016-6.656-17.224-10.886-1.446-1.174-15.913-15.425-15.675-15.593l37.805-26.751S-12.35 83.357 32.159 29.091c0 0 61.042 52.525 61.177 52.639-10.397-8.958-18.13-24.854-17.994-38.576.313-31.339 40.042-46.235 62.243-30.741 5.426 3.789 11.302 12.131 14.288 18.1 1.471 2.949 3.661 11.993 4.063 11.993z"/>
	<circle fill="none" stroke="#454546" stroke-width="12" stroke-linecap="round" stroke-linejoin="round" cx="121.914" cy="46.925" r="11.356"/>
</symbol><symbol id="icon-typescript" viewBox="0 0 256 256">
		<polygon fill="#007ACC" transform="translate(128.000000, 128.000000) scale(1, -1) translate(-128.000000, -128.000000) " points="0 128 0 0 128 0 256 0 256 128 256 256 128 256 0 256"/>
		<path d="M146.658132,223.436863 L146.739401,212.953054 L130.079084,212.953054 L113.418767,212.953054 L113.418767,165.613371 L113.418767,118.273689 L101.63464,118.273689 L89.8505126,118.273689 L89.8505126,165.613371 L89.8505126,212.953054 L73.1901951,212.953054 L56.5298776,212.953054 L56.5298776,223.233689 C56.5298776,228.922577 56.6517824,233.676863 56.8143221,233.798768 C56.9362269,233.961308 77.2130522,234.042577 101.797179,234.001943 L146.536227,233.880038 L146.658132,223.436863 Z" fill="#FFFFFF" transform="translate(101.634640, 176.142993) rotate(-180.000000) translate(-101.634640, -176.142993) "/>
		<path d="M206.566631,234.272145 C213.068219,232.646748 218.025679,229.761668 222.57679,225.048018 C224.933616,222.528653 228.428219,217.936907 228.712663,216.839764 C228.793933,216.514684 217.659965,209.037859 210.914568,204.852462 C210.670758,204.689922 209.69552,205.74643 208.598377,207.371827 C205.306949,212.166748 201.852981,214.239129 196.570441,214.604843 C188.809171,215.133097 183.811076,211.069605 183.851711,204.283573 C183.851711,202.292462 184.136155,201.114049 184.948854,199.488653 C186.65552,195.953414 189.825044,193.840399 199.7806,189.533097 C218.106949,181.649922 225.949489,176.448653 230.825679,169.053097 C236.270758,160.804208 237.489806,147.638494 233.792028,137.845478 C229.728536,127.199129 219.651076,119.966113 205.469489,117.568653 C201.080917,116.796589 190.678377,116.918494 185.964727,117.771827 C175.684092,119.600399 165.931711,124.679764 159.917743,131.343891 C157.560917,133.944526 152.969171,140.730557 153.253616,141.218176 C153.37552,141.380716 154.432028,142.030875 155.610441,142.721668 C156.748219,143.371827 161.05552,145.850557 165.119012,148.207383 L172.473933,152.474049 L174.01806,150.198494 C176.171711,146.907065 180.885362,142.396589 183.729806,140.893097 C191.897425,136.585795 203.112663,137.195319 208.639012,142.15278 C210.995838,144.30643 211.971076,146.541351 211.971076,149.83278 C211.971076,152.799129 211.605362,154.099446 210.061235,156.334367 C208.070123,159.178811 204.006631,161.576272 192.466314,166.574367 C179.259965,172.263256 173.571076,175.798494 168.369806,181.406113 C165.362822,184.656907 162.518377,189.858176 161.339965,194.206113 C160.364727,197.822621 160.120917,206.884208 160.892981,210.541351 C163.61552,223.300716 173.245996,232.199764 187.143139,234.841034 C191.653616,235.694367 202.137425,235.369287 206.566631,234.272145 Z" fill="#FFFFFF" transform="translate(194.578507, 176.190240) scale(1, -1) translate(-194.578507, -176.190240) "/>
</symbol><symbol id="icon-unicode" viewBox="0 -10 160 139"><path d="M159.2 128.6h-3.5v-90h-28.2v31L88 0h39.5v30.9h28.2V0h3.5v128.6zM59.8 84.7c0 3.9-1.4 7.2-4.3 10-2.8 2.8-6.1 4.1-10 4.1-3.8 0-7.1-1.3-10-4.1-2.8-2.7-4.1-6.1-4.1-10V0h28.3v84.7h.1zm67.7 43.9H51.4c12.2-2.6 21.6-7.9 28-15.8 5.7-7 8.5-15.1 8.5-24.4V59l39.6 69.6zm-87.6 0H0V0h3.3v88.5c0 9.3 2.8 17.4 8.5 24.4 6.5 7.8 15.8 13.1 28.1 15.7z" fill-rule="nonzero" fill="#BC4041"/></symbol><symbol id="icon-web" viewBox="10 10 80 80" fill="#4A4A4A">
 <path d="m39.25 30.57c2.75-7.8398 6.8594-12.57 10.75-12.57s8 4.7305 10.75 12.57zm0.35156-10.828v-0.003907c-5.957 2.0586-11.176 5.8281-15 10.832h9.8281c1.1211-3.8672 2.8672-7.5273 5.1719-10.832zm-7.8906 30.258c-0.019532-4.9922 0.49609-9.9766 1.5273-14.859h-11.566c-4.8945 9.3008-4.8945 20.418 0 29.719h11.566c-1.0312-4.8828-1.5469-9.8672-1.5273-14.859zm4.5781 0c-0.027343 5 0.52344 9.9883 1.6523 14.859h24.117c1.1289-4.8711 1.6797-9.8594 1.6523-14.859 0.027343-5-0.52344-9.9883-1.6523-14.859h-24.117c-1.1289 4.8711-1.6797 9.8594-1.6523 14.859zm39.109-19.43c-3.8242-5.0039-9.043-8.7734-15-10.832 2.3047 3.3047 4.0508 6.9648 5.1719 10.832zm-15 49.691c5.957-2.0586 11.176-5.8281 15-10.832h-9.8281c-1.1211 3.8672-2.8672 7.5273-5.1719 10.832zm-35.797-10.832c3.8242 5.0039 9.043 8.7734 15 10.832-2.3047-3.3047-4.0508-6.9648-5.1719-10.832zm42.16-34.289c1.0312 4.8828 1.5469 9.8672 1.5273 14.859 0.019532 4.9922-0.49609 9.9766-1.5273 14.859h11.566c4.8945-9.3008 4.8945-20.418 0-29.719zm-27.512 34.289c2.75 7.8398 6.8594 12.57 10.75 12.57s8-4.7305 10.75-12.57z"/>
</symbol></svg>