<?xml version="1.0" standalone="no"?>
<!DOCTYPE svg PUBLIC "-//W3C//DTD SVG 20010904//EN"
 "http://www.w3.org/TR/2001/REC-SVG-20010904/DTD/svg10.dtd">
<svg version="1.0" xmlns="http://www.w3.org/2000/svg"
 width="286.000000pt" height="286.000000pt" viewBox="0 0 286.000000 286.000000"
 preserveAspectRatio="xMidYMid meet">
<metadata>
Created by potrace 1.11, written by Peter Selinger 2001-2013
</metadata>
<g transform="translate(0.000000,286.000000) scale(0.100000,-0.100000)"
fill="#000000" stroke="none">
<path d="M155 2704 l-25 -27 0 -1243 c0 -1272 1 -1294 37 -1294 8 0 11 -5 7
-12 -5 -7 -2 -9 8 -5 9 3 20 1 26 -5 7 -7 16 -6 30 1 27 14 35 14 26 -1 -5 -7
-3 -8 7 -2 18 11 41 12 56 1 6 -5 21 -4 32 2 26 14 34 14 25 -1 -5 -7 -3 -8 7
-3 20 13 49 13 49 1 0 -6 5 -4 10 4 8 12 11 13 19 1 7 -11 9 -11 14 0 4 10 6
10 6 2 1 -7 6 -13 12 -13 5 0 7 6 3 13 -5 7 0 6 11 -3 11 -9 16 -10 11 -3 -4
7 -3 13 1 13 5 0 15 -6 22 -13 11 -9 13 -9 7 1 -4 6 -2 12 3 12 6 0 11 -4 11
-10 0 -5 5 -10 11 -10 5 0 7 6 3 13 -5 7 0 6 11 -3 11 -9 16 -10 11 -2 -8 13
6 17 18 5 10 -10 56 -12 50 -1 -3 4 0 8 5 8 6 0 11 -5 11 -11 0 -8 4 -8 13 0
10 7 17 7 24 0 8 -8 17 -8 31 0 24 13 35 14 29 3 -3 -4 8 -7 23 -7 16 -1 26 3
24 7 -3 4 0 8 5 8 6 0 11 -5 11 -11 0 -8 4 -8 13 0 10 7 17 7 24 0 8 -8 17 -8
31 0 27 14 35 14 26 -2 -5 -8 -2 -8 9 2 11 9 17 10 17 2 0 -6 5 -11 11 -11 5
0 7 6 3 13 -5 7 0 6 11 -3 11 -9 16 -10 11 -2 -9 16 6 16 23 0 11 -11 13 -10
7 0 -4 6 -2 12 3 12 6 0 11 -4 11 -10 0 -5 5 -10 11 -10 5 0 7 6 3 13 -5 7 0
6 11 -3 11 -9 16 -10 11 -3 -4 7 -3 13 1 13 5 0 15 -6 22 -13 11 -9 13 -9 7 0
-9 16 35 13 46 -2 5 -6 8 -5 8 3 0 6 5 12 11 12 5 0 8 -3 6 -7 -3 -5 11 -9 30
-9 24 -1 31 1 22 7 -18 12 30 7 48 -4 7 -4 21 -3 32 3 26 13 34 13 25 -2 -5
-7 -3 -8 7 -3 20 13 49 13 49 1 0 -6 5 -4 10 4 8 12 11 13 19 1 7 -11 9 -11
14 0 4 10 6 10 6 2 1 -7 6 -13 12 -13 5 0 7 6 3 13 -5 7 0 6 11 -3 11 -9 16
-10 11 -2 -9 16 6 16 23 0 11 -10 13 -10 7 0 -4 6 -2 12 3 12 6 0 11 -4 11
-10 0 -5 5 -10 11 -10 5 0 7 6 3 13 -5 7 0 6 11 -3 11 -9 16 -10 11 -2 -8 13
6 17 18 5 10 -10 56 -12 50 -1 -3 4 0 8 5 8 6 0 11 -5 11 -11 0 -8 4 -8 13 0
10 7 17 7 24 0 8 -8 17 -8 31 0 24 13 35 14 29 3 -3 -4 8 -7 23 -7 16 -1 26 3
24 7 -3 4 0 8 5 8 6 0 11 -5 11 -11 0 -8 4 -8 13 0 10 7 17 7 24 0 8 -8 17 -8
31 0 27 14 35 14 26 -2 -5 -8 -2 -8 9 2 11 9 17 10 17 2 0 -6 5 -11 11 -11 5
0 7 6 3 13 -5 7 0 6 11 -3 11 -9 16 -10 11 -2 -4 6 -3 12 1 12 5 0 15 -6 22
-12 11 -10 13 -10 7 0 -4 6 -2 12 3 12 6 0 11 -4 11 -10 0 -5 5 -10 11 -10 5
0 7 6 3 13 -5 7 0 6 11 -3 11 -9 16 -10 11 -2 -4 6 -3 12 1 12 5 0 15 -6 22
-12 11 -10 13 -10 7 -1 -9 16 35 13 46 -2 5 -6 8 -5 8 3 0 6 5 12 11 12 5 0 8
-3 6 -7 -3 -5 11 -9 30 -9 24 -1 31 1 22 7 -18 12 30 7 48 -4 7 -4 21 -3 32 3
26 13 34 13 25 -2 -5 -7 -3 -8 7 -3 20 13 49 13 49 1 0 -6 5 -4 10 4 8 12 11
13 19 1 7 -11 9 -11 14 0 4 10 6 10 6 2 1 -7 6 -13 12 -13 5 0 7 6 3 13 -5 7
0 6 11 -3 11 -9 16 -10 11 -2 -4 6 -3 12 1 12 5 0 15 -6 22 -12 11 -10 13 -10
7 0 -4 6 -2 12 3 12 6 0 11 -4 11 -10 0 -5 5 -10 11 -10 5 0 7 6 3 13 -5 7 0
6 11 -3 11 -9 16 -10 11 -2 -9 16 6 16 23 0 11 -10 13 -10 7 0 -4 6 -2 12 3
12 6 0 11 -4 11 -10 0 -5 5 -10 11 -10 5 0 7 6 3 13 -5 7 0 6 11 -3 11 -9 16
-10 11 -2 -4 6 -3 12 3 12 5 0 12 -4 16 -9 3 -6 14 -9 25 -8 10 1 16 5 14 9
-3 4 3 8 13 8 10 0 26 13 36 29 16 27 17 116 17 1276 l0 1246 -26 24 -27 25
-1249 0 -1249 0 -24 -26z"/>
</g>
</svg>
