<?xml version="1.0" standalone="no"?>
<!DOCTYPE svg PUBLIC "-//W3C//DTD SVG 1.1//EN" "http://www.w3.org/Graphics/SVG/1.1/DTD/svg11.dtd">
<svg xmlns="http://www.w3.org/2000/svg"><metadata>This SVG WebFont was generated by YouWorkForThem.
Copyright Â© 2015 by Connary Fagen. All rights reserved.</metadata><defs><font horiz-adv-x="966" id="ywftsvg"><font-face ascent="1638" bbox="-813 -537.538 1898 1835" cap-height="1272" descent="-410" font-family="" font-stretch="normal" font-weight="300" panose-1="0 0 4 0 0 0 0 0 0 0" underline-position="0" underline-thickness="0" unicode-range="U+0020-FB02" units-per-em="2048" x-height="1026"/><missing-glyph d="M864 1638v-2109h-667v2109h667zM702 1497h-348v-70h138v-77h-140v-70h350v70h-139v77h139v70zM563 1225h-211v-219h350v71h-139v148zM492 1153v-76h-70v76h70zM702 948h-350v-69h140v-78h-140v-70h211v148h139v69zM702 821h-69v-139h-281v-72h350v211zM702 565h-210v-119 h71v50h70v-101h-211v170h-70v-239h350v239zM702 201h-350v-240h350v240zM633 131v-100h-211v100h211zM702 -88h-350v-70h148l-148 -98v-70h350v70h-215l148 98h67v70z" horiz-adv-x="1054"/><glyph d="M834 1253q0 -88 -82 -88q-47 0 -71 31t-29 66.5t-35.5 66.5t-92.5 31q-186 0 -186 -334h203q18 0 18 -18v-25q0 -18 -18 -18h-203v-836q0 -61 121 -76v-53q-213 8 -428 0v53q121 14 121 76v836h-93q-18 0 -18 18v25q0 18 18 18h93q4 193 106 293t254 100t237 -48t85 -118 zM1008 129q0 -61 120 -76v-53q-213 10 -428 0v53q121 14 121 76v709q0 49 -29.5 67.5t-93.5 14.5v53q94 12 176 44t95 32q51 0 51 -50q0 -16 -6 -98t-6 -156v-616z" glyph-name="uniFB01" horiz-adv-x="1169" unicode="fi"/><glyph d="M928 164q0 -96 121 -78v-51q-63 -14 -151.5 -38t-117.5 -24q-41 0 -41 50v1050q0 213 -67.5 250t-130.5 37q-203 0 -203 -334h223q18 0 19 -18v-25q0 -18 -19 -18h-223v-836q0 -61 121 -76v-53q-213 8 -428 0v53q121 14 121 76v836h-93q-18 0 -18 18v25q0 18 18 18h93 q4 197 108.5 295t280.5 98q387 0 387 -366v-889z" glyph-name="uniFB02" horiz-adv-x="1089" unicode="fl"/><glyph d="M864 1638v-2109h-667v2109h667zM702 1497h-348v-70h138v-77h-140v-70h350v70h-139v77h139v70zM563 1225h-211v-219h350v71h-139v148zM492 1153v-76h-70v76h70zM702 948h-350v-69h140v-78h-140v-70h211v148h139v69zM702 821h-69v-139h-281v-72h350v211zM702 565h-210v-119 h71v50h70v-101h-211v170h-70v-239h350v239zM702 201h-350v-240h350v240zM633 131v-100h-211v100h211zM702 -88h-350v-70h148l-148 -98v-70h350v70h-215l148 98h67v70z" glyph-name=".notdef" horiz-adv-x="1054"/><glyph glyph-name="glyph1" horiz-adv-x="0"/><glyph glyph-name="glyph2" horiz-adv-x="681"/><glyph glyph-name="space" horiz-adv-x="450" unicode=" "/><glyph d="M113 1142q0 162 115.5 162.5t115.5 -161.5q0 -82 -43 -309.5t-47 -389.5h-53q-4 160 -46 388t-42 310zM225 -20q-45 0 -77.5 33.5t-32.5 78.5t32.5 79t77.5 34t78 -33t33 -80t-33 -79.5t-78 -32.5z" glyph-name="exclam" horiz-adv-x="456" unicode="!"/><glyph d="M151 1305q34 0 57 -25t19 -59l-51 -361q-6 -25 -26 -25t-25 25l-51 361q-4 35 19.5 59.5t57.5 24.5zM413.5 1305q32.5 0 57.5 -25t21 -59l-52 -361q-6 -25 -26 -25t-25 25l-51 361q-4 35 19.5 59.5t56 24.5z" glyph-name="quotedbl" horiz-adv-x="581" unicode="&quot;"/><glyph d="M1110 954q33 0 29 -30l-2 -35q0 -31 -33 -31h-219l-99 -387h240q31 0 29 -31l-2 -37q-4 -31 -33 -30h-258l-109 -434h-110l110 434h-258l-110 -434h-111l113 434h-187q-31 0 -28 30l2 37q4 31 32 31h205l101 387h-228q-29 0 -28 31l2 35q2 31 32 30h246l111 422h100 l-106 -422h264l108 422h101l-105 -422h201zM680 471l98 387h-262l-96 -387h260z" glyph-name="numbersign" horiz-adv-x="1202" unicode="#"/><glyph d="M915 344q0 -164 -121.5 -267.5t-269.5 -103.5h-8v-98h-65v102q-76 8 -160 41t-105 33q-45 0 -59 -49h-57l-19 287h49q23 0 37 -31q37 -94 131 -156.5t213 -62.5t182.5 64.5t63.5 167.5t-75.5 167t-237.5 136t-256.5 162.5t-94.5 234t102.5 239t278.5 95.5h7v106h65v-111 q59 -6 114.5 -24.5t69.5 -18.5q37 0 48 31h53l14 -268l-33 2q-31 2 -43 31q-37 84 -117.5 138t-175.5 54t-156 -61.5t-61 -153.5t60.5 -149.5t185.5 -111.5t137.5 -61.5t60.5 -31t65.5 -37.5t54 -42t51 -51.5t43 -66.5t28.5 -135z" glyph-name="dollar" unicode="$"/><glyph d="M557 1024q0 -117 -64.5 -200t-169 -83t-168 83t-63.5 200t63 199t169 82t169.5 -82t63.5 -199zM1032 1303h94l-829 -1313h-94zM325 793q103 0 103 230t-103 230t-103 -230t103 -230zM1202 260q0 -117 -64.5 -200t-169 -83t-168 83t-63.5 200t63.5 199t169.5 82t169 -82 t63 -199zM970 29q103 0 103 230t-103 230t-103 -230t103 -230z" glyph-name="percent" horiz-adv-x="1294" unicode="%"/><glyph d="M1384 1034q0 -72 -33.5 -112.5t-53 -63t-62.5 -49.5t-62.5 -41t-72.5 -40t-66.5 -33t-66.5 -31l-56 -23q123 -14 203 -93t82 -181q2 -174 -173 -286t-407 -112t-403.5 115t-171.5 315q0 164 111.5 254t248.5 78q-111 29 -178 105.5t-67 187.5t104.5 196t268.5 85t256 -79 t92 -200q0 -90 -45.5 -148.5t-110.5 -58.5q-39 0 -63.5 18.5t-24.5 49.5t42 75t42 128t-50.5 124.5t-132.5 40.5t-132 -69.5t-50 -171.5t58.5 -185.5t152.5 -107.5l-12 -57q-130 19 -215.5 -62.5t-85.5 -229.5t100.5 -247.5t266 -99.5t272 103t106.5 255q0 80 -40.5 137.5 t-106.5 57.5t-90.5 -56.5t20.5 -103.5h-53q-55 25 -55 75t31.5 83.5t99.5 80.5l237 164q55 39 85 64.5t54.5 69.5t24.5 111t-56 106.5t-149 19.5q-25 -6 -30 16q-4 23 18 33q78 33 160 33t160.5 -63.5t78.5 -176.5z" glyph-name="ampersand" horiz-adv-x="1425" unicode="&amp;"/><glyph d="M151 1305q34 0 57 -25t19 -59l-51 -361q-6 -25 -26 -25t-25 25l-51 361q-4 35 19.5 59.5t57.5 24.5z" glyph-name="quotesingle" horiz-adv-x="301" unicode="'"/><glyph d="M262 607q0 -269 78 -517t217 -393q21 -21 11.5 -29t-21.5 -8h-21q-23 0 -39 14q-182 164 -293.5 409t-111.5 523.5t111.5 523t293.5 408.5q16 14 39 14h17q20 0 27.5 -8t-3.5 -18q-143 -145 -224 -397.5t-81 -521.5z" glyph-name="parenleft" horiz-adv-x="614" unicode="("/><glyph d="M350 607q0 271 -80 522t-223 397q-10 10 -3 18t28 8h16q23 0 39 -14q182 -164 293.5 -408.5t111.5 -523t-111.5 -523.5t-293.5 -409q-16 -14 -39 -14h-20q-18 0 -21.5 10.5t10.5 26.5q139 145 216 392t77 518z" glyph-name="parenright" horiz-adv-x="614" unicode=")"/><glyph d="M303 1065l-61 160q8 70 82 80q74 -10 82 -80l-64 -160q-10 -28 -22.5 -20t-16.5 20zM272 1040q14 -14 2 -28.5t-34 -10.5l-164 37q-55 41 -27 111q45 57 111 29zM377 1040l112 138q63 27 111 -29q29 -68 -27 -111l-163 -37q-23 -4 -35 10.5t2 28.5zM242 969 q20 4 31.5 -10.5t-3.5 -28.5l-110 -137q-66 -29 -111 28q-29 70 27 113zM408 969l165 -35q53 -45 27 -113q-47 -55 -111 -28l-110 137q-14 14 -2.5 28.5t31.5 10.5zM303 909q8 20 20.5 20.5t20.5 -20.5l62 -159q-8 -70 -82 -80q-74 10 -82 80z" glyph-name="asterisk" horiz-adv-x="649" unicode="*"/><glyph d="M860 571v-75h-319v-320h-78v320h-320v75h320v322h78v-322h319z" glyph-name="plus" horiz-adv-x="1003" unicode="+"/><glyph d="M250 -31q0 14 -4 21q-20 -4 -47 -4t-56.5 30.5t-29.5 76.5t31.5 78t83.5 32t86 -45t34 -113t-33 -137.5t-88 -118.5q-16 -14 -30 0l-15 21q68 72 68 159z" glyph-name="comma" horiz-adv-x="460" unicode=","/><glyph d="M72 563h553v-98h-553v98z" glyph-name="hyphen" horiz-adv-x="696" unicode="-"/><glyph d="M213 -20q-45 0 -78 33.5t-33 78.5t33 79t78 34t79 -33t34 -80t-34 -79.5t-79 -32.5z" glyph-name="period" horiz-adv-x="428" unicode="."/><glyph d="M639 1477h115l-547 -1641h-115z" glyph-name="slash" horiz-adv-x="845" unicode="/"/><glyph d="M1079 641q0 -172 -51 -320.5t-168 -250t-282.5 -101.5t-335.5 146t-170 526q0 268 131 465t375 197q166 0 282.5 -99.5t167.5 -245t51 -317.5zM576 33q162 0 229 150.5t67 455.5t-67 454.5t-229 149.5t-229.5 -149.5t-67.5 -454.5t67.5 -455.5t229.5 -150.5z" glyph-name="zero" horiz-adv-x="1150" unicode="0"/><glyph d="M420 129q0 -61 121 -76v-53q-213 8 -428 0v53q119 14 118 76v946q0 51 -25.5 61.5t-113.5 0.5v57q144 19 205 56.5t84 37.5q51 0 51 -49q0 -20 -6 -99t-6 -153v-858z" glyph-name="one" horiz-adv-x="632" unicode="1"/><glyph d="M844 0h-778l-5 53q276 254 404 414q240 297 240 516q0 121 -55.5 191.5t-158 70.5t-160 -65.5t-57.5 -178.5q0 -47 13.5 -81.5t13.5 -66.5t-29.5 -55.5t-74.5 -23.5t-81 41t-36 119q0 156 108.5 263.5t309.5 107.5t305 -102.5t104 -248.5t-92 -286t-206 -242t-343 -276 h430q74 0 112 12t58 49l64 125h53l-74 -289q-12 -47 -65 -47z" glyph-name="two" horiz-adv-x="1034" unicode="2"/><glyph d="M1018 398q0 -168 -148 -295.5t-338 -127.5t-310 91.5t-136 197.5q-8 59 15.5 95t75.5 36t73.5 -36.5t40.5 -112.5q49 -211 235 -211q127 0 208 95.5t81 235.5t-67.5 215.5t-141.5 75.5t-174 -45l-31 70l84 35q238 98 236 299q0 100 -53.5 164.5t-144.5 64.5t-143 -61.5 t-52 -165.5q0 -43 10 -78t10 -61q0 -80 -86 -80q-51 0 -89 43t-38 121q0 152 107.5 247t280.5 95t275.5 -86t102.5 -201q0 -203 -268 -293q158 35 271.5 -62t113.5 -265z" glyph-name="three" horiz-adv-x="1089" unicode="3"/><glyph d="M877 379h-97v-250q0 -37 32 -52.5t114 -23.5v-53q-242 10 -488 0v53q84 8 116 23.5t32 52.5v250h-492l-22 88l645 838h63v-834h37q76 0 105 53l22 41h43l-41 -139q-12 -47 -69 -47zM586 471v576l-443 -576h443z" glyph-name="four" horiz-adv-x="1058" unicode="4"/><glyph d="M551 874q195 0 322.5 -132t127.5 -320t-142.5 -317.5t-334.5 -129.5t-313 90.5t-137 198.5q-8 59 15.5 95t63.5 36t58 -10t32.5 -41.5t38.5 -112.5q23 -81 76.5 -138.5t171.5 -57.5t193.5 97t75.5 263t-96.5 279.5t-237.5 113.5t-268 -118h-64l53 602h453q135 0 166 57 h88l-41 -160q-12 -47 -66 -47h-559l-34 -399q57 70 152 110.5t206 40.5z" glyph-name="five" horiz-adv-x="1073" unicode="5"/><glyph d="M613 1247q-196 0 -266.5 -182t-74.5 -397q33 47 117 97t201 50q168 0 288.5 -110.5t120.5 -285.5t-124.5 -309.5t-321.5 -134.5q-240 0 -360.5 178.5t-120.5 446.5t96 423t204.5 217.5t244.5 62.5t253 -76l-47 -66q-109 86 -210 86zM270 565q0 -242 79 -385t204 -143 q88 0 168 80t80 301q0 137 -63.5 237.5t-178.5 100.5t-202 -69t-87 -122z" glyph-name="six" horiz-adv-x="1071" unicode="6"/><glyph d="M330 -25q-37 0 -57.5 19.5t-20.5 51.5t182 383t357 693h-449q-134 0 -167.5 -30.5t-51.5 -67.5h-62l70 266h43q74 -18 186 -18h555l-491 -1217q-35 -80 -94 -80z" glyph-name="seven" unicode="7"/><glyph d="M1032 346q0 -147 -125 -260t-355 -113t-355 113t-125 260q0 111 75.5 206t221.5 132q-111 43 -162 127.5t-51 152.5t19.5 120.5t62.5 103.5t123.5 84t189 33t189.5 -33t142.5 -107.5t61.5 -172.5q0 -97 -50 -181t-161 -127q147 -37 223 -132t76 -206zM550 1245 q-212 0 -212 -268t212 -268t212 268t-212 268zM551 37q139 0 205.5 82t66.5 225t-67.5 227t-204.5 84t-204.5 -84t-67.5 -227t66.5 -225t205.5 -82z" glyph-name="eight" horiz-adv-x="1103" unicode="8"/><glyph d="M454 39q198 0 269.5 183.5t71.5 393.5q-31 -45 -116 -96t-202 -51q-166 0 -286.5 111.5t-120.5 285.5t125 308.5t305 134.5t338.5 -128.5t158.5 -483.5t-164.5 -535t-394.5 -180q-122 0 -239 75l45 66q106 -84 210 -84zM799 719q0 242 -80 385t-203 143q-88 0 -168 -79.5 t-80 -301.5q0 -137 63.5 -236.5t178.5 -99.5t202 68t87 121z" glyph-name="nine" horiz-adv-x="1069" unicode="9"/><glyph d="M216 662q-46 0 -79 32.5t-33 78.5t33 79t78 33t79 -33t34 -79t-33 -78.5t-79 -32.5zM217 -20q-45 0 -79 32.5t-34 79.5t34 80t79 33t78 -34t33 -79t-33 -78.5t-78 -33.5z" glyph-name="colon" horiz-adv-x="450" unicode=":"/><glyph d="M214 659q-46 0 -79 33t-33 79t33 79t78 33t79 -33t34 -79t-33 -79t-79 -33zM250 -31q0 14 -4 21q-20 -4 -47 -4t-56.5 30.5t-29.5 76.5t31.5 78t83.5 32t86 -45t34 -113t-33 -137.5t-88 -118.5q-16 -14 -30 0l-15 21q68 72 68 159z" glyph-name="semicolon" horiz-adv-x="454" unicode=";"/><glyph d="M143 569q377 143 756 351v-78q-397 -225 -700 -328q315 -109 700 -328v-77q-379 207 -756 350v110z" glyph-name="less" horiz-adv-x="1042" unicode="&lt;"/><glyph d="M143 758h717v-76h-717v76zM143 389h717v-76h-717v76z" glyph-name="equal" horiz-adv-x="1044" unicode="="/><glyph d="M899 569v-110q-379 -143 -756 -350v77q385 219 701 328q-303 102 -701 328v78q377 -208 756 -351z" glyph-name="greater" horiz-adv-x="1042" unicode=">"/><glyph d="M715 1002q0 102 -56.5 172.5t-153.5 70.5t-152.5 -66.5t-55.5 -177.5q0 -47 14.5 -81.5t14.5 -66.5t-30 -55.5t-75 -23.5t-82 41t-37 121q0 156 106.5 262.5t304.5 106.5t301.5 -101.5t103.5 -251.5t-96.5 -235.5t-196.5 -173.5t-111 -230h-63q-22 126 47 221t112 152 t74 135.5t31 180.5zM479 -20q-45 0 -77.5 32.5t-32.5 79.5t32.5 80t77.5 33t78 -34t33 -79t-33 -78.5t-78 -33.5z" glyph-name="question" horiz-adv-x="1019" unicode="?"/><glyph d="M727 -170q-270 0 -462.5 195.5t-192.5 484.5t191.5 483.5t465.5 194.5t468 -188.5t194 -487.5q0 -158 -90.5 -268.5t-220.5 -110.5t-183 143q-92 -152 -268 -151q-94 0 -161 46t-67 143t106.5 167t385.5 107v51q0 51 -7 88t-30 69.5t-105 32.5q-81 0 -118 -29.5 t-37 -111.5q0 -49 -73 -49t-72 61q0 74 87 130.5t230 56.5t209.5 -63.5t66.5 -209.5v-335q0 -88 64 -89q51 0 73.5 96.5t22.5 225.5q0 274 -120.5 444t-356.5 170q-158 0 -312.5 -126.5t-154.5 -487.5q0 -260 126 -443.5t341 -183.5v-55zM561 321q-1 -120 121 -120 q62 0 120 45t91 94v192q-254 -40 -293 -97t-39 -114z" glyph-name="at" horiz-adv-x="1462" unicode="@"/><glyph d="M1124 180q18 -50 28 -68q28 -49 157 -59v-53q-246 10 -496 0v53q109 8 125 34t-14 87l-95 256h-452l-92 -270q-16 -51 24.5 -74t139.5 -33v-53q-217 10 -429 0v53q96 8 139.5 38t67.5 102l373 1089h111zM395 489h412l-213 582z" glyph-name="A" horiz-adv-x="1329" unicode="A"/><glyph d="M1010 982.5q0 -99.5 -54.5 -162t-185.5 -115.5q178 -20 280.5 -112.5t102.5 -230.5q0 -170 -139.5 -266t-395.5 -96h-567v53q84 6 114 21.5t30 52.5v979q0 49 -31 77.5t-109 37.5v51q80 -4 162 -4l295 4q292 0 395 -95t103 -194.5zM811 954.5q0 118.5 -68.5 187 t-193.5 68.5t-162 -2v-532q246 33 335 96.5t89 182zM606 63q340 0 340 291q0 129 -83 218.5t-222 89.5l-254 -41v-496q0 -41 18.5 -51.5t100.5 -10.5h100z" glyph-name="B" horiz-adv-x="1204" unicode="B"/><glyph d="M968.5 14q-42.5 0 -128.5 -20.5t-166 -20.5q-270 0 -436 190.5t-166 476.5t163.5 475.5t423.5 189.5q74 0 160 -19.5t132.5 -19.5t72.5 4q37 -193 109 -348h-95q-66 160 -164 240.5t-244 80.5t-247.5 -128t-101.5 -420t114.5 -475t290.5 -183q119 0 204 73.5t177 233.5 h104q-102 -178 -133 -334q-27 4 -69.5 4z" glyph-name="C" horiz-adv-x="1212" unicode="C"/><glyph d="M508 1272q317 0 497.5 -158t180.5 -469t-174 -478t-404 -167q-57 0 -156.5 15.5t-178.5 15.5t-222 -31v55q82 20 113 38t31 57v956q0 51 -30 78.5t-110 36.5v51q20 -6 233.5 -3t219.5 3zM387 166q0 -57 49 -79t139 -24q401 -8 402 572q0 260 -111.5 421t-339.5 156 q-80 0 -139 -4v-1042z" glyph-name="D" horiz-adv-x="1267" unicode="D"/><glyph d="M195 135v1012q0 37 -30 52t-114 22v51h836q20 0 25.5 -7.5t9.5 -29.5l26 -217h-55l-23 43q-41 80 -91 114.5t-126 34.5h-247q-18 0 -19 -18v-514h264q70 0 96.5 31.5t43.5 103.5h51q-14 -166 0 -332h-51q-16 72 -43 103.5t-97 31.5h-264v-534q0 -16 19 -16h225 q90 0 142 28.5t85 91.5l66 131h59q-43 -129 -61 -315q-440 6 -871 0v61q86 8 115 21.5t29 50.5z" glyph-name="E" horiz-adv-x="1044" unicode="E"/><glyph d="M655 1210h-249q-18 0 -19 -18v-514h264q70 0 96.5 31.5t43.5 103.5h51q-14 -166 0 -332h-51q-16 72 -43 103.5t-97 31.5h-264v-491q0 -37 28.5 -50.5t114.5 -21.5v-53q-240 8 -479 0v53q86 8 115 21.5t29 50.5v1022q0 37 -30 52t-114 22v51h838q20 0 25.5 -7t9.5 -30 l24 -217h-55l-21 43q-41 80 -91 114.5t-126 34.5z" glyph-name="F" horiz-adv-x="999" unicode="F"/><glyph d="M1135 344v-61q0 -98 6 -181l39 -4q14 -2 14 -16v-45q-33 6 -95.5 6t-182 -35t-236.5 -35q-276 0 -442 190.5t-166 476.5t162.5 475.5t422.5 189.5q74 0 161 -19.5t133.5 -19.5t72.5 4q37 -193 109 -348h-95q-66 160 -163 240.5t-244 80.5t-248.5 -128t-101.5 -420 t114.5 -475t290.5 -183q96 0 149.5 15.5t80 64.5t31.5 102t5 113v76q0 86 -15 108.5t-93 28.5l-53 6v51q264 -8 473 2v-53l-52 -8q-29 -5 -45 -19q-32 -28 -32 -180z" glyph-name="G" horiz-adv-x="1314" unicode="G"/><glyph d="M1120 1145v-1016q0 -37 32 -52.5t114 -23.5v-53q-242 10 -488 0v53q84 8 116 23.5t32 52.5v477h-535v-477q0 -37 32 -52.5t116 -23.5v-53q-244 10 -488 0v53q84 8 116 23.5t32 52.5v1016q0 37 -31 51t-117 25v51q244 -10 488 0v-51q-86 -10 -117 -24.5t-31 -51.5v-479 h535v479q0 37 -31 51t-117 25v51q246 -10 488 0v-51q-84 -10 -115 -24.5t-31 -51.5z" glyph-name="H" horiz-adv-x="1316" unicode="H"/><glyph d="M391 129q0 -37 32 -52.5t116 -23.5v-53q-244 10 -488 0v53q84 8 116 23.5t32 52.5v1016q0 37 -31 51t-117 25v51q244 -10 488 0v-51q-86 -10 -117 -24.5t-31 -51.5v-1016z" glyph-name="I" horiz-adv-x="589" unicode="I"/><glyph d="M410 1145v-946q0 -305 -114 -431t-337 -126v55q123 0 189.5 95t66.5 237v1116q0 37 -30.5 51t-114.5 25v51q242 -10 485 0v-51q-84 -10 -114.5 -24.5t-30.5 -51.5z" glyph-name="J" horiz-adv-x="606" unicode="J"/><glyph d="M381 129q0 -37 31.5 -52.5t115.5 -23.5v-53q-244 10 -487 0v53q84 8 115.5 23.5t31.5 52.5v1016q0 37 -30.5 51t-116.5 25v51q244 -10 487 0v-51q-86 -10 -116.5 -24.5t-30.5 -51.5v-557l483 557q33 37 -5 53t-124 23v51q203 -10 410 0v-51q-78 -6 -118 -17.5t-73 -48.5 l-395 -455l365 -477q70 -90 145.5 -142t128.5 -56l-57 -54q-137 0 -227.5 38t-170.5 147l-303 405l-59 -67v-365z" glyph-name="K" horiz-adv-x="1249" unicode="K"/><glyph d="M188 133v1012q0 37 -30.5 51t-116.5 25v51q244 -10 487 0v-51q-86 -10 -116.5 -24.5t-30.5 -51.5v-1065q0 -16 18 -17h240q90 0 142.5 28t82.5 93l66 131h59q-47 -150 -59 -315q-446 8 -885 0v59q86 10 114.5 23.5t28.5 50.5z" glyph-name="L" horiz-adv-x="1030" unicode="L"/><glyph d="M1323 129q0 -37 31.5 -52.5t113.5 -23.5v-53q-242 10 -487 0v53q84 8 115.5 23.5t31.5 52.5v965l-372 -1094l-475 1098v-969q0 -37 42 -51.5t146 -24.5v-53q-223 10 -438 0v53q102 10 142 24.5t40 51.5v1004q0 41 -38 59t-124 29v51q178 -10 357 0l395 -940l321 940 q168 -10 340 0v-49q-80 -8 -110.5 -23.5t-30.5 -52.5v-1018z" glyph-name="M" horiz-adv-x="1499" unicode="M"/><glyph d="M1055 1145v-1145h-56l-714 1098v-969q0 -37 41 -51.5t145 -24.5v-53q-221 10 -440 0v53q104 10 144 24.5t40 51.5v1004q0 39 -38 58t-124 30v51q174 -8 348 0l584 -903v776q0 37 -39 50t-147 26v51q221 -10 440 0v-51q-106 -12 -145 -25.5t-39 -50.5z" glyph-name="N" horiz-adv-x="1269" unicode="N"/><glyph d="M1200 644q0 -288 -153.5 -479.5t-403.5 -191.5t-410.5 191.5t-160.5 478.5t155.5 474.5t407.5 187.5t408.5 -186.5t156.5 -474.5zM670 35q139 0 232 134t93 422t-109.5 471t-281.5 183q-137 0 -230 -130t-93 -418t109.5 -475t279.5 -187z" glyph-name="O" horiz-adv-x="1271" unicode="O"/><glyph d="M1049 934q0 -315 -603 -397l-59 -9v-401q0 -37 29.5 -52.5t113.5 -21.5v-53q-240 8 -479 0v53q84 6 114 21.5t30 52.5v979q0 49 -31 77.5t-109 37.5v51q80 -4 170 -4l320 4q504 0 504 -338zM850 928q0 129 -72.5 205.5t-214 76.5t-176.5 -2v-620l66 8q219 31 308 117 t89 215z" glyph-name="P" horiz-adv-x="1089" unicode="P"/><glyph d="M1339 -100q0 -135 -74.5 -212t-201.5 -77q-70 0 -134.5 36t-105.5 79t-101 78.5t-137 35.5t-134.5 -31.5t-75.5 -72.5h-172q37 72 165 136.5t267 96.5q-242 0 -402.5 194.5t-160.5 478.5t161.5 473.5t415.5 189.5t414 -183.5t160 -463t-117 -448.5t-387 -253 q-246 -72 -307 -117q102 45 206.5 45t243.5 -54t214 -54t132.5 39t61.5 84h69zM281 697q0 -292 109.5 -478t273.5 -186t257 150.5t97 410.5q0 281 -115 465t-270 184t-253.5 -127t-98.5 -419z" glyph-name="Q" horiz-adv-x="1282" unicode="Q"/><glyph d="M1051 934q0 -254 -410 -361l188 -278q78 -113 165 -183.5t149 -74.5l-37 -53q-129 0 -232.5 60t-207.5 202l-215 291h-13l-51 -9v-401q0 -37 29.5 -52.5t113.5 -21.5v-53q-240 8 -479 0v53q84 6 114 21.5t30 52.5v979q0 49 -31 77.5t-109 37.5v51q80 -4 170 -4l320 4 q506 0 506 -338zM850 931q0 128 -71.5 203.5t-214 75.5t-177.5 -2v-622l57 8q227 41 316.5 125t89.5 212z" glyph-name="R" horiz-adv-x="1173" unicode="R"/><glyph d="M727 271q0 103 -76 167t-237.5 135.5t-256 162.5t-94.5 234.5t102.5 239t278.5 95.5q92 0 169 -24t87 -24q37 0 48 31h53l14 -268l-33 2q-31 2 -43 31q-37 84 -117.5 138t-175.5 54t-156 -61.5t-61 -153.5q1 -92 61 -150t256 -142q54 -24 66.5 -31t60.5 -30.5t65.5 -37.5 t54 -42t51 -51.5t43 -66.5t28.5 -135q0 -164 -121.5 -267.5t-269.5 -103.5q-109 0 -216 39t-122 39q-45 0 -59 -49h-57l-19 287h49q23 0 37 -31q37 -94 131 -156.5t213 -62.5t182.5 64.5t63.5 167.5z" glyph-name="S" unicode="S"/><glyph d="M821 1212h-186v-1083q0 -37 31.5 -52.5t113.5 -23.5v-53q-244 10 -485 0v53q82 8 113.5 23.5t31.5 52.5v1083h-168q-61 0 -91.5 -34.5t-94.5 -163.5h-55l73 278h46q74 -20 174 -20h489q104 0 174 20h45l-71 -278h-56q10 113 -6 155.5t-78 42.5z" glyph-name="T" horiz-adv-x="1062" unicode="T"/><glyph d="M1192 1145v-1016q0 -37 31.5 -52.5t113.5 -23.5v-53q-229 8 -372 0v53q33 27 32 76v96q-53 -100 -155.5 -172.5t-270 -72.5t-280.5 112.5t-113 294.5v758q0 37 -30.5 51t-116.5 25v51q248 -10 491 0v-51q-84 -10 -114.5 -24.5t-30.5 -51.5v-760q0 -154 70.5 -244 t192.5 -90t215 79t142 183v832q0 37 -30.5 51t-116.5 25v51q246 -10 487 0v-51q-84 -10 -114.5 -24.5t-30.5 -51.5z" glyph-name="U" horiz-adv-x="1368" unicode="U"/><glyph d="M610 -18l-440 1165q-14 37 -42 51t-108 23v51q242 -8 480 0v-51q-84 -10 -113 -24.5t-14 -49.5l344 -899l309 899q12 35 -23.5 49t-128.5 25v51q201 -8 406 0v-51q-92 -10 -132 -24.5t-52 -49.5l-410 -1165h-76z" glyph-name="V" horiz-adv-x="1300" unicode="V"/><glyph d="M1487 1272q207 -10 411 0v-51q-92 -10 -132 -24.5t-52 -49.5l-375 -1165h-75l-320 913l-291 -913h-75l-408 1165q-12 37 -41 51t-109 23v51q242 -8 480 0v-51q-82 -10 -111 -24.5t-16 -49.5l309 -899l225 751l-51 148q-12 37 -38.5 51t-98.5 23v51q231 -8 475 0v-51 q-86 -10 -116.5 -24.5t-18.5 -49.5l309 -899l279 899q10 35 -27 49t-133 25v51z" glyph-name="W" horiz-adv-x="1918" unicode="W"/><glyph d="M981 174q39 -66 69.5 -90.5t96.5 -30.5v-53q-205 8 -418 0v53q47 6 70.5 23.5t11.5 42.5l-246 409l-254 -389q-23 -37 4 -58.5t91 -27.5v-53q-182 10 -355 0v53q139 14 207 119l270 418l-297 500q-37 59 -76.5 91.5t-103.5 39.5v51q211 -10 422 0v-51q-45 -8 -65.5 -31 t-4.5 -47l232 -389l237 368q23 33 -9 61.5t-95 37.5v51q178 -10 356 0v-51q-117 -14 -196 -131l-258 -396z" glyph-name="X" horiz-adv-x="1198" unicode="X"/><glyph d="M713 129q0 -37 31.5 -52.5t115.5 -19.5v-57q-244 10 -487 0v53q84 8 115.5 23.5t31.5 52.5v416l-332 598q-39 72 -157 78v51q244 -6 487 0v-51q-78 -4 -103.5 -24.5t-6.5 -53.5l276 -512l256 493q25 47 -7 70t-126 27v51q203 -6 405 0v-51q-92 -4 -134 -28t-68 -73 l-297 -573v-418z" glyph-name="Y" horiz-adv-x="1243" unicode="Y"/><glyph d="M981 43v-43q-469 8 -940 0l756 1214h-482q-59 0 -85.5 -32.5t-94.5 -167.5h-57l74 278h45q70 -20 174 -20h678l-752 -1213h328q57 0 102 19.5t66.5 40t52.5 57.5l110 135h88q-74 -117 -126 -241l38 -7q25 -2 25 -20z" glyph-name="Z" horiz-adv-x="1110" unicode="Z"/><glyph d="M506 -322v-18l-414 18v1858l414 18v-18q0 -29 -43 -33l-197 -16v-1759l197 -17q43 -4 43 -33z" glyph-name="bracketleft" horiz-adv-x="557" unicode="["/><glyph d="M211 1477l547 -1641h-115l-547 1641h115z" glyph-name="backslash" horiz-adv-x="845" unicode="\"/><glyph d="M51 1536v18l414 -18v-1858l-414 -18v18q0 29 43 33l197 17v1759l-197 16q-43 4 -43 33z" glyph-name="bracketright" horiz-adv-x="557" unicode="]"/><glyph d="M690 924h-35q-6 0 -34 24l-244 264l-244 -264q-20 -25 -33 -24h-37q-14 0 -20 13t4 28l311 417q23 27 37 0l312 -417q10 -14 5 -27.5t-22 -13.5z" glyph-name="asciicircum" horiz-adv-x="753" unicode="^"/><glyph d="M61 -41h1049v-86h-1049v86z" glyph-name="underscore" horiz-adv-x="1222" unicode="_"/><glyph d="M524 1180l-16 -31l-356 139q-33 14 -44.5 46t5 62.5t52.5 33t71 -24.5z" glyph-name="grave" horiz-adv-x="626" unicode="`"/><glyph d="M846 195q0 -49 28.5 -65.5t92.5 -10.5v-58q-86 -20 -165 -54t-102 -34q-43 0 -41 50l11 157q-45 -84 -126 -145.5t-197 -61.5t-206 64.5t-90 204t129 235.5t479 170v62q0 155 -13 204.5t-36.5 63.5t-88 14t-117 -31.5t-69 -75.5t-26.5 -89t-31.5 -77t-65.5 -32 t-66.5 23.5t-22.5 62.5q0 111 124 191.5t301 80.5t237.5 -71.5t60.5 -263.5v-514zM420 59q82 0 146.5 68t92.5 139v324q-263 -57 -347 -170q-62 -83 -62 -171.5t44 -139t126 -50.5z" glyph-name="a" horiz-adv-x="997" unicode="a"/><glyph d="M613 1042q175 0 298 -143t123 -389t-128 -389.5t-304 -143.5q-88 0 -175 50.5t-122 50.5q-72 0 -96 -78h-33q-33 0 -33 37v1089q0 92 -123 76v53q90 14 173 53.5t96 39.5q41 0 41 -50v-389q108 133 283 133zM590 31q127 0 185.5 104.5t58.5 329.5t-64.5 371.5t-198 146.5 t-241.5 -143v-588q4 -68 83 -144.5t177 -76.5z" glyph-name="b" horiz-adv-x="1105" unicode="b"/><glyph d="M844 219q12 0 17 -10t-1 -27q-90 -203 -323 -202q-209 0 -342.5 146t-133.5 387t128 385t321 144q160 0 258 -76.5t100 -179.5q0 -35 -26.5 -62.5t-66.5 -27.5t-67.5 23.5t-25.5 58.5q8 209 -150 209q-125 0 -195.5 -119.5t-70.5 -341.5t79 -354.5t202 -132.5 q96 0 155.5 47t75.5 115q4 18 23 18h43z" glyph-name="c" horiz-adv-x="929" unicode="c"/><glyph d="M942 197q0 -49 28.5 -65.5t92.5 -10.5v-60q-86 -20 -165 -54t-101 -34q-47 0 -41 54l16 129q-18 -66 -93 -122.5t-190 -56.5q-188 0 -313 148.5t-125 393.5t128 384t297 139t280 -141v217q0 90 -123 78v59q90 14 173 53.5t97 39.5q39 0 39 -50v-1101zM530 37 q94 0 156 70.5t70 154.5v569q-109 156 -254 156q-250 0 -250 -426q0 -225 71.5 -374.5t206.5 -149.5z" glyph-name="d" horiz-adv-x="1103" unicode="d"/><glyph d="M856 219q12 0 17.5 -9t-1.5 -26q-86 -205 -340 -204q-205 0 -338 148t-133 390t127 383q126 141 308 141t295.5 -111.5t113.5 -305.5q0 -109 -94 -109h-543q0 -225 76 -351t211 -126q162 0 240 151q10 29 34 29h27zM721 573q0 414 -213 414q-117 0 -178.5 -109.5 t-61.5 -304.5h453z" glyph-name="e" unicode="e"/><glyph d="M338 1026h223q18 0 19 -18v-25q0 -18 -19 -18h-223v-836q0 -61 121 -76v-53q-213 8 -428 0v53q121 14 121 76v836h-93q-18 0 -18 18v25q0 18 18 18h93q6 371 315 371q94 0 167 -50.5t73 -117.5q0 -45 -17.5 -66.5t-65.5 -21.5t-66.5 30.5t-16.5 68.5q5 99 -62 99 q-147 0 -142 -226q1 -44 1 -87z" glyph-name="f" horiz-adv-x="716" unicode="f"/><glyph d="M940 1040q55 0 71.5 -18t16.5 -66q0 -76 -51 -69q-82 12 -86 12q-59 0 -39 -57q37 -84 37 -162q0 -154 -107.5 -259.5t-285.5 -105.5q-45 0 -117 14.5t-103 14.5q-82 0 -81 -59q0 -37 46 -57.5t142 -34.5l250 -39q180 -27 263 -88.5t83 -195.5t-135 -224t-338 -90 t-320.5 75.5t-117.5 214.5q0 68 31.5 112t90.5 44q84 0 84 -72q0 -23 -12 -62.5t-12 -80.5q0 -72 70.5 -125t208 -53t214 64.5t76.5 179.5q0 70 -43 99.5t-145 49.5l-330 55q-129 25 -184.5 69t-55.5 111.5t58.5 109.5t156.5 34q-80 45 -129 125t-49 174q0 156 103.5 259 t290.5 103t307 -137q30 135 141 135zM495 375q105 0 154 89t49 190.5t-18 168t-66.5 115.5t-119.5 49q-104 0 -154.5 -93t-50.5 -216t50.5 -213t155.5 -90z" glyph-name="g" horiz-adv-x="1079" unicode="g"/><glyph d="M961 129q0 -61 122 -76v-53q-215 10 -428 0v53q119 14 119 76v565q0 131 -31.5 200t-105.5 69t-143.5 -45.5t-101.5 -82t-52 -67.5v-639q0 -61 121 -76v-53q-213 10 -428 0v53q121 14 121 76v997q0 92 -123 76v53q90 14 173 53.5t97 39.5q39 0 39 -50v-358l-10 -111 q41 70 134 142.5t223 72.5t202 -76.5t72 -273.5v-565z" glyph-name="h" horiz-adv-x="1114" unicode="h"/><glyph d="M246 1219q-41 0 -72 29.5t-31 71.5t31 71.5t72 29.5t71.5 -30.5t30.5 -71.5t-30.5 -70.5t-71.5 -29.5zM350 129q0 -61 121 -76v-53q-213 8 -428 0v53q121 14 121 76v709q0 49 -30 67.5t-93 14.5v53q94 12 176 44t94 32q51 0 51 -50q0 -16 -6 -98t-6 -156v-616z" glyph-name="i" horiz-adv-x="512" unicode="i"/><glyph d="M266 1219q-41 0 -71.5 29.5t-30.5 71.5t30.5 71.5t71.5 29.5t72 -30.5t31 -70.5t-31 -70.5t-72 -30.5zM332 1049q51 0 51 -50q0 -16 -6 -98t-6 -156v-628q0 -305 -107.5 -431t-316.5 -126l-8 55q119 6 182 96t63 236v891q0 49 -28.5 67.5t-92.5 14.5v53q92 12 174.5 44 t94.5 32z" glyph-name="j" horiz-adv-x="505" unicode="j"/><glyph d="M350 129q0 -61 121 -76v-53q-213 10 -428 0v53q121 14 121 76v997q0 92 -123 76v53q90 14 173 53.5t95 39.5q41 0 41 -50v-739q211 172 340 346q43 55 -61 68v53q168 -8 340 0v-53q-61 -6 -95 -20.5t-81 -59.5l-316 -303l316 -404q117 -150 233 -161l-57 -54 q-227 0 -365 174l-254 328v-344z" glyph-name="k" horiz-adv-x="1046" unicode="k"/><glyph d="M328 164q0 -96 121 -78v-51q-63 -14 -150 -38t-115 -24q-41 0 -41 50v1103q0 92 -123 76v53q90 14 172 53.5t97 39.5q39 0 39 -50v-1134z" glyph-name="l" horiz-adv-x="489" unicode="l"/><glyph d="M1524 129q0 -61 121 -76v-53q-213 10 -428 0v53q121 14 120 76v590q0 244 -131 244q-90 0 -167.5 -67t-106.5 -130v-637q0 -61 121 -76v-53q-213 10 -428 0v53q121 14 120 76v590q0 244 -133 244q-90 0 -166.5 -67t-105.5 -130v-637q0 -61 121 -76v-53q-213 10 -428 0v53 q121 14 121 76v696q0 94 -123 78v53q90 14 173 53.5t97 39.5q45 0 39 -52l-18 -170q133 217 356 217q96 0 160.5 -56t81.5 -161q43 80 131 148.5t219 68.5t192.5 -74.5t61.5 -230.5v-610z" glyph-name="m" horiz-adv-x="1675" unicode="m"/><glyph d="M961 129q0 -61 122 -76v-53q-215 10 -428 0v53q119 14 119 76v565q0 131 -31.5 200t-105.5 69t-161 -56t-136 -139v-639q0 -61 121 -76v-53q-213 10 -428 0v53q121 14 121 76v696q0 94 -123 78v53q92 14 174 53.5t92 39.5q49 0 43 -52l-18 -174q29 43 67.5 86t120.5 89 t168 46q139 0 211 -75.5t72 -274.5v-565z" glyph-name="n" horiz-adv-x="1114" unicode="n"/><glyph d="M519 1042q187 0 323.5 -141t136.5 -383t-135 -390t-321.5 -148t-324 145t-137.5 387t135.5 386t322.5 144zM770 473q0 229 -77 371.5t-206 142.5q-221 0 -221 -432q0 -229 78 -372.5t207 -143.5q219 0 219 434z" glyph-name="o" horiz-adv-x="1040" unicode="o"/><glyph d="M633 1042q178 0 299 -143t121 -388t-134.5 -389.5t-305.5 -144.5t-273 111v-293q0 -51 33 -68.5t108 -9.5v-55q-98 -14 -203.5 -58t-140.5 -44t-35 32q0 14 12 28q40 46 40 151v1054q0 94 -123 78v53q90 14 173 53.5t97 39.5q39 0 39 -50v-94q115 137 293 137zM600 33 q131 0 191.5 102.5t60.5 331t-64.5 372.5t-195.5 144q-76 0 -143.5 -44t-108.5 -103v-549q2 -86 81 -170t179 -84z" glyph-name="p" horiz-adv-x="1114" unicode="p"/><glyph d="M489 -23q-177 0 -302.5 148.5t-125.5 393.5t128 384t303 139q88 0 174 -49t122 -49q70 0 99 82h33q33 0 32 -35v-1196q0 -51 33 -68.5t109 -9.5v-55q-102 -16 -189.5 -59t-99.5 -43q-39 0 -39 49v512q-100 -144 -277 -144zM512 987q-250 0 -250 -426q0 -225 72 -374.5 t205 -149.5q80 0 139 52t88 136v537q-4 70 -81 147.5t-173 77.5z" glyph-name="q" horiz-adv-x="1124" unicode="q"/><glyph d="M631 1047q76 0 120 -32t44 -77t-25 -72.5t-68.5 -27.5t-83.5 47t-96 47t-103 -54t-56 -79t-17 -43l-8 -19v-608q0 -59 119 -76v-53q-213 12 -426 0v53q123 14 123 76v694q0 94 -123 78v53q90 14 171 54.5t93 40.5q47 0 43 -52l-31 -196q117 246 324 246z" glyph-name="r" horiz-adv-x="825" unicode="r"/><glyph d="M764 274q0 -125 -96.5 -211t-212.5 -86q-74 0 -157 35t-119 35t-46 -45h-51l-23 272h23q47 0 51 -26q20 -84 119.5 -148.5t179.5 -64.5t124 45t44 100.5t-13.5 87t-55.5 64.5q-58 46 -140 88q-183 96 -256.5 173t-73.5 186.5t83 186t210 76.5q72 0 140.5 -28.5 t89.5 -28.5q37 0 49 41h51l18 -258h-24q-31 0 -43 29q-43 82 -118 138t-146.5 56t-112.5 -45t-41 -112.5t45 -112.5t189 -117.5t175 -99.5q84 -72 102 -106q36 -68 36 -124z" glyph-name="s" horiz-adv-x="815" unicode="s"/><glyph d="M379 -4q-238 0 -238 256v713h-92q-18 0 -18 18v25q0 18 18 18q92 0 139.5 65.5t67.5 213.5h74v-279h221q18 0 18 -18v-25q0 -18 -18 -18h-221v-752q0 -143 104 -143q82 0 131 73v-71q-68 -76 -186 -76z" glyph-name="t" horiz-adv-x="626" unicode="t"/><glyph d="M958 190q0 -51 29 -67.5t92 -7.5v-54q-86 -20 -164.5 -54t-101.5 -34q-45 0 -39 56l19 198q-92 -133 -172 -193t-177 -61q-139 0 -216.5 82t-77.5 279v551q0 41 -13.5 58.5t-44.5 14.5l-61 -2v56l258 22q47 4 47 -39v-663q0 -270 156 -271q158 0 280 234v590 q0 41 -12 58.5t-43 14.5l-64 -2v56l258 22q47 2 47 -39v-805z" glyph-name="u" horiz-adv-x="1120" unicode="u"/><glyph d="M31 1026h438v-53l-55 -8q-37 -4 -47.5 -35t6.5 -72l227 -614l209 610q16 43 -11.5 75t-74.5 36l-57 8v53h387v-51l-52 -10q-94 -12 -127 -111l-299 -862h-69l-322 866q-18 49 -39.5 73.5t-58.5 33.5l-55 10v51z" glyph-name="v" horiz-adv-x="1083" unicode="v"/><glyph d="M1247 1026h391v-51l-51 -10q-102 -18 -133 -111l-297 -854h-67l-267 741l-258 -741h-67l-310 858q-31 94 -102 107l-55 10v51h440v-53l-57 -8q-68 -8 -35 -107l211 -616l201 592l-11 24q-33 100 -92 107l-59 8v53h428v-53l-51 -8q-68 -8 -35 -107l211 -616l207 612 q16 45 -5.5 74.5t-80.5 36.5l-56 8v53z" glyph-name="w" horiz-adv-x="1669" unicode="w"/><glyph d="M57 1026h439v-53l-52 -8q-59 -6 -18 -68l149 -246l144 234q45 72 -37 80l-53 8v53h383v-51l-49 -10q-131 -20 -191 -117l-160 -256l271 -440q49 -81 121 -91l53 -8v-53q-217 8 -436 0v55l53 6q57 6 20 68l-182 299l-178 -287q-47 -72 41 -80l51 -6v-55q-193 8 -385 0v53 l51 8q39 6 62.5 12.5t62.5 33t66 71.5l190 309l-235 387q-47 78 -127 91l-54 10v51z" glyph-name="x" horiz-adv-x="1097" unicode="x"/><glyph d="M390 -449q-34 0 -46 9.5t-4 23.5q188 432 188 434q0 31 -160.5 406t-203.5 481q-29 59 -72 64l-61 6v51q238 -10 440 0v-51l-68 -6q-72 -6 -49 -64l262 -659l236 659q18 51 -61 64l-54 6v51q152 -8 332 0v-51l-47 -6q-19 -1 -32 -7q-14 -6 -26 -11q-32 -13 -42 -46 l-484 -1321q-14 -33 -48 -33z" glyph-name="y" horiz-adv-x="1099" unicode="y"/><glyph d="M74 0q-18 0 -27.5 18.5t0.5 38.5l586 916h-330q-59 0 -86 -34t-96 -173h-53l75 281h43q74 -20 176 -21q299 0 506 4l-620 -977l346 -2q80 0 114.5 40t102.5 192h57l-67 -283h-727z" glyph-name="z" horiz-adv-x="909" unicode="z"/><glyph d="M371 88q0 -160 25.5 -249t92.5 -124l-26 -55q-98 39 -153.5 109.5t-71 142.5t-15.5 176v371q0 45 -24.5 66.5t-106.5 58.5v43q82 37 106.5 58.5t24.5 66.5v370q0 104 15.5 176t71 142.5t153.5 109.5l26 -55q-68 -35 -93 -124t-25 -249v-383q0 -82 -148 -131v-6 q74 -25 111 -53.5t37 -75.5v-385z" glyph-name="braceleft" horiz-adv-x="540" unicode="{"/><glyph d="M184 1638h123v-2078h-123v2078z" glyph-name="bar" horiz-adv-x="491" unicode="|"/><glyph d="M172 88v385q0 47 37 76t108 53v6q-145 49 -145 131v383q0 158 -26.5 248t-94.5 125l27 55q98 -39 153.5 -109.5t70.5 -142t15 -176.5v-370q0 -45 25 -66.5t107 -58.5v-43q-82 -37 -107 -58.5t-25 -66.5v-371q0 -104 -15 -176t-70.5 -142.5t-153.5 -109.5l-27 55 q68 35 94.5 125t26.5 248z" glyph-name="braceright" horiz-adv-x="540" unicode="}"/><glyph d="M686 395q-78 0 -186.5 68.5t-159.5 68.5t-85 -30.5t-44 -65.5h-68q31 90 94.5 142.5t142.5 52.5t175 -59.5t162 -59.5q90 0 137 86h68q-25 -92 -91.5 -147.5t-144.5 -55.5z" glyph-name="asciitilde" horiz-adv-x="1064" unicode="~"/><glyph d="M225 1051q45 0 78 -33t33 -80t-33 -80t-78 -33t-77.5 34t-32.5 79t32.5 79t77.5 34zM344 -112q0 -162 -115.5 -162t-115.5 162q0 83 42 310.5t46 387.5h53q4 -160 47 -388t43 -310z" glyph-name="exclamdown" horiz-adv-x="456" unicode="¡"/><glyph d="M844 219q12 0 17 -10t-1 -27q-90 -203 -323 -202q-86 0 -166 28l-33 -133h-74l41 162q-113 66 -178.5 189.5t-65.5 291.5q0 236 128 380t321 144q35 0 51 -2l41 164h74l-45 -176q109 -27 172 -94.5t65 -147.5q0 -35 -26.5 -62.5t-66.5 -27.5t-67.5 23.5t-25.5 58.5 q4 139 -68 187l-219 -861q70 -66 159 -66t148.5 47.5t75.5 115.5q4 18 23 18h43zM266 531q0 -217 76 -353l205 807l-15 2q-125 0 -195.5 -119.5t-70.5 -336.5z" glyph-name="cent" horiz-adv-x="929" unicode="¢"/><glyph d="M420 86q-68 -86 -190 -86q-60 0 -114.5 43t-54.5 111t45.5 112.5t125.5 44.5t174 -82q26 61 26 127t-80 187h-246v57h207q-43 66 -66.5 105.5t-46 105.5t-22.5 129q0 158 107.5 261.5t310.5 103.5t309.5 -106.5t106.5 -262.5q0 -80 -37 -121t-81 -41t-75 23.5t-31 55.5 t14.5 66.5t14.5 81.5q0 113 -56.5 178.5t-158.5 65.5t-161.5 -71.5t-59.5 -181.5t38 -223t73 -169h231v-57h-207q35 -94 35 -184t-57 -169q72 -47 186 -47t189 50.5t128 146.5h54q-78 -340 -357 -340q-166 0 -274 86zM246 43q80 0 116 86q-12 10 -30.5 26.5t-37.5 33 t-33.5 22.5t-39.5 6t-47 -19.5t-22 -58.5t25.5 -67.5t68.5 -28.5z" glyph-name="sterling" horiz-adv-x="1101" unicode="£"/><glyph d="M1036 464q0 -153 -100 -271l125 -123l-57 -58l-125 123q-119 -96 -270 -96t-267 94l-123 -121l-57 58l123 120q-101 119 -101 274t97 273l-119 119l57 59l121 -118q118 96 270 96t271 -98l123 120l57 -59l-121 -121q96 -118 96 -271zM609 125q136 0 234.5 102.5 t98.5 239.5t-98.5 237.5t-234.5 100.5t-231 -100.5t-95 -238.5t95 -239.5t231 -101.5z" glyph-name="currency" horiz-adv-x="1222" unicode="¤"/><glyph d="M1004 621v-76h-291v-92h291v-76h-291v-248q0 -37 31.5 -52.5t115.5 -19.5v-57q-244 10 -487 0v53q84 8 115.5 23.5t31.5 52.5v248h-280v76h280v92h-280v76h237l-289 522q-39 72 -157 78v51q244 -6 487 0v-51q-78 -4 -103.5 -24.5t-6.5 -53.5l276 -512l256 493 q25 47 -7 70t-126 27v51q203 -6 405 0v-51q-92 -4 -134 -28t-68 -73l-258 -499h252z" glyph-name="yen" horiz-adv-x="1243" unicode="¥"/><glyph d="M184 924v714h123v-714h-123zM184 -440v714h123v-714h-123z" glyph-name="brokenbar" horiz-adv-x="491" unicode="¦"/><glyph d="M197 1192q-39 0 -67 27.5t-28 66.5t28 66.5t67 27.5t67.5 -27.5t28.5 -66.5t-28.5 -66.5t-67.5 -27.5zM586 1192q-39 0 -68 27.5t-29 66.5t29 66.5t68 27.5t66.5 -27.5t27.5 -66.5t-27.5 -66.5t-66.5 -27.5z" glyph-name="dieresis" horiz-adv-x="804" unicode="¨"/><glyph d="M780.5 1339q288.5 0 483 -196.5t194.5 -499.5t-195.5 -499.5t-483.5 -196.5t-482.5 196.5t-194.5 499.5t195 499.5t483.5 196.5zM1401 643q0 270 -179.5 455.5t-441.5 185.5t-441 -185.5t-179 -455.5t179 -455.5t441 -185.5t441.5 185.5t179.5 455.5zM972 256 q-26 0 -80 -12.5t-106 -12.5q-168 0 -271 117t-103 296t101 295t263 116q51 0 105.5 -12.5t80.5 -12.5t46 2q27 -117 65 -215h-65q-76 199 -246 199q-96 0 -158.5 -78t-62.5 -259t70.5 -295t181.5 -114q80 0 133 44.5t110 144.5h62q-57 -94 -80 -207q-20 4 -46 4z" glyph-name="copyright" horiz-adv-x="1560" unicode="©"/><glyph d="M575 805q0 -45 33 -45q16 0 39 8v-53q-59 -29 -96 -29t-60.5 35t-27.5 92q-20 -55 -69.5 -92t-125.5 -37t-128 36t-52 112t78 126t297 80v21q0 86 -21.5 131t-93.5 45q-94 0 -112 -123q0 -14 -18.5 -24.5t-39.5 -10.5q-57 -1 -57 59t66.5 98t165.5 38t160.5 -55.5 t61.5 -155.5v-256zM302 743q44 0 80 25t49 44t32 54v131q-217 -31 -236.5 -88t-19.5 -89t25.5 -54.5t69.5 -22.5zM111 553h510v-72h-510v72z" glyph-name="ordfeminine" horiz-adv-x="733" unicode="ª"/><glyph d="M72 469q180 141 311 305v-74l-162 -231l162 -229v-76q-131 164 -311 305zM352 469q180 141 312 305v-74l-162 -231l162 -229v-76q-132 164 -312 305z" glyph-name="guillemotleft" horiz-adv-x="714" unicode="«"/><glyph d="M1018 756v-463h-111v352h-764v111h875z" glyph-name="logicalnot" horiz-adv-x="1161" unicode="¬"/><glyph d="M72 563h553v-98h-553v98z" glyph-name="uni00AD" horiz-adv-x="778" unicode="­"/><glyph d="M780.5 1339q288.5 0 483 -196.5t194.5 -499.5t-195.5 -499.5t-483.5 -196.5t-482.5 196.5t-194.5 499.5t195 499.5t483.5 196.5zM1401 643q0 270 -179.5 455.5t-441.5 185.5t-441 -185.5t-179 -455.5t179 -455.5t441 -185.5t441.5 185.5t179.5 455.5zM1135 287q2 0 15 -2 t15 -2l-4 -33h-205q-2 39 -32 78l-199 256h-70v-256q0 -23 20.5 -32t74.5 -13v-33h-304v33q51 4 70 13t19 32v618q0 27 -17.5 38t-66.5 15v33h311q176 0 243.5 -57t67.5 -154q0 -164 -229 -221l217 -272q16 -24 32.5 -29.5t28 -8.5t13.5 -3zM655 616h43q250 0 250 207 q0 78 -45 125t-135 47h-113v-379z" glyph-name="registered" horiz-adv-x="1560" unicode="®"/><glyph d="M102 1270q0 35 41 35h580q41 0 41 -35v-4q0 -35 -41 -35h-580q-41 0 -41 35v4z" glyph-name="macron" horiz-adv-x="866" unicode="¯"/><glyph d="M313.5 1298q96.5 0 163 -67.5t66.5 -167.5t-66.5 -168t-163 -68t-164 68t-67.5 168t67.5 167.5t164 67.5zM440 1064q0 71 -34 117t-92 46t-92 -46t-34 -117t34 -118t92 -47t92 47t34 118z" glyph-name="degree" horiz-adv-x="624" unicode="°"/><glyph d="M541 778h319v-76h-319v-319h-78v319h-320v76h320v322h78v-322zM143 45v76h717v-76h-717z" glyph-name="plusminus" horiz-adv-x="1044" unicode="±"/><glyph d="M379 1164q0 34 -21.5 61.5t-58.5 27.5q-66 0 -80 -57q-4 -23 1 -45.5t3 -32.5q-23 -45 -70 -30.5t-47 47.5q-4 76 49.5 127t146.5 51t142.5 -42t49.5 -116t-63.5 -114.5t-143.5 -83.5q-79 -44 -90 -83h213q33 0 43 17l18 27h51l-20 -97q-6 -29 -43 -28h-367q14 66 49 118 t66 76.5t70 47.5t56 36.5t31.5 36t14.5 56.5z" glyph-name="uni00B2" horiz-adv-x="614" unicode="²"/><glyph d="M539 954q0 -62 -60.5 -116t-149.5 -54t-147.5 49.5t-58.5 105.5t51 56q31 0 43 -11t16.5 -41.5t11.5 -52.5q16 -50 89 -50q37 0 64.5 30t27.5 92t-47 77.5t-98 -15.5l-21 49l49 23q84 31 84 90q0 72 -65 71q-55 0 -76 -43t-8 -86l-72 13q-25 10 -25 28q-2 63 47.5 104.5 t129.5 41.5t128 -40t48 -90t-45 -83q84 -38 84 -148z" glyph-name="uni00B3" horiz-adv-x="641" unicode="³"/><glyph d="M102 1180l289 225q35 27 72 24.5t53 -33t5 -61t-46 -47.5l-356 -139z" glyph-name="acute" horiz-adv-x="626" unicode="´"/><glyph d="M958 190q0 -51 29 -67.5t92 -7.5v-54q-86 -20 -164.5 -54t-101.5 -34q-45 0 -39 56l19 198q-92 -133 -172 -193t-194 -61q-114 0 -183 68q8 -106 37.5 -173t52 -94.5t20.5 -45.5q-14 -94 -80 -127t-100 26q-14 29 -14 76v506q-10 61 -10 125v551q0 41 -13.5 58.5 t-44.5 14.5l-61 -2v56l258 22q47 4 47 -39v-663q0 -270 156 -271q158 0 280 234v590q0 41 -12 58.5t-43 14.5l-64 -2v56l258 22q47 2 47 -39v-805z" glyph-name="uni00B5" horiz-adv-x="1140" unicode="µ"/><glyph d="M1049 1165v-1177q0 -37 19 -53.5t73 -24.5v-47h-709v47q74 8 97.5 24.5t23.5 53.5v504h-33q-219 0 -349 104t-130 286t130 286t349 104h621v-39q-62 -11 -77 -28t-15 -40zM518 545h35v676h-35q-154 0 -213 -90.5t-59 -248.5t59 -247.5t213 -89.5zM874 -12v1175 q0 35 -10 46.5t-37 11.5h-100v-1233q0 -37 16.5 -52.5t57.5 -15.5t57 15.5t16 52.5z" glyph-name="paragraph" horiz-adv-x="1232" unicode="¶"/><glyph d="M204 489q-46 0 -79 33t-33 79t33 79t78 33t78.5 -33t33.5 -79t-32.5 -79t-78.5 -33z" glyph-name="periodcentered" horiz-adv-x="428" unicode="·"/><glyph d="M300 -379q42 0 65.5 31t23.5 74q0 96 -156 135q-31 8 -30 28q0 9 20.5 46.5t34.5 66.5h55l-28 -65q225 -63 225 -189q0 -74 -60.5 -116t-147.5 -42t-143.5 26t-56.5 78t56 52q33 0 48 -19.5t16 -43t18.5 -43t59.5 -19.5z" glyph-name="cedilla" horiz-adv-x="612" unicode="¸"/><glyph d="M250 883q0 -33 59 -37v-43h-223v43q59 4 59 37v344l-63 -21v54l115 51q49 20 53 -31v-397z" glyph-name="uni00B9" horiz-adv-x="380" unicode="¹"/><glyph d="M643 979q0 -131 -82.5 -212t-194.5 -81t-195 80t-83 210t82 211t195 81t195.5 -79t82.5 -210zM528 956q0 102 -53 181.5t-125 79.5q-147 0 -147 -222q0 -100 55 -178t129 -78q141 0 141 217zM111 553h510v-72h-510v72z" glyph-name="ordmasculine" horiz-adv-x="729" unicode="º"/><glyph d="M362 469q-180 -141 -311 -305v76l162 229l-162 231v74q131 -164 311 -305zM643 469q-180 -141 -311 -305v76l162 229l-162 231v74q131 -164 311 -305z" glyph-name="guillemotright" horiz-adv-x="714" unicode="»"/><glyph d="M145 883v344l-63 -21v54l115 51q49 20 53 -31v-397q0 -33 59 -37v-43h-223v43q59 4 59 37zM948 1303h109l-885 -1313h-109zM1208 145h-78v-73q0 -37 52 -37v-47h-209v47q49 0 49 37v73h-211v54l246 303q18 23 45.5 14.5t27.5 -33.5v-280h78v-58zM1022 203v145l-123 -145 h123z" glyph-name="onequarter" horiz-adv-x="1310" unicode="¼"/><glyph d="M250 883q0 -33 59 -37v-43h-223v43q59 4 59 37v344l-63 -21v54l115 51q49 20 53 -31v-397zM948 1303h109l-885 -1313h-109zM1077 360q0 34 -21.5 61.5t-58.5 27.5q-66 0 -79 -58q-4 -23 1 -45t3 -33q-20 -45 -68.5 -30.5t-48.5 47.5q-4 76 49 127t146 51t142.5 -42 t49.5 -115t-58 -111.5t-142 -84.5t-97 -85h213q33 0 43 16l18 27h52l-21 -97q-6 -29 -43 -28h-366q14 66 48.5 118t65.5 76t70 48t56.5 37.5t31.5 36t14 56.5z" glyph-name="onehalf" horiz-adv-x="1310" unicode="½"/><glyph d="M539 954q0 -62 -60.5 -116t-149.5 -54t-147.5 49.5t-58.5 105.5t51 56q31 0 43 -11t16.5 -41.5t11.5 -52.5q16 -50 89 -50q37 0 64.5 30t27.5 92t-47 77.5t-98 -15.5l-21 49l49 23q84 31 84 90q0 72 -65 71q-55 0 -76 -43t-8 -86l-72 13q-25 10 -25 28q-2 63 47.5 104.5 t129.5 41.5t128 -40t48 -90t-45 -83q84 -38 84 -148zM1153 1303h109l-885 -1313h-109zM1423 145h-77v-73q0 -37 51 -37v-47h-207v47q49 0 49 37v73h-213v54l246 303q18 23 46 14.5t28 -33.5v-280h77v-58zM1239 203v145l-125 -145h125z" glyph-name="threequarters" horiz-adv-x="1513" unicode="¾"/><glyph d="M510 1051q45 0 78 -33t33 -80t-33 -80t-78 -33t-78 34t-33 79t33 79t78 34zM274 30q0 -104 56.5 -174.5t153.5 -70.5t152.5 66.5t55.5 179.5q0 45 -14 80.5t-14 67.5t29.5 54.5t74.5 22.5t82 -41t37 -121q0 -156 -106.5 -262t-304.5 -106t-301 101t-103 251t96 235.5 t196 173.5t111 230h64q21 -124 -48 -219t-112 -152t-74 -134.5t-31 -181.5z" glyph-name="questiondown" horiz-adv-x="958" unicode="¿"/><glyph d="M504 1534q-33 14 -44 46t5 62.5t52 32.5t71 -24l289 -226l-17 -30zM1124 180q18 -50 28 -68q28 -49 157 -59v-53q-246 10 -496 0v53q109 8 125 34t-14 87l-95 256h-452l-92 -270q-16 -51 24.5 -74t139.5 -33v-53q-217 10 -429 0v53q96 8 139.5 38t67.5 102l373 1089h111z M395 489h412l-213 582z" glyph-name="Agrave" horiz-adv-x="1329" unicode="À"/><glyph d="M825 1534l-356 -139l-16 30l288 226q35 27 72 24.5t53.5 -33t5 -61.5t-46.5 -47zM1124 180q18 -50 28 -68q28 -49 157 -59v-53q-246 10 -496 0v53q109 8 125 34t-14 87l-95 256h-452l-92 -270q-16 -51 24.5 -74t139.5 -33v-53q-217 10 -429 0v53q96 8 139.5 38t67.5 102 l373 1089h111zM395 489h412l-213 582z" glyph-name="Aacute" horiz-adv-x="1329" unicode="Á"/><glyph d="M666 1556l-230 -161h-76q164 131 306 311q141 -180 305 -311h-74zM1124 180q18 -50 28 -68q28 -49 157 -59v-53q-246 10 -496 0v53q109 8 125 34t-14 87l-95 256h-452l-92 -270q-16 -51 24.5 -74t139.5 -33v-53q-217 10 -429 0v53q96 8 139.5 38t67.5 102l373 1089h111z M395 489h412l-213 582z" glyph-name="Acircumflex" horiz-adv-x="1329" unicode="Â"/><glyph d="M488 1665q89 0 210 -62.5t167 -62.5t74 25.5t28 56.5h51q8 -94 -43 -152.5t-143.5 -58.5t-215 67.5t-165.5 67.5t-65.5 -26.5t-18.5 -57.5h-54q-12 88 37 145.5t138 57.5zM1124 180q18 -50 28 -68q28 -49 157 -59v-53q-246 10 -496 0v53q109 8 125 34t-14 87l-95 256 h-452l-92 -270q-16 -51 24.5 -74t139.5 -33v-53q-217 10 -429 0v53q96 8 139.5 38t67.5 102l373 1089h111zM395 489h412l-213 582z" glyph-name="Atilde" horiz-adv-x="1329" unicode="Ã"/><glyph d="M471 1438q-39 0 -66.5 27.5t-27.5 66.5t27.5 66.5t66.5 27.5t67.5 -27.5t28.5 -66.5t-28.5 -66.5t-67.5 -27.5zM860 1438q-39 0 -67.5 27.5t-28.5 66.5t28.5 66.5t67.5 27.5t66.5 -27.5t27.5 -66.5t-27.5 -66.5t-66.5 -27.5zM1124 180q18 -50 28 -68q28 -49 157 -59v-53 q-246 10 -496 0v53q109 8 125 34t-14 87l-95 256h-452l-92 -270q-16 -51 24.5 -74t139.5 -33v-53q-217 10 -429 0v53q96 8 139.5 38t67.5 102l373 1089h111zM395 489h412l-213 582z" glyph-name="Adieresis" horiz-adv-x="1329" unicode="Ä"/><glyph d="M665.5 1470q-77.5 0 -131 53.5t-53.5 129.5t53.5 129t131 53t131 -53t53.5 -129t-53.5 -129.5t-131 -53.5zM667 1761q-44 0 -72 -30.5t-28 -77.5t28 -78t72 -31t71.5 31t27.5 78t-27.5 77.5t-71.5 30.5zM1124 180q18 -50 28 -68q28 -49 157 -59v-53q-246 10 -496 0v53 q109 8 125 34t-14 87l-95 256h-452l-92 -270q-16 -51 24.5 -74t139.5 -33v-53q-217 10 -429 0v53q96 8 139.5 38t67.5 102l373 1089h111zM395 489h412l-213 582z" glyph-name="Aring" horiz-adv-x="1329" unicode="Å"/><glyph d="M1079 135v295h-567l-205 -270q-33 -43 9 -70t137 -37v-53q-217 10 -433 0v53q90 8 134.5 38t97.5 102l782 1013q-29 8 -96 15v51h836q20 0 25 -7.5t9 -29.5l25 -217h-53l-23 43q-41 80 -91 114.5t-126 34.5h-248q-18 0 -18 -18v-514h262q70 0 96.5 31.5t42.5 103.5h54 q-16 -166 0 -332h-54q-16 72 -42.5 103.5t-96.5 31.5h-262v-534q0 -16 18 -16h226q90 0 142 28.5t83 91.5l65 131h60q-41 -131 -60 -315q-440 6 -870 0v61q84 8 112.5 21.5t28.5 50.5zM1079 489v658q0 10 -2 14l-518 -672h520z" glyph-name="AE" horiz-adv-x="1929" unicode="Æ"/><glyph d="M628 -410q-87 0 -143.5 26t-56.5 78t55 52q33 0 48.5 -19.5t16.5 -43t18.5 -43t59.5 -19.5t65.5 31t23.5 74q0 96 -156 135q-31 8 -31 28q0 11 17.5 41.5t27.5 51.5q-229 35 -365 218t-136 454.5t163.5 461t423.5 189.5q74 0 160 -19.5t132.5 -19.5t72.5 4 q37 -193 109 -348h-95q-66 160 -164 240.5t-244 80.5t-247.5 -128t-101.5 -420t114.5 -475t290.5 -183q119 0 204 73.5t177 233.5h104q-102 -178 -133 -334q-27 4 -69.5 4t-128.5 -20.5t-166 -20.5l-47 2l-17 -38q225 -63 226 -189q0 -74 -60.5 -116t-147.5 -42z" glyph-name="Ccedilla" horiz-adv-x="1212" unicode="Ç"/><glyph d="M362 1534q-33 14 -44 46t5.5 62.5t52.5 32.5t70 -24l289 -226l-16 -30zM195 135v1012q0 37 -30 52t-114 22v51h836q20 0 25.5 -7.5t9.5 -29.5l26 -217h-55l-23 43q-41 80 -91 114.5t-126 34.5h-247q-18 0 -19 -18v-514h264q70 0 96.5 31.5t43.5 103.5h51q-14 -166 0 -332 h-51q-16 72 -43 103.5t-97 31.5h-264v-534q0 -16 19 -16h225q90 0 142 28.5t85 91.5l66 131h59q-43 -129 -61 -315q-440 6 -871 0v61q86 8 115 21.5t29 50.5z" glyph-name="Egrave" horiz-adv-x="1044" unicode="È"/><glyph d="M682 1534l-356 -139l-17 30l289 226q35 27 72 24.5t53 -33t5 -61.5t-46 -47zM195 135v1012q0 37 -30 52t-114 22v51h836q20 0 25.5 -7.5t9.5 -29.5l26 -217h-55l-23 43q-41 80 -91 114.5t-126 34.5h-247q-18 0 -19 -18v-514h264q70 0 96.5 31.5t43.5 103.5h51 q-14 -166 0 -332h-51q-16 72 -43 103.5t-97 31.5h-264v-534q0 -16 19 -16h225q90 0 142 28.5t85 91.5l66 131h59q-43 -129 -61 -315q-440 6 -871 0v61q86 8 115 21.5t29 50.5z" glyph-name="Eacute" horiz-adv-x="1044" unicode="É"/><glyph d="M522 1556l-229 -161h-76q164 131 305 311q141 -180 305 -311h-73zM195 135v1012q0 37 -30 52t-114 22v51h836q20 0 25.5 -7.5t9.5 -29.5l26 -217h-55l-23 43q-41 80 -91 114.5t-126 34.5h-247q-18 0 -19 -18v-514h264q70 0 96.5 31.5t43.5 103.5h51q-14 -166 0 -332h-51 q-16 72 -43 103.5t-97 31.5h-264v-534q0 -16 19 -16h225q90 0 142 28.5t85 91.5l66 131h59q-43 -129 -61 -315q-440 6 -871 0v61q86 8 115 21.5t29 50.5z" glyph-name="Ecircumflex" horiz-adv-x="1044" unicode="Ê"/><glyph d="M328 1438q-39 0 -67 27.5t-28 66.5t28 66.5t67 27.5t67.5 -27.5t28.5 -66.5t-28.5 -66.5t-67.5 -27.5zM717 1438q-39 0 -67.5 27.5t-28.5 66.5t28.5 66.5t67.5 27.5t66.5 -27.5t27.5 -66.5t-27.5 -66.5t-66.5 -27.5zM195 135v1012q0 37 -30 52t-114 22v51h836 q20 0 25.5 -7.5t9.5 -29.5l26 -217h-55l-23 43q-41 80 -91 114.5t-126 34.5h-247q-18 0 -19 -18v-514h264q70 0 96.5 31.5t43.5 103.5h51q-14 -166 0 -332h-51q-16 72 -43 103.5t-97 31.5h-264v-534q0 -16 19 -16h225q90 0 142 28.5t85 91.5l66 131h59q-43 -129 -61 -315 q-440 6 -871 0v61q86 8 115 21.5t29 50.5z" glyph-name="Edieresis" horiz-adv-x="1044" unicode="Ë"/><glyph d="M506 1425l-17 -30l-356 139q-33 14 -44 46t5.5 62.5t52 32.5t70.5 -24zM391 129q0 -37 32 -52.5t116 -23.5v-53q-244 10 -488 0v53q84 8 116 23.5t32 52.5v1016q0 37 -31 51t-117 25v51q244 -10 488 0v-51q-86 -10 -117 -24.5t-31 -51.5v-1016z" glyph-name="Igrave" horiz-adv-x="589" unicode="Ì"/><glyph d="M82 1425l289 226q35 27 71.5 24.5t53 -33t5 -61.5t-45.5 -47l-357 -139zM391 129q0 -37 32 -52.5t116 -23.5v-53q-244 10 -488 0v53q84 8 116 23.5t32 52.5v1016q0 37 -31 51t-117 25v51q244 -10 488 0v-51q-86 -10 -117 -24.5t-31 -51.5v-1016z" glyph-name="Iacute" horiz-adv-x="589" unicode="Í"/><glyph d="M295 1706q141 -180 305 -311h-74l-231 161l-229 -161h-76q164 131 305 311zM391 129q0 -37 32 -52.5t116 -23.5v-53q-244 10 -488 0v53q84 8 116 23.5t32 52.5v1016q0 37 -31 51t-117 25v51q244 -10 488 0v-51q-86 -10 -117 -24.5t-31 -51.5v-1016z" glyph-name="Icircumflex" horiz-adv-x="589" unicode="Î"/><glyph d="M100 1438q-39 0 -66.5 27.5t-27.5 66.5t27.5 66.5t66.5 27.5t68 -27.5t29 -66.5t-29 -66.5t-68 -27.5zM489.5 1438q-38.5 0 -67.5 27.5t-29 66.5t29 66.5t67.5 27.5t66.5 -27.5t28 -66.5t-28 -66.5t-66.5 -27.5zM391 129q0 -37 32 -52.5t116 -23.5v-53q-244 10 -488 0v53 q84 8 116 23.5t32 52.5v1016q0 37 -31 51t-117 25v51q244 -10 488 0v-51q-86 -10 -117 -24.5t-31 -51.5v-1016z" glyph-name="Idieresis" horiz-adv-x="589" unicode="Ï"/><glyph d="M518 1272q317 0 497.5 -158t180.5 -469t-174 -478t-404 -167q-57 0 -156.5 15.5t-178 15.5t-222.5 -31v55q82 20 113 38t31 57v450h-154v72h154v434q0 51 -30 78.5t-109 36.5v51q20 -6 233 -3t219 3zM987 635q0 260 -111.5 421t-338.5 156q-80 0 -140 -4v-536h178v-72 h-178v-434q0 -57 49.5 -79t139.5 -24q401 -8 401 572z" glyph-name="Eth" horiz-adv-x="1277" unicode="Ð"/><glyph d="M801 1411q-92 0 -215 67.5t-166 67.5t-65.5 -26.5t-18.5 -57.5h-53q-12 88 37 145.5t137 57.5t208.5 -62.5t168 -62.5t75 25.5t27.5 56.5h51q8 -94 -43 -152.5t-143 -58.5zM1055 1145v-1145h-56l-714 1098v-969q0 -37 41 -51.5t145 -24.5v-53q-221 10 -440 0v53 q104 10 144 24.5t40 51.5v1004q0 39 -38 58t-124 30v51q174 -8 348 0l584 -903v776q0 37 -39 50t-147 26v51q221 -10 440 0v-51q-106 -12 -145 -25.5t-39 -50.5z" glyph-name="Ntilde" horiz-adv-x="1269" unicode="Ñ"/><glyph d="M848 1425l-17 -30l-356 139q-33 14 -44 46t5.5 62.5t52 32.5t70.5 -24zM1200 644q0 -288 -153.5 -479.5t-403.5 -191.5t-410.5 191.5t-160.5 478.5t155.5 474.5t407.5 187.5t408.5 -186.5t156.5 -474.5zM670 35q139 0 232 134t93 422t-109.5 471t-281.5 183 q-137 0 -230 -130t-93 -418t109.5 -475t279.5 -187z" glyph-name="Ograve" horiz-adv-x="1271" unicode="Ò"/><glyph d="M424 1425l289 226q35 27 71.5 24.5t53 -33t5 -61.5t-45.5 -47l-357 -139zM1200 644q0 -288 -153.5 -479.5t-403.5 -191.5t-410.5 191.5t-160.5 478.5t155.5 474.5t407.5 187.5t408.5 -186.5t156.5 -474.5zM670 35q139 0 232 134t93 422t-109.5 471t-281.5 183 q-137 0 -230 -130t-93 -418t109.5 -475t279.5 -187z" glyph-name="Oacute" horiz-adv-x="1271" unicode="Ó"/><glyph d="M637 1706q141 -180 305 -311h-74l-231 161l-229 -161h-76q164 131 305 311zM1200 644q0 -288 -153.5 -479.5t-403.5 -191.5t-410.5 191.5t-160.5 478.5t155.5 474.5t407.5 187.5t408.5 -186.5t156.5 -474.5zM670 35q139 0 232 134t93 422t-109.5 471t-281.5 183 q-137 0 -230 -130t-93 -418t109.5 -475t279.5 -187z" glyph-name="Ocircumflex" horiz-adv-x="1271" unicode="Ô"/><glyph d="M803 1411q-92 0 -215 67.5t-166 67.5t-65.5 -26.5t-18.5 -57.5h-53q-12 88 37 145.5t138 57.5t210 -62.5t167 -62.5t73.5 25.5t27.5 56.5h51q8 -94 -43 -152.5t-143 -58.5zM1200 644q0 -288 -153.5 -479.5t-403.5 -191.5t-410.5 191.5t-160.5 478.5t155.5 474.5 t407.5 187.5t408.5 -186.5t156.5 -474.5zM670 35q139 0 232 134t93 422t-109.5 471t-281.5 183q-137 0 -230 -130t-93 -418t109.5 -475t279.5 -187z" glyph-name="Otilde" horiz-adv-x="1271" unicode="Õ"/><glyph d="M442 1438q-39 0 -66.5 27.5t-27.5 66.5t27.5 66.5t66.5 27.5t68 -27.5t29 -66.5t-29 -66.5t-68 -27.5zM831.5 1438q-38.5 0 -67.5 27.5t-29 66.5t29 66.5t67.5 27.5t66.5 -27.5t28 -66.5t-28 -66.5t-66.5 -27.5zM1200 644q0 -288 -153.5 -479.5t-403.5 -191.5 t-410.5 191.5t-160.5 478.5t155.5 474.5t407.5 187.5t408.5 -186.5t156.5 -474.5zM670 35q139 0 232 134t93 422t-109.5 471t-281.5 183q-137 0 -230 -130t-93 -418t109.5 -475t279.5 -187z" glyph-name="Odieresis" horiz-adv-x="1271" unicode="Ö"/><glyph d="M772 752l-235 -236l235 -237l-80 -78l-235 235l-234 -235l-80 78l236 237l-236 236l80 77l234 -235l235 235z" glyph-name="multiply" horiz-adv-x="915" unicode="×"/><glyph d="M645 -27q-205 0 -354 133l-105 -137l-71 54l112 147q-156 188 -155.5 474t156 473.5t409.5 187.5q205 0 352 -131l98 129l72 -54l-108 -141q150 -182 149.5 -467t-154 -476.5t-401.5 -191.5zM281 700q0 -213 63 -378l549 725q-111 199 -289 198q-137 0 -230 -130 t-93 -415zM670 35q139 0 232 134t93 427q0 205 -59 360l-551 -725q111 -196 285 -196z" glyph-name="Oslash" horiz-adv-x="1271" unicode="Ø"/><glyph d="M530 1534q-33 14 -44 46t5.5 62.5t52.5 32.5t70 -24l289 -226l-16 -30zM1192 1145v-1016q0 -37 31.5 -52.5t113.5 -23.5v-53q-229 8 -372 0v53q33 27 32 76v96q-53 -100 -155.5 -172.5t-270 -72.5t-280.5 112.5t-113 294.5v758q0 37 -30.5 51t-116.5 25v51q248 -10 491 0 v-51q-84 -10 -114.5 -24.5t-30.5 -51.5v-760q0 -154 70.5 -244t192.5 -90t215 79t142 183v832q0 37 -30.5 51t-116.5 25v51q246 -10 487 0v-51q-84 -10 -114.5 -24.5t-30.5 -51.5z" glyph-name="Ugrave" horiz-adv-x="1368" unicode="Ù"/><glyph d="M852 1534l-356 -139l-17 30l289 226q35 27 72 24.5t53 -33t5 -61.5t-46 -47zM1192 1145v-1016q0 -37 31.5 -52.5t113.5 -23.5v-53q-229 8 -372 0v53q33 27 32 76v96q-53 -100 -155.5 -172.5t-270 -72.5t-280.5 112.5t-113 294.5v758q0 37 -30.5 51t-116.5 25v51 q248 -10 491 0v-51q-84 -10 -114.5 -24.5t-30.5 -51.5v-760q0 -154 70.5 -244t192.5 -90t215 79t142 183v832q0 37 -30.5 51t-116.5 25v51q246 -10 487 0v-51q-84 -10 -114.5 -24.5t-30.5 -51.5z" glyph-name="Uacute" horiz-adv-x="1368" unicode="Ú"/><glyph d="M692 1556l-229 -161h-76q164 131 305 311q141 -180 305 -311h-73zM1192 1145v-1016q0 -37 31.5 -52.5t113.5 -23.5v-53q-229 8 -372 0v53q33 27 32 76v96q-53 -100 -155.5 -172.5t-270 -72.5t-280.5 112.5t-113 294.5v758q0 37 -30.5 51t-116.5 25v51q248 -10 491 0v-51 q-84 -10 -114.5 -24.5t-30.5 -51.5v-760q0 -154 70.5 -244t192.5 -90t215 79t142 183v832q0 37 -30.5 51t-116.5 25v51q246 -10 487 0v-51q-84 -10 -114.5 -24.5t-30.5 -51.5z" glyph-name="Ucircumflex" horiz-adv-x="1368" unicode="Û"/><glyph d="M498 1438q-39 0 -67 27.5t-28 66.5t28 66.5t67 27.5t67.5 -27.5t28.5 -66.5t-28.5 -66.5t-67.5 -27.5zM887 1438q-39 0 -67.5 27.5t-28.5 66.5t28.5 66.5t67.5 27.5t66.5 -27.5t27.5 -66.5t-27.5 -66.5t-66.5 -27.5zM1192 1145v-1016q0 -37 31.5 -52.5t113.5 -23.5v-53 q-229 8 -372 0v53q33 27 32 76v96q-53 -100 -155.5 -172.5t-270 -72.5t-280.5 112.5t-113 294.5v758q0 37 -30.5 51t-116.5 25v51q248 -10 491 0v-51q-84 -10 -114.5 -24.5t-30.5 -51.5v-760q0 -154 70.5 -244t192.5 -90t215 79t142 183v832q0 37 -30.5 51t-116.5 25v51 q246 -10 487 0v-51q-84 -10 -114.5 -24.5t-30.5 -51.5z" glyph-name="Udieresis" horiz-adv-x="1368" unicode="Ü"/><glyph d="M782 1534l-356 -139l-16 30l288 226q35 27 72 24.5t53.5 -33t5 -61.5t-46.5 -47zM713 129q0 -37 31.5 -52.5t115.5 -19.5v-57q-244 10 -487 0v53q84 8 115.5 23.5t31.5 52.5v416l-332 598q-39 72 -157 78v51q244 -6 487 0v-51q-78 -4 -103.5 -24.5t-6.5 -53.5l276 -512 l256 493q25 47 -7 70t-126 27v51q203 -6 405 0v-51q-92 -4 -134 -28t-68 -73l-297 -573v-418z" glyph-name="Yacute" horiz-adv-x="1243" unicode="Ý"/><glyph d="M549 1026q240 0 377 -103.5t137 -281.5t-137.5 -282.5t-376.5 -104.5h-158v-125q0 -37 32 -52.5t116 -23.5v-53q-244 10 -488 0v53q84 8 116 23.5t32 52.5v1016q0 37 -31 51t-117 25v51q244 -10 488 0v-51q-86 -10 -117 -24.5t-31 -51.5v-119h158zM582 317 q283 0 282.5 324t-282.5 324h-191v-648h191z" glyph-name="Thorn" horiz-adv-x="1103" unicode="Þ"/><glyph d="M367 201q0 -86 -56.5 -143.5t-144.5 -57.5h-135v53q84 6 113.5 21.5t29.5 52.5v854q0 139 99 215t287 76t281 -86t93 -209q0 -199 -227 -264q371 -59 370 -353q0 -172 -125 -266t-338 -94h-71v63h59q127 0 197.5 75t70.5 207t-73.5 223t-180.5 91l-249 -36v-422zM367 969 v-293l53 8q172 29 244.5 100.5t72.5 183.5t-49 177t-140 65t-136 -57t-45 -184z" glyph-name="germandbls" horiz-adv-x="1128" unicode="ß"/><glyph d="M711 1180l-17 -31l-356 139q-33 14 -44 46t5 62.5t52 33t71 -24.5zM846 195q0 -49 28.5 -65.5t92.5 -10.5v-58q-86 -20 -165 -54t-102 -34q-43 0 -41 50l11 157q-45 -84 -126 -145.5t-197 -61.5t-206 64.5t-90 204t129 235.5t479 170v62q0 155 -13 204.5t-36.5 63.5 t-88 14t-117 -31.5t-69 -75.5t-26.5 -89t-31.5 -77t-65.5 -32t-66.5 23.5t-22.5 62.5q0 111 124 191.5t301 80.5t237.5 -71.5t60.5 -263.5v-514zM420 59q82 0 146.5 68t92.5 139v324q-263 -57 -347 -170q-62 -83 -62 -171.5t44 -139t126 -50.5z" glyph-name="agrave" horiz-adv-x="997" unicode="à"/><glyph d="M285 1180l288 225q35 27 72 24.5t53.5 -33t5 -61t-46.5 -47.5l-356 -139zM846 195q0 -49 28.5 -65.5t92.5 -10.5v-58q-86 -20 -165 -54t-102 -34q-43 0 -41 50l11 157q-45 -84 -126 -145.5t-197 -61.5t-206 64.5t-90 204t129 235.5t479 170v62q0 155 -13 204.5 t-36.5 63.5t-88 14t-117 -31.5t-69 -75.5t-26.5 -89t-31.5 -77t-65.5 -32t-66.5 23.5t-22.5 62.5q0 111 124 191.5t301 80.5t237.5 -71.5t60.5 -263.5v-514zM420 59q82 0 146.5 68t92.5 139v324q-263 -57 -347 -170q-62 -83 -62 -171.5t44 -139t126 -50.5z" glyph-name="aacute" horiz-adv-x="997" unicode="á"/><glyph d="M498 1460q141 -180 305 -311h-74l-231 162l-230 -162h-75q164 131 305 311zM846 195q0 -49 28.5 -65.5t92.5 -10.5v-58q-86 -20 -165 -54t-102 -34q-43 0 -41 50l11 157q-45 -84 -126 -145.5t-197 -61.5t-206 64.5t-90 204t129 235.5t479 170v62q0 155 -13 204.5 t-36.5 63.5t-88 14t-117 -31.5t-69 -75.5t-26.5 -89t-31.5 -77t-65.5 -32t-66.5 23.5t-22.5 62.5q0 111 124 191.5t301 80.5t237.5 -71.5t60.5 -263.5v-514zM420 59q82 0 146.5 68t92.5 139v324q-263 -57 -347 -170q-62 -83 -62 -171.5t44 -139t126 -50.5z" glyph-name="acircumflex" horiz-adv-x="997" unicode="â"/><glyph d="M664 1165q-92 0 -215 67.5t-166 67.5t-65.5 -26.5t-18.5 -56.5h-54q-12 88 37 145t138 57t210 -62.5t167 -62.5t74 26t28 56h51q8 -94 -43 -152.5t-143 -58.5zM846 195q0 -49 28.5 -65.5t92.5 -10.5v-58q-86 -20 -165 -54t-102 -34q-43 0 -41 50l11 157 q-45 -84 -126 -145.5t-197 -61.5t-206 64.5t-90 204t129 235.5t479 170v62q0 155 -13 204.5t-36.5 63.5t-88 14t-117 -31.5t-69 -75.5t-26.5 -89t-31.5 -77t-65.5 -32t-66.5 23.5t-22.5 62.5q0 111 124 191.5t301 80.5t237.5 -71.5t60.5 -263.5v-514zM420 59q82 0 146.5 68 t92.5 139v324q-263 -57 -347 -170q-62 -83 -62 -171.5t44 -139t126 -50.5z" glyph-name="atilde" horiz-adv-x="997" unicode="ã"/><glyph d="M303 1192q-39 0 -66.5 27.5t-27.5 66.5t27.5 66.5t66.5 27.5t67.5 -27.5t28.5 -66.5t-28.5 -66.5t-67.5 -27.5zM692 1192q-39 0 -67.5 27.5t-28.5 66.5t28.5 66.5t67.5 27.5t66.5 -27.5t27.5 -66.5t-27.5 -66.5t-66.5 -27.5zM846 195q0 -49 28.5 -65.5t92.5 -10.5v-58 q-86 -20 -165 -54t-102 -34q-43 0 -41 50l11 157q-45 -84 -126 -145.5t-197 -61.5t-206 64.5t-90 204t129 235.5t479 170v62q0 155 -13 204.5t-36.5 63.5t-88 14t-117 -31.5t-69 -75.5t-26.5 -89t-31.5 -77t-65.5 -32t-66.5 23.5t-22.5 62.5q0 111 124 191.5t301 80.5 t237.5 -71.5t60.5 -263.5v-514zM420 59q82 0 146.5 68t92.5 139v324q-263 -57 -347 -170q-62 -83 -62 -171.5t44 -139t126 -50.5z" glyph-name="adieresis" horiz-adv-x="997" unicode="ä"/><glyph d="M497.5 1225q-77.5 0 -131 53t-53.5 129t53.5 129t131 53t131 -53t53.5 -129t-53.5 -129t-131 -53zM499 1298q44 0 71.5 31t27.5 78t-27.5 78t-71.5 31t-72 -31t-28 -78t28 -78t72 -31zM846 195q0 -49 28.5 -65.5t92.5 -10.5v-58q-86 -20 -165 -54t-102 -34q-43 0 -41 50 l11 157q-45 -84 -126 -145.5t-197 -61.5t-206 64.5t-90 204t129 235.5t479 170v62q0 155 -13 204.5t-36.5 63.5t-88 14t-117 -31.5t-69 -75.5t-26.5 -89t-31.5 -77t-65.5 -32t-66.5 23.5t-22.5 62.5q0 111 124 191.5t301 80.5t237.5 -71.5t60.5 -263.5v-514zM420 59 q82 0 146.5 68t92.5 139v324q-263 -57 -347 -170q-62 -83 -62 -171.5t44 -139t126 -50.5z" glyph-name="aring" horiz-adv-x="997" unicode="å"/><glyph d="M1505 625q0 -109 -94 -109h-543q0 -225 76 -351t211 -126q162 0 240 151q10 29 35 29h26q29 0 17 -35q-86 -205 -340 -204q-129 0 -232 61q-45 -12 -111.5 -40t-89.5 -28q-43 0 -41 50l11 157q-45 -84 -126 -145.5t-197 -61.5t-206 64.5t-90 204t129 235.5t479 170v62 q0 176 -10 203.5t-27.5 53t-91 25.5t-126 -31.5t-69 -75.5t-26.5 -89t-31.5 -77t-65.5 -32t-66.5 23.5t-22.5 62.5q0 111 124 191.5t300 80.5q113 0 175 -26.5t91 -89.5q125 115 295 114.5t283.5 -111.5t113.5 -306zM868 573h453q0 414 -213 414q-117 0 -178.5 -109.5 t-61.5 -304.5zM250 225.5q0 -65.5 44 -116t126 -50.5t146 67.5t93 139.5v326q-263 -57 -347 -170q-38 -51 -50 -91t-12 -105.5z" glyph-name="ae" horiz-adv-x="1566" unicode="æ"/><glyph d="M844 219q12 0 17 -10t-1 -27q-90 -203 -323 -202h-9l-18 -43q225 -63 225 -189q0 -74 -60.5 -116t-147.5 -42t-143 26t-56 78t55 52q33 0 48 -19.5t16.5 -43t18.5 -43t59 -19.5t65.5 31t23.5 74q0 96 -155 135q-31 8 -31 28q0 4 47 95q-184 23 -299 166 q-115 144 -115 374t128 374t321 144q160 0 258 -76.5t100 -179.5q0 -35 -26.5 -62.5t-66.5 -27.5t-67.5 23.5t-25.5 58.5q8 209 -150 209q-125 0 -195.5 -119.5t-70.5 -341.5t79 -354.5t202 -132.5q96 0 155.5 47t75.5 115q4 18 23 18h43z" glyph-name="ccedilla" horiz-adv-x="929" unicode="ç"/><glyph d="M715 1180l-17 -31l-356 139q-33 14 -44 46t5 62.5t52 33t71 -24.5zM856 219q12 0 17.5 -9t-1.5 -26q-86 -205 -340 -204q-205 0 -338 148t-133 390t127 383q126 141 308 141t295.5 -111.5t113.5 -305.5q0 -109 -94 -109h-543q0 -225 76 -351t211 -126q162 0 240 151 q10 29 34 29h27zM721 573q0 414 -213 414q-117 0 -178.5 -109.5t-61.5 -304.5h453z" glyph-name="egrave" unicode="è"/><glyph d="M291 1180l289 225q35 27 71.5 24.5t53 -33t5 -61t-45.5 -47.5l-357 -139zM856 219q12 0 17.5 -9t-1.5 -26q-86 -205 -340 -204q-205 0 -338 148t-133 390t127 383q126 141 308 141t295.5 -111.5t113.5 -305.5q0 -109 -94 -109h-543q0 -225 76 -351t211 -126 q162 0 240 151q10 29 34 29h27zM721 573q0 414 -213 414q-117 0 -178.5 -109.5t-61.5 -304.5h453z" glyph-name="eacute" unicode="é"/><glyph d="M504 1460q141 -180 305 -311h-74l-231 162l-230 -162h-75q164 131 305 311zM856 219q12 0 17.5 -9t-1.5 -26q-86 -205 -340 -204q-205 0 -338 148t-133 390t127 383q126 141 308 141t295.5 -111.5t113.5 -305.5q0 -109 -94 -109h-543q0 -225 76 -351t211 -126 q162 0 240 151q10 29 34 29h27zM721 573q0 414 -213 414q-117 0 -178.5 -109.5t-61.5 -304.5h453z" glyph-name="ecircumflex" unicode="ê"/><glyph d="M309 1192q-39 0 -66.5 27.5t-27.5 66.5t27.5 66.5t66.5 27.5t68 -27.5t29 -66.5t-29 -66.5t-68 -27.5zM698 1192q-39 0 -67.5 27.5t-28.5 66.5t28.5 66.5t67.5 27.5t67 -27.5t28 -66.5t-28 -66.5t-67 -27.5zM856 219q12 0 17.5 -9t-1.5 -26q-86 -205 -340 -204 q-205 0 -338 148t-133 390t127 383q126 141 308 141t295.5 -111.5t113.5 -305.5q0 -109 -94 -109h-543q0 -225 76 -351t211 -126q162 0 240 151q10 29 34 29h27zM721 573q0 414 -213 414q-117 0 -178.5 -109.5t-61.5 -304.5h453z" glyph-name="edieresis" unicode="ë"/><glyph d="M469 1180l-16 -31l-357 139q-33 14 -44 46t5.5 62.5t52 33t70.5 -24.5zM350 129q0 -61 121 -76v-53q-213 8 -428 0v53q121 14 121 76v709q0 49 -30 67.5t-93 14.5v53q94 12 176 44t94 32q51 0 51 -50q0 -16 -6 -98t-6 -156v-616z" glyph-name="igrave" horiz-adv-x="512" unicode="ì"/><glyph d="M43 1180l289 225q35 27 71.5 24.5t53 -33t5.5 -61t-46 -47.5l-357 -139zM350 129q0 -61 121 -76v-53q-213 8 -428 0v53q121 14 121 76v709q0 49 -30 67.5t-93 14.5v53q94 12 176 44t94 32q51 0 51 -50q0 -16 -6 -98t-6 -156v-616z" glyph-name="iacute" horiz-adv-x="512" unicode="í"/><glyph d="M256 1460q141 -180 305 -311h-74l-231 162l-229 -162h-76q164 131 305 311zM350 129q0 -61 121 -76v-53q-213 8 -428 0v53q121 14 121 76v709q0 49 -30 67.5t-93 14.5v53q94 12 176 44t94 32q51 0 51 -50q0 -16 -6 -98t-6 -156v-616z" glyph-name="icircumflex" horiz-adv-x="512" unicode="î"/><glyph d="M61.5 1192q-38.5 0 -66.5 27.5t-28 66.5t28 66.5t66.5 27.5t67.5 -27.5t29 -66.5t-29 -66.5t-67.5 -27.5zM450.5 1192q-38.5 0 -67.5 27.5t-29 66.5t29 66.5t67.5 27.5t66.5 -27.5t28 -66.5t-28 -66.5t-66.5 -27.5zM350 129q0 -61 121 -76v-53q-213 8 -428 0v53 q121 14 121 76v709q0 49 -30 67.5t-93 14.5v53q94 12 176 44t94 32q51 0 51 -50q0 -16 -6 -98t-6 -156v-616z" glyph-name="idieresis" horiz-adv-x="512" unicode="ï"/><glyph d="M952 197q0 -49 29 -65.5t92 -10.5v-60q-86 -20 -165 -54t-101 -34q-47 0 -41 54l16 129q-18 -66 -93 -122.5t-189 -56.5q-188 0 -313.5 148.5t-125.5 393.5t127.5 384t297.5 139t280 -141v207q0 29 -8 70l-256 -74v61l229 64q-55 66 -229 31v59q158 41 260 36t145 -75 l131 39v-62l-106 -30q20 -61 20 -172v-858zM512 987q-250 0 -250 -426q0 -225 72 -374.5t207 -149.5q94 0 155.5 70.5t69.5 154.5v569q-109 156 -254 156z" glyph-name="eth" horiz-adv-x="1114" unicode="ð"/><glyph d="M723 1165q-92 0 -215 67.5t-166 67.5t-65.5 -26.5t-18.5 -56.5h-53q-12 88 37 145t138 57t209 -62.5t167 -62.5t74.5 26t27.5 56h51q8 -94 -43 -152.5t-143 -58.5zM961 129q0 -61 122 -76v-53q-215 10 -428 0v53q119 14 119 76v565q0 131 -31.5 200t-105.5 69t-161.5 -56 t-135.5 -139v-639q0 -61 121 -76v-53q-213 10 -428 0v53q121 14 121 76v696q0 94 -123 78v53q92 14 174 53.5t92 39.5q49 0 43 -52l-18 -174q29 43 67.5 86t120.5 89t168 46q139 0 211 -75.5t72 -274.5v-565z" glyph-name="ntilde" horiz-adv-x="1114" unicode="ñ"/><glyph d="M733 1180l-16 -31l-357 139q-33 14 -44 46t5.5 62.5t52.5 33t70 -24.5zM519 1042q187 0 323.5 -141t136.5 -383t-135 -390t-321.5 -148t-324 145t-137.5 387t135.5 386t322.5 144zM770 473q0 229 -77 371.5t-206 142.5q-221 0 -221 -432q0 -229 78 -372.5t207 -143.5 q219 0 219 434z" glyph-name="ograve" horiz-adv-x="1040" unicode="ò"/><glyph d="M309 1180l289 225q35 27 72 24.5t53 -33t5 -61t-46 -47.5l-356 -139zM519 1042q187 0 323.5 -141t136.5 -383t-135 -390t-321.5 -148t-324 145t-137.5 387t135.5 386t322.5 144zM770 473q0 229 -77 371.5t-206 142.5q-221 0 -221 -432q0 -229 78 -372.5t207 -143.5 q219 0 219 434z" glyph-name="oacute" horiz-adv-x="1040" unicode="ó"/><glyph d="M520 1460q141 -180 305 -311h-73l-232 162l-229 -162h-76q164 131 305 311zM519 1042q187 0 323.5 -141t136.5 -383t-135 -390t-321.5 -148t-324 145t-137.5 387t135.5 386t322.5 144zM770 473q0 229 -77 371.5t-206 142.5q-221 0 -221 -432q0 -229 78 -372.5t207 -143.5 q219 0 219 434z" glyph-name="ocircumflex" horiz-adv-x="1040" unicode="ô"/><glyph d="M688 1165q-92 0 -215 67.5t-166 67.5t-65.5 -26.5t-18.5 -56.5h-53q-12 88 37 145t138 57t210 -62.5t167 -62.5t73.5 26t27.5 56h51q8 -94 -43 -152.5t-143 -58.5zM519 1042q187 0 323.5 -141t136.5 -383t-135 -390t-321.5 -148t-324 145t-137.5 387t135.5 386t322.5 144 zM770 473q0 229 -77 371.5t-206 142.5q-221 0 -221 -432q0 -229 78 -372.5t207 -143.5q219 0 219 434z" glyph-name="otilde" horiz-adv-x="1040" unicode="õ"/><glyph d="M326 1192q-39 0 -67 27.5t-28 66.5t28 66.5t67 27.5t67.5 -27.5t28.5 -66.5t-28.5 -66.5t-67.5 -27.5zM715 1192q-39 0 -68 27.5t-29 66.5t29 66.5t68 27.5t66.5 -27.5t27.5 -66.5t-27.5 -66.5t-66.5 -27.5zM519 1042q187 0 323.5 -141t136.5 -383t-135 -390t-321.5 -148 t-324 145t-137.5 387t135.5 386t322.5 144zM770 473q0 229 -77 371.5t-206 142.5q-221 0 -221 -432q0 -229 78 -372.5t207 -143.5q219 0 219 434z" glyph-name="odieresis" horiz-adv-x="1040" unicode="ö"/><glyph d="M526.5 741q-34.5 0 -60.5 27t-26 61.5t26 60t60.5 25.5t60 -25.5t25.5 -60t-25.5 -61.5t-60 -27zM143 573h717v-75h-717v75zM526.5 115q-34.5 0 -60.5 26.5t-26 61.5t26 60.5t60.5 25.5t60 -25.5t25.5 -60.5t-25.5 -61.5t-60 -26.5z" glyph-name="divide" horiz-adv-x="1044" unicode="÷"/><glyph d="M979 509q0 -233 -135 -381t-305.5 -148t-290.5 98l-53 -70l-72 51l61 82q-123 145 -123 379t135.5 378t319.5 144q152 0 275 -94l77 105l72 -54l-86 -112q125 -145 125 -378zM266 555q0 -141 33 -260l401 534q-78 158 -213 158q-221 0 -221 -432zM551 39q219 0 219 434 q0 152 -33 258l-401 -534q78 -158 215 -158z" glyph-name="oslash" horiz-adv-x="1040" unicode="ø"/><glyph d="M774 1180l-16 -31l-357 139q-33 14 -44 46t5.5 62.5t52.5 33t70 -24.5zM958 190q0 -51 29 -67.5t92 -7.5v-54q-86 -20 -164.5 -54t-101.5 -34q-45 0 -39 56l19 198q-92 -133 -172 -193t-177 -61q-139 0 -216.5 82t-77.5 279v551q0 41 -13.5 58.5t-44.5 14.5l-61 -2v56 l258 22q47 4 47 -39v-663q0 -270 156 -271q158 0 280 234v590q0 41 -12 58.5t-43 14.5l-64 -2v56l258 22q47 2 47 -39v-805z" glyph-name="ugrave" horiz-adv-x="1120" unicode="ù"/><glyph d="M348 1180l289 225q35 27 71.5 24.5t53 -33t5.5 -61t-46 -47.5l-356 -139zM958 190q0 -51 29 -67.5t92 -7.5v-54q-86 -20 -164.5 -54t-101.5 -34q-45 0 -39 56l19 198q-92 -133 -172 -193t-177 -61q-139 0 -216.5 82t-77.5 279v551q0 41 -13.5 58.5t-44.5 14.5l-61 -2v56 l258 22q47 4 47 -39v-663q0 -270 156 -271q158 0 280 234v590q0 41 -12 58.5t-43 14.5l-64 -2v56l258 22q47 2 47 -39v-805z" glyph-name="uacute" horiz-adv-x="1120" unicode="ú"/><glyph d="M561 1460q141 -180 305 -311h-73l-232 162l-229 -162h-76q164 131 305 311zM958 190q0 -51 29 -67.5t92 -7.5v-54q-86 -20 -164.5 -54t-101.5 -34q-45 0 -39 56l19 198q-92 -133 -172 -193t-177 -61q-139 0 -216.5 82t-77.5 279v551q0 41 -13.5 58.5t-44.5 14.5l-61 -2 v56l258 22q47 4 47 -39v-663q0 -270 156 -271q158 0 280 234v590q0 41 -12 58.5t-43 14.5l-64 -2v56l258 22q47 2 47 -39v-805z" glyph-name="ucircumflex" horiz-adv-x="1120" unicode="û"/><glyph d="M367 1192q-39 0 -67 27.5t-28 66.5t28 66.5t67 27.5t67.5 -27.5t28.5 -66.5t-28.5 -66.5t-67.5 -27.5zM756 1192q-39 0 -68 27.5t-29 66.5t29 66.5t68 27.5t66.5 -27.5t27.5 -66.5t-27.5 -66.5t-66.5 -27.5zM958 190q0 -51 29 -67.5t92 -7.5v-54q-86 -20 -164.5 -54 t-101.5 -34q-45 0 -39 56l19 198q-92 -133 -172 -193t-177 -61q-139 0 -216.5 82t-77.5 279v551q0 41 -13.5 58.5t-44.5 14.5l-61 -2v56l258 22q47 4 47 -39v-663q0 -270 156 -271q158 0 280 234v590q0 41 -12 58.5t-43 14.5l-64 -2v56l258 22q47 2 47 -39v-805z" glyph-name="udieresis" horiz-adv-x="1120" unicode="ü"/><glyph d="M338 1180l289 225q35 27 71.5 24.5t53 -33t5 -61t-45.5 -47.5l-357 -139zM390 -449q-34 0 -46 9.5t-4 23.5q188 432 188 434q0 31 -160.5 406t-203.5 481q-29 59 -72 64l-61 6v51q238 -10 440 0v-51l-68 -6q-72 -6 -49 -64l262 -659l236 659q18 51 -61 64l-54 6v51 q152 -8 332 0v-51l-47 -6q-19 -1 -32 -7q-14 -6 -26 -11q-32 -13 -42 -46l-484 -1321q-14 -33 -48 -33z" glyph-name="yacute" horiz-adv-x="1099" unicode="ý"/><glyph d="M631 1042q176 0 299 -143t123 -388t-134.5 -389.5t-305.5 -144.5t-273 111v-293q0 -51 33 -68.5t108 -9.5v-55q-98 -14 -203.5 -58t-140.5 -44t-35 32q0 14 26 44t26 135v1355q0 92 -123 76v53q90 14 173 53.5t97 39.5q39 0 39 -50v-393q115 137 291 137zM600 31 q252 0 252 430q0 229 -64.5 375.5t-193.5 146.5q-78 0 -145.5 -44t-108.5 -103v-551q2 -84 81 -169t179 -85z" glyph-name="thorn" horiz-adv-x="1103" unicode="þ"/><glyph d="M356 1192q-39 0 -66.5 27.5t-27.5 66.5t27.5 66.5t66.5 27.5t68 -27.5t29 -66.5t-29 -66.5t-68 -27.5zM745.5 1192q-38.5 0 -67.5 27.5t-29 66.5t29 66.5t67.5 27.5t66.5 -27.5t28 -66.5t-28 -66.5t-66.5 -27.5zM390 -449q-34 0 -46 9.5t-4 23.5q188 432 188 434 q0 31 -160.5 406t-203.5 481q-29 59 -72 64l-61 6v51q238 -10 440 0v-51l-68 -6q-72 -6 -49 -64l262 -659l236 659q18 51 -61 64l-54 6v51q152 -8 332 0v-51l-47 -6q-19 -1 -32 -7q-14 -6 -26 -11q-32 -13 -42 -46l-484 -1321q-14 -33 -48 -33z" glyph-name="ydieresis" horiz-adv-x="1099" unicode="ÿ"/><glyph d="M375 1477q-41 0 -41 34v5q0 35 41 34h579q41 0 41 -34v-5q0 -35 -41 -34h-579zM1124 180q18 -50 28 -68q28 -49 157 -59v-53q-246 10 -496 0v53q109 8 125 34t-14 87l-95 256h-452l-92 -270q-16 -51 24.5 -74t139.5 -33v-53q-217 10 -429 0v53q96 8 139.5 38t67.5 102 l373 1089h111zM395 489h412l-213 582z" glyph-name="Amacron" horiz-adv-x="1329" unicode="Ā"/><glyph d="M166 1270q0 35 41 35h579q41 0 41 -35v-4q0 -35 -41 -35h-579q-41 0 -41 35v4zM846 195q0 -49 28.5 -65.5t92.5 -10.5v-58q-86 -20 -165 -54t-102 -34q-43 0 -41 50l11 157q-45 -84 -126 -145.5t-197 -61.5t-206 64.5t-90 204t129 235.5t479 170v62q0 155 -13 204.5 t-36.5 63.5t-88 14t-117 -31.5t-69 -75.5t-26.5 -89t-31.5 -77t-65.5 -32t-66.5 23.5t-22.5 62.5q0 111 124 191.5t301 80.5t237.5 -71.5t60.5 -263.5v-514zM420 59q82 0 146.5 68t92.5 139v324q-263 -57 -347 -170q-62 -83 -62 -171.5t44 -139t126 -50.5z" glyph-name="amacron" horiz-adv-x="997" unicode="ā"/><glyph d="M663.5 1415q-114.5 0 -190.5 75t-82 177h66q8 -49 65.5 -92t141.5 -43t142 43t66 92h66q-6 -102 -83 -177t-191.5 -75zM1124 180q18 -50 28 -68q28 -49 157 -59v-53q-246 10 -496 0v53q109 8 125 34t-14 87l-95 256h-452l-92 -270q-16 -51 24.5 -74t139.5 -33v-53 q-217 10 -429 0v53q96 8 139.5 38t67.5 102l373 1089h111zM395 489h412l-213 582z" glyph-name="Abreve" horiz-adv-x="1329" unicode="Ă"/><glyph d="M497.5 1169q-114.5 0 -190.5 75t-82 177h66q8 -49 65.5 -92t141.5 -43t142 43t67 92h65q-6 -102 -83 -177t-191.5 -75zM846 195q0 -49 28.5 -65.5t92.5 -10.5v-58q-86 -20 -165 -54t-102 -34q-43 0 -41 50l11 157q-45 -84 -126 -145.5t-197 -61.5t-206 64.5t-90 204 t129 235.5t479 170v62q0 155 -13 204.5t-36.5 63.5t-88 14t-117 -31.5t-69 -75.5t-26.5 -89t-31.5 -77t-65.5 -32t-66.5 23.5t-22.5 62.5q0 111 124 191.5t301 80.5t237.5 -71.5t60.5 -263.5v-514zM420 59q82 0 146.5 68t92.5 139v324q-263 -57 -347 -170 q-62 -83 -62 -171.5t44 -139t126 -50.5z" glyph-name="abreve" horiz-adv-x="997" unicode="ă"/><glyph d="M1149 10q-408 0 -408 -219q0 -55 35 -88t90 -33q96 0 140 88l41 -24q-76 -147 -259 -148q-78 0 -140 41t-62 121t53 141.5t124 95t78 38t21.5 12.5t19.5 12t14 11.5t12 12.5t9.5 12t7.5 15t3 18t2 26t-6 32l-95 256h-452l-92 -270q-14 -37 17.5 -68t146.5 -39v-53 q-59 4 -215 4t-214 -4v53q96 8 139.5 38t67.5 102l373 1089h111l413 -1102q18 -49 37 -82.5t148 -44.5v-53q-98 10 -160 10zM395 489h412l-213 582z" glyph-name="Aogonek" horiz-adv-x="1329" unicode="Ą"/><glyph d="M614 -218q0 -48 34 -80t91 -32q96 0 140 88l41 -24q-76 -147 -258 -148q-78 0 -140.5 40t-62.5 116q0 161 205 252q-6 14 -5 29l11 157q-45 -84 -126 -145.5t-197 -61.5t-206 64.5t-90 204t129 235.5t479 170v62q0 155 -13 204.5t-36.5 63.5t-88 14t-117 -31.5t-69 -75.5 t-26.5 -89t-31.5 -77t-65.5 -32t-66.5 23.5t-22.5 62.5q0 111 124 191.5t301 80.5t237.5 -71.5t60.5 -263.5v-514q0 -49 28.5 -65.5t92.5 -10.5v-58q-241 -64 -301 -136q-32 -38 -42 -66.5t-10 -76.5zM250 225.5q0 -65.5 44 -116t126 -50.5t146 67.5t93 139.5v324 q-263 -57 -347 -170q-38 -51 -50 -90t-12 -104.5z" glyph-name="aogonek" horiz-adv-x="997" unicode="ą"/><glyph d="M397 1425l289 226q35 27 72 24.5t53 -33t5 -61.5t-46 -47l-356 -139zM968.5 14q-42.5 0 -128.5 -20.5t-166 -20.5q-270 0 -436 190.5t-166 476.5t163.5 475.5t423.5 189.5q74 0 160 -19.5t132.5 -19.5t72.5 4q37 -193 109 -348h-95q-66 160 -164 240.5t-244 80.5 t-247.5 -128t-101.5 -420t114.5 -475t290.5 -183q119 0 204 73.5t177 233.5h104q-102 -178 -133 -334q-27 4 -69.5 4z" glyph-name="Cacute" horiz-adv-x="1212" unicode="Ć"/><glyph d="M297 1180l289 225q35 27 71.5 24.5t53 -33t5.5 -61t-46 -47.5l-357 -139zM844 219q12 0 17 -10t-1 -27q-90 -203 -323 -202q-209 0 -342.5 146t-133.5 387t128 385t321 144q160 0 258 -76.5t100 -179.5q0 -35 -26.5 -62.5t-66.5 -27.5t-67.5 23.5t-25.5 58.5 q8 209 -150 209q-125 0 -195.5 -119.5t-70.5 -341.5t79 -354.5t202 -132.5q96 0 155.5 47t75.5 115q4 18 23 18h43z" glyph-name="cacute" horiz-adv-x="929" unicode="ć"/><glyph d="M608 1401q-141 180 -305 311h76l229 -162l232 162h73q-164 -131 -305 -311zM968.5 14q-42.5 0 -128.5 -20.5t-166 -20.5q-270 0 -436 190.5t-166 476.5t163.5 475.5t423.5 189.5q74 0 160 -19.5t132.5 -19.5t72.5 4q37 -193 109 -348h-95q-66 160 -164 240.5t-244 80.5 t-247.5 -128t-101.5 -420t114.5 -475t290.5 -183q119 0 204 73.5t177 233.5h104q-102 -178 -133 -334q-27 4 -69.5 4z" glyph-name="Ccaron" horiz-adv-x="1212" unicode="Č"/><glyph d="M510 1155q-141 180 -305 311h76l229 -161l231 161h74q-164 -131 -305 -311zM844 219q12 0 17 -10t-1 -27q-90 -203 -323 -202q-209 0 -342.5 146t-133.5 387t128 385t321 144q160 0 258 -76.5t100 -179.5q0 -35 -26.5 -62.5t-66.5 -27.5t-67.5 23.5t-25.5 58.5 q8 209 -150 209q-125 0 -195.5 -119.5t-70.5 -341.5t79 -354.5t202 -132.5q96 0 155.5 47t75.5 115q4 18 23 18h43z" glyph-name="ccaron" horiz-adv-x="929" unicode="č"/><glyph d="M639 1401q-141 180 -305 311h76l229 -162l231 162h74q-164 -131 -305 -311zM508 1272q317 0 497.5 -158t180.5 -469t-174 -478t-404 -167q-57 0 -156.5 15.5t-178.5 15.5t-222 -31v55q82 20 113 38t31 57v956q0 51 -30 78.5t-110 36.5v51q20 -6 233.5 -3t219.5 3z M387 166q0 -57 49 -79t139 -24q401 -8 402 572q0 260 -111.5 421t-339.5 156q-80 0 -139 -4v-1042z" glyph-name="Dcaron" horiz-adv-x="1267" unicode="Ď"/><glyph d="M942 197q0 -49 28.5 -65.5t92.5 -10.5v-60q-86 -20 -165 -54t-101 -34q-47 0 -41 54l16 129q-18 -66 -93 -122.5t-190 -56.5q-188 0 -313 148.5t-125 393.5t128 384t297 139t280 -141v217q0 90 -123 78v59q90 14 173 53.5t97 39.5q39 0 39 -50v-1101zM1135 1126 q-41 0 -71 31t-30 78t31 77.5t83 30.5t86 -44t34 -107q0 -153 -119 -262q-18 -12 -31 0l-16 20q70 74 69 160q0 14 -4 20q-20 -4 -32 -4zM530 37q94 0 156 70.5t70 154.5v569q-109 156 -254 156q-250 0 -250 -426q0 -225 71.5 -374.5t206.5 -149.5z" glyph-name="dcaron" horiz-adv-x="1191" unicode="ď"/><glyph d="M518 1272q317 0 497.5 -158t180.5 -469t-174 -478t-404 -167q-57 0 -156.5 15.5t-178 15.5t-222.5 -31v55q82 20 113 38t31 57v450h-154v72h154v434q0 51 -30 78.5t-109 36.5v51q20 -6 233 -3t219 3zM987 635q0 260 -111.5 421t-338.5 156q-80 0 -140 -4v-536h178v-72 h-178v-434q0 -57 49.5 -79t139.5 -24q401 -8 401 572z" glyph-name="Dcroat" horiz-adv-x="1277" unicode="Đ"/><glyph d="M1073 1081h-131v-884q0 -49 28.5 -65.5t92.5 -10.5v-60q-86 -20 -165 -54t-101 -34q-47 0 -41 54l16 129q-18 -66 -93 -122.5t-190 -56.5q-188 0 -313 148.5t-125 393.5t128 384t297 139t280 -141v180h-113v41h111q0 86 -121 74v59q90 14 173 53.5t97 39.5q39 0 39 -50 v-176h131v-41zM502 987q-250 0 -250 -426q0 -225 71.5 -374.5t206.5 -149.5q94 0 156 70.5t70 154.5v569q-109 156 -254 156z" glyph-name="dcroat" horiz-adv-x="1114" unicode="đ"/><glyph d="M231 1477q-41 0 -41 34v5q0 35 41 34h580q41 0 41 -34v-5q0 -35 -41 -34h-580zM195 135v1012q0 37 -30 52t-114 22v51h836q20 0 25.5 -7.5t9.5 -29.5l26 -217h-55l-23 43q-41 80 -91 114.5t-126 34.5h-247q-18 0 -19 -18v-514h264q70 0 96.5 31.5t43.5 103.5h51 q-14 -166 0 -332h-51q-16 72 -43 103.5t-97 31.5h-264v-534q0 -16 19 -16h225q90 0 142 28.5t85 91.5l66 131h59q-43 -129 -61 -315q-440 6 -871 0v61q86 8 115 21.5t29 50.5z" glyph-name="Emacron" horiz-adv-x="1044" unicode="Ē"/><glyph d="M172 1270q0 35 41 35h580q41 0 41 -35v-4q0 -35 -41 -35h-580q-41 0 -41 35v4zM856 219q12 0 17.5 -9t-1.5 -26q-86 -205 -340 -204q-205 0 -338 148t-133 390t127 383q126 141 308 141t295.5 -111.5t113.5 -305.5q0 -109 -94 -109h-543q0 -225 76 -351t211 -126 q162 0 240 151q10 29 34 29h27zM721 573q0 414 -213 414q-117 0 -178.5 -109.5t-61.5 -304.5h453z" glyph-name="emacron" unicode="ē"/><glyph d="M522 1436q-43 0 -74.5 31.5t-31.5 74.5t31.5 75t74.5 32t75 -32t32 -75t-32 -74.5t-75 -31.5zM195 135v1012q0 37 -30 52t-114 22v51h836q20 0 25.5 -7.5t9.5 -29.5l26 -217h-55l-23 43q-41 80 -91 114.5t-126 34.5h-247q-18 0 -19 -18v-514h264q70 0 96.5 31.5 t43.5 103.5h51q-14 -166 0 -332h-51q-16 72 -43 103.5t-97 31.5h-264v-534q0 -16 19 -16h225q90 0 142 28.5t85 91.5l66 131h59q-43 -129 -61 -315q-440 6 -871 0v61q86 8 115 21.5t29 50.5z" glyph-name="Edotaccent" horiz-adv-x="1044" unicode="Ė"/><glyph d="M504 1190q-43 0 -75 31.5t-32 74.5t32 75t75 32t74.5 -32t31.5 -75t-31.5 -74.5t-74.5 -31.5zM856 219q12 0 17.5 -9t-1.5 -26q-86 -205 -340 -204q-205 0 -338 148t-133 390t127 383q126 141 308 141t295.5 -111.5t113.5 -305.5q0 -109 -94 -109h-543q0 -225 76 -351 t211 -126q162 0 240 151q10 29 34 29h27zM721 573q0 414 -213 414q-117 0 -178.5 -109.5t-61.5 -304.5h453z" glyph-name="edotaccent" unicode="ė"/><glyph d="M733 -326q94 0 139 88l41 -24q-76 -147 -260 -148q-78 0 -139 40t-61 122t65.5 147.5t161.5 104.5q-201 2 -629 -2v61q86 8 115 21.5t29 50.5v1012q0 37 -30 52t-114 22v51h836q20 0 25.5 -7.5t9.5 -29.5l26 -217h-55l-23 43q-41 80 -91 114.5t-126 34.5h-247 q-18 0 -19 -18v-514h264q70 0 96.5 31.5t43.5 103.5h51q-14 -166 0 -332h-51q-16 72 -43 103.5t-97 31.5h-264v-534q0 -16 19 -16h225q90 0 142 28.5t85 91.5l66 131h59q-43 -129 -61 -315q-57 2 -170 2q-143 -84 -144 -211q0 -55 34 -87t91 -32z" glyph-name="Eogonek" horiz-adv-x="1028" unicode="Ę"/><glyph d="M811 516h-543q0 -225 76 -351t211 -126q162 0 240 151q10 29 34 29h27q12 0 17.5 -9t-1.5 -26q-55 -133 -182 -178h2q-178 -82 -178 -217q0 -55 35 -87t90 -32q94 0 139 88l41 -24q-76 -147 -258 -148q-78 0 -140.5 40t-62.5 118t53.5 137.5t139.5 98.5h-19 q-205 0 -338 148t-133 390t127 383q126 141 308 141t295.5 -111.5t113.5 -305.5q0 -109 -94 -109zM508 987q-117 0 -178.5 -109.5t-61.5 -304.5h453q0 414 -213 414z" glyph-name="eogonek" unicode="ę"/><glyph d="M522 1401q-141 180 -305 311h76l229 -162l232 162h73q-164 -131 -305 -311zM195 135v1012q0 37 -30 52t-114 22v51h836q20 0 25.5 -7.5t9.5 -29.5l26 -217h-55l-23 43q-41 80 -91 114.5t-126 34.5h-247q-18 0 -19 -18v-514h264q70 0 96.5 31.5t43.5 103.5h51 q-14 -166 0 -332h-51q-16 72 -43 103.5t-97 31.5h-264v-534q0 -16 19 -16h225q90 0 142 28.5t85 91.5l66 131h59q-43 -129 -61 -315q-440 6 -871 0v61q86 8 115 21.5t29 50.5z" glyph-name="Ecaron" horiz-adv-x="1044" unicode="Ě"/><glyph d="M504 1155q-141 180 -305 311h75l230 -161l231 161h74q-164 -131 -305 -311zM856 219q12 0 17.5 -9t-1.5 -26q-86 -205 -340 -204q-205 0 -338 148t-133 390t127 383q126 141 308 141t295.5 -111.5t113.5 -305.5q0 -109 -94 -109h-543q0 -225 76 -351t211 -126 q162 0 240 151q10 29 34 29h27zM721 573q0 414 -213 414q-117 0 -178.5 -109.5t-61.5 -304.5h453z" glyph-name="ecaron" unicode="ě"/><glyph d="M1135 344v-61q0 -98 6 -181l39 -4q14 -2 14 -16v-45q-33 6 -95.5 6t-182 -35t-236.5 -35q-276 0 -442 190.5t-166 476.5t162.5 475.5t422.5 189.5q74 0 161 -19.5t133.5 -19.5t72.5 4q37 -193 109 -348h-95q-66 160 -163 240.5t-244 80.5t-248.5 -128t-101.5 -420 t114.5 -475t290.5 -183q96 0 149.5 15.5t80 64.5t31.5 102t5 113v76q0 86 -15 108.5t-93 28.5l-53 6v51q264 -8 473 2v-53l-52 -8q-29 -5 -45 -19q-32 -28 -32 -180zM674 -350q0 14 -4 20q-20 -4 -47 -4t-56.5 30t-29.5 77t31.5 77.5t84.5 30.5t86 -44t33 -111.5t-33 -137 t-88 -118.5q-16 -14 -30 0l-15 20q68 72 68 160z" glyph-name="Gcommaaccent" horiz-adv-x="1314" unicode="Ģ"/><glyph d="M498 1323q41 0 71.5 -30.5t30.5 -77.5t-31.5 -78t-84 -31t-86 44t-33.5 107q-1 157 120 263q14 12 31 0l14 -21q-68 -72 -67 -160q0 -14 4 -20q20 4 31 4zM940 1040q55 0 71.5 -18t16.5 -66q0 -76 -51 -69q-82 12 -86 12q-59 0 -39 -57q37 -84 37 -162 q0 -154 -107.5 -259.5t-285.5 -105.5q-45 0 -117 14.5t-103 14.5q-82 0 -81 -59q0 -37 46 -57.5t142 -34.5l250 -39q180 -27 263 -88.5t83 -195.5t-135 -224t-338 -90t-320.5 75.5t-117.5 214.5q0 68 31.5 112t90.5 44q84 0 84 -72q0 -23 -12 -62.5t-12 -80.5 q0 -72 70.5 -125t208 -53t214 64.5t76.5 179.5q0 70 -43 99.5t-145 49.5l-330 55q-129 25 -184.5 69t-55.5 111.5t58.5 109.5t156.5 34q-80 45 -129 125t-49 174q0 156 103.5 259t290.5 103t307 -137q30 135 141 135zM495 375q105 0 154 89t49 190.5t-18 168t-66.5 115.5 t-119.5 49q-104 0 -154.5 -93t-50.5 -216t50.5 -213t155.5 -90z" glyph-name="gcommaaccent" horiz-adv-x="1079" unicode="ģ"/><glyph d="M1120 1145v-1016q0 -37 32 -52.5t114 -23.5v-53q-242 10 -488 0v53q84 8 116 23.5t32 52.5v477h-535v-477q0 -37 32 -52.5t116 -23.5v-53q-244 10 -488 0v53q84 8 116 23.5t32 52.5v1016q0 37 -31 51t-117 25v51q244 -10 488 0v-51q-86 -10 -117 -24.5t-31 -51.5v-303 h535v303q0 37 -31 51t-117 25v51q246 -10 488 0v-51q-84 -10 -115 -24.5t-31 -51.5zM391 666h535v118h-535v-118z" glyph-name="Hbar" horiz-adv-x="1359" unicode="Ħ"/><glyph d="M961 129q0 -61 122 -76v-53q-215 10 -428 0v53q119 14 119 76v565q0 131 -31.5 200t-105.5 69t-143.5 -45.5t-101.5 -82t-52 -67.5v-639q0 -61 121 -76v-53q-213 10 -428 0v53q121 14 121 76v918h-113v59h113v20q0 92 -123 76v53q90 14 173 53.5t97 39.5q39 0 39 -50 v-192h129v-59h-129v-107l-10 -111q41 70 134 142.5t223 72.5t202 -76.5t72 -273.5v-565z" glyph-name="hbar" horiz-adv-x="1124" unicode="ħ"/><glyph d="M-37 1516q0 35 41 34h580q41 0 41 -34v-5q0 -35 -41 -34h-580q-41 0 -41 34v5zM391 129q0 -37 32 -52.5t116 -23.5v-53q-244 10 -488 0v53q84 8 116 23.5t32 52.5v1016q0 37 -31 51t-117 25v51q244 -10 488 0v-51q-86 -10 -117 -24.5t-31 -51.5v-1016z" glyph-name="Imacron" horiz-adv-x="589" unicode="Ī"/><glyph d="M-76 1270q0 35 41 35h580q41 0 41 -35v-4q0 -35 -41 -35h-580q-41 0 -41 35v4zM350 129q0 -61 121 -76v-53q-213 8 -428 0v53q121 14 121 76v709q0 49 -30 67.5t-93 14.5v53q94 12 176 44t94 32q51 0 51 -50q0 -16 -6 -98t-6 -156v-616z" glyph-name="imacron" horiz-adv-x="512" unicode="ī"/><glyph d="M391 1145v-1016q0 -37 32 -52.5t116 -23.5v-53q-123 4 -185 4q-139 -84 -139 -205q0 -55 34 -88t91 -33q94 0 139 91l41 -27q-76 -147 -258 -148q-78 0 -140.5 40t-62.5 121t62.5 145.5t154.5 103.5q-78 0 -225 -4v53q84 8 116 23.5t32 52.5v1016q0 37 -31 51t-117 25v51 q244 -10 488 0v-51q-86 -10 -117 -24.5t-31 -51.5z" glyph-name="Iogonek" horiz-adv-x="589" unicode="Į"/><glyph d="M256 1190q-43 0 -74.5 31.5t-31.5 74.5t31.5 75t74.5 32t74.5 -32t31.5 -75t-31.5 -74.5t-74.5 -31.5zM37 -245q0 81 63.5 145.5t155.5 103.5q-70 0 -213 -4v53q121 14 121 76v709q0 49 -30 67.5t-93 14.5v53q94 12 176 44t94 32q51 0 51 -50q0 -16 -6 -98t-6 -156v-616 q0 -61 121 -76v-53q-94 4 -139 4q-139 -84 -139 -207q0 -55 33.5 -87t90.5 -32q97 1 140 89l41 -25q-76 -147 -258 -148q-78 0 -140.5 40t-62.5 121z" glyph-name="iogonek" horiz-adv-x="509" unicode="į"/><glyph d="M350 129q0 -61 121 -76v-53q-213 8 -428 0v53q121 14 121 76v709q0 49 -30 67.5t-93 14.5v53q94 12 176 44t94 32q51 0 51 -50q0 -16 -6 -98t-6 -156v-616z" glyph-name="dotlessi" horiz-adv-x="512" unicode="ı"/><glyph d="M391 129q0 -37 32 -52.5t116 -23.5v-53q-244 10 -488 0v53q84 8 116 23.5t32 52.5v1016q0 37 -31 51t-117 25v51q244 -10 488 0v-51q-86 -10 -117 -24.5t-31 -51.5v-1016zM999 1145v-946q0 -305 -113.5 -431t-336.5 -126v55q123 0 189.5 95t66.5 237v1116q0 37 -31 51 t-115 25v51q244 -10 486 0v-51q-84 -10 -115 -24.5t-31 -51.5z" glyph-name="IJ" horiz-adv-x="1196" unicode="Ĳ"/><glyph d="M788.5 1219q-40.5 0 -71.5 29.5t-31 71.5t31 71.5t71.5 29.5t71.5 -30.5t31 -70.5t-31 -70.5t-71.5 -30.5zM246 1219q-41 0 -72 29.5t-31 71.5t31 71.5t72 29.5t71.5 -30.5t30.5 -71.5t-30.5 -70.5t-71.5 -29.5zM854 1049q51 0 51 -50q0 -16 -6 -98t-6 -156v-628 q0 -305 -107.5 -431t-316.5 -126l-8 55q119 6 182.5 96t63.5 236v891q0 49 -29 67.5t-92 14.5v53q92 12 174 44t94 32zM350 129q0 -61 121 -76v-53q-213 8 -428 0v53q121 14 121 76v709q0 49 -30 67.5t-93 14.5v53q94 12 176 44t94 32q51 0 51 -50q0 -16 -6 -98t-6 -156 v-616z" glyph-name="ij" horiz-adv-x="1028" unicode="ĳ"/><glyph d="M381 129q0 -37 31.5 -52.5t115.5 -23.5v-53q-244 10 -487 0v53q84 8 115.5 23.5t31.5 52.5v1016q0 37 -30.5 51t-116.5 25v51q244 -10 487 0v-51q-86 -10 -116.5 -24.5t-30.5 -51.5v-557l483 557q33 37 -5 53t-124 23v51q203 -10 410 0v-51q-78 -6 -118 -17.5t-73 -48.5 l-395 -455l365 -477q70 -90 145.5 -142t128.5 -56l-57 -54q-137 0 -227.5 38t-170.5 147l-303 405l-59 -67v-365zM643 -119q53 0 86 -44t33 -111.5t-33 -137t-88 -118.5q-16 -14 -31 0l-14 20q68 72 68 160q0 14 -5 20q-20 -4 -46.5 -4t-56.5 30t-30 77t32 77.5t85 30.5z " glyph-name="Kcommaaccent" horiz-adv-x="1249" unicode="Ķ"/><glyph d="M350 129q0 -61 121 -76v-53q-213 10 -428 0v53q121 14 121 76v997q0 92 -123 76v53q90 14 173 53.5t95 39.5q41 0 41 -50v-739q211 172 340 346q43 55 -61 68v53q168 -8 340 0v-53q-61 -6 -95 -20.5t-81 -59.5l-316 -303l316 -404q117 -150 233 -161l-57 -54 q-227 0 -365 174l-254 328v-344zM545 -119q53 0 86 -44t33 -111.5t-33 -137t-88 -118.5q-16 -14 -31 0l-14 20q68 72 67 160q0 14 -4 20q-20 -4 -47 -4t-56.5 30t-29.5 77t32 77.5t85 30.5z" glyph-name="kcommaaccent" horiz-adv-x="1046" unicode="ķ"/><glyph d="M354 1425l289 226q35 27 72 24.5t53 -33t5 -61.5t-46 -47l-356 -139zM188 133v1012q0 37 -30.5 51t-116.5 25v51q244 -10 487 0v-51q-86 -10 -116.5 -24.5t-30.5 -51.5v-1065q0 -16 18 -17h240q90 0 142.5 28t82.5 93l66 131h59q-47 -150 -59 -315q-446 8 -885 0v59 q86 10 114.5 23.5t28.5 50.5z" glyph-name="Lacute" horiz-adv-x="1030" unicode="Ĺ"/><glyph d="M27 1425l288 226q35 27 72 24.5t53.5 -33t5 -61.5t-46.5 -47l-356 -139zM328 164q0 -96 121 -78v-51q-63 -14 -150 -38t-115 -24q-41 0 -41 50v1103q0 92 -123 76v53q90 14 172 53.5t97 39.5q39 0 39 -50v-1134z" glyph-name="lacute" horiz-adv-x="489" unicode="ĺ"/><glyph d="M188 133v1012q0 37 -30.5 51t-116.5 25v51q244 -10 487 0v-51q-86 -10 -116.5 -24.5t-30.5 -51.5v-1065q0 -16 18 -17h240q90 0 142.5 28t82.5 93l66 131h59q-47 -150 -59 -315q-446 8 -885 0v59q86 10 114.5 23.5t28.5 50.5zM590 -350q0 14 -4 20q-20 -4 -47 -4 t-56.5 30t-29.5 77t31.5 77.5t84.5 30.5t86 -44t33 -111.5t-33 -137t-88 -118.5q-16 -14 -30 0l-15 20q68 72 68 160z" glyph-name="Lcommaaccent" horiz-adv-x="1030" unicode="Ļ"/><glyph d="M328 164q0 -96 121 -78v-51q-63 -14 -150.5 -38t-114.5 -24q-41 0 -41 50v1103q0 92 -123 76v53q90 14 172 53.5t97 39.5q39 0 39 -50v-1134zM211 -334q-27 0 -56.5 30t-29.5 77t31.5 77.5t85 30.5t86 -44t32.5 -111.5t-32.5 -137t-87.5 -118.5q-16 -14 -31 0l-14 20 q68 72 67 160q0 14 -4 20q-20 -4 -47 -4z" glyph-name="lcommaaccent" horiz-adv-x="489" unicode="ļ"/><glyph d="M188 133v1012q0 37 -30.5 51t-116.5 25v51q244 -10 487 0v-51q-86 -10 -116.5 -24.5t-30.5 -51.5v-1065q0 -16 18 -17h240q90 0 142.5 28t82.5 93l66 131h59q-47 -150 -59 -315q-446 8 -885 0v59q86 10 114.5 23.5t28.5 50.5zM788 1053q-41 0 -71.5 30.5t-30.5 76.5 t32 78t84 32t86 -45t34 -109q0 -154 -121 -260q-14 -16 -31 0l-14 21q68 68 67 159q0 14 -4 21q-20 -4 -31 -4z" glyph-name="Lcaron" horiz-adv-x="1134" unicode="Ľ"/><glyph d="M328 164q0 -96 121 -78v-51q-63 -14 -150 -38t-115 -24q-41 0 -41 50v1103q0 92 -123 76v53q90 14 172 53.5t97 39.5q39 0 39 -50v-1134zM631 1106q0 14 -4 20q-20 -4 -47 -4t-56.5 30t-29.5 77t30.5 77.5t83.5 30.5t86 -44t33 -111.5t-33 -138t-86 -117.5q-16 -14 -30 0 l-17 20q70 70 70 160z" glyph-name="lcaron" horiz-adv-x="575" unicode="ľ"/><glyph d="M188 133v1012q0 37 -30.5 51t-116.5 25v51q244 -10 487 0v-51q-86 -10 -116.5 -24.5t-30.5 -51.5v-1065q0 -16 18 -17h240q90 0 142.5 28t82.5 93l66 131h59q-47 -150 -59 -315q-446 8 -885 0v59q86 10 114.5 23.5t28.5 50.5zM696 696q-45 0 -77.5 34t-32.5 79t32.5 79 t77.5 34t79 -33t34 -80t-34 -80t-79 -33z" glyph-name="Ldot" horiz-adv-x="1030" unicode="Ŀ"/><glyph d="M328 164q0 -96 121 -78v-51q-63 -14 -150 -38t-115 -24q-41 0 -41 50v1103q0 92 -123 76v53q90 14 172 53.5t97 39.5q39 0 39 -50v-1134zM561 692q-45 0 -77.5 34t-32.5 79t32.5 79t77.5 34t79 -33t34 -80t-34 -80t-79 -33z" glyph-name="ldot" horiz-adv-x="720" unicode="ŀ"/><glyph d="M199 133v399l-168 -49v62l168 51v549q0 37 -31 51t-117 25v51q244 -10 488 0v-51q-86 -10 -117 -24.5t-31 -51.5v-494l232 70v-64l-232 -67v-510q0 -16 19 -17h239q90 0 142.5 28t82.5 93l66 131h59q-47 -150 -59 -315q-446 8 -885 0v59q86 10 115 23.5t29 50.5z" glyph-name="Lslash" horiz-adv-x="1040" unicode="Ł"/><glyph d="M391 164q0 -96 121 -78v-51q-63 -14 -150 -38t-114 -24q-41 0 -41 50v542l-187 -55v63l187 56v497q0 92 -123 76v53q90 14 172 53.5t96 39.5q39 0 39 -50v-614l189 55v-61l-189 -57v-457z" glyph-name="lslash" horiz-adv-x="600" unicode="ł"/><glyph d="M422 1425l289 226q35 27 71.5 24.5t53 -33t5 -61.5t-45.5 -47l-357 -139zM1055 1145v-1145h-56l-714 1098v-969q0 -37 41 -51.5t145 -24.5v-53q-221 10 -440 0v53q104 10 144 24.5t40 51.5v1004q0 39 -38 58t-124 30v51q174 -8 348 0l584 -903v776q0 37 -39 50t-147 26 v51q221 -10 440 0v-51q-106 -12 -145 -25.5t-39 -50.5z" glyph-name="Nacute" horiz-adv-x="1269" unicode="Ń"/><glyph d="M344 1180l289 225q35 27 71.5 24.5t53 -33t5.5 -61t-46 -47.5l-357 -139zM961 129q0 -61 122 -76v-53q-215 10 -428 0v53q119 14 119 76v565q0 131 -31.5 200t-105.5 69t-161 -56t-136 -139v-639q0 -61 121 -76v-53q-213 10 -428 0v53q121 14 121 76v696q0 94 -123 78v53 q92 14 174 53.5t92 39.5q49 0 43 -52l-18 -174q29 43 67.5 86t120.5 89t168 46q139 0 211 -75.5t72 -274.5v-565z" glyph-name="nacute" horiz-adv-x="1114" unicode="ń"/><glyph d="M1055 1145v-1145h-56l-714 1098v-969q0 -37 41 -51.5t145 -24.5v-53q-221 10 -440 0v53q104 10 144 24.5t40 51.5v1004q0 39 -38 58t-124 30v51q174 -8 348 0l584 -903v776q0 37 -39 50t-147 26v51q221 -10 440 0v-51q-106 -12 -145 -25.5t-39 -50.5zM604 -334 q-27 0 -56.5 30t-29.5 77t32 77.5t85 30.5t86 -44t33 -111.5t-33 -137t-88 -118.5q-16 -14 -31 0l-14 20q68 72 67 160q0 14 -4 20q-20 -4 -47 -4z" glyph-name="Ncommaaccent" horiz-adv-x="1269" unicode="Ņ"/><glyph d="M961 129q0 -61 122 -76v-53q-215 10 -428 0v53q119 14 119 76v565q0 131 -31.5 200t-105.5 69t-161 -56t-136 -139v-639q0 -61 121 -76v-53q-213 10 -428 0v53q121 14 121 76v696q0 94 -123 78v53q92 14 174 53.5t92 39.5q49 0 43 -52l-18 -174q29 43 67.5 86t120.5 89 t168 46q139 0 211 -75.5t72 -274.5v-565zM578 -350q0 14 -5 20q-20 -4 -46.5 -4t-56.5 30t-30 77t32 77.5t85 30.5t86 -44t33 -111.5t-33 -137t-88 -118.5q-16 -14 -31 0l-14 20q68 72 68 160z" glyph-name="ncommaaccent" horiz-adv-x="1114" unicode="ņ"/><glyph d="M635 1401q-141 180 -305 311h76l229 -162l231 162h74q-164 -131 -305 -311zM1055 1145v-1145h-56l-714 1098v-969q0 -37 41 -51.5t145 -24.5v-53q-221 10 -440 0v53q104 10 144 24.5t40 51.5v1004q0 39 -38 58t-124 30v51q174 -8 348 0l584 -903v776q0 37 -39 50t-147 26 v51q221 -10 440 0v-51q-106 -12 -145 -25.5t-39 -50.5z" glyph-name="Ncaron" horiz-adv-x="1269" unicode="Ň"/><glyph d="M557 1155q-141 180 -305 311h76l229 -161l231 161h74q-164 -131 -305 -311zM961 129q0 -61 122 -76v-53q-215 10 -428 0v53q119 14 119 76v565q0 131 -31.5 200t-105.5 69t-161 -56t-136 -139v-639q0 -61 121 -76v-53q-213 10 -428 0v53q121 14 121 76v696q0 94 -123 78 v53q92 14 174 53.5t92 39.5q49 0 43 -52l-18 -174q29 43 67.5 86t120.5 89t168 46q139 0 211 -75.5t72 -274.5v-565z" glyph-name="ncaron" horiz-adv-x="1114" unicode="ň"/><glyph d="M1055 1145v-1145q0 -195 -114 -276.5t-337 -81.5v55q123 0 189.5 83t66.5 212v221l-575 885v-969q0 -37 41 -51.5t145 -24.5v-53q-221 10 -440 0v53q104 10 144 24.5t40 51.5v1004q0 39 -38 58t-124 30v51q174 -8 348 0l584 -903v776q0 37 -39 50t-147 26v51 q221 -10 440 0v-51q-106 -12 -145 -25.5t-39 -50.5z" glyph-name="Eng" horiz-adv-x="1269" unicode="Ŋ"/><glyph d="M678 1044q139 0 211 -75.5t72 -274.5v-577q0 -305 -108 -431t-316 -126l-9 55q119 6 182.5 96t63.5 236v747q0 131 -31.5 200t-105.5 69t-161.5 -56t-135.5 -139v-639q0 -61 121 -76v-53q-213 10 -428 0v53q121 14 121 76v696q0 94 -123 78v53q92 14 174 53.5t92 39.5 q49 0 43 -52l-18 -174q29 43 67.5 86t120.5 89t168 46z" glyph-name="eng" horiz-adv-x="1083" unicode="ŋ"/><glyph d="M305 1516q0 35 41 34h580q41 0 41 -34v-5q0 -35 -41 -34h-580q-41 0 -41 34v5zM1200 644q0 -288 -153.5 -479.5t-403.5 -191.5t-410.5 191.5t-160.5 478.5t155.5 474.5t407.5 187.5t408.5 -186.5t156.5 -474.5zM670 35q139 0 232 134t93 422t-109.5 471t-281.5 183 q-137 0 -230 -130t-93 -418t109.5 -475t279.5 -187z" glyph-name="Omacron" horiz-adv-x="1271" unicode="Ō"/><glyph d="M188 1270q0 35 41 35h580q41 0 41 -35v-4q0 -35 -41 -35h-580q-41 0 -41 35v4zM519 1042q187 0 323.5 -141t136.5 -383t-135 -390t-321.5 -148t-324 145t-137.5 387t135.5 386t322.5 144zM770 473q0 229 -77 371.5t-206 142.5q-221 0 -221 -432q0 -229 78 -372.5 t207 -143.5q219 0 219 434z" glyph-name="omacron" horiz-adv-x="1040" unicode="ō"/><glyph d="M336 1425l262 226q33 27 64.5 24.5t48 -33t6.5 -62.5t-43 -46l-324 -139zM666 1425l262 226q33 27 64.5 24.5t48 -33t6 -62.5t-42.5 -46l-324 -139zM1200 644q0 -288 -153.5 -479.5t-403.5 -191.5t-410.5 191.5t-160.5 478.5t155.5 474.5t407.5 187.5t408.5 -186.5 t156.5 -474.5zM670 35q139 0 232 134t93 422t-109.5 471t-281.5 183q-137 0 -230 -130t-93 -418t109.5 -475t279.5 -187z" glyph-name="Ohungarumlaut" horiz-adv-x="1271" unicode="Ő"/><glyph d="M221 1180l262 225q33 27 65 24.5t48 -33t6 -62t-43 -46.5l-323 -139zM551 1180l262 225q33 27 64.5 24.5t48 -33t6.5 -62t-43 -46.5l-324 -139zM519 1042q187 0 323.5 -141t136.5 -383t-135 -390t-321.5 -148t-324 145t-137.5 387t135.5 386t322.5 144zM770 473 q0 229 -77 371.5t-206 142.5q-221 0 -221 -432q0 -229 78 -372.5t207 -143.5q219 0 219 434z" glyph-name="ohungarumlaut" horiz-adv-x="1040" unicode="ő"/><glyph d="M676 -27q-270 0 -437 188.5t-167 476.5t163.5 477.5t423.5 189.5q71 0 136 -15.5t79 -17.5h836q20 0 25.5 -7.5t9.5 -29.5l24 -217h-55l-20 43q-41 80 -91.5 114.5t-125.5 34.5h-248q-18 0 -19 -18v-514h263q70 0 96 31.5t43 103.5h51q-16 -166 0 -332h-51 q-16 72 -43 103.5t-96 31.5h-263v-534q0 -16 19 -16h225q90 0 142.5 28.5t82.5 91.5l66 131h59q-47 -147 -59 -315q-440 6 -871 0q-125 -29 -198 -29zM281 695q0 -294 114.5 -476t288.5 -182q197 0 332 213v731q-55 123 -153.5 192.5t-238.5 69.5t-241.5 -127t-101.5 -421z " glyph-name="OE" horiz-adv-x="1865" unicode="Œ"/><glyph d="M1522 516h-543q-2 -225 74.5 -351t212.5 -126q160 0 237 151q12 29 37 29h27q10 0 16 -10t0 -25q-86 -204 -332 -204t-377 186q-134 -186 -336 -186t-339.5 145t-137.5 387t135.5 386t319.5 144q221 0 354 -176q125 176 347 176q170 0 284.5 -111.5t114.5 -305.5 q0 -109 -94 -109zM1217 987q-115 0 -176.5 -109.5t-61.5 -304.5h453q0 414 -215 414zM551 39q219 0 219 434q0 229 -77 371.5t-206 142.5q-221 0 -221 -432q0 -229 78 -372.5t207 -143.5z" glyph-name="oe" horiz-adv-x="1677" unicode="œ"/><glyph d="M784 1534l-356 -139l-16 30l288 226q35 27 72 24.5t53.5 -33t5 -61.5t-46.5 -47zM1051 934q0 -254 -410 -361l188 -278q78 -113 165 -183.5t149 -74.5l-37 -53q-129 0 -232.5 60t-207.5 202l-215 291h-13l-51 -9v-401q0 -37 29.5 -52.5t113.5 -21.5v-53q-240 8 -479 0v53 q84 6 114 21.5t30 52.5v979q0 49 -31 77.5t-109 37.5v51q80 -4 170 -4l320 4q506 0 506 -338zM850 931q0 128 -71.5 203.5t-214 75.5t-177.5 -2v-622l57 8q227 41 316.5 125t89.5 212z" glyph-name="Racute" horiz-adv-x="1173" unicode="Ŕ"/><glyph d="M199 1180l288 225q35 27 72 24.5t53.5 -33t5 -61t-46.5 -47.5l-356 -139zM631 1047q76 0 120 -32t44 -77t-25 -72.5t-68.5 -27.5t-83.5 47t-96 47t-103 -54t-56 -79t-17 -43l-8 -19v-608q0 -59 119 -76v-53q-213 12 -426 0v53q123 14 123 76v694q0 94 -123 78v53 q90 14 171 54.5t93 40.5q47 0 43 -52l-31 -196q117 246 324 246z" glyph-name="racute" horiz-adv-x="825" unicode="ŕ"/><glyph d="M1051 934q0 -254 -410 -361l188 -278q78 -113 165 -183.5t149 -74.5l-37 -53q-129 0 -232.5 60t-207.5 202l-215 291h-13l-51 -9v-401q0 -37 29.5 -52.5t113.5 -21.5v-53q-240 8 -479 0v53q84 6 114 21.5t30 52.5v979q0 49 -31 77.5t-109 37.5v51q80 -4 170 -4l320 4 q506 0 506 -338zM850 931q0 128 -71.5 203.5t-214 75.5t-177.5 -2v-622l57 8q227 41 316.5 125t89.5 212zM625 -119q53 0 85.5 -44t32.5 -111.5t-32.5 -137t-87.5 -118.5q-16 -14 -31 0l-14 20q68 72 67 160q0 14 -4 20q-20 -4 -47 -4t-56.5 30t-29.5 77t32 77.5t85 30.5z " glyph-name="Rcommaaccent" horiz-adv-x="1173" unicode="Ŗ"/><glyph d="M631 1047q76 0 120 -32t44 -77t-25 -72.5t-68.5 -27.5t-83.5 47t-96 47t-102.5 -54.5t-56 -79t-17.5 -42.5l-8 -19v-608q0 -59 119 -76v-53q-213 12 -426 0v53q123 14 123 76v694q0 94 -123 78v53q90 14 171 54.5t93 40.5q47 0 43 -52l-31 -196q117 246 324 246z M211 -334q-27 0 -56.5 30t-29.5 77t31.5 77.5t85 30.5t86 -44t32.5 -111.5t-32.5 -137t-87.5 -118.5q-16 -14 -31 0l-14 20q68 72 67 160q0 14 -4 20q-20 -4 -47 -4z" glyph-name="rcommaaccent" horiz-adv-x="825" unicode="ŗ"/><glyph d="M625 1401q-141 180 -306 311h76l230 -162l231 162h74q-164 -131 -305 -311zM1051 934q0 -254 -410 -361l188 -278q78 -113 165 -183.5t149 -74.5l-37 -53q-129 0 -232.5 60t-207.5 202l-215 291h-13l-51 -9v-401q0 -37 29.5 -52.5t113.5 -21.5v-53q-240 8 -479 0v53 q84 6 114 21.5t30 52.5v979q0 49 -31 77.5t-109 37.5v51q80 -4 170 -4l320 4q506 0 506 -338zM850 931q0 128 -71.5 203.5t-214 75.5t-177.5 -2v-622l57 8q227 41 316.5 125t89.5 212z" glyph-name="Rcaron" horiz-adv-x="1173" unicode="Ř"/><glyph d="M412 1155q-141 180 -306 311h76l230 -161l231 161h74q-164 -131 -305 -311zM631 1047q76 0 120 -32t44 -77t-25 -72.5t-68.5 -27.5t-83.5 47t-96 47t-103 -54t-56 -79t-17 -43l-8 -19v-608q0 -59 119 -76v-53q-213 12 -426 0v53q123 14 123 76v694q0 94 -123 78v53 q90 14 171 54.5t93 40.5q47 0 43 -52l-31 -196q117 246 324 246z" glyph-name="rcaron" horiz-adv-x="825" unicode="ř"/><glyph d="M258 1425l289 226q35 27 71.5 24.5t53 -33t5.5 -61.5t-46 -47l-357 -139zM727 271q0 103 -76 167t-237.5 135.5t-256 162.5t-94.5 234.5t102.5 239t278.5 95.5q92 0 169 -24t87 -24q37 0 48 31h53l14 -268l-33 2q-31 2 -43 31q-37 84 -117.5 138t-175.5 54t-156 -61.5 t-61 -153.5q1 -92 61 -150t256 -142q54 -24 66.5 -31t60.5 -30.5t65.5 -37.5t54 -42t51 -51.5t43 -66.5t28.5 -135q0 -164 -121.5 -267.5t-269.5 -103.5q-109 0 -216 39t-122 39q-45 0 -59 -49h-57l-19 287h49q23 0 37 -31q37 -94 131 -156.5t213 -62.5t182.5 64.5 t63.5 167.5z" glyph-name="Sacute" unicode="Ś"/><glyph d="M180 1180l289 225q35 27 72 24.5t53 -33t5 -61t-46 -47.5l-356 -139zM764 274q0 -125 -96.5 -211t-212.5 -86q-74 0 -157 35t-119 35t-46 -45h-51l-23 272h23q47 0 51 -26q20 -84 119.5 -148.5t179.5 -64.5t124 45t44 100.5t-13.5 87t-55.5 64.5q-58 46 -140 88 q-183 96 -256.5 173t-73.5 186.5t83 186t210 76.5q72 0 140.5 -28.5t89.5 -28.5q37 0 49 41h51l18 -258h-24q-31 0 -43 29q-43 82 -118 138t-146.5 56t-112.5 -45t-41 -112.5t45 -112.5t189 -117.5t175 -99.5q84 -72 102 -106q36 -68 36 -124z" glyph-name="sacute" horiz-adv-x="815" unicode="ś"/><glyph d="M524 -27q-25 0 -37 2l-16 -38q225 -63 225 -189q0 -74 -60.5 -116t-147.5 -42t-143 26t-56 78t55 52q33 0 48.5 -19.5t16.5 -43t18 -43t59 -19.5t65.5 31t23.5 74q0 96 -155 135q-31 8 -31 28q0 4 45 91q-70 10 -148.5 40.5t-99.5 30.5q-45 0 -59 -49h-57l-19 287h49 q23 0 37 -31q37 -94 131 -156.5t213 -62.5t182.5 64.5t63.5 167.5t-76 167t-237.5 135.5t-256 162.5t-94.5 234.5t102.5 239t278.5 95.5q92 0 169 -24t87 -24q37 0 48 31h53l14 -268l-33 2q-31 2 -43 31q-37 84 -117.5 138t-175.5 54t-156 -61.5t-61 -153.5t61 -150 q62 -58 256 -142q54 -24 66.5 -31t60.5 -30.5t65.5 -37.5t54 -42t51 -51.5t42.5 -66.5t29 -135q0 -164 -122 -267.5t-269 -103.5z" glyph-name="Scedilla" unicode="Ş"/><glyph d="M455 -23q-14 0 -43 5l-19 -45q225 -63 225 -189q0 -74 -60 -116t-147.5 -42t-143.5 26t-56 78t55 52q33 0 48.5 -19.5t16.5 -43t18.5 -43t59.5 -19.5t65.5 31t23.5 74q0 96 -156 135q-31 8 -31 28q0 9 18.5 42.5t30.5 60.5q-31 8 -88 31.5t-93 23.5t-46 -45h-51l-23 272 h23q47 0 51 -26q20 -84 119.5 -148.5t179.5 -64.5t124 45t44 100.5t-13.5 87t-55.5 64.5q-58 46 -140 88q-183 96 -256.5 173t-73.5 186.5t83 186t210 76.5q72 0 140.5 -28.5t89.5 -28.5q37 0 49 41h51l18 -258h-24q-31 0 -43 29q-43 82 -118 138t-146.5 56t-112.5 -45 t-41 -112.5t45 -112.5t189 -117.5t175 -99.5q84 -72 102 -106q36 -68 36 -124q0 -125 -96 -211t-213 -86z" glyph-name="scedilla" horiz-adv-x="815" unicode="ş"/><glyph d="M471 1401q-141 180 -305 311h76l229 -162l231 162h74q-164 -131 -305 -311zM727 271q0 103 -76 167t-237.5 135.5t-256 162.5t-94.5 234.5t102.5 239t278.5 95.5q92 0 169 -24t87 -24q37 0 48 31h53l14 -268l-33 2q-31 2 -43 31q-37 84 -117.5 138t-175.5 54t-156 -61.5 t-61 -153.5q1 -92 61 -150t256 -142q54 -24 66.5 -31t60.5 -30.5t65.5 -37.5t54 -42t51 -51.5t43 -66.5t28.5 -135q0 -164 -121.5 -267.5t-269.5 -103.5q-109 0 -216 39t-122 39q-45 0 -59 -49h-57l-19 287h49q23 0 37 -31q37 -94 131 -156.5t213 -62.5t182.5 64.5 t63.5 167.5z" glyph-name="Scaron" unicode="Š"/><glyph d="M393 1155q-141 180 -305 311h76l229 -161l232 161h73q-164 -131 -305 -311zM764 274q0 -125 -96.5 -211t-212.5 -86q-74 0 -157 35t-119 35t-46 -45h-51l-23 272h23q47 0 51 -26q20 -84 119.5 -148.5t179.5 -64.5t124 45t44 100.5t-13.5 87t-55.5 64.5q-58 46 -140 88 q-183 96 -256.5 173t-73.5 186.5t83 186t210 76.5q72 0 140.5 -28.5t89.5 -28.5q37 0 49 41h51l18 -258h-24q-31 0 -43 29q-43 82 -118 138t-146.5 56t-112.5 -45t-41 -112.5t45 -112.5t189 -117.5t175 -99.5q84 -72 102 -106q36 -68 36 -124z" glyph-name="scaron" horiz-adv-x="815" unicode="š"/><glyph d="M821 1212h-186v-1083q0 -37 31.5 -52.5t113.5 -23.5v-53q-244 10 -485 0v53q82 8 113.5 23.5t31.5 52.5v1083h-168q-61 0 -91.5 -34.5t-94.5 -163.5h-55l73 278h46q74 -20 174 -20h489q104 0 174 20h45l-71 -278h-56q10 113 -6 155.5t-78 42.5zM550 -410q-87 0 -143.5 26 t-56.5 78t56 52q33 0 48 -19.5t16 -43t18.5 -43t59.5 -19.5t65.5 31t23.5 74q0 96 -156 135q-31 8 -30 28q0 9 20.5 46.5t34.5 66.5h55l-29 -65q225 -63 226 -189q0 -74 -60.5 -116t-147.5 -42z" glyph-name="Tcommaaccent" horiz-adv-x="1062" unicode="Ţ"/><glyph d="M236 -111q0 7 55 113h20q-170 35 -170 250v713h-92q-18 0 -18 18v25q0 18 18 18q92 0 139.5 65.5t67.5 213.5h74v-279h221q18 0 18 -18v-25q0 -18 -18 -18h-221v-752q0 -143 104 -143q82 0 131 73v-71q-68 -76 -186 -76q-23 0 -35 2l-27 -61q225 -63 226 -189 q0 -74 -60.5 -116t-147.5 -42t-143.5 26t-56.5 78t55 52q33 0 48.5 -19.5t16.5 -43t18.5 -43t59.5 -19.5t65.5 31t23.5 74q0 96 -156 135q-31 8 -30 28z" glyph-name="tcommaaccent" horiz-adv-x="626" unicode="ţ"/><glyph d="M532 1401q-141 180 -305 311h76l229 -162l232 162h74q-165 -131 -306 -311zM821 1212h-186v-1083q0 -37 31.5 -52.5t113.5 -23.5v-53q-244 10 -485 0v53q82 8 113.5 23.5t31.5 52.5v1083h-168q-61 0 -91.5 -34.5t-94.5 -163.5h-55l73 278h46q74 -20 174 -20h489 q104 0 174 20h45l-71 -278h-56q10 113 -6 155.5t-78 42.5z" glyph-name="Tcaron" horiz-adv-x="1062" unicode="Ť"/><glyph d="M754 1077q0 14 -4 21q-20 -4 -31 -4q-41 0 -72 30.5t-31 76.5t32 78t84 32t86 -45t34 -109q0 -154 -121 -260q-14 -16 -31 0l-14 21q68 68 68 159zM379 -4q-238 0 -238 256v713h-92q-18 0 -18 18v25q0 18 18 18q92 0 139.5 65.5t67.5 213.5h74v-279h221q18 0 18 -18v-25 q0 -18 -18 -18h-221v-752q0 -143 104 -143q82 0 131 73v-71q-68 -76 -186 -76z" glyph-name="tcaron" horiz-adv-x="804" unicode="ť"/><glyph d="M821 1212h-186v-542h211q18 0 18 -19v-26q0 -18 -18 -19h-211v-477q0 -37 31.5 -52.5t113.5 -23.5v-53q-244 10 -485 0v53q82 8 113.5 23.5t31.5 52.5v477h-217q-20 0 -20 19v26q0 18 20 19h217v542h-168q-61 0 -91.5 -34.5t-94.5 -163.5h-55l73 278h46q74 -20 174 -20 h489q104 0 174 20h45l-71 -278h-56q10 113 -6 155.5t-78 42.5z" glyph-name="Tbar" horiz-adv-x="1073" unicode="Ŧ"/><glyph d="M551 965h-221v-232h215q23 0 22 -20v-23q0 -18 -22 -18h-215v-459q0 -143 104 -143q82 0 131 73v-71q-68 -76 -186 -76q-238 0 -238 256v420h-90q-20 0 -20 18v23q0 20 20 20h90v232h-92q-18 0 -18 18v25q0 18 18 18q92 0 139.5 65.5t67.5 213.5h74v-279h221q18 0 18 -18 v-25q0 -18 -18 -18z" glyph-name="tbar" horiz-adv-x="632" unicode="ŧ"/><glyph d="M401 1477q-41 0 -41 34v5q0 35 41 34h580q41 0 41 -34v-5q0 -35 -41 -34h-580zM1192 1145v-1016q0 -37 31.5 -52.5t113.5 -23.5v-53q-229 8 -372 0v53q33 27 32 76v96q-53 -100 -155.5 -172.5t-270 -72.5t-280.5 112.5t-113 294.5v758q0 37 -30.5 51t-116.5 25v51 q248 -10 491 0v-51q-84 -10 -114.5 -24.5t-30.5 -51.5v-760q0 -154 70.5 -244t192.5 -90t215 79t142 183v832q0 37 -30.5 51t-116.5 25v51q246 -10 487 0v-51q-84 -10 -114.5 -24.5t-30.5 -51.5z" glyph-name="Umacron" horiz-adv-x="1368" unicode="Ū"/><glyph d="M229 1270q0 35 41 35h580q41 0 41 -35v-4q0 -35 -41 -35h-580q-41 0 -41 35v4zM958 190q0 -51 29 -67.5t92 -7.5v-54q-86 -20 -164.5 -54t-101.5 -34q-45 0 -39 56l19 198q-92 -133 -172 -193t-177 -61q-139 0 -216.5 82t-77.5 279v551q0 41 -13.5 58.5t-44.5 14.5 l-61 -2v56l258 22q47 4 47 -39v-663q0 -270 156 -271q158 0 280 234v590q0 41 -12 58.5t-43 14.5l-64 -2v56l258 22q47 2 47 -39v-805z" glyph-name="umacron" horiz-adv-x="1120" unicode="ū"/><glyph d="M561 1169q-115 0 -190.5 75t-81.5 177h65q8 -49 65.5 -92t141.5 -43t142.5 43t66.5 92h66q-6 -102 -83 -177t-192 -75zM958 190q0 -51 29 -67.5t92 -7.5v-54q-86 -20 -164.5 -54t-101.5 -34q-45 0 -39 56l19 198q-92 -133 -172 -193t-177 -61q-139 0 -216.5 82t-77.5 279 v551q0 41 -13.5 58.5t-44.5 14.5l-61 -2v56l258 22q47 4 47 -39v-663q0 -270 156 -271q158 0 280 234v590q0 41 -12 58.5t-43 14.5l-64 -2v56l258 22q47 2 47 -39v-805z" glyph-name="ubreve" horiz-adv-x="1120" unicode="ŭ"/><glyph d="M692 1470q-78 0 -131 53.5t-53 129.5t53 129t131 53t131.5 -53t53.5 -129t-53.5 -129.5t-131.5 -53.5zM693 1761q-44 0 -71.5 -30.5t-27.5 -77.5t27.5 -78t71.5 -31t72 31t28 78t-28 77.5t-72 30.5zM1192 1145v-1016q0 -37 31.5 -52.5t113.5 -23.5v-53q-229 8 -372 0v53 q33 27 32 76v96q-53 -100 -155.5 -172.5t-270 -72.5t-280.5 112.5t-113 294.5v758q0 37 -30.5 51t-116.5 25v51q248 -10 491 0v-51q-84 -10 -114.5 -24.5t-30.5 -51.5v-760q0 -154 70.5 -244t192.5 -90t215 79t142 183v832q0 37 -30.5 51t-116.5 25v51q246 -10 487 0v-51 q-84 -10 -114.5 -24.5t-30.5 -51.5z" glyph-name="Uring" horiz-adv-x="1368" unicode="Ů"/><glyph d="M561 1225q-78 0 -131 53t-53 129t53 129t131 53t131 -53t53 -129t-53 -129t-131 -53zM562 1298q44 0 72 31t28 78t-28 78t-72 31t-71.5 -31t-27.5 -78t27.5 -78t71.5 -31zM958 190q0 -51 29 -67.5t92 -7.5v-54q-86 -20 -164.5 -54t-101.5 -34q-45 0 -39 56l19 198 q-92 -133 -172 -193.5t-177 -60.5q-139 0 -216.5 82t-77.5 279v551q0 41 -13.5 58.5t-44.5 14.5l-61 -2v56l258 22q47 4 47 -39v-663q0 -270 156 -271q158 0 280 234v590q0 41 -12 58.5t-43 14.5l-64 -2v56l258 22q47 2 47 -39v-805z" glyph-name="uring" horiz-adv-x="1120" unicode="ů"/><glyph d="M729 1534l-323 -139l-15 30l262 226q33 27 65 24.5t48 -33t6 -62.5t-43 -46zM735 1395l-14 30l262 226q33 27 64.5 24.5t48 -33t6.5 -62.5t-43 -46zM1192 1145v-1016q0 -37 31.5 -52.5t113.5 -23.5v-53q-229 8 -372 0v53q33 27 32 76v96q-53 -100 -155.5 -172.5 t-270 -72.5t-280.5 112.5t-113 294.5v758q0 37 -30.5 51t-116.5 25v51q248 -10 491 0v-51q-84 -10 -114.5 -24.5t-30.5 -51.5v-760q0 -154 70.5 -244t192.5 -90t215 79t142 183v832q0 37 -30.5 51t-116.5 25v51q246 -10 487 0v-51q-84 -10 -114.5 -24.5t-30.5 -51.5z" glyph-name="Uhungarumlaut" horiz-adv-x="1368" unicode="Ű"/><glyph d="M260 1180l262 225q33 27 64.5 24.5t48 -33t6.5 -62t-43 -46.5l-324 -139zM590 1180l262 225q33 27 64.5 24.5t48 -33t6.5 -62t-43 -46.5l-324 -139zM958 190q0 -51 29 -67.5t92 -7.5v-54q-86 -20 -164.5 -54t-101.5 -34q-45 0 -39 56l19 198q-92 -133 -172 -193t-177 -61 q-139 0 -216.5 82t-77.5 279v551q0 41 -13.5 58.5t-44.5 14.5l-61 -2v56l258 22q47 4 47 -39v-663q0 -270 156 -271q158 0 280 234v590q0 41 -12 58.5t-43 14.5l-64 -2v56l258 22q47 2 47 -39v-805z" glyph-name="uhungarumlaut" horiz-adv-x="1120" unicode="ű"/><glyph d="M1192 1145v-1016q0 -37 31.5 -52.5t113.5 -23.5v-53q-229 8 -372 0v53q33 27 32 76v96q-88 -174 -272 -227q-152 -68 -152 -209q0 -55 34 -87t91 -32q96 0 140 88l41 -24q-76 -147 -258 -148q-78 0 -140.5 40t-62.5 118t52 140.5t130 95.5h-12q-184 0 -297 112.5 t-113 294.5v758q0 37 -30.5 51t-116.5 25v51q248 -10 491 0v-51q-84 -10 -114.5 -24.5t-30.5 -51.5v-760q0 -154 70.5 -244t192.5 -90t215 79t142 183v832q0 37 -30.5 51t-116.5 25v51q246 -10 487 0v-51q-84 -10 -114.5 -24.5t-30.5 -51.5z" glyph-name="Uogonek" horiz-adv-x="1368" unicode="Ų"/><glyph d="M727 -206.5q0 -59.5 34 -91.5t91 -32q94 0 139 88l41 -24q-76 -147 -260 -148q-78 0 -139.5 40t-61.5 116q0 161 207 254q-8 14 -4 33l19 198q-92 -133 -172 -193.5t-177 -60.5q-139 0 -216.5 82t-77.5 279v551q0 41 -13.5 58.5t-44.5 14.5l-61 -2v56l258 22q47 4 47 -39 v-663q0 -270 156 -271q158 0 280 234v590q0 41 -12 58.5t-43 14.5l-64 -2v56l258 22q47 2 47 -39v-805q0 -51 29 -67.5t92 -7.5v-54q-96 -25 -157 -51q-13 -2 -25 -10q-104 -47 -137 -97t-33 -109.5z" glyph-name="uogonek" horiz-adv-x="1120" unicode="ų"/><glyph d="M961 1556l-230 -161h-76q164 131 306 311q141 -180 305 -311h-74zM1487 1272q207 -10 411 0v-51q-92 -10 -132 -24.5t-52 -49.5l-375 -1165h-75l-320 913l-291 -913h-75l-408 1165q-12 37 -41 51t-109 23v51q242 -8 480 0v-51q-82 -10 -111 -24.5t-16 -49.5l309 -899 l225 751l-51 148q-12 37 -38.5 51t-98.5 23v51q231 -8 475 0v-51q-86 -10 -116.5 -24.5t-18.5 -49.5l309 -899l279 899q10 35 -27 49t-133 25v51z" glyph-name="Wcircumflex" horiz-adv-x="1918" unicode="Ŵ"/><glyph d="M836 1311l-230 -162h-76q164 131 306 311q141 -180 305 -311h-74zM1247 1026h391v-51l-51 -10q-102 -18 -133 -111l-297 -854h-67l-267 741l-258 -741h-67l-310 858q-31 94 -102 107l-55 10v51h440v-53l-57 -8q-68 -8 -35 -107l211 -616l201 592l-11 24q-33 100 -92 107 l-59 8v53h428v-53l-51 -8q-68 -8 -35 -107l211 -616l207 612q16 45 -5.5 74.5t-80.5 36.5l-56 8v53z" glyph-name="wcircumflex" horiz-adv-x="1669" unicode="ŵ"/><glyph d="M621 1556l-230 -161h-76q164 131 306 311q141 -180 305 -311h-74zM713 129q0 -37 31.5 -52.5t115.5 -19.5v-57q-244 10 -487 0v53q84 8 115.5 23.5t31.5 52.5v416l-332 598q-39 72 -157 78v51q244 -6 487 0v-51q-78 -4 -103.5 -24.5t-6.5 -53.5l276 -512l256 493 q25 47 -7 70t-126 27v51q203 -6 405 0v-51q-92 -4 -134 -28t-68 -73l-297 -573v-418z" glyph-name="Ycircumflex" horiz-adv-x="1243" unicode="Ŷ"/><glyph d="M551 1460q141 -180 305 -311h-74l-231 162l-229 -162h-76q164 131 305 311zM390 -449q-34 0 -46 9.5t-4 23.5q188 432 188 434q0 31 -160.5 406t-203.5 481q-29 59 -72 64l-61 6v51q238 -10 440 0v-51l-68 -6q-72 -6 -49 -64l262 -659l236 659q18 51 -61 64l-54 6v51 q152 -8 332 0v-51l-47 -6q-19 -1 -32 -7q-14 -6 -26 -11q-32 -13 -42 -46l-484 -1321q-14 -33 -48 -33z" glyph-name="ycircumflex" horiz-adv-x="1099" unicode="ŷ"/><glyph d="M426 1438q-39 0 -66.5 27.5t-27.5 66.5t27.5 66.5t66.5 27.5t67.5 -27.5t28.5 -66.5t-28.5 -66.5t-67.5 -27.5zM815 1438q-39 0 -67.5 27.5t-28.5 66.5t28.5 66.5t67.5 27.5t66.5 -27.5t27.5 -66.5t-27.5 -66.5t-66.5 -27.5zM713 129q0 -37 31.5 -52.5t115.5 -19.5v-57 q-244 10 -487 0v53q84 8 115.5 23.5t31.5 52.5v416l-332 598q-39 72 -157 78v51q244 -6 487 0v-51q-78 -4 -103.5 -24.5t-6.5 -53.5l276 -512l256 493q25 47 -7 70t-126 27v51q203 -6 405 0v-51q-92 -4 -134 -28t-68 -73l-297 -573v-418z" glyph-name="Ydieresis" horiz-adv-x="1243" unicode="Ÿ"/><glyph d="M338 1425l289 226q35 27 71.5 24.5t53 -33t5 -61.5t-45.5 -47l-357 -139zM981 43v-43q-469 8 -940 0l756 1214h-482q-59 0 -85.5 -32.5t-94.5 -167.5h-57l74 278h45q70 -20 174 -20h678l-752 -1213h328q57 0 102 19.5t66.5 40t52.5 57.5l110 135h88q-74 -117 -126 -241 l38 -7q25 -2 25 -20z" glyph-name="Zacute" horiz-adv-x="1110" unicode="Ź"/><glyph d="M242 1180l288 225q35 27 72 24.5t53.5 -33t5 -61t-46.5 -47.5l-356 -139zM74 0q-18 0 -27.5 18.5t0.5 38.5l586 916h-330q-59 0 -86 -34t-96 -173h-53l75 281h43q74 -20 176 -21q299 0 506 4l-620 -977l346 -2q80 0 114.5 40t102.5 192h57l-67 -283h-727z" glyph-name="zacute" horiz-adv-x="909" unicode="ź"/><glyph d="M551 1436q-43 0 -75 31.5t-32 74.5t32 75t75 32t74.5 -32t31.5 -75t-31.5 -74.5t-74.5 -31.5zM981 43v-43q-469 8 -940 0l756 1214h-482q-59 0 -85.5 -32.5t-94.5 -167.5h-57l74 278h45q70 -20 174 -20h678l-752 -1213h328q57 0 102 19.5t66.5 40t52.5 57.5l110 135h88 q-74 -117 -126 -241l38 -7q25 -2 25 -20z" glyph-name="Zdotaccent" horiz-adv-x="1110" unicode="Ż"/><glyph d="M455 1190q-43 0 -75 31.5t-32 74.5t32 75t75 32t74.5 -32t31.5 -75t-31.5 -74.5t-74.5 -31.5zM74 0q-18 0 -27.5 18.5t0.5 38.5l586 916h-330q-59 0 -86 -34t-96 -173h-53l75 281h43q74 -20 176 -21q299 0 506 4l-620 -977l346 -2q80 0 114.5 40t102.5 192h57l-67 -283 h-727z" glyph-name="zdotaccent" horiz-adv-x="909" unicode="ż"/><glyph d="M551 1401q-141 180 -305 311h76l229 -162l231 162h74q-164 -131 -305 -311zM981 43v-43q-469 8 -940 0l756 1214h-482q-59 0 -85.5 -32.5t-94.5 -167.5h-57l74 278h45q70 -20 174 -20h678l-752 -1213h328q57 0 102 19.5t66.5 40t52.5 57.5l110 135h88q-74 -117 -126 -241 l38 -7q25 -2 25 -20z" glyph-name="Zcaron" horiz-adv-x="1110" unicode="Ž"/><glyph d="M455 1155q-141 180 -305 311h75l230 -161l231 161h74q-164 -131 -305 -311zM74 0q-18 0 -27.5 18.5t0.5 38.5l586 916h-330q-59 0 -86 -34t-96 -173h-53l75 281h43q74 -20 176 -21q299 0 506 4l-620 -977l346 -2q80 0 114.5 40t102.5 192h57l-67 -283h-727z" glyph-name="zcaron" horiz-adv-x="909" unicode="ž"/><glyph d="M1006 1278q-28 0 -59.5 -14.5t-55.5 -38.5t-53 -209l-13 -80h279q10 0 17 -5t3 -13l-10 -23q-10 -18 -21 -38.5t-46 -20.5h-236l-121 -871q-27 -180 -122 -279.5t-236 -99.5q-92 0 -163 44t-97 106q-16 25 -6 61.5t46 53.5t66.5 7t38.5 -38q5 -10 8.5 -30.5t8 -36 t8.5 -21.5t16.5 -32t65.5 -26q86 0 124.5 68t57.5 199l125 895h-107q-23 0 -18 20l10 80h129l8 55q53 375 379 375q191 0 271 -141q18 -25 11 -62t-41 -57t-65.5 -13t-42.5 33q-2 4 -7 20.5t-7 22t-7 20.5t-9.5 20t-11.5 17.5t-13 17.5t-16.5 13.5t-20.5 11.5t-24.5 6 t-42.5 3z" glyph-name="florin" horiz-adv-x="1298" unicode="ƒ"/><glyph d="M727 271q0 103 -76 167t-237.5 135.5t-256 162.5t-94.5 234.5t102.5 239t278.5 95.5q92 0 169 -24t87 -24q37 0 48 31h53l14 -268l-33 2q-31 2 -43 31q-37 84 -117.5 138t-175.5 54t-156 -61.5t-61 -153.5q1 -92 61 -150t256 -142q54 -24 66.5 -31t60.5 -30.5t65.5 -37.5 t54 -42t51 -51.5t43 -66.5t28.5 -135q0 -164 -121.5 -267.5t-269.5 -103.5q-109 0 -216 39t-122 39q-45 0 -59 -49h-57l-19 287h49q23 0 37 -31q37 -94 131 -156.5t213 -62.5t182.5 64.5t63.5 167.5zM492 -350q0 14 -5 20q-20 -4 -46.5 -4t-56.5 30t-30 77t32 77.5t85 30.5 t86 -44t33 -111.5t-33 -137t-88 -118.5q-16 -14 -31 0l-14 20q68 72 68 160z" glyph-name="Scommaaccent" unicode="Ș"/><glyph d="M764 274q0 -125 -96.5 -211t-212.5 -86q-74 0 -157 35t-119 35t-46 -45h-51l-23 272h23q47 0 51 -26q20 -84 119.5 -148.5t179.5 -64.5t124 45t44 100.5t-13.5 87t-55.5 64.5q-58 46 -140 88q-183 96 -256.5 173t-73.5 186.5t83 186t210 76.5q72 0 140.5 -28.5 t89.5 -28.5q37 0 49 41h51l18 -258h-24q-31 0 -43 29q-43 82 -118 138t-146.5 56t-112.5 -45t-41 -112.5t45 -112.5t189 -117.5t175 -99.5q84 -72 102 -106q36 -68 36 -124zM416 -350q0 14 -4 20q-20 -4 -47 -4t-56.5 30t-29.5 77t31.5 77.5t84.5 30.5t86 -44t33 -111.5 t-33 -137t-88 -118.5q-16 -14 -31 0l-14 20q68 72 68 160z" glyph-name="scommaaccent" horiz-adv-x="815" unicode="ș"/><glyph d="M821 1212h-186v-1083q0 -37 31.5 -52.5t113.5 -23.5v-53q-244 10 -485 0v53q82 8 113.5 23.5t31.5 52.5v1083h-168q-61 0 -91.5 -34.5t-94.5 -163.5h-55l73 278h46q74 -20 174 -20h489q104 0 174 20h45l-71 -278h-56q10 113 -6 155.5t-78 42.5zM534 -119q53 0 86 -44 t33 -111.5t-32.5 -137t-88.5 -118.5q-16 -14 -30 0l-15 20q68 72 68 160q0 14 -4 20q-20 -4 -47 -4t-56.5 30t-29.5 77t31.5 77.5t84.5 30.5z" glyph-name="uni021A" horiz-adv-x="1062" unicode="Ț"/><glyph d="M379 -4q-238 0 -238 256v713h-92q-18 0 -18 18v25q0 18 18 18q92 0 139.5 65.5t67.5 213.5h74v-279h221q18 0 18 -18v-25q0 -18 -18 -18h-221v-752q0 -143 104 -143q82 0 131 73v-71q-68 -76 -186 -76zM340 -350q0 14 -4 20q-20 -4 -47 -4t-56.5 30t-29.5 77t31.5 77.5 t84.5 30.5t86 -44t33 -111.5t-33 -137t-88 -118.5q-16 -14 -30 0l-15 20q68 72 68 160z" glyph-name="uni021B" horiz-adv-x="626" unicode="ț"/><glyph d="M332 1049q51 0 51 -50q0 -16 -6 -98t-6 -156v-628q0 -305 -107.5 -431t-316.5 -126l-8 55q119 6 182 96t63 236v891q0 49 -28.5 67.5t-92.5 14.5v53q92 12 174.5 44t94.5 32z" glyph-name="uni0237" horiz-adv-x="505" unicode="ȷ"/><glyph d="M408 1460q141 -180 305 -311h-74l-231 162l-230 -162h-76q165 131 306 311z" glyph-name="circumflex" horiz-adv-x="815" unicode="ˆ"/><glyph d="M408 1155q-141 180 -306 311h76l230 -161l231 161h74q-164 -131 -305 -311z" glyph-name="caron" horiz-adv-x="815" unicode="ˇ"/><glyph d="M374.5 1169q-114.5 0 -190 75t-82.5 177h66q8 -49 65.5 -92t141.5 -43t142 43t67 92h65q-6 -102 -83 -177t-191.5 -75z" glyph-name="breve" horiz-adv-x="755" unicode="˘"/><glyph d="M209 1190q-43 0 -75 31.5t-32 74.5t32 75t75 32t74.5 -32t31.5 -75t-31.5 -74.5t-74.5 -31.5z" glyph-name="dotaccent" horiz-adv-x="417" unicode="˙"/><glyph d="M287 1225q-78 0 -131.5 53t-53.5 129t53.5 129t131.5 53t131 -53t53 -129t-53 -129t-131 -53zM288 1298q44 0 71.5 31t27.5 78t-27.5 78t-71.5 31t-72 -31t-28 -78t28 -78t72 -31z" glyph-name="ring" horiz-adv-x="565" unicode="˚"/><glyph d="M102 -251q0 83 70 150.5t168 104.5h72q-154 -86 -154 -215q0 -55 34 -87t91 -32q96 0 139 88l41 -24q-76 -147 -258 -148q-78 0 -140.5 40t-62.5 123z" glyph-name="ogonek" horiz-adv-x="681" unicode="˛"/><glyph d="M623 1165q-92 0 -215 67.5t-166 67.5t-65.5 -26.5t-18.5 -56.5h-54q-12 88 37 145t138 57t210 -62.5t167 -62.5t74 26t28 56h51q8 -94 -43 -152.5t-143 -58.5z" glyph-name="tilde" horiz-adv-x="929" unicode="˜"/><glyph d="M104 1180l261 225q33 27 65 25q32 -4 47.5 -34t5.5 -61.5t-43 -46.5l-321 -139zM432 1180l262 225q31 27 64 24.5t49 -32.5q14 -31 4 -61.5t-41 -47.5l-324 -139z" glyph-name="hungarumlaut" horiz-adv-x="1228" unicode="˝"/><glyph d="M-102 1180l-17 -31l-356 139q-33 14 -44 46t5 62.5t52 33t71 -24.5z" glyph-name="gravecomb" horiz-adv-x="0" unicode="̀"/><glyph d="M-524 1180l288 225q35 27 72 24.5t53.5 -33t5 -61t-46.5 -47.5l-356 -139z" glyph-name="acutecomb" horiz-adv-x="0" unicode="́"/><glyph d="M-408 1460q141 -180 306 -311h-74l-232 162l-229 -162h-76q164 131 305 311z" glyph-name="uni0302" horiz-adv-x="0" unicode="̂"/><glyph d="M-291 1165q-92 0 -215 67.5t-166 67.5t-65.5 -26.5t-18.5 -56.5h-53q-12 88 37 145t138 57t210 -62.5t167 -62.5t73.5 26t27.5 56h52q8 -94 -43.5 -152.5t-143.5 -58.5z" glyph-name="tildecomb" horiz-adv-x="0" unicode="̃"/><glyph d="M-764 1270q0 35 41 35h580q41 0 41 -35v-4q0 -35 -41 -35h-580q-41 0 -41 35v4z" glyph-name="uni0304" horiz-adv-x="0" unicode="̄"/><glyph d="M-377 1169q-115 0 -190.5 75t-81.5 177h65q8 -49 65.5 -92t141.5 -43t142.5 43t66.5 92h66q-6 -102 -83 -177t-192 -75z" glyph-name="uni0306" horiz-adv-x="0" unicode="̆"/><glyph d="M-209 1190q-43 0 -74.5 31.5t-31.5 74.5t31.5 75t74.5 32t75 -32t32 -75t-32 -74.5t-75 -31.5z" glyph-name="uni0307" horiz-adv-x="0" unicode="̇"/><glyph d="M-586 1192q-39 0 -66.5 27.5t-27.5 66.5t27.5 66.5t66.5 27.5t68 -27.5t29 -66.5t-29 -66.5t-68 -27.5zM-197 1192q-39 0 -67.5 27.5t-28.5 66.5t28.5 66.5t67.5 27.5t67 -27.5t28 -66.5t-28 -66.5t-67 -27.5z" glyph-name="uni0308" horiz-adv-x="0" unicode="̈"/><glyph d="M-287 1225q-78 0 -131 53t-53 129t53 129t131 53t131.5 -53t53.5 -129t-53.5 -129t-131.5 -53zM-286 1298q44 0 72 31t28 78t-28 78t-72 31t-71.5 -31t-27.5 -78t27.5 -78t71.5 -31z" glyph-name="uni030A" horiz-adv-x="0" unicode="̊"/><glyph d="M-813 1180l260 225q33 27 65 25q32 -4 48 -34t6 -61.5t-43 -46.5l-322 -139zM-485 1180l262 225q31 27 63.5 24.5t48.5 -32.5q14 -31 4 -61.5t-40 -47.5l-324 -139z" glyph-name="uni030B" horiz-adv-x="0" unicode="̋"/><glyph d="M-408 1155q-141 180 -305 311h76l229 -161l232 161h74q-165 -131 -306 -311z" glyph-name="uni030C" horiz-adv-x="0" unicode="̌"/><glyph d="M-236 -336q-41 0 -71.5 31t-30.5 78t32 77.5t85 30.5t86 -44t33 -107q0 -156 -121 -262q-16 -12 -31 2l-14 18q68 72 67 162q0 14 -4 18q-20 -4 -31 -4z" glyph-name="uni0326" horiz-adv-x="0" unicode="̦"/><glyph d="M-312 -379q42 0 65.5 31t23.5 74q0 96 -156 135q-31 8 -31 28q0 8 10 25.5t46 87.5h55l-29 -65q225 -63 226 -189q0 -74 -60.5 -116t-147.5 -42t-143.5 26t-56.5 78t55 52q33 0 48.5 -19.5t16.5 -43t18.5 -43t59.5 -19.5z" glyph-name="uni0327" horiz-adv-x="0" unicode="̧"/><glyph d="M-563 -251q0 83 69.5 150.5t167.5 104.5h72q-154 -86 -154 -215q0 -55 34 -87t91 -32q94 0 140 88l41 -24q-76 -147 -258 -148q-78 0 -140.5 40t-62.5 123z" glyph-name="uni0328" horiz-adv-x="0" unicode="̨"/><glyph d="M-745 524q-18 0 -19 19v26q0 18 19 19h624q18 0 19 -19v-26q0 -18 -19 -19h-624z" glyph-name="uni0335" horiz-adv-x="0" unicode="̵"/><glyph d="M1176 0h-1135l573 1298zM186 147h740l-361 873z" glyph-name="Delta" horiz-adv-x="1216" unicode="Δ"/><glyph d="M1210 0h-354v242q115 10 180.5 135t65.5 351t-111.5 359.5t-292 133.5t-291 -133.5t-110.5 -359.5t65.5 -351t182.5 -135v-242h-357q-49 0 -61 47l-45 189h57l35 -56q49 -88 139 -88h142q18 0 24 13.5t4 52.5q-164 43 -277.5 199.5t-113.5 344.5q0 238 177 420.5 t429 182.5t430.5 -182.5t178.5 -420.5q0 -178 -116 -338.5t-276 -205.5q-4 -39 2.5 -52.5t26.5 -13.5h115q117 0 166 88l35 56h57l-45 -189q-12 -47 -62 -47z" glyph-name="Omega" horiz-adv-x="1398" unicode="Ω"/><glyph d="M958 190q0 -51 29 -67.5t92 -7.5v-54q-86 -20 -164.5 -54t-101.5 -34q-45 0 -39 56l19 198q-92 -133 -172 -193t-177 -61q-141 0 -213 78q6 -111 37 -179.5t54.5 -97t21.5 -46.5q-14 -94 -80 -127t-100 26q-14 29 -14 76v1182q0 41 -13.5 58.5t-44.5 14.5l-61 -2v56 l258 22q47 4 47 -39v-663q0 -270 156 -271q158 0 280 234v590q0 41 -12 58.5t-43 14.5l-64 -2v56l258 22q47 2 47 -39v-805z" glyph-name="mu" horiz-adv-x="1120" unicode="μ"/><glyph d="M1182 209q88 0 88 -90q0 -57 -61 -98t-165 -41t-168.5 77.5t-64.5 208.5v594h-158v-629q0 -117 -64.5 -180t-154.5 -63t-147 20l-27 64q80 -23 144.5 32.5t64.5 137.5v618h-137q-72 0 -89.5 -68.5t11.5 -150.5l-80 16q-82 121 -48 194t146 73h975v-64h-205q-27 0 -37 -12 t-10 -43v-651q0 -109 49 -109q40 0 51 56.5t31.5 82t55.5 25.5z" glyph-name="pi" horiz-adv-x="1382" unicode="π"/><glyph d="M801 1534q-33 14 -44.5 46t5 62.5t52.5 32.5t71 -24l289 -226l-17 -30zM1487 1272q207 -10 411 0v-51q-92 -10 -132 -24.5t-52 -49.5l-375 -1165h-75l-320 913l-291 -913h-75l-408 1165q-12 37 -41 51t-109 23v51q242 -8 480 0v-51q-82 -10 -111 -24.5t-16 -49.5 l309 -899l225 751l-51 148q-12 37 -38.5 51t-98.5 23v51q231 -8 475 0v-51q-86 -10 -116.5 -24.5t-18.5 -49.5l309 -899l279 899q10 35 -27 49t-133 25v51z" glyph-name="Wgrave" horiz-adv-x="1918" unicode="Ẁ"/><glyph d="M676 1288q-33 14 -44 46t5 62.5t52 33t71 -24.5l289 -225l-17 -31zM1247 1026h391v-51l-51 -10q-102 -18 -133 -111l-297 -854h-67l-267 741l-258 -741h-67l-310 858q-31 94 -102 107l-55 10v51h440v-53l-57 -8q-68 -8 -35 -107l211 -616l201 592l-11 24q-33 100 -92 107 l-59 8v53h428v-53l-51 -8q-68 -8 -35 -107l211 -616l207 612q16 45 -5.5 74.5t-80.5 36.5l-56 8v53z" glyph-name="wgrave" horiz-adv-x="1669" unicode="ẁ"/><glyph d="M1122 1534l-356 -139l-16 30l288 226q35 27 72 24.5t53.5 -33t5 -61.5t-46.5 -47zM1487 1272q207 -10 411 0v-51q-92 -10 -132 -24.5t-52 -49.5l-375 -1165h-75l-320 913l-291 -913h-75l-408 1165q-12 37 -41 51t-109 23v51q242 -8 480 0v-51q-82 -10 -111 -24.5 t-16 -49.5l309 -899l225 751l-51 148q-12 37 -38.5 51t-98.5 23v51q231 -8 475 0v-51q-86 -10 -116.5 -24.5t-18.5 -49.5l309 -899l279 899q10 35 -27 49t-133 25v51z" glyph-name="Wacute" horiz-adv-x="1918" unicode="Ẃ"/><glyph d="M995 1288l-356 -139l-16 31l288 225q35 27 72 24.5t53.5 -33t5 -61.5t-46.5 -47zM1247 1026h391v-51l-51 -10q-102 -18 -133 -111l-297 -854h-67l-267 741l-258 -741h-67l-310 858q-31 94 -102 107l-55 10v51h440v-53l-57 -8q-68 -8 -35 -107l211 -616l201 592l-11 24 q-33 100 -92 107l-59 8v53h428v-53l-51 -8q-68 -8 -35 -107l211 -616l207 612q16 45 -5.5 74.5t-80.5 36.5l-56 8v53z" glyph-name="wacute" horiz-adv-x="1669" unicode="ẃ"/><glyph d="M766 1438q-39 0 -66.5 27.5t-27.5 66.5t27.5 66.5t66.5 27.5t67.5 -27.5t28.5 -66.5t-28.5 -66.5t-67.5 -27.5zM1155 1438q-39 0 -67.5 27.5t-28.5 66.5t28.5 66.5t67.5 27.5t66.5 -27.5t27.5 -66.5t-27.5 -66.5t-66.5 -27.5zM1487 1272q207 -10 411 0v-51 q-92 -10 -132 -24.5t-52 -49.5l-375 -1165h-75l-320 913l-291 -913h-75l-408 1165q-12 37 -41 51t-109 23v51q242 -8 480 0v-51q-82 -10 -111 -24.5t-16 -49.5l309 -899l225 751l-51 148q-12 37 -38.5 51t-98.5 23v51q231 -8 475 0v-51q-86 -10 -116.5 -24.5t-18.5 -49.5 l309 -899l279 899q10 35 -27 49t-133 25v51z" glyph-name="Wdieresis" horiz-adv-x="1918" unicode="Ẅ"/><glyph d="M641 1192q-39 0 -66.5 27.5t-27.5 66.5t27.5 66.5t66.5 27.5t67.5 -27.5t28.5 -66.5t-28.5 -66.5t-67.5 -27.5zM1030 1192q-39 0 -67.5 27.5t-28.5 66.5t28.5 66.5t67.5 27.5t66.5 -27.5t27.5 -66.5t-27.5 -66.5t-66.5 -27.5zM1247 1026h391v-51l-51 -10 q-102 -18 -133 -111l-297 -854h-67l-267 741l-258 -741h-67l-310 858q-31 94 -102 107l-55 10v51h440v-53l-57 -8q-68 -8 -35 -107l211 -616l201 592l-11 24q-33 100 -92 107l-59 8v53h428v-53l-51 -8q-68 -8 -35 -107l211 -616l207 612q16 45 -5.5 74.5t-80.5 36.5l-56 8 v53z" glyph-name="wdieresis" horiz-adv-x="1669" unicode="ẅ"/><glyph d="M461 1534q-33 14 -44 46t5 62.5t52 32.5t71 -24l289 -226l-17 -30zM713 129q0 -37 31.5 -52.5t115.5 -19.5v-57q-244 10 -487 0v53q84 8 115.5 23.5t31.5 52.5v416l-332 598q-39 72 -157 78v51q244 -6 487 0v-51q-78 -4 -103.5 -24.5t-6.5 -53.5l276 -512l256 493 q25 47 -7 70t-126 27v51q203 -6 405 0v-51q-92 -4 -134 -28t-68 -73l-297 -573v-418z" glyph-name="Ygrave" horiz-adv-x="1243" unicode="Ỳ"/><glyph d="M762 1180l-17 -31l-356 139q-33 14 -44 46t5.5 62.5t52 33t70.5 -24.5zM390 -449q-34 0 -46 9.5t-4 23.5q188 432 188 434q0 31 -160.5 406t-203.5 481q-29 59 -72 64l-61 6v51q238 -10 440 0v-51l-68 -6q-72 -6 -49 -64l262 -659l236 659q18 51 -61 64l-54 6v51 q152 -8 332 0v-51l-47 -6q-19 -1 -32 -7q-14 -6 -26 -11q-32 -13 -42 -46l-484 -1321q-14 -33 -48 -33z" glyph-name="ygrave" horiz-adv-x="1099" unicode="ỳ"/><glyph d="M61 563h1192v-98h-1192v98z" glyph-name="endash" horiz-adv-x="1366" unicode="–"/><glyph d="M51 563h1678v-98h-1678v98z" glyph-name="emdash" horiz-adv-x="1820" unicode="—"/><glyph d="M51 563h1678v-98h-1678v98z" glyph-name="afii00208" horiz-adv-x="1820" unicode="―"/><glyph d="M184 1102q41 0 72 -30t31 -77t-32 -77.5t-85 -30.5t-86 44t-33 107q0 156 121 260q16 16 31 0l14 -20q-68 -68 -67 -160q0 -14 4 -20q20 4 30 4z" glyph-name="quoteleft" horiz-adv-x="337" unicode="‘"/><glyph d="M138 1092q-26 0 -56.5 30.5t-30.5 76.5t32 78t84 32t86 -45t34 -109q0 -149 -121 -260q-16 -14 -31 0l-14 20q68 72 67 160q0 14 -4 21q-20 -4 -46 -4z" glyph-name="quoteright" horiz-adv-x="337" unicode="’"/><glyph d="M250 -31q0 14 -4 21q-20 -4 -47 -4t-56.5 30.5t-29.5 76.5t31.5 78t83.5 32t86 -45t34 -113t-33 -137.5t-88 -118.5q-16 -14 -30 0l-15 21q68 72 68 159z" glyph-name="quotesinglbase" horiz-adv-x="460" unicode="‚"/><glyph d="M200 1102q26 0 56.5 -30t30.5 -77t-31 -77.5t-84 -30.5t-86 43.5t-33 111.5t33 138.5t86 117.5q16 14 31 0l16 -20q-70 -70 -69 -160q0 -14 4 -20q20 4 46 4zM506 1102q27 0 56.5 -30t29.5 -77t-31 -77.5t-84 -30.5t-86 43.5t-33 111.5t33 138.5t86 117.5q16 14 31 0 l16 -20q-70 -70 -69 -160q0 -14 4 -20q20 4 47 4z" glyph-name="quotedblleft" horiz-adv-x="643" unicode="“"/><glyph d="M250 1075q0 14 -4 21q-20 -4 -47 -4t-56.5 30.5t-29.5 76.5t31.5 78t83.5 32t86 -45t34 -109q0 -149 -121 -260q-16 -14 -30 0l-15 20q68 72 68 160zM555 1075q0 14 -4 21q-20 -4 -47 -4t-56.5 30.5t-29.5 76.5t31.5 78t83.5 32t86 -45t34 -109q0 -149 -121 -260 q-16 -14 -30 0l-15 20q68 72 68 160z" glyph-name="quotedblright" horiz-adv-x="636" unicode="”"/><glyph d="M557 -31q0 14 -4 21q-20 -4 -47 -4t-56.5 30.5t-29.5 76.5t31.5 78t82.5 32t85 -45t34 -113t-32.5 -138.5t-85.5 -117.5q-18 -14 -31 0l-17 21q70 70 70 159zM250 -31q0 14 -4 21q-20 -4 -47 -4t-56.5 30.5t-29.5 76.5t31.5 78t83.5 32t86 -45t34 -113t-33 -137.5 t-88 -118.5q-16 -14 -30 0l-15 21q68 72 68 159z" glyph-name="quotedblbase" horiz-adv-x="765" unicode="„"/><glyph d="M840 1038q32 0 66 -34.5t34 -79.5t-34 -79t-68 -34t-106.5 40t-135.5 40l4 -86l102 -103l-129 -426h-28l-129 426l102 103l4 86q-63 0 -135.5 -40t-106.5 -40t-68 34t-34 79t34 79.5t66 34.5t107.5 -41t140.5 -39q4 61 -38 134t-42 107t34 69t79 35t79 -35t34 -69 t-42 -106.5t-38 -134.5q66 -2 141 39t107 41z" glyph-name="dagger" horiz-adv-x="1118" unicode="†"/><glyph d="M840 424q32 0 66 -35t34 -80t-34 -78.5t-66 -33.5t-109.5 43t-142.5 41q-2 -61 41 -137t43 -110t-34 -69t-79 -35t-79 35t-34 69t43 109.5t41 137.5q-66 2 -143 -41t-109 -43t-66 33.5t-34 78.5t34 80t66 35t109.5 -43t142.5 -41v78l-112 200l112 197v80q-66 2 -143 -41 t-109 -43t-66 34t-34 79t34 79.5t66 34.5t109.5 -43t142.5 -41q2 61 -41 136t-43 109t34 69t79 35t79 -35t34 -69t-43 -108.5t-41 -136.5q66 -2 143 41t109 43t66 -34.5t34 -79.5t-34 -79t-66 -34t-109.5 43t-142.5 41v-80l112 -199l-112 -198v-78q66 -2 143 41t109 43z" glyph-name="daggerdbl" horiz-adv-x="1114" unicode="‡"/><glyph d="M296 428q-71 0 -122 50t-51 122t51 123t121 51t122 -51t52 -122t-51 -122t-122 -51z" glyph-name="bullet" horiz-adv-x="591" unicode="•"/><glyph d="M561 -20q-45 0 -77.5 33.5t-32.5 78.5t32.5 79t77.5 34t79 -33t34 -80t-34 -79.5t-79 -32.5zM909 -20q-45 0 -77.5 33.5t-32.5 78.5t32.5 79t77.5 34t79 -33t34 -80t-34 -79.5t-79 -32.5zM213 -20q-45 0 -78 33.5t-33 78.5t33 79t78 34t79 -33t34 -80t-34 -79.5 t-79 -32.5z" glyph-name="ellipsis" horiz-adv-x="1144" unicode="…"/><glyph d="M557 1024q0 -117 -64.5 -200t-169 -83t-168 83t-63.5 200t63 199t169 82t169.5 -82t63.5 -199zM1032 1303h94l-829 -1313h-94zM325 793q103 0 103 230t-103 230t-103 -230t103 -230zM1202 260q0 -117 -64.5 -200t-169 -83t-168 83t-63.5 200t63.5 199t169.5 82t169 -82 t63 -199zM1763 260q0 -117 -64.5 -200t-169 -83t-168 83t-63.5 200t63.5 199t168 82t169 -82t64.5 -199zM970 29q103 0 103 230t-103 230t-103 -230t103 -230zM1531 29q103 0 103 230t-103 230t-103 -230t103 -230z" glyph-name="perthousand" horiz-adv-x="1855" unicode="‰"/><glyph d="M72 469q180 141 311 305v-74l-162 -231l162 -229v-76q-131 164 -311 305z" glyph-name="guilsinglleft" horiz-adv-x="434" unicode="‹"/><glyph d="M362 469q-180 -141 -311 -305v76l162 229l-162 231v74q131 -164 311 -305z" glyph-name="guilsinglright" horiz-adv-x="434" unicode="›"/><glyph d="M567 1303h109l-885 -1313h-108z" glyph-name="fraction" horiz-adv-x="317" unicode="⁄"/><glyph d="M1153 14q-43 0 -129 -20.5t-166 -20.5q-225 0 -380.5 135.5t-203.5 356.5h-200l18 90h168q-4 57 -4 91t2 52h-145l18 90h137q41 229 197 373t379 144q74 0 160 -19.5t132 -19.5t72 4q37 -193 109 -348h-94q-66 160 -164.5 240.5t-238.5 80.5t-238.5 -106.5t-114.5 -348.5 h504l-19 -90h-487q0 -84 8 -143h459l-19 -90h-426q41 -199 143.5 -313.5t230.5 -114.5t213 73.5t177 233.5h105q-102 -178 -133 -334q-27 4 -70 4z" glyph-name="Euro" horiz-adv-x="1470" unicode="€"/><glyph d="M485 1272q12 0 21.5 -8.5t9.5 -18.5l6 -98h-45l-16 33q-8 16 -27 16h-92v-317q0 -20 53 -21v-51h-227v51q51 0 51 21v317h-90q-18 0 -27 -16l-16 -33h-45l6 98q0 10 9.5 18.5t21.5 8.5h407zM1206 1184v-297q0 -16 6.5 -20.5t36.5 -12.5v-47h-200v47q29 8 37 13t8 20v225 l-158 -256q-10 -23 -28.5 -22.5t-30.5 22.5l-177 258v-227q0 -14 8.5 -19.5t36.5 -13.5v-47h-167v47q31 8 38 13t7 20v297q0 18 -8.5 24t-36.5 13v51h155l187 -283l184 283h137v-49q-23 -8 -29 -14.5t-6 -24.5z" glyph-name="trademark" horiz-adv-x="1290" unicode="™"/><glyph d="M250 883q0 -33 59 -37v-43h-223v43q59 4 59 37v344l-63 -21v54l115 51q49 20 53 -31v-397zM948 1303h109l-885 -1313h-109zM1214 131q0 -57 -62 -105.5t-147 -48.5t-142.5 49.5t-57.5 121.5t88 120q-59 38 -59 96t46 97t124 39t127 -38t49 -94t-62 -96q96 -43 96 -141z M1092 371q0 76 -84 75q-35 0 -52.5 -22.5t-17.5 -50.5q0 -58 57 -72l43 -10q18 -6 36 22.5t18 57.5zM1098 133q0 39 -18.5 58.5t-67.5 31.5l-51 13q-18 4 -40 -26t-22 -74t26.5 -73.5t80.5 -29.5q92 0 92 100z" glyph-name="oneeighth" horiz-adv-x="1318" unicode="⅛"/><glyph d="M539 954q0 -62 -60.5 -116t-149.5 -54t-147.5 49.5t-58.5 105.5t51 56q31 0 43 -11t16.5 -41.5t11.5 -52.5q16 -50 89 -50q37 0 64.5 30t27.5 92t-47 77.5t-98 -15.5l-21 49l49 23q84 31 84 90q0 72 -65 71q-55 0 -76 -43t-8 -86l-72 13q-25 10 -25 28q-2 63 47.5 104.5 t129.5 41.5t128 -40t48 -90t-45 -83q84 -38 84 -148zM1167 1303h109l-885 -1313h-108zM1444 131q0 -57 -62.5 -105.5t-146.5 -48.5t-142.5 49.5t-58.5 121.5t88 120q-59 38 -59 96t46 97t124 39t127 -38t49 -94t-61 -96q96 -43 96 -141zM1321 374q0 72 -84 72 q-35 0 -51.5 -21.5t-16.5 -51.5q1 -60 56 -72l43 -10q18 -6 35.5 22.5t17.5 60.5zM1327 133q0 39 -18.5 58.5t-67.5 31.5l-51 13q-18 4 -40 -26t-22 -74t27 -73.5t80 -29.5q92 0 92 100z" glyph-name="threeeighths" horiz-adv-x="1536" unicode="⅜"/><glyph d="M539 982q0 -83 -59.5 -134t-151.5 -51t-146.5 42t-58.5 117q-2 23 12.5 36.5t38.5 13.5t36.5 -9.5t15.5 -18.5t6.5 -29.5t5.5 -28.5q18 -70 90 -70q41 0 67.5 30t26.5 88t-30 94t-79 36t-104 -39h-57l20 256h270l15 10h43l-6 -78l-25 -20h-238l-6 -90q142 57 228 -7.5 t86 -147.5zM1143 1303h108l-884 -1313h-109zM1419 131q0 -57 -62.5 -105.5t-147.5 -48.5t-142 49.5t-57 121.5t88 120q-60 38 -60 96t46 97t124 39t127 -38t49 -94t-61 -96q96 -43 96 -141zM1296 371q0 76 -84 75q-35 0 -52 -22.5t-17 -50.5q0 -58 57 -72l43 -10 q18 -6 35.5 22.5t17.5 57.5zM1303 133q0 39 -18.5 58.5t-67.5 31.5l-52 13q-18 4 -39.5 -26t-21.5 -74t26.5 -73.5t79.5 -29.5q93 0 93 100z" glyph-name="fiveeighths" horiz-adv-x="1521" unicode="⅝"/><glyph d="M178 1311h344l-256 -512h-28q-25 0 -34 15t1 34l201 375h-228l-12 -35h-53l22 94q6 29 43 29zM1092 1303h108l-885 -1313h-108zM1368 131q0 -57 -62.5 -105.5t-147.5 -48.5t-142.5 49.5t-57.5 121.5t89 120q-59 38 -59 96t45.5 97t123.5 39t127 -38t49 -94t-61 -96 q96 -43 96 -141zM1245 371q0 76 -84 75q-35 0 -52 -22.5t-17 -50.5q0 -58 57 -72l43 -10q18 -6 35.5 22.5t17.5 57.5zM1251 133q0 39 -18.5 58.5t-67.5 31.5l-51 13q-18 4 -39.5 -26t-21.5 -74t26.5 -73.5t79.5 -29.5q92 0 92 100z" glyph-name="seveneighths" horiz-adv-x="1480" unicode="⅞"/><glyph d="M454 1303q138 0 245.5 -62.5t203.5 -217.5t96 -423t-120.5 -446.5t-360.5 -178.5q-197 0 -320.5 134.5t-123.5 309.5t120.5 285.5t286.5 110.5q117 0 201 -50t117 -97q-4 221 -73.5 400t-266.5 179q-102 0 -211 -86l-45 66q113 76 251 76zM801 565q0 53 -86 122t-202 69 t-179.5 -101t-63.5 -249t60.5 -258.5t186.5 -110.5t205 143t79 385z" glyph-name="partialdiff" horiz-adv-x="1071" unicode="∂"/><glyph d="M1133 514q0 -219 -156 -374.5t-375 -155.5q-156 0 -285 84l-47 -68h-69l69 100q-92 74 -145 182.5t-53 231.5q0 219 155.5 374.5t374.5 155.5q145 0 270 -73l62 88h70l-84 -121q98 -74 155.5 -184.5t57.5 -239.5zM141 500q0 -204 168 -342l522 755q-106 61 -229 62 q-190 0 -325.5 -135.5t-135.5 -339.5zM602 53q190 0 325.5 135.5t135.5 325.5q0 227 -182 369l-525 -760q111 -70 246 -70z" glyph-name="emptyset" horiz-adv-x="1204" unicode="∅"/><glyph d="M1133 1638v-2048h-111v1938h-768v-1938h-111v2048h990z" glyph-name="product" horiz-adv-x="1275" unicode="∏"/><glyph d="M1024 1638v-110h-743l610 -916l-610 -911h743v-111h-881v111l594 913l-594 914v110h881z" glyph-name="summation" horiz-adv-x="1167" unicode="∑"/><glyph d="M143 573h717v-75h-717v75z" glyph-name="minus" horiz-adv-x="1003" unicode="−"/><glyph d="M639 -410q-43 0 -66 50l-288 641q-57 127 -140 157l-43 17v59q123 -8 232 -4l321 -684l609 1814h233v-59l-55 -16q-86 -23 -137 -162l-652 -1813h-14z" glyph-name="radical" horiz-adv-x="1497" unicode="√"/><glyph d="M1018 915q70 0 122 -19t103 -62t84 -124t33 -189.5t-33 -189.5t-107.5 -142.5t-174.5 -61.5q-99 0 -185 52t-127 167q-39 -115 -124 -167t-155 -52t-122.5 19.5t-104 61.5t-83 123t-31.5 189q0 205 102 300t223 95q84 0 170 -54t127 -169q39 115 126 169t157 54zM438 733 q-272 0 -272 -212t271 -212t272 211q0 113 -77 163t-194 50zM762 520q0 -211 268 -211t268 212t-262 212q-121 0 -197.5 -49t-76.5 -164z" glyph-name="infinity" horiz-adv-x="1472" unicode="∞"/><glyph d="M637 1561q-113 0 -113 -203v-1483q0 -168 -55 -241.5t-186 -73.5q-166 0 -236 151q-14 27 -8 61t38 50t62.5 2t34.5 -45q4 -12 11.5 -38t15.5 -50.5t29 -38.5t57 -14q115 0 114 202v1483q0 168 55.5 241.5t186.5 73.5q158 1 234 -151q16 -27 10 -60.5t-35 -48.5 q-37 -16 -65.5 -2.5t-39.5 51.5t-13.5 47t-7.5 25.5t-23 39t-66 22.5z" glyph-name="integral" horiz-adv-x="923" unicode="∫"/><glyph d="M730 578q-85 0 -201.5 68.5t-168.5 68.5q-109 0 -145 -97h-72q33 90 101.5 142.5t154.5 52.5t190.5 -59.5t172.5 -59.5q98 0 149 86h74q-29 -94 -99.5 -148t-155.5 -54zM730 229q-85 0 -201.5 69t-168.5 69q-109 0 -145 -97h-72q33 90 101.5 142.5t154.5 52.5 t190.5 -59.5t172.5 -59.5q98 0 149 86h74q-29 -94 -99.5 -148.5t-155.5 -54.5z" glyph-name="approxequal" horiz-adv-x="1128" unicode="≈"/><glyph d="M860 682h-207l-121 -293h328v-76h-360l-129 -313h-119l129 313h-238v76h271l121 293h-392v76h424l109 258h119l-109 -258h174v-76z" glyph-name="notequal" horiz-adv-x="1044" unicode="≠"/><glyph d="M143 737q377 143 756 350v-77q-397 -225 -700 -328q315 -109 700 -328v-78q-379 207 -756 351v110zM899 121v-76h-717v76h717z" glyph-name="lessequal" horiz-adv-x="1042" unicode="≤"/><glyph d="M899 737v-110q-379 -143 -756 -351v78q385 219 701 328q-303 102 -701 328v77q377 -207 756 -350zM143 121h717v-76h-717v76z" glyph-name="greaterequal" horiz-adv-x="1042" unicode="≥"/><glyph d="M772 635l-266 -635h-168l-266 635l266 637h168zM616 635l-194 506l-195 -506l195 -506z" glyph-name="lozenge" horiz-adv-x="843" unicode="◊"/><glyph d="M1209 1042q177 0 299 -143t122 -389t-128 -389.5t-304 -143.5q-88 0 -174 50.5t-121 50.5q-70 0 -98 -78h-31q-35 0 -35 37v1036q0 213 -67.5 250t-130.5 37q-203 0 -203 -334h223q18 0 19 -18v-25q0 -18 -19 -18h-223v-836q0 -61 121 -76v-53q-213 8 -428 0v53 q121 14 121 76v836h-93q-18 0 -18 18v25q0 18 18 18h93q4 197 108.5 295t280.5 98q387 0 387 -366v-144q104 133 281 133zM1186 31q127 0 186.5 104.5t59.5 329.5t-66 371.5t-198 146.5t-240 -143v-588q2 -68 82 -144.5t176 -76.5z" glyph-name="f_b.dlig" horiz-adv-x="1681"/><glyph d="M1548 129q0 -61 121 -76v-53q-213 10 -426 0v53q119 14 119 76v565q0 131 -32 200t-106 69t-143 -45.5t-101 -82t-52 -67.5v-639q0 -61 121 -76v-53q-213 8 -428 0v53q119 14 118 76v944q0 213 -67.5 250t-130.5 37q-203 0 -203 -334h223q18 0 19 -18v-25q0 -18 -19 -18 h-223v-836q0 -61 121 -76v-53q-213 8 -428 0v53q121 14 121 76v836h-93q-18 0 -18 18v25q0 18 18 18h93q4 197 108.5 295t280.5 98q387 0 387 -366v-113l-13 -111q25 39 65 82t120 88t164 45q139 0 211.5 -76.5t72.5 -273.5v-565z" glyph-name="f_h.dlig" horiz-adv-x="1699"/><glyph d="M928 129q0 -61 121 -76v-53q-215 10 -428 0v53q119 14 118 76v944q0 213 -67.5 250t-130.5 37q-203 0 -203 -334h227q18 0 19 -18v-25q0 -18 -19 -18h-227v-836q0 -61 121 -76v-53q-213 8 -428 0v53q121 14 121 76v836h-89q-18 0 -18 18v25q0 18 18 18h89 q4 197 108.5 295t280.5 98q387 0 387 -366v-494q203 166 340 346q39 55 -64 68v53q172 -8 340 0v-53q-61 -6 -94 -20.5t-80 -59.5l-317 -303l317 -404q55 -70 118.5 -113.5t113.5 -47.5l-56 -54q-229 0 -364 174l-254 328v-344z" glyph-name="f_k.dlig" horiz-adv-x="1632"/><glyph d="M1108 641q0 -172 -51 -320.5t-169 -250t-284 -101.5t-283.5 101.5t-169 250t-51.5 320.5t51.5 317.5t169 245t283.5 99.5t284 -99.5t169 -245t51 -317.5zM604 33q162 0 229.5 150.5t67.5 455.5t-67.5 454.5t-229.5 149.5t-230.5 -149.5t-68.5 -453.5t68.5 -455.5 t230.5 -151.5z" glyph-name="zero.tnum" horiz-adv-x="1228"/><glyph d="M717 129q0 -55 162 -76v-53q-254 10 -510 0v53q160 18 159 76v944q0 51 -25.5 61.5t-113.5 2.5v57q144 19 205 56.5t84 37.5q51 0 51 -49q0 -20 -6 -99t-6 -153v-858z" glyph-name="one.tnum" horiz-adv-x="1228"/><glyph d="M926 0h-779l-4 53q276 254 404 414q240 297 239 516q0 121 -55 191.5t-157.5 70.5t-161 -66.5t-58.5 -177.5q0 -47 14.5 -81.5t14.5 -66.5t-29.5 -55.5t-74.5 -23.5t-82 41t-37 119q0 156 110 263.5t310 107.5t304.5 -102.5t104.5 -248.5t-92 -286t-210.5 -245 t-338.5 -273h428q74 0 113 12t57 49l66 125h51l-72 -289q-12 -47 -65 -47z" glyph-name="two.tnum" horiz-adv-x="1228"/><glyph d="M1083 398q0 -168 -148.5 -295.5t-338.5 -127.5t-309 91.5t-135 197.5q-10 57 14 94t68 37t68 -24.5t32 -49t20 -75.5q49 -211 236 -211q129 0 209 95.5t80 235.5t-67.5 215.5t-141.5 75.5t-174 -45l-31 70l86 35q238 98 235 299q0 100 -53 164.5t-144 64.5t-143.5 -61.5 t-52.5 -165.5q0 -43 10.5 -78t10.5 -61q0 -80 -88 -80q-51 0 -89 43t-38 121q0 152 108.5 247t281.5 95t275.5 -86t102.5 -201q-1 -201 -269 -293q156 35 270.5 -62t114.5 -265z" glyph-name="three.tnum" horiz-adv-x="1228"/><glyph d="M961 379h-97v-250q0 -37 32 -52.5t114 -23.5v-53q-242 10 -488 0v53q84 8 116 23.5t32 52.5v250h-492l-22 88l645 838h63v-834h37q76 0 105 53l22 41h43l-41 -139q-12 -47 -69 -47zM670 471v576l-443 -576h443z" glyph-name="four.tnum" horiz-adv-x="1228"/><glyph d="M631 874q195 0 322.5 -132t127.5 -320t-144.5 -317.5t-334.5 -129.5t-311 90.5t-137 200.5q-10 57 14.5 93t64.5 36t65.5 -14t57.5 -135q57 -211 242 -211q127 0 203 97t76 264t-95.5 281t-232.5 114q-66 0 -123 -21.5t-84 -42t-66 -57.5h-63l53 602h451q72 0 109.5 11 t58.5 46h88l-41 -158q-12 -47 -66 -47h-559l-35 -401q126 151 359 151z" glyph-name="five.tnum" horiz-adv-x="1228"/><glyph d="M688 1247q-197 0 -266.5 -179t-73.5 -400q33 47 117 97t201 50q166 0 286.5 -110.5t120.5 -285.5t-124 -309.5t-320 -134.5q-240 0 -361 178.5t-121 445.5t96.5 423t204 218.5t245.5 62.5t251 -76l-45 -66q-109 86 -211 86zM346 565q0 -242 79 -385t205 -143t186.5 110.5 t60.5 258.5t-63.5 249t-179.5 101t-202 -69t-86 -122z" glyph-name="six.tnum" horiz-adv-x="1228"/><glyph d="M440 -25q-37 0 -57.5 19.5t-20.5 51.5t182 383t357 693h-448q-134 0 -167.5 -30.5t-52.5 -67.5h-61l70 266h43q74 -18 186 -18h555l-491 -1217q-35 -80 -95 -80z" glyph-name="seven.tnum" horiz-adv-x="1228"/><glyph d="M1094 346q0 -147 -125 -260t-354.5 -113t-354.5 113t-125 260q0 111 76 206t221 132q-111 43 -162 126.5t-51 153.5t19.5 121.5t61.5 102.5t124 84t190 33q205 0 298.5 -102.5t93.5 -204.5t-50 -186.5t-159 -127.5q145 -37 221 -132t76 -206zM613 1245q-212 0 -212 -268 t212 -268t212 268t-212 268zM613 37q138 0 206 83t68 225t-67.5 226t-205.5 84t-206 -84t-68 -227t67.5 -225t205.5 -82z" glyph-name="eight.tnum" horiz-adv-x="1228"/><glyph d="M529 33q198 0 269.5 181.5t71.5 395.5q-31 -45 -115.5 -96t-201.5 -51q-166 0 -287 111.5t-121 285.5t125.5 308.5t305.5 134.5t338.5 -128.5t158.5 -482.5q0 -355 -164 -536t-395 -181q-123 0 -240 76l45 66q106 -84 210 -84zM874 713q0 242 -79.5 385t-202.5 143 q-88 0 -168 -80t-80 -301q0 -137 63.5 -236.5t178.5 -99.5t201.5 68t86.5 121z" glyph-name="nine.tnum" horiz-adv-x="1228"/><glyph d="M469 237.5q0 -108.5 -49.5 -184.5t-147.5 -76t-149 76t-51 184.5t51 185.5t148 77t147.5 -77t50.5 -185.5zM271 51q97 1 97 189t-96 188q-98 0 -98 -188t97 -189z" glyph-name="zero.dnom" horiz-adv-x="540"/><glyph d="M250 68q0 -33 59 -37v-43h-223v43q59 4 59 37v344l-63 -21v53l115 52q49 20 53 -31v-397z" glyph-name="one.dnom" horiz-adv-x="380"/><glyph d="M379 360q0 34 -21.5 61.5t-58.5 27.5q-66 0 -80 -58q-4 -23 1 -45t3 -33q-23 -45 -70 -30.5t-47 47.5q-4 76 49.5 127t146.5 51t142.5 -42t49.5 -116t-63.5 -114.5t-142.5 -83.5q-78 -43 -91 -82h213q33 0 43 16l18 27h51l-20 -97q-6 -29 -43 -28h-367q14 66 49 118 t66 76t70 48t56 37.5t31.5 36t14.5 56.5z" glyph-name="two.dnom" horiz-adv-x="614"/><glyph d="M539 146q0 -62 -60.5 -115.5t-149.5 -53.5t-147.5 49.5t-58.5 105.5t51 56q31 0 43 -11t16.5 -41t11.5 -52q16 -51 89 -51q37 0 64.5 30.5t27.5 92.5t-47 77t-98 -16l-21 49l49 23q84 31 84 97t-65 65q-55 0 -76 -43t-8 -86l-72 12q-25 10 -25 28q-2 63 47.5 104.5 t129.5 41.5t128 -40t48 -90t-45 -83q84 -39 84 -149z" glyph-name="three.dnom" horiz-adv-x="641"/><glyph d="M510 145h-78v-73q0 -37 51 -37v-47h-209v47q49 0 50 37v73h-211v54l245 303q18 23 46 14.5t28 -33.5v-280h78v-58zM324 203v145l-123 -145h123z" glyph-name="four.dnom" horiz-adv-x="612"/><glyph d="M539 163q0 -83 -59.5 -134.5t-151.5 -51.5t-146.5 42t-58.5 118q-2 23 12.5 36t38.5 13t36.5 -9t15.5 -18t6.5 -29.5t5.5 -29.5q18 -70 90 -69q41 0 67.5 30.5t26.5 87.5t-30 93.5t-79 36.5t-104 -39h-57l20 256h270l15 10h43l-6 -78l-25 -20h-238l-6 -91q57 23 123 23 t128.5 -47t62.5 -130z" glyph-name="five.dnom" horiz-adv-x="649"/><glyph d="M315 451q-94 0 -108 -160q49 27 111 27t112.5 -46t50.5 -116t-52 -124.5t-145 -54.5t-142.5 72t-49.5 174t58.5 193.5t160.5 91.5q63 0 109 -31q16 -12 0 -41q-14 -12 -24.5 -9t-36 13.5t-44.5 10.5zM293 37q82 -1 82 111t-76 112q-35 0 -65.5 -17.5t-30.5 -27.5 q-6 -178 90 -178z" glyph-name="six.dnom" horiz-adv-x="573"/><glyph d="M178 496h344l-256 -512h-28q-25 0 -34 15t1 34l201 375h-228l-12 -35h-53l22 94q6 29 43 29z" glyph-name="seven.dnom" horiz-adv-x="604"/><glyph d="M516 131q0 -57 -62.5 -105.5t-147.5 -48.5t-142.5 49.5t-57.5 121.5t89 120q-59 38 -59 96t45.5 97t123.5 39t127 -38t49 -94t-61 -96q96 -43 96 -141zM393 371q0 76 -84 75q-35 0 -52 -22.5t-17 -50.5q0 -58 57 -72l43 -10q18 -6 35.5 22.5t17.5 57.5zM399 133 q0 39 -18.5 58.5t-67.5 31.5l-51 13q-18 4 -39.5 -26t-21.5 -74t26.5 -73.5t79.5 -29.5q92 0 92 100z" glyph-name="eight.dnom" horiz-adv-x="622"/><glyph d="M260 35q92 0 107 160q-45 -25 -110 -25t-115 44t-50 116t52.5 125t146.5 53t142 -70t48 -174t-57 -195.5t-160 -91.5q-66 0 -110 31q-16 12 0 41q14 12 24 9t37 -13t45 -10zM283 449q-84 0 -84 -119q0 -49 21.5 -77t56 -28t64.5 16.5t30 28.5q2 86 -21.5 132.5 t-66.5 46.5z" glyph-name="nine.dnom" horiz-adv-x="573"/><glyph d="M469 1054.5q0 -108.5 -49.5 -184t-147.5 -75.5t-149 75.5t-51 184t51 185.5t148 77t147.5 -77t50.5 -185.5zM271 868q97 0 97 188t-96 189q-98 -1 -98 -189t97 -188z" glyph-name="zero.numr" horiz-adv-x="540"/><glyph d="M250 883q0 -33 59 -37v-43h-223v43q59 4 59 37v344l-63 -21v54l115 51q49 20 53 -31v-397z" glyph-name="one.numr" horiz-adv-x="380"/><glyph d="M379 1164q0 34 -21.5 61.5t-58.5 27.5q-66 0 -80 -57q-4 -23 1 -45.5t3 -32.5q-23 -45 -70 -30.5t-47 47.5q-4 76 49.5 127t146.5 51t142.5 -42t49.5 -116t-63.5 -114.5t-143.5 -83.5q-79 -44 -90 -83h213q33 0 43 17l18 27h51l-20 -97q-6 -29 -43 -28h-367q14 66 49 118 t66 76.5t70 47.5t56 36.5t31.5 36t14.5 56.5z" glyph-name="two.numr" horiz-adv-x="614"/><glyph d="M539 954q0 -62 -60.5 -116t-149.5 -54t-147.5 49.5t-58.5 105.5t51 56q31 0 43 -11t16.5 -41.5t11.5 -52.5q16 -50 89 -50q37 0 64.5 30t27.5 92t-47 77.5t-98 -15.5l-21 49l49 23q84 31 84 90q0 72 -65 71q-55 0 -76 -43t-8 -86l-72 13q-25 10 -25 28q-2 63 47.5 104.5 t129.5 41.5t128 -40t48 -90t-45 -83q84 -38 84 -148z" glyph-name="three.numr" horiz-adv-x="641"/><glyph d="M510 946h-78v-74q0 -37 51 -36v-48h-209v48q49 0 50 36v74h-211v53l245 304q18 23 46 14.5t28 -33.5v-280h78v-58zM324 1004v145l-123 -145h123z" glyph-name="four.numr" horiz-adv-x="612"/><glyph d="M539 982q0 -83 -59.5 -134t-151.5 -51t-146.5 42t-58.5 117q-2 23 12.5 36.5t38.5 13.5t36.5 -9.5t15.5 -18.5t6.5 -29.5t5.5 -28.5q18 -70 90 -70q41 0 67.5 30t26.5 88t-30 94t-79 36t-104 -39h-57l20 256h270l15 10h43l-6 -78l-25 -20h-238l-6 -90q142 57 228 -7.5 t86 -147.5z" glyph-name="five.numr" horiz-adv-x="649"/><glyph d="M315 1255q-94 0 -108 -159q49 26 111 26t112.5 -45t50.5 -116t-52 -125t-145 -54t-142.5 72t-49.5 174t58.5 193.5t160.5 91.5q63 0 109 -31q16 -12 0 -41q-14 -12 -24.5 -9t-36 13t-44.5 10zM293 842q82 0 82 112t-76 111q-35 0 -65.5 -17.5t-30.5 -27.5 q-6 -178 90 -178z" glyph-name="six.numr" horiz-adv-x="575"/><glyph d="M178 1311h344l-256 -512h-28q-25 0 -34 15t1 34l201 375h-228l-12 -35h-53l22 94q6 29 43 29z" glyph-name="seven.numr" horiz-adv-x="606"/><glyph d="M516 946q0 -57 -62.5 -105t-147.5 -48t-142.5 48.5t-57.5 120.5t89 121q-59 39 -59 97t45.5 96.5t123.5 38.5t127 -38.5t49 -94.5t-61 -95q96 -43 96 -141zM393 1186q0 76 -84 76q-35 0 -52 -22.5t-17 -51.5q0 -58 57 -72l43 -10q18 -6 35.5 22.5t17.5 57.5zM399 948 q0 39 -18.5 58.5t-67.5 31.5l-51 13q-18 4 -39.5 -26t-21.5 -74t26.5 -73.5t79.5 -29.5q92 0 92 100z" glyph-name="eight.numr" horiz-adv-x="622"/><glyph d="M260 842q92 0 107 159q-45 -25 -110 -25t-115 44.5t-50 116.5t52.5 125t146.5 53t142 -70.5t48 -174.5t-57 -195t-160 -91q-66 0 -110 31q-16 12 0 41q14 12 24 9t37 -13t45 -10zM283 1255q-84 0 -84 -118q0 -49 21.5 -77t56 -28t64.5 16.5t30 28.5q2 86 -21.5 132 t-66.5 46z" glyph-name="nine.numr" horiz-adv-x="573"/></font>
</defs>
</svg>
