<?xml version="1.0" standalone="no"?>
<!DOCTYPE svg PUBLIC "-//W3C//DTD SVG 1.1//EN" "http://www.w3.org/Graphics/SVG/1.1/DTD/svg11.dtd">
<svg xmlns="http://www.w3.org/2000/svg"><metadata>This SVG WebFont was generated by YouWorkForThem.
Copyright Â© 2015 by Connary Fagen. All rights reserved.</metadata><defs><font horiz-adv-x="0" id="ywftsvg"><font-face ascent="1638" bbox="-788 -492 1860 1835" cap-height="1272" descent="-410" font-family="" font-stretch="normal" font-weight="250" panose-1="0 0 3 0 0 0 0 0 0 0" underline-position="0" underline-thickness="0" unicode-range="U+0020-FB02" units-per-em="2048" x-height="1026"/><missing-glyph d="M864 1638v-2109h-667v2109h667zM702 1497h-348v-70h138v-77h-140v-70h350v70h-139v77h139v70zM563 1225h-211v-219h350v71h-139v148zM492 1153v-76h-70v76h70zM702 948h-350v-69h140v-78h-140v-70h211v148h139v69zM702 821h-69v-139h-281v-72h350v211zM702 565h-210v-119 h71v50h70v-101h-211v170h-70v-239h350v239zM702 201h-350v-240h350v240zM633 131v-100h-211v100h211zM702 -88h-350v-70h148l-148 -98v-70h350v70h-215l148 98h67v70z" horiz-adv-x="1054"/><glyph d="M782 1260q0 -70 -67 -70q-49 0 -70.5 27.5t-25 60.5t-34 60.5t-93.5 27.5q-201 0 -201 -340h213q14 0 14 -12v-25q0 -12 -14 -12h-213v-862q0 -59 117 -76v-39q-188 8 -377 0v39q117 14 116 76v862h-98q-14 0 -14 12v25q0 12 14 12h98q4 190 98.5 289.5t238.5 99.5 t221 -42.5t77 -112.5zM932 115q0 -59 117 -76v-39q-188 8 -377 0v39q117 14 116 76v755q0 47 -27.5 65.5t-90.5 16.5v39q73 7 144 30t81 23q49 0 49 -38q0 -10 -6 -88t-6 -150v-653z" glyph-name="uniFB01" horiz-adv-x="1089" unicode="fi"/><glyph d="M827 133q0 -94 117 -76v-37q-186 -43 -229 -43q-31 0 -31 37v1071q0 206 -65.5 243.5t-129.5 37.5q-199 0 -198 -340h239q14 0 15 -12v-25q0 -12 -15 -12h-239v-862q0 -59 117 -76v-39q-188 8 -377 0v39q117 14 116 76v862h-92q-14 0 -14 12v25q0 12 14 12h92 q4 195 97.5 292t244.5 97q338 0 338 -350v-932z" glyph-name="uniFB02" horiz-adv-x="985" unicode="fl"/><glyph d="M864 1638v-2109h-667v2109h667zM702 1497h-348v-70h138v-77h-140v-70h350v70h-139v77h139v70zM563 1225h-211v-219h350v71h-139v148zM492 1153v-76h-70v76h70zM702 948h-350v-69h140v-78h-140v-70h211v148h139v69zM702 821h-69v-139h-281v-72h350v211zM702 565h-210v-119 h71v50h70v-101h-211v170h-70v-239h350v239zM702 201h-350v-240h350v240zM633 131v-100h-211v100h211zM702 -88h-350v-70h148l-148 -98v-70h350v70h-215l148 98h67v70z" glyph-name=".notdef" horiz-adv-x="1054"/><glyph glyph-name="glyph1"/><glyph glyph-name="glyph2" horiz-adv-x="681"/><glyph glyph-name="space" horiz-adv-x="450" unicode=" "/><glyph d="M113 1181q0 124 96 124t96 -124t-38 -356.5t-42 -380.5h-32q-4 147 -42 380t-38 357zM211 -20q-39 0 -68.5 28.5t-29.5 69.5t29.5 69.5t68.5 28.5t67.5 -29.5t28.5 -68.5t-28.5 -68.5t-67.5 -29.5z" glyph-name="exclam" horiz-adv-x="417" unicode="!"/><glyph d="M132 1305q24 0 43.5 -18.5t17.5 -43.5l-48 -393q0 -14 -12 -14t-12 14l-49 393q0 25 18 43.5t42 18.5zM370 1305q24 0 43 -18.5t19 -43.5l-47 -393q-7 -14 -17 -14t-10 14l-47 393q-2 25 16.5 43.5t42.5 18.5z" glyph-name="quotedbl" horiz-adv-x="518" unicode="&quot;"/><glyph d="M1104 895h-240l-110 -438h268q31 0 29 -31l2 4q-4 -31 -33 -31h-281l-114 -460h-74l119 460h-299l-115 -460h-74l119 460h-201q-31 0 -28 31l-2 -4q4 31 32 31h215l113 438h-246q-25 0 -28 31l-2 -2q2 31 32 30h260l109 422h63l-106 -422h301l109 422h63l-106 -422h227 q33 0 29 -30l2 2q2 -14 -7.5 -22.5t-25.5 -8.5zM684 457l115 438h-301l-111 -438h297z" glyph-name="numbersign" horiz-adv-x="1198" unicode="#"/><glyph d="M881 340q0 -158 -115 -261.5t-262 -103.5h-12v-100h-52v102q-82 8 -168 41t-104 33q-41 0 -55 -47h-45l-17 272h41q10 0 25 -26q37 -96 133 -160.5t224 -64.5t195.5 70.5t67.5 195.5t-104 186t-243 121q-140 60 -235.5 151t-95.5 228t98.5 232.5t276.5 95.5h6v106h52 v-108q66 -4 123 -23.5t81 -19.5t35 28h39l12 -256l-24 2q-20 2 -31 25q-35 82 -122 140t-189 58t-167 -66.5t-65 -165.5t62 -159t203 -121q73 -24 169.5 -76.5t148.5 -94.5t83 -103t31 -131z" glyph-name="dollar" horiz-adv-x="931" unicode="$"/><glyph d="M537 1024q0 -117 -61.5 -200t-162 -83t-161 83t-60.5 200t60.5 199t161 82t162 -82t61.5 -199zM1018 1303h72l-824 -1313h-67zM313 780q111 0 111 243t-111 243q-106 0 -106 -243t106 -243zM1159 260q0 -117 -61.5 -200t-160.5 -83t-160.5 83t-61.5 200t61.5 199 t160.5 82t160.5 -82t61.5 -199zM936 16q111 0 111 243t-111 243q-106 0 -106 -243t106 -243z" glyph-name="percent" horiz-adv-x="1251" unicode="%"/><glyph d="M723 1090q0 178 -204 178q-91 0 -146.5 -71t-55.5 -181t68 -195.5t170 -107.5l-8 -37q-145 24 -243.5 -64t-98.5 -242t109.5 -257t281.5 -103t288.5 104.5t116.5 268.5q0 80 -43.5 141.5t-115.5 61.5t-98.5 -57.5t20.5 -108.5h-33q-49 29 -49 73t30.5 78.5t94.5 79.5 l237 162q55 39 83 63.5t52.5 69.5t24.5 103q0 90 -63.5 135t-161.5 24q-27 -6 -28 8t20 25q79 33 153 33t150 -63.5t76 -174.5q0 -53 -33 -105t-71 -87t-148.5 -99.5t-218.5 -107.5q119 -14 199.5 -94t82.5 -181q2 -176 -161.5 -284.5t-401.5 -108.5q-313 0 -435 144.5 t-122 294.5t108.5 242.5t253.5 76.5q-113 37 -177 114t-64 187t96 193.5t261 83.5t252 -82.5t87 -182.5t-41 -154.5t-109 -54.5t-69 58q0 27 42 66t42 135z" glyph-name="ampersand" horiz-adv-x="1390" unicode="&amp;"/><glyph d="M132 1305q24 0 43.5 -18.5t17.5 -43.5l-48 -393q0 -14 -12 -14t-12 14l-49 393q0 25 18 43.5t42 18.5z" glyph-name="quotesingle" horiz-adv-x="266" unicode="'"/><glyph d="M233 608q0 -252 80 -510t215 -401q22 -22 12 -29.5t-22 -7.5h-6q-23 0 -39 14q-170 170 -280.5 416t-110.5 516.5t110.5 516t280.5 415.5q16 14 39 14h2q20 0 27.5 -8t-2.5 -18q-141 -143 -223.5 -404.5t-82.5 -513.5z" glyph-name="parenleft" horiz-adv-x="585" unicode="("/><glyph d="M352 608q0 252 -82 513t-223 405q-10 10 -3 18t28 8h2q23 0 39 -14q170 -170 280.5 -415.5t110.5 -516t-110.5 -516.5t-280.5 -416q-16 -14 -39 -14h-6q-18 0 -21.5 10.5t10.5 26.5q135 143 215 401t80 510z" glyph-name="parenright" horiz-adv-x="585" unicode=")"/><glyph d="M303 1065l-61 160q8 70 82 80q74 -10 82 -80l-64 -160q-10 -28 -22.5 -20t-16.5 20zM272 1040q14 -14 2 -28.5t-34 -10.5l-164 37q-55 41 -27 111q45 57 111 29zM377 1040l112 138q63 27 111 -29q29 -68 -27 -111l-163 -37q-23 -4 -35 10.5t2 28.5zM242 969 q20 4 31.5 -10.5t-3.5 -28.5l-110 -137q-66 -29 -111 28q-29 70 27 113zM408 969l165 -35q53 -45 27 -113q-47 -55 -111 -28l-110 137q-14 14 -2.5 28.5t31.5 10.5zM303 909q8 20 20.5 20.5t20.5 -20.5l62 -159q-8 -70 -82 -80q-74 10 -82 80z" glyph-name="asterisk" horiz-adv-x="649" unicode="*"/><glyph d="M860 563v-63h-325v-328h-66v328h-326v63h326v326h66v-326h325z" glyph-name="plus" horiz-adv-x="1003" unicode="+"/><glyph d="M184 -10q-20 0 -45.5 23.5t-25.5 66.5t26.5 68.5t71.5 25.5t73.5 -39t28.5 -94q1 -140 -110 -238q-16 -10 -27 0l-12 21q66 66 65 149q0 14 -4 21q-21 -4 -41 -4z" glyph-name="comma" horiz-adv-x="425" unicode=","/><glyph d="M72 549h553v-72h-553v72z" glyph-name="hyphen" horiz-adv-x="696" unicode="-"/><glyph d="M199 -20q-39 0 -68 29.5t-29 68.5t29 68.5t68 29.5t68.5 -28.5t29.5 -69.5t-29.5 -69.5t-68.5 -28.5z" glyph-name="period" horiz-adv-x="399" unicode="."/><glyph d="M639 1477h76l-547 -1641h-76z" glyph-name="slash" horiz-adv-x="806" unicode="/"/><glyph d="M1034 640q0 -124 -27.5 -238.5t-82 -214t-150.5 -159t-221 -59.5t-221 60.5t-150.5 160t-82 214t-27.5 237.5t27.5 235.5t82 211t150.5 157t221 58.5t221 -58.5t150.5 -157t82 -211t27.5 -236.5zM553 18q174 0 247.5 143.5t73.5 478.5t-73.5 475t-247.5 140t-248 -140 t-74 -475t74 -478.5t248 -143.5z" glyph-name="zero" horiz-adv-x="1105" unicode="0"/><glyph d="M381 115q0 -59 117 -76v-39q-186 8 -377 0v39q117 14 117 76v983q0 47 -29 56t-117 -1v47q109 14 173.5 51t82.5 37q45 0 45 -43q0 -16 -6 -85.5t-6 -147.5v-897z" glyph-name="one" horiz-adv-x="589" unicode="1"/><glyph d="M819 0h-756l-2 41q96 90 143.5 134t161 167t175 212t116 212.5t54.5 235.5t-59.5 183.5t-168 71.5t-171 -67.5t-62.5 -175.5q0 -51 14.5 -87t14.5 -66t-27.5 -48t-61.5 -18t-69 33.5t-35 111.5q0 152 103 258.5t301 106.5t291 -100.5t93 -252.5q0 -207 -152 -377 t-305 -298t-177 -150h452q74 0 111 12.5t55 53.5l62 129h34l-69 -275q-12 -47 -66 -47z" glyph-name="two" horiz-adv-x="1005" unicode="2"/><glyph d="M983 392q0 -160 -140.5 -288.5t-325.5 -128.5t-302 96.5t-129 198.5q-6 53 15.5 86t66.5 33t66.5 -37.5t41.5 -123.5t73.5 -145.5t172.5 -59.5t208 97.5t89 243.5t-75.5 224t-155.5 78t-174 -45l-29 63l86 35q252 96 250 303q0 106 -58.5 170.5t-155.5 64.5t-152.5 -62 t-55.5 -171q0 -45 10 -77t10 -56q0 -70 -75 -70q-41 0 -76 38t-35 110q0 152 102.5 244t270.5 92t266 -86t98 -199q0 -205 -262 -293q160 35 267.5 -70t107.5 -265z" glyph-name="three" horiz-adv-x="1054" unicode="3"/><glyph d="M827 389h-82v-274q0 -37 31 -51.5t115 -24.5v-39q-219 10 -436 0v39q84 10 114.5 24.5t30.5 51.5v274h-514l-14 64l641 852h32v-848h27q72 0 105 53l22 39h35l-37 -113q-12 -47 -70 -47zM600 457v622l-471 -622h471z" glyph-name="four" horiz-adv-x="1005" unicode="4"/><glyph d="M522 866q213 0 328 -137t115 -317t-135.5 -308.5t-321.5 -128.5t-304 95.5t-132 199.5q-10 119 84 119q43 0 62.5 -35.5t43.5 -123.5q55 -206 244 -207q131 0 213 97t82 270t-103.5 294t-248.5 121q-74 0 -106 -12.5t-47 -17.5t-39 -21.5t-30 -19.5t-30 -23l-23 -21h-45 l51 582h471q70 0 106 11t54 46h66l-35 -137q-12 -47 -66 -47h-563l-37 -416q57 66 151.5 101.5t194.5 35.5z" glyph-name="five" horiz-adv-x="1036" unicode="5"/><glyph d="M561 811q166 0 283 -110.5t117 -279.5t-116 -305t-293 -136t-285.5 92t-151.5 226t-43 267t17 228.5t57 187.5t98.5 162.5t147.5 115t202 44.5t237 -76l-36 -58q-111 91 -215 91t-173 -56.5t-122.5 -190.5t-57.5 -354q48 65 149 108.5t185 43.5zM225 569 q0 -260 90.5 -401t222.5 -141t199.5 110.5t67.5 266.5t-70.5 257t-194.5 101t-219.5 -67t-95.5 -126z" glyph-name="six" horiz-adv-x="1032" unicode="6"/><glyph d="M324 -25q-66 0 -66 56q0 20 161 346t374 768h-486q-4 0 -27.5 1t-32.5 0t-31.5 -3t-35 -8.5t-34 -17.5t-48.5 -60h-37l62 233h16q82 -18 193 -18h561l-490 -1221q-31 -76 -79 -76z" glyph-name="seven" horiz-adv-x="944" unicode="7"/><glyph d="M1004 346q0 -143 -118 -256t-348 -113t-348 113t-118 256q0 111 73.5 207t227.5 131q-80 27 -147.5 103t-67.5 186t54 187t134 111t192 34t191.5 -34t132.5 -110t53 -171t-48 -181t-165 -125q154 -35 228 -131t74 -207zM536.5 1256.5q-229.5 -0.5 -229.5 -276.5 t229.5 -275.5t229.5 276.5t-229.5 275.5zM536.5 27q151.5 0 226.5 86t75 231t-75 231.5t-225 86.5t-227.5 -86.5t-77.5 -231.5t76 -231t227.5 -86z" glyph-name="eight" horiz-adv-x="1075" unicode="8"/><glyph d="M444 25q104 0 173 56t124.5 196.5t55.5 347.5q-47 -65 -147.5 -107.5t-186.5 -42.5q-164 0 -280.5 109.5t-116.5 278.5t115.5 305.5t305.5 136.5q123 0 216.5 -51.5t171 -185.5t77.5 -388q0 -253 -87 -410t-191.5 -222.5t-230.5 -65.5t-248 75l34 58q111 -90 215 -90z M801 715q0 260 -90 401t-223.5 141t-200 -110.5t-66.5 -266.5t70.5 -257t194.5 -101t219.5 67t95.5 126z" glyph-name="nine" horiz-adv-x="1024" unicode="9"/><glyph d="M204 674q-40 0 -69 28.5t-29 68.5t29 69.5t68 29.5t68.5 -29.5t29.5 -69.5t-28.5 -68.5t-68.5 -28.5zM203 -20q-39 0 -68 29.5t-29 68.5t29 68.5t68 29.5t68.5 -28.5t29.5 -69.5t-29.5 -69.5t-68.5 -28.5z" glyph-name="colon" horiz-adv-x="423" unicode=":"/><glyph d="M200 672q-40 0 -69 28.5t-29 68.5t29 69.5t68 29.5t68.5 -28.5t29.5 -69.5t-28.5 -69.5t-68.5 -28.5zM184 -10q-20 0 -45.5 23.5t-25.5 66.5t26.5 68.5t71.5 25.5t73.5 -39t28.5 -94q1 -140 -110 -238q-16 -10 -27 0l-12 21q66 66 65 149q0 14 -4 21q-21 -4 -41 -4z" glyph-name="semicolon" horiz-adv-x="419" unicode=";"/><glyph d="M143 555q356 137 750 350v-51q-340 -203 -731 -340q397 -143 731 -342v-51q-393 213 -750 350v84z" glyph-name="less" horiz-adv-x="1036" unicode="&lt;"/><glyph d="M143 754h717v-66h-717v66zM143 385h717v-66h-717v66z" glyph-name="equal" horiz-adv-x="1044" unicode="="/><glyph d="M893 555v-84q-356 -137 -750 -350v51q340 203 731 342q-385 133 -731 340v51q394 -213 750 -350z" glyph-name="greater" horiz-adv-x="1036" unicode=">"/><glyph d="M717 1010q0 102 -61.5 174.5t-165.5 72.5t-163 -67.5t-59 -175.5q0 -51 14.5 -87t14.5 -65t-26.5 -48t-61.5 -19t-71 35.5t-36 117.5q0 147 101.5 252t294.5 105t288 -100.5t95 -249.5t-95.5 -240.5t-194.5 -185t-106 -238.5h-49q-21 125 52 225t118 162.5t78 146 t33 185.5zM457 -20q-39 0 -68 28.5t-29 69.5t29 69.5t68 28.5t68.5 -28.5t29.5 -69.5t-29.5 -69.5t-68.5 -28.5z" glyph-name="question" horiz-adv-x="983" unicode="?"/><glyph d="M702 -170q-260 0 -445 197.5t-185 483.5t184 481.5t448 195.5t453 -190.5t189 -483.5q0 -154 -91 -264.5t-207 -110.5t-165 150q-100 -162 -277 -162q-92 0 -155.5 43t-63.5 141t109.5 168t392.5 105v28q0 129 -30 178q-31 50 -127 50t-136.5 -28t-40.5 -120 q1 -47 -59 -47q-60 -1 -60 65t89 119.5t227 53.5t201 -61.5t63 -207.5v-335q0 -29 3 -47.5t20.5 -34t47.5 -15.5q51 0 77 102.5t26 230.5t-27.5 237.5t-84 197.5t-153 138.5t-223.5 50.5t-222 -55.5t-174 -192.5t-79 -377q0 -164 52.5 -307.5t164 -240.5t258.5 -97v-39z M643 190q131 0 246 152v199q-253 -36 -303.5 -80.5t-60 -71.5t-9.5 -78t33 -86t94 -35z" glyph-name="at" horiz-adv-x="1417" unicode="@"/><glyph d="M1104 141q3 -7 7.5 -22t9.5 -25t10.5 -13t13.5 -11.5t19.5 -10.5t34.5 -9t75 -11v-39q-217 10 -434 0v39q80 9 96 18t23.5 14t5.5 18t-4.5 21.5t-11.5 28t-13 31.5l-94 258h-490l-96 -283q-16 -47 20.5 -69.5t124.5 -36.5v-39q-195 10 -381 0v39q90 10 129 40t64 101 l381 1102h82zM369 475h454l-233 643z" glyph-name="A" horiz-adv-x="1294" unicode="A"/><glyph d="M958 984.5q0 -95.5 -53 -156t-188 -117.5q174 -16 280.5 -111.5t106.5 -234.5q0 -168 -135 -266.5t-379 -98.5h-539v39q80 6 109.5 21.5t29.5 52.5v991q0 55 -29.5 88t-109.5 41v39q74 -4 151 -4l292 4q280 0 380 -104q84 -88 84 -183.5zM797 975q0 102 -75 174t-210 72 t-174 -2v-549q268 35 363.5 99.5t95.5 205.5zM573 49q369 0 369 303q0 129 -90 225.5t-225 96.5l-289 -47v-518q0 -39 18.5 -49.5t104.5 -10.5h112z" glyph-name="B" horiz-adv-x="1155" unicode="B"/><glyph d="M973 12q-53 0 -141.5 -17.5t-169.5 -17.5q-264 0 -427 195t-163 471.5t159.5 469t423.5 192.5q66 0 148 -17.5t145 -17.5h41q51 -203 115 -344h-66q-66 166 -166 247.5t-250 81.5t-260 -103q-60 -56 -95.5 -174t-35.5 -284q0 -313 126 -490t317 -177q123 0 212 74.5 t181 240.5h70q-90 -162 -133 -330h-31z" glyph-name="C" horiz-adv-x="1177" unicode="C"/><glyph d="M467 1272q317 0 495.5 -160t178.5 -460t-166 -476t-422 -176q-57 0 -146.5 13.5t-165 13.5t-190.5 -27v41q82 20 110.5 38.5t28.5 55.5v977q0 51 -29.5 82t-109.5 39v39q23 -6 214.5 -3t201.5 3zM987 602q0 276 -115.5 451.5t-373.5 171.5q-96 0 -160 -4v-1053 q0 -61 52.5 -86t148.5 -27q162 -4 264 71q184 136 184 476z" glyph-name="D" horiz-adv-x="1222" unicode="D"/><glyph d="M51 4v51q84 10 111.5 22.5t27.5 49.5v1032q0 37 -29.5 52.5t-109.5 21.5v39h807q20 0 25.5 -7.5t9.5 -29.5l20 -205h-36l-21 43q-72 150 -217 150h-289q-12 0 -12 -13v-542h289q70 0 94 32.5t41 108.5h43q-16 -166 0 -328h-43q-12 49 -21.5 74t-38 44t-75.5 19h-289v-555 q0 -12 12 -12h283q145 0 207 119l65 129h43q-29 -100 -57 -295h-840z" glyph-name="E" horiz-adv-x="1009" unicode="E"/><glyph d="M641 1223h-291q-12 0 -12 -13v-542h289q70 0 94 32.5t41 108.5h43q-16 -166 0 -328h-43q-12 49 -21.5 74t-38 44t-75.5 19h-289v-507q0 -37 27.5 -49.5t111.5 -22.5v-39q-213 10 -426 0v39q84 10 111.5 22.5t27.5 49.5v1048q0 37 -29.5 52.5t-109.5 21.5v39h811 q20 0 25.5 -7t9.5 -30l21 -205h-39l-21 43q-70 150 -217 150z" glyph-name="F" horiz-adv-x="968" unicode="F"/><glyph d="M1104 422v-141q0 -80 4 -183l41 -4q8 -2 8 -10v-41q-31 6 -78 6t-160.5 -36t-236.5 -36q-285 0 -447.5 194t-162.5 472.5t157.5 470t421.5 191.5q72 0 153 -17.5t144 -17.5h41q51 -203 115 -344h-66q-66 168 -163 248.5t-250 80.5t-263 -103q-60 -56 -95.5 -174 t-35.5 -284q0 -313 126 -490t317 -177q150 0 191.5 27.5t59 49t29.5 80.5t11.5 188.5t-11.5 147.5q-16 29 -106 37l-47 6v35q262 -8 438 4v-39l-55 -10q-80 -10 -80 -131z" glyph-name="G" horiz-adv-x="1290" unicode="G"/><glyph d="M1071 1157v-1042q0 -37 31 -51.5t112 -24.5v-39q-217 10 -434 0v39q82 10 113 24.5t31 51.5v497h-582v-497q0 -37 30.5 -51.5t112.5 -24.5v-39q-217 10 -434 0v39q82 10 113 24.5t31 51.5v1042q0 37 -31 51.5t-113 24.5v39q217 -10 434 0v-39q-82 -10 -112.5 -24.5 t-30.5 -51.5v-498h582v498q0 37 -31 51.5t-113 24.5v39q217 -10 434 0v-39q-82 -10 -112.5 -24.5t-30.5 -51.5z" glyph-name="H" horiz-adv-x="1265" unicode="H"/><glyph d="M342 115q0 -37 30.5 -51.5t112.5 -24.5v-39q-217 10 -434 0v39q82 10 113 24.5t31 51.5v1042q0 37 -31 51.5t-113 24.5v39q217 -10 434 0v-39q-82 -10 -112.5 -24.5t-30.5 -51.5v-1042z" glyph-name="I" horiz-adv-x="536" unicode="I"/><glyph d="M356 1157v-989q0 -291 -100 -407.5t-297 -116.5v41q119 0 185.5 102t66.5 211v1159q0 37 -30.5 51.5t-114.5 24.5v39q219 -10 434 0v-39q-82 -10 -113 -24.5t-31 -51.5z" glyph-name="J" horiz-adv-x="550" unicode="J"/><glyph d="M332 115q0 -37 30.5 -51.5t112.5 -24.5v-39q-217 10 -434 0v39q82 10 112.5 24.5t30.5 51.5v1042q0 37 -30.5 51.5t-112.5 24.5v39q217 -10 434 0v-39q-82 -10 -112.5 -24.5t-30.5 -51.5v-579l497 583q47 55 -47 66q-23 4 -75 6v39q188 -10 376 0v-39q-99 0 -131 -17 t-49 -36l-422 -496l377 -485q66 -86 143.5 -134.5t122.5 -50.5l-49 -39q-137 0 -220 38t-159 143l-311 417l-53 -63v-395z" glyph-name="K" horiz-adv-x="1175" unicode="K"/><glyph d="M184 123v1034q0 37 -30.5 51.5t-112.5 24.5v39q217 -10 434 0v-39q-82 -10 -112.5 -24.5t-30.5 -51.5v-1096q0 -12 12 -12h293q150 0 207 117l65 129h45q-33 -104 -59 -295q-426 8 -850 0v51q84 10 111.5 22.5t27.5 49.5z" glyph-name="L" horiz-adv-x="995" unicode="L"/><glyph d="M1264 115q0 -37 30.5 -51.5t112.5 -24.5v-39q-217 10 -434 0v39q82 10 112.5 24.5t30.5 51.5v1015l-383 -1130l-481 1135v-1020q0 -37 33.5 -50.5t134.5 -25.5v-39q-199 10 -389 0v39q100 10 133 24.5t33 51.5v1040q0 41 -32 54.5t-120 23.5v39q156 -10 313 0l416 -1008 l342 1008q141 -10 283 0v-35q-76 -10 -105.5 -25.5t-29.5 -52.5v-1044z" glyph-name="M" horiz-adv-x="1437" unicode="M"/><glyph d="M1020 1157v-1157h-37l-721 1135v-1020q0 -37 34 -50.5t134 -25.5v-39q-195 8 -399 0v39q109 10 142.5 24.5t33.5 51.5v1038q0 41 -32 55.5t-120 24.5v39q150 -8 301 0l609 -967v852q0 37 -33 51.5t-137 24.5v39q197 -10 399 0v-39q-104 -12 -139 -25.5t-35 -50.5z" glyph-name="N" horiz-adv-x="1224" unicode="N"/><glyph d="M1165 644q0 -288 -144 -477.5t-390 -189.5t-402.5 192.5t-156.5 476.5t149.5 471.5t397 187.5t397 -186.5t149.5 -474.5zM655 23q136 0 246.5 132t110.5 434t-121 486.5t-305 184.5q-143 0 -249 -130.5t-106 -426.5t122 -488t302 -192z" glyph-name="O" horiz-adv-x="1236" unicode="O"/><glyph d="M993 936.5q0 -133.5 -138 -241t-454 -142.5l-63 -8v-432q0 -37 29.5 -52.5t109.5 -21.5v-39q-213 10 -426 0v39q80 6 109.5 21.5t29.5 52.5v991q0 55 -29.5 88t-109.5 41v39q74 -4 160 -4l317 4q279 0 381 -111q84 -91 84 -224.5zM831 954q0 109 -77.5 188t-229.5 79 t-186 -2v-625l76 8q238 31 327.5 118t89.5 234z" glyph-name="P" horiz-adv-x="1034" unicode="P"/><glyph d="M1262 -86h45q0 -127 -70 -195.5t-193 -68.5q-66 0 -127 34.5t-101 76.5t-100.5 77t-143 35t-143 -36t-77.5 -79h-139q37 70 159 128.5t234 82.5q-225 0 -379.5 202t-154.5 474.5t153.5 466t403.5 193.5t400.5 -180.5t150.5 -461t-100.5 -441.5t-357.5 -239.5t-319 -117.5 q92 41 204 41t248 -58.5t209 -58.5t135.5 43t62.5 82zM598 1255q-367 0 -367 -588q0 -286 116 -467.5t292 -181.5t278.5 163t106.5 417q0 285 -126 471t-300 186z" glyph-name="Q" horiz-adv-x="1236" unicode="Q"/><glyph d="M997 940q0 -119 -103 -215t-337 -145l207 -299q78 -109 170 -181.5t145 -76.5l-28 -39q-125 0 -217.5 64.5t-200.5 203.5l-225 303q-10 0 -17 -2l-53 -8v-432q0 -37 29.5 -52.5t109.5 -21.5v-39q-213 10 -426 0v39q80 6 109.5 21.5t29.5 52.5v991q0 55 -29.5 88 t-109.5 41v39q74 -4 160 -4l317 4q469 0 469 -332zM836 938q0 127 -78 205t-232 78t-188 -2v-629l65 10q248 45 340.5 128t92.5 210z" glyph-name="R" horiz-adv-x="1110" unicode="R"/><glyph d="M59 977q0 137 98.5 232.5t276.5 95.5q94 0 168 -22.5t84 -22.5q35 0 45 28h39l12 -256l-24 2q-20 2 -31 25q-35 82 -122 140t-189.5 58t-167 -66.5t-64.5 -165.5t61.5 -158.5t203.5 -121.5q73 -25 169 -77q98 -52 116 -67q86 -69 106 -109q42 -82 41 -152 q0 -158 -115 -261.5t-262 -103.5q-106 0 -215 38t-121 38q-41 0 -55 -47h-45l-17 272h41q10 0 25 -26q37 -96 133 -160.5t224 -64.5t195.5 70.5t67.5 195.5t-142 209q-66 38 -205.5 98t-235 151t-95.5 228z" glyph-name="S" horiz-adv-x="931" unicode="S"/><glyph d="M791 1227h-203v-1112q0 -37 30.5 -51.5t112.5 -24.5v-39q-217 10 -434 0v39q82 10 112.5 24.5t30.5 51.5v1112h-176q-66 0 -97.5 -36t-98.5 -173h-37l75 276h23q68 -23 152 -22h522q85 -1 153 22h23l-68 -276h-41q10 117 -3 163t-76 46z" glyph-name="T" horiz-adv-x="1009" unicode="T"/><glyph d="M1143 1157v-1042q0 -37 30.5 -51.5t112.5 -24.5v-39q-211 8 -325 0v39q35 29 34 76v112q-51 -100 -158.5 -173.5t-272.5 -73.5t-277.5 113.5t-112.5 293.5v770q0 37 -30.5 51.5t-112.5 24.5v39q219 -10 440 0v-39q-82 -10 -112.5 -24.5t-30.5 -51.5v-776 q0 -154 78.5 -247t210 -93t232.5 81t146 179v856q0 37 -30.5 51.5t-112.5 24.5v39q217 -10 434 0v-39q-82 -10 -112.5 -24.5t-30.5 -51.5z" glyph-name="U" horiz-adv-x="1316" unicode="U"/><glyph d="M606 -18l-438 1177q-14 37 -42 51.5t-106 22.5v39q213 -8 420 0v-39q-80 -10 -103.5 -24.5t-8.5 -49.5l364 -956l334 956q12 35 -17.5 48.5t-117.5 25.5v39q186 -8 377 0v-39q-90 -10 -132 -24.5t-55 -49.5l-413 -1177h-62z" glyph-name="V" horiz-adv-x="1288" unicode="V"/><glyph d="M1468 1272q197 -10 392 0v-39q-92 -10 -134.5 -24.5t-52.5 -49.5l-379 -1177h-61l-313 909l-287 -909h-60l-405 1177q-12 35 -41 50.5t-107 23.5v39q215 -8 420 0v-39q-78 -10 -101.5 -24.5t-10.5 -49.5l329 -956l234 770h2l-64 186q-12 35 -35.5 49.5t-91.5 24.5v39 q197 -8 414 0v-39q-84 -12 -112.5 -26.5t-16.5 -47.5l332 -956l299 956q10 35 -22.5 48.5t-127.5 25.5v39z" glyph-name="W" horiz-adv-x="1880" unicode="W"/><glyph d="M936 166q39 -72 65.5 -96.5t90.5 -30.5v-39q-170 8 -357 0v39q45 6 68.5 24.5t9.5 40.5l-266 449l-266 -428q-23 -37 2.5 -58.5t89.5 -27.5v-39q-174 10 -320 0v39q131 20 191 119l276 442l-291 492q-25 41 -44 65.5t-55 48t-79 27.5v39q184 -10 371 0v-39 q-43 -8 -63.5 -33.5t-4.5 -50.5l246 -418l248 397q23 35 -8 66t-92 39v39q164 -10 327 0v-39q-111 -12 -190 -137l-256 -412z" glyph-name="X" horiz-adv-x="1144" unicode="X"/><glyph d="M668 115q0 -37 31.5 -50.5t113.5 -17.5v-47q-219 10 -434 0v39q82 10 112.5 24.5t30.5 51.5v448l-329 596q-37 70 -162 74v39q219 -2 434 0v-39q-147 -6 -111 -74l289 -532l266 514q23 45 -6 67.5t-133 24.5v39q203 -2 406 0v-39q-102 -2 -144.5 -25.5t-66.5 -70.5 l-297 -574v-448z" glyph-name="Y" horiz-adv-x="1206" unicode="Y"/><glyph d="M936 39v-39q-449 8 -895 0l774 1227h-524q-59 0 -87 -32t-98 -177h-34l75 276h23q63 -23 152 -22h688l-770 -1223h387q51 0 95 20.5t64.5 40t49.5 52.5l102 125h61q-76 -123 -116 -232l35 -4q18 0 18 -12z" glyph-name="Z" horiz-adv-x="1064" unicode="Z"/><glyph d="M455 1556v-2v2zM412 1524l-197 -19v-1796l197 -18q39 -4 43 -31l-363 12v1870l363 12q-4 -26 -43 -30zM455 -340v-2v2z" glyph-name="bracketleft" horiz-adv-x="505" unicode="["/><glyph d="M172 1477l547 -1641h-76l-547 1641h76z" glyph-name="backslash" horiz-adv-x="806" unicode="\"/><glyph d="M51 1554v2v-2zM414 1542v-1870l-363 -12q4 27 43 31l197 18v1796l-197 19q-39 4 -43 30zM51 -342v2v-2z" glyph-name="bracketright" horiz-adv-x="505" unicode="]"/><glyph d="M651 924q-3 0 -6.5 7t-7.5 9l-264 293l-267 -293q-2 -2 -5.5 -9t-6.5 -7h-41q-23 0 -8 26l317 426q12 12 19 0l317 -426q14 -27 -6 -26h-41z" glyph-name="asciicircum" horiz-adv-x="743" unicode="^"/><glyph d="M61 -41h1049v-47h-1049v47z" glyph-name="underscore" horiz-adv-x="1222" unicode="_"/><glyph d="M510 1171l-10 -22l-363 145q-25 12 -33 37t4.5 51.5t45 29.5t63.5 -19z" glyph-name="grave" horiz-adv-x="612" unicode="`"/><glyph d="M801 164q0 -49 26.5 -63.5t90.5 -10.5v-43q-74 -16 -139.5 -43t-90.5 -27q-31 0 -31 33l9 160q-45 -76 -129 -135.5t-195 -59.5t-201 63.5t-90 197.5q0 70 24.5 122t88.5 105q126 105 493 182l2 29q4 177 -8 232t-38.5 74t-98 19t-129 -30.5t-76 -74.5t-28 -88t-25.5 -75 t-52 -31t-55.5 20.5t-19.5 53.5q0 111 118 190.5t269.5 79.5t210.5 -45t70 -174q4 -49 4 -135v-526zM394 41q89 0 159 63.5t104 133.5v358q-295 -67 -381 -177q-68 -87 -67.5 -179t48.5 -145.5t137 -53.5z" glyph-name="a" horiz-adv-x="948" unicode="a"/><glyph d="M565 1042q190 0 305 -140t115 -387t-123 -390t-305 -143q-82 0 -167 44t-116 44q-59 0 -90 -70h-24q-20 0 -21 23v1136q0 88 -119 76v39q76 10 147 41t83 31q33 0 33 -39v-408q47 59 123.5 101t158.5 42zM555 23q143 0 211 107.5t68 337.5t-68 379.5t-214 149.5 t-269 -159v-602q2 -55 84 -134t188 -79z" glyph-name="b" horiz-adv-x="1056" unicode="b"/><glyph d="M811 213q18 0 10 -25q-74 -209 -309 -208q-203 0 -327 148t-124 384t120 383t311 147q152 0 240.5 -76.5t90.5 -170.5q0 -27 -24.5 -53.5t-54.5 -26.5t-54 20.5t-22 48.5q2 92 -37 153.5t-125 61.5q-131 0 -209 -119.5t-78 -353.5t87 -366.5t212 -132.5q96 0 157.5 50 t78.5 120q2 16 18 16h39z" glyph-name="c" horiz-adv-x="884" unicode="c"/><glyph d="M895 166q0 -49 26.5 -63.5t90.5 -10.5v-45q-74 -16 -139.5 -43t-85 -27t-28.5 11.5t-7 25.5l20 148q-16 -63 -96 -121.5t-195 -58.5q-195 0 -312.5 148.5t-117.5 390.5t123 381.5t293 139.5t285 -141v246q0 49 -28 65.5t-91 10.5v51q76 10 147.5 41t83.5 31q31 0 31 -39 v-1141zM508 27q102 0 169.5 73.5t74.5 153.5v590q-117 158 -263.5 157.5t-216 -111t-69.5 -349.5q0 -299 132 -439q71 -76 173 -75z" glyph-name="d" horiz-adv-x="1052" unicode="d"/><glyph d="M829 213q18 0 13 -25q-74 -209 -334 -208q-201 0 -324 151.5t-123 391t118 379.5t295 140t285.5 -107.5t108.5 -309.5q0 -92 -77 -93h-566q-2 -246 83 -375.5t220 -129.5q86 0 145.5 36.5t102.5 122.5q10 27 31 27h22zM727 573q0 426 -238 426q-125 0 -194.5 -114.5 t-69.5 -311.5h502z" glyph-name="e" horiz-adv-x="929" unicode="e"/><glyph d="M430 1397q82 0 145.5 -48.5t63.5 -97.5t-14.5 -68.5t-60.5 -19.5t-62.5 30t-11 66.5t-6 66.5t-59.5 30t-82 -33t-42 -82q-18 -112 -10 -215h239q14 0 15 -12v-25q0 -12 -15 -12h-239v-862q0 -59 117 -76v-39q-188 8 -377 0v39q117 14 116 76v862h-92q-14 0 -14 12v25 q0 12 14 12h92q7 371 283 371z" glyph-name="f" horiz-adv-x="649" unicode="f"/><glyph d="M909 1040q61 0 71.5 -16.5t10.5 -53t-11 -49t-32.5 -9.5t-50.5 8.5t-51.5 5.5t-33.5 -20.5t1 -47.5q39 -88 39 -174q0 -147 -101.5 -257t-269.5 -110q-37 0 -108.5 14.5t-115.5 14.5t-67.5 -19.5t-23.5 -53t49 -55t158 -40.5l262 -39q164 -25 238.5 -85t74.5 -191 t-129 -219t-325.5 -88t-311 78.5t-114.5 226.5t106 147q70 0 70 -63q0 -20 -13.5 -61.5t-13.5 -88.5q0 -78 79 -138t206 -60q322 0 321 260q0 78 -46 108.5t-161 50.5l-299 47q-139 25 -197.5 68t-58.5 111t61.5 107.5t164.5 27.5q-84 49 -133.5 130t-49.5 177 q0 150 94.5 254t281 104t294.5 -141q29 139 135 139zM480 362q114 0 169.5 94.5t55.5 223.5t-56.5 224t-169 95t-169 -96t-56.5 -224t56 -222.5t170 -94.5z" glyph-name="g" horiz-adv-x="1042" unicode="g"/><glyph d="M901 115q0 -59 117 -76v-39q-186 10 -375 0v39q117 18 117 76v585q0 283 -158 283q-152 0 -309 -184v-684q0 -57 117 -76v-39q-188 8 -375 0v39q115 14 115 76v1044q0 88 -119 76v39q76 10 147.5 41t83.5 31q31 0 31 -39v-371l-8 -98q37 61 131 133.5t223 72.5 t195.5 -76.5t66.5 -271.5v-581z" glyph-name="h" horiz-adv-x="1048" unicode="h"/><glyph d="M218 1249q-32 0 -55.5 23.5t-23.5 55.5t23.5 55.5t55.5 23.5t57.5 -23.5t25.5 -55.5t-25.5 -55.5t-57.5 -23.5zM303 115q0 -59 117 -76v-39q-188 8 -377 0v39q117 14 117 76v755q0 47 -28 65.5t-91 16.5v39q77 8 146 30.5t79 22.5q49 0 49 -38q0 -10 -6 -88t-6 -150v-653 z" glyph-name="i" horiz-adv-x="460" unicode="i"/><glyph d="M233.5 1249q-30.5 0 -55 23.5t-24.5 55.5t24.5 55.5t55 23.5t56 -23.5t25.5 -54.5t-25.5 -55.5t-56 -24.5zM287 1044q47 0 47 -38q0 -10 -6 -88t-6 -150v-682q0 -291 -95.5 -407.5t-281.5 -116.5l-6 41q113 2 177 96t64 215v956q0 47 -28.5 65.5t-92.5 16.5v39 q77 8 147.5 30.5t80.5 22.5z" glyph-name="j" horiz-adv-x="456" unicode="j"/><glyph d="M303 115q0 -57 117 -76v-39q-152 8 -377 0v39q117 14 117 76v1044q0 88 -119 76v39q76 10 146.5 41t82.5 31q33 0 33 -39v-752q233 199 373 375q37 49 -51 59v37q141 -10 284 0v-37q-84 -10 -111.5 -27t-58.5 -49l-331 -331l327 -414q49 -63 116 -106.5t110 -47.5 l-50 -39q-211 0 -346 170l-262 340v-370z" glyph-name="k" horiz-adv-x="980" unicode="k"/><glyph d="M283 133q0 -94 116 -76v-37q-186 -43 -227 -43q-33 0 -33 37v1145q0 88 -119 76v39q76 10 147 41t83 31q33 0 33 -39v-1174z" glyph-name="l" horiz-adv-x="440" unicode="l"/><glyph d="M1446 115q0 -59 117 -76v-39q-186 8 -375 0v39q75 15 95 33t20 43v630q0 238 -142 238q-96 0 -181 -64.5t-112 -123.5v-680q0 -35 30 -49.5t89 -26.5v-39q-188 10 -377 0v39q59 10 88 25.5t29 50.5v630q0 238 -145 238q-96 0 -179.5 -64.5t-109.5 -123.5v-680 q0 -35 28.5 -49.5t88.5 -26.5v-39q-188 8 -375 0v39q115 14 115 76v743q0 88 -119 76v39q76 10 147.5 40.5t83.5 30.5t22.5 -9t8.5 -25l-19 -176q131 211 347 210q96 0 159.5 -54t77.5 -156q39 76 126 143t216 67t187.5 -70.5t58.5 -221.5v-637z" glyph-name="m" horiz-adv-x="1593" unicode="m"/><glyph d="M901 115q0 -59 117 -76v-39q-186 10 -375 0v39q117 18 117 76v585q0 283 -158 283q-170 0 -309 -184v-684q0 -57 117 -76v-39q-188 8 -375 0v39q115 14 115 76v743q0 88 -119 76v39q78 10 147.5 40.5t79.5 30.5q39 0 35 -34l-19 -181q63 98 189 169q82 46 166 46 q139 0 205.5 -75.5t66.5 -272.5v-581z" glyph-name="n" horiz-adv-x="1048" unicode="n"/><glyph d="M499 1042q183 0 312 -144t129 -382t-127 -387t-310 -149t-312.5 146t-129.5 384t127.5 385t310.5 147zM776 485q0 225 -85 369.5t-226 144.5q-244 0 -244 -452q0 -229 85 -374.5t226 -145.5q244 -1 244 458z" glyph-name="o" horiz-adv-x="1001" unicode="o"/><glyph d="M594 1042q182 0 296 -141t114 -388t-125 -389t-302.5 -142t-283.5 114v-329q0 -49 30.5 -66.5t108.5 -11.5v-43q-86 -8 -176 -46t-121 -38t-31 28q0 8 23 44t23 114v1110q0 88 -119 76v39q76 10 147.5 40.5t83.5 30.5q31 0 31 -38v-113q45 59 126 104t175 45zM565 25 q147 0 217 104t70 354q0 309 -118 441q-64 72 -156.5 72.5t-168 -49.5t-116.5 -113v-562q4 -80 85 -163.5t187 -83.5zM266 774q-4 -6 0 -12v12z" glyph-name="p" horiz-adv-x="1064" unicode="p"/><glyph d="M479 -18q-184 0 -301 148.5t-117 390.5t123 381.5t299 139.5q78 0 164 -45t119 -45q61 0 94 74h25q20 0 20 -22v-1237q0 -49 31 -66.5t108 -11.5v-43q-90 -10 -165.5 -47t-85.5 -37q-31 0 -31 39v532q-99 -151 -283 -151zM494 1001q-281 0 -281 -447q0 -226 77 -376.5 t224 -150.5q172 0 248 188v559q6 55 -78 141t-190 86z" glyph-name="q" horiz-adv-x="1075" unicode="q"/><glyph d="M558 1047q94 0 136.5 -28t42.5 -69q0 -86 -73 -86q-57 0 -81.5 53.5t-92.5 53.5q-68 -1 -136 -85q-25 -32 -44 -68t-21 -38v-665q0 -59 112 -76v-39q-184 14 -372 0v39q121 14 121 76v741q0 88 -119 76v39q78 10 145.5 41.5t77.5 31.5q39 0 35 -34l-31 -193 q129 230 300 230z" glyph-name="r" horiz-adv-x="768" unicode="r"/><glyph d="M727 270q0 -121 -91 -204.5t-200 -83.5q-70 0 -149.5 32.5t-119.5 32.5t-52 -45h-37l-23 266h13q45 0 47 -22q16 -84 120.5 -151.5t186.5 -67.5t128 48t46 128t-56.5 130t-137 93t-91.5 49q-125 68 -187.5 143.5t-62.5 175t77 174t198 74.5q68 0 135.5 -28.5t96 -28.5 t42.5 41h39l19 -246h-19q-20 0 -33 23q-45 82 -123.5 141.5t-153.5 59.5t-116 -49.5t-41 -121t46 -118.5t106.5 -80t102.5 -55.5t58.5 -31.5t55.5 -32.5t57 -39.5q69 -58 94 -105t25 -101z" glyph-name="s" horiz-adv-x="778" unicode="s"/><glyph d="M354 -4q-211 0 -211 231v750h-98q-14 0 -14 12v25q0 12 14 12q84 0 127 63.5t66 215.5h47v-279h235q14 0 15 -12v-25q0 -12 -15 -12h-235v-789q0 -133 110 -133q86 0 133 80v-61q-23 -29 -71.5 -53.5t-102.5 -24.5z" glyph-name="t" horiz-adv-x="585" unicode="t"/><glyph d="M901 162q0 -49 27.5 -64.5t89.5 -9.5v-41q-74 -16 -138.5 -43t-93.5 -27t-24 37l16 215q-2 -2 -19.5 -26.5t-26.5 -36.5t-32.5 -40t-41.5 -44q-70 -60 -118.5 -82.5t-105.5 -22.5q-139 0 -211.5 80t-72.5 277v559q0 45 -13.5 62.5t-44.5 15.5l-61 -2v45l219 20 q41 4 41 -33v-682q0 -272 172 -272q164 0 295 225v621q0 45 -11.5 62.5t-41.5 15.5l-66 -2v45l219 20q27 2 35 -5t8 -28v-839z" glyph-name="u" horiz-adv-x="1058" unicode="u"/><glyph d="M31 1026h393v-41l-57 -8q-33 -4 -42.5 -34t3.5 -58l239 -639l228 631q14 35 -13.5 64.5t-72.5 35.5l-47 8v41h356v-39l-60 -10q-86 -20 -112 -100l-318 -885h-16l-334 893q-33 80 -86 92l-61 10v39z" glyph-name="v" horiz-adv-x="1048" unicode="v"/><glyph d="M1229 1026h356v-39l-57 -10q-94 -27 -119 -100l-315 -877h-11l-286 786l-281 -786h-12l-320 885q-29 78 -92 92l-61 10v39h399v-41l-63 -8q-59 -8 -33 -92l223 -641l215 608l-10 33q-29 86 -88 92l-53 8v41h378v-41l-55 -8q-61 -8 -31 -92l224 -641l223 633 q33 84 -82 100l-49 8v41z" glyph-name="w" horiz-adv-x="1615" unicode="w"/><glyph d="M63 1026h400v-41l-51 -8q-33 -2 -36 -24.5t13 -41.5l168 -280l158 268q20 45 8 58.5t-51 19.5l-47 8v41h358v-39l-55 -10q-127 -20 -185 -115l-161 -272l274 -453q49 -78 123 -88l57 -10v-39q-199 8 -399 0v41l53 8q31 2 36 24.5t-9 41.5l-211 348l-199 -336 q-20 -45 -7 -58.5t56 -19.5l41 -8v-41q-178 8 -356 0v39l57 10q2 0 13.5 2t17.5 3t19.5 4t22.5 7.5t23 10.5q46 20 89 88l198 338l-233 387q-49 78 -125 88l-60 10v39z" glyph-name="x" horiz-adv-x="1077" unicode="x"/><glyph d="M1024 1026v-39l-41 -6q-5 -2 -31 -5q-53 -6 -67 -48l-482 -1348q-10 -23 -19 -25.5t-25.5 -3t-25.5 8t-5 20.5l186 461q0 16 -154.5 395t-182 448t-42 83t-43.5 14l-61 6v39q223 -10 397 0v-39l-70 -6q-68 0 -49 -53l271 -711l247 711q6 18 -1 30q-14 23 -54 23l-49 6v39 q141 -8 301 0z" glyph-name="y" horiz-adv-x="1054" unicode="y"/><glyph d="M66 0q-10 0 -19.5 15.5t-3.5 29.5l600 938l-356 2q-63 0 -93 -35t-102 -184h-29l76 283h23q68 -23 160 -23q293 0 505 4l-630 -991l387 -2q82 -2 114.5 38t104.5 199h31l-66 -274h-702z" glyph-name="z" horiz-adv-x="868" unicode="z"/><glyph d="M332 88q0 -303 133 -373l-2 -55q-98 39 -153.5 109.5t-71 142.5t-15.5 176v377q0 45 -24.5 66.5t-106.5 58.5v31q82 37 106.5 58t24.5 66v377q0 104 15.5 176t71 142.5t153.5 109.5l2 -55q-133 -70 -133 -373v-422q0 -27 -41 -51t-92 -41v-6q105 -43 119 -60t14 -32v-422 z" glyph-name="braceleft" horiz-adv-x="516" unicode="{"/><glyph d="M184 1638h99v-2078h-99v2078z" glyph-name="bar" horiz-adv-x="466" unicode="|"/><glyph d="M184 88v422q0 27 41 51t92 41v6q-106 42 -119 60t-14 32v422q0 303 -133 373l2 55q98 -39 153.5 -109.5t71 -142t15.5 -176.5v-377q0 -45 24.5 -66.5t106.5 -57.5v-31q-82 -37 -106.5 -58.5t-24.5 -66.5v-377q0 -104 -15.5 -176t-70.5 -142.5t-154 -109.5l-2 55 q133 70 133 373z" glyph-name="braceright" horiz-adv-x="516" unicode="}"/><glyph d="M668 408q-72 0 -184.5 66.5t-155.5 66.5t-82.5 -24t-50.5 -68h-52q68 168 224 167q72 0 170 -56t161 -56q88 0 140 80h51q-29 -82 -89 -129t-132 -47z" glyph-name="asciitilde" horiz-adv-x="1032" unicode="~"/><glyph d="M211 1051q39 0 67.5 -30t28.5 -69t-28.5 -68.5t-67.5 -29.5t-68.5 29.5t-29.5 68.5t29.5 69t68.5 30zM305 -151q0 -124 -96 -123.5t-96 124.5t38 356.5t42 379.5h32q4 -147 42 -380t38 -357z" glyph-name="exclamdown" horiz-adv-x="417" unicode="¡"/><glyph d="M811 213q18 0 10 -25q-74 -209 -309 -208q-88 0 -170 32l-35 -137h-63l43 166q-106 66 -166 189.5t-60 285.5q0 233 120 379.5t311 146.5q35 0 49 -2l43 164h63l-45 -174q102 -27 160.5 -93.5t60.5 -141.5q0 -27 -24.5 -53.5t-54.5 -26.5t-54 20.5t-22 48.5 q0 147 -78 193l-228 -887q70 -63 161 -63t152.5 50t78.5 120q2 16 18 16h39zM219 522q0 -238 94 -375l217 850l-24 2q-131 0 -209 -119.5t-78 -357.5z" glyph-name="cent" horiz-adv-x="884" unicode="¢"/><glyph d="M688 0q-176 0 -285 94q-25 -41 -75 -67.5t-106 -26.5t-108.5 41t-52.5 105t44.5 107.5t128.5 43.5t169 -84q33 73 33 137t-84 201h-243v45h215q-41 68 -85 152t-44 196q0 156 98.5 258.5t296.5 102.5t298.5 -104.5t100.5 -254.5q0 -80 -34.5 -115.5t-69.5 -35.5 t-62.5 19.5t-27.5 49.5t14 63.5t14 86.5q0 109 -60.5 176t-168.5 67t-172 -74.5t-64 -195.5t46 -237t63 -154h231v-45h-213q37 -106 37 -203t-63 -172q87 -51 211 -51t198 54.5t133 160.5h41q-78 -340 -354 -340zM242 37q76 0 116 98q-12 12 -33.5 31.5t-28.5 26t-24.5 17.5 t-49.5 11t-55.5 -20.5t-23.5 -61.5t25 -71.5t74 -30.5z" glyph-name="sterling" horiz-adv-x="1093" unicode="£"/><glyph d="M1036 465q0 -160 -108 -281l116 -114l-40 -41l-115 114q-121 -104 -278 -104t-279 102l-113 -112l-41 41l115 112q-109 121 -109 283t105 283l-111 108l41 43l111 -111q118 104 278 104t283 -106l113 113l40 -43l-112 -111q104 -120 104 -280zM610.5 102 q145.5 0 249 108.5t103.5 256t-103.5 254t-249 106.5t-247 -106.5t-101.5 -254t101.5 -256t247 -108.5z" glyph-name="currency" horiz-adv-x="1222" unicode="¤"/><glyph d="M979 621v-64h-311v-104h311v-64h-311v-274q0 -37 31.5 -50.5t113.5 -17.5v-47q-219 10 -434 0v39q82 10 112.5 24.5t30.5 51.5v274h-297v64h297v104h-297v64h264l-296 538q-37 70 -162 74v39q219 -2 434 0v-39q-147 -6 -111 -74l289 -532l266 514q23 45 -6 67.5 t-133 24.5v39q203 -2 406 0v-39q-102 -2 -144.5 -25.5t-66.5 -70.5l-267 -516h281z" glyph-name="yen" horiz-adv-x="1206" unicode="¥"/><glyph d="M184 924v714h99v-714h-99zM184 -440v714h99v-714h-99z" glyph-name="brokenbar" horiz-adv-x="466" unicode="¦"/><glyph d="M178 1208q-31 0 -53.5 22.5t-22.5 53.5t22.5 54.5t53.5 23.5t54.5 -23.5t23.5 -54.5t-23.5 -53.5t-54.5 -22.5zM520 1208q-31 0 -53.5 22.5t-22.5 53.5t22.5 54.5t53.5 23.5t54.5 -23.5t23.5 -54.5t-23.5 -53.5t-54.5 -22.5z" glyph-name="dieresis" horiz-adv-x="708" unicode="¨"/><glyph d="M775 1339q286 0 480.5 -197.5t194.5 -498.5t-195.5 -498.5t-480.5 -197.5t-478.5 197.5t-193.5 498.5t193.5 498.5t479.5 197.5zM1425 643q0 272 -188.5 468t-460.5 196t-460.5 -194.5t-188.5 -469t188.5 -469t459.5 -194.5t460.5 195.5t189.5 467.5zM975 244 q-37 0 -91.5 -11.5t-105.5 -11.5q-164 0 -267 120t-103 301t99 302t265 121q51 0 103.5 -11.5t76.5 -11.5t33 -2q35 -127 72 -217h-39q-41 109 -101.5 159t-162.5 50t-174 -77.5t-72 -276.5t80 -312.5t198 -113.5q84 0 136 45t120 156h39q-49 -84 -82 -209h-24z" glyph-name="copyright" horiz-adv-x="1552" unicode="©"/><glyph d="M274 690q-174 0 -174 142q0 74 77 123t298 77v27q0 96 -24.5 140t-108.5 44q-41 0 -76 -31.5t-45 -103.5q0 -8 -12 -16.5t-27 -8.5q-49 0 -49 43q0 66 60.5 102t151.5 36t153.5 -54.5t62.5 -148.5v-256q0 -53 43 -53q27 0 29 2v-33q-43 -27 -80 -27t-60.5 42t-23.5 110 q-16 -66 -66.5 -111t-128.5 -45zM302 735q48 0 88 28t53.5 47t31.5 54v144q-236 -31 -259 -92.5t-23 -95.5t30.5 -59.5t78.5 -25.5zM111 553h510v-45h-510v45z" glyph-name="ordfeminine" horiz-adv-x="733" unicode="ª"/><glyph d="M72 471q180 129 311 279v-31l-184 -250l184 -248v-31q-129 148 -311 281zM332 471q180 129 311 279v-31l-184 -250l184 -248v-31q-129 148 -311 281z" glyph-name="guillemotleft" horiz-adv-x="694" unicode="«"/><glyph d="M1004 741v-448h-84v364h-777v84h861z" glyph-name="logicalnot" horiz-adv-x="1146" unicode="¬"/><glyph d="M72 549h553v-72h-553v72z" glyph-name="uni00AD" horiz-adv-x="778" unicode="­"/><glyph d="M775 1339q286 0 480.5 -197.5t194.5 -498.5t-195.5 -498.5t-480.5 -197.5t-478.5 197.5t-193.5 498.5t193.5 498.5t479.5 197.5zM1425 643q0 272 -188.5 468t-460.5 196t-460.5 -194.5t-188.5 -469t188.5 -469t459.5 -194.5t460.5 195.5t189.5 467.5zM633 586v-281 q0 -23 20.5 -32t81.5 -15v-25h-293v25q53 6 71.5 15.5t18.5 31.5v664q0 29 -17 39t-69 14v27h320q303 0 303 -215q0 -168 -250 -234l244 -301q22 -26 39.5 -29.5t38 -6.5t28.5 -5l-4 -25h-190q-4 33 -31 66l-223 287h-88zM633 612h49q276 0 276 224q0 80 -50 131t-148 51 h-127v-406z" glyph-name="registered" horiz-adv-x="1552" unicode="®"/><glyph d="M102 1229v37q0 -10 4 -19q-4 -8 -4 -18zM764 1266v-37q0 10 -4 18q4 9 4 19zM723 1264q29 0 37 -17q-8 -16 -37 -16h-580q-29 0 -37 16q8 16 37 17h580z" glyph-name="macron" horiz-adv-x="866" unicode="¯"/><glyph d="M313.5 1298q96.5 0 163 -67.5t66.5 -167.5t-66.5 -168t-163 -68t-164 68t-67.5 168t67.5 167.5t164 67.5zM455 1065q0 78 -38 128t-103 50t-101.5 -50t-36.5 -129t37 -130t101 -51t102.5 52t38.5 130z" glyph-name="degree" horiz-adv-x="624" unicode="°"/><glyph d="M535 770h325v-63h-325v-328h-66v328h-326v63h326v326h66v-326zM143 51v66h717v-66h-717z" glyph-name="plusminus" horiz-adv-x="1044" unicode="±"/><glyph d="M373 1160q0 38 -21.5 69t-60.5 31t-58.5 -13.5t-25.5 -44.5t-1 -52.5t3 -31.5q-20 -43 -63.5 -28.5t-43.5 40.5q-4 78 48.5 130.5t145.5 52.5t142 -43t49 -106t-36 -94.5t-155 -96.5t-130 -105h242q33 0 43 17l18 26h47l-20 -90q-6 -29 -43 -28h-361q14 66 47 115.5 t62 73.5t71 48t56 34.5t29.5 34t15.5 61.5z" glyph-name="uni00B2" horiz-adv-x="608" unicode="²"/><glyph d="M324 784q-84 0 -142.5 49.5t-58.5 104.5t47 55q31 0 43 -11t15.5 -41.5t13.5 -54.5q20 -52 94 -52q35 0 60.5 29.5t27.5 88.5q-2 76 -50 92.5t-100 -14.5l-16 43l49 23q90 33 90 90q0 43 -15 60.5t-50 17.5q-63 0 -86 -45t-10 -91l-60 13q-25 10 -24 28q-2 63 46 104.5 t124 41.5t123 -40t47 -87t-39 -86q77 -41 77 -126t-61 -138.5t-145 -53.5z" glyph-name="uni00B3" horiz-adv-x="632" unicode="³"/><glyph d="M102 1171l293 222q29 23 63 19.5t44 -30.5q14 -27 5 -51t-34 -37l-360 -145z" glyph-name="acute" horiz-adv-x="612" unicode="´"/><glyph d="M901 162q0 -49 27.5 -64.5t89.5 -9.5v-41q-74 -16 -138.5 -43t-93.5 -27t-24 37l16 215q-2 -2 -19.5 -26.5t-26.5 -36.5t-32.5 -40t-67.5 -66t-92.5 -60.5t-105.5 -22.5q-150 0 -219 89q4 -92 21.5 -158t49.5 -111.5t29 -68.5q-14 -98 -67 -128t-78 29q-10 29 -10 74v502 q-10 61 -10 129v559q0 45 -13.5 62.5t-44.5 15.5l-61 -2v45l219 20q41 4 41 -33v-682q0 -272 172 -272q164 0 295 225v621q0 45 -11.5 62.5t-41.5 15.5l-66 -2v45l219 20q27 2 35 -5t8 -28v-839z" glyph-name="uni00B5" horiz-adv-x="1079" unicode="µ"/><glyph d="M983 1192v-1235q0 -37 19.5 -53.5t72.5 -24.5v-16h-657v16q74 8 97.5 24.5t23.5 53.5v537h-29q-217 0 -344 103t-127 285t127 286t344 104h565v-12q-59 -11 -75.5 -28.5t-16.5 -39.5zM510 526h29v721h-29q-166 0 -227.5 -95t-61.5 -268t61.5 -265.5t227.5 -92.5zM836 -43 v1233q0 35 -10.5 46t-37.5 11h-100v-1290q0 -37 16.5 -52.5t57.5 -15.5t57.5 15.5t16.5 52.5z" glyph-name="paragraph" horiz-adv-x="1167" unicode="¶"/><glyph d="M189 502q-40 0 -68.5 28.5t-28.5 68.5t29 69.5t69 29.5t68.5 -29.5t28.5 -69.5t-29 -68.5t-69 -28.5z" glyph-name="periodcentered" horiz-adv-x="399" unicode="·"/><glyph d="M290 -410q-188 0 -188 92q0 48 48 48q31 0 44 -18.5t15 -39t19.5 -39t58.5 -18.5t64.5 33t23.5 76q0 104 -158 141q-25 6 -24 22q0 6 15.5 33t39.5 80h41l-29 -66q215 -55 215 -186q0 -74 -51 -116t-134 -42z" glyph-name="cedilla" horiz-adv-x="577" unicode="¸"/><glyph d="M236 868q0 -33 59 -37v-28h-209v28q59 4 59 37v371l-63 -20v41l115 51q27 6 33 -2t6 -29v-412z" glyph-name="uni00B9" horiz-adv-x="366" unicode="¹"/><glyph d="M629 979q0 -129 -78 -208t-185 -79t-186.5 77t-79.5 206t78 207t187 78t186.5 -76t77.5 -205zM541 956q0 98 -58.5 180.5t-132.5 82.5t-118 -54.5t-44 -160.5t60.5 -185.5t140.5 -79.5q152 0 152 217zM111 553h510v-45h-510v45z" glyph-name="ordmasculine" horiz-adv-x="729" unicode="º"/><glyph d="M362 471q-182 -133 -311 -281v31l185 248l-185 250v31q131 -150 311 -279zM623 471q-182 -133 -312 -281v31l185 248l-185 250v31q132 -150 312 -279z" glyph-name="guillemotright" horiz-adv-x="694" unicode="»"/><glyph d="M145 868v371l-63 -20v41l115 51q27 6 33 -2t6 -29v-412q0 -33 59 -37v-28h-209v28q59 4 59 37zM934 1303h84l-885 -1313h-84zM1169 152h-84v-80q0 -37 52 -37v-47h-197v47q49 0 49 37v80h-217v41l246 309q18 23 42.5 14.5t24.5 -33.5v-286h84v-45zM989 197v157l-135 -157 h135z" glyph-name="onequarter" horiz-adv-x="1271" unicode="¼"/><glyph d="M236 868q0 -33 59 -37v-28h-209v28q59 4 59 37v371l-63 -20v41l115 51q27 6 33 -2t6 -29v-412zM934 1303h84l-885 -1313h-84zM1032 360q0 34 -21.5 64.5t-60.5 30.5t-58.5 -13.5t-25.5 -44.5t-1 -52t3 -32q-20 -43 -63 -28.5t-43 41.5q-4 78 48 130t145 52t142.5 -43 t49.5 -105t-34.5 -93.5t-155 -95.5t-132.5 -108h242q33 0 43 17l18 26h48l-21 -90q-6 -29 -43 -28h-360q14 66 46.5 116t61.5 73.5t68 45.5t48 29.5t26.5 23t23.5 33t6 51.5z" glyph-name="onehalf" horiz-adv-x="1265" unicode="½"/><glyph d="M530 976q0 -85 -61 -138.5t-145 -53.5t-142.5 49.5t-58.5 104.5t47 55q31 0 43 -11t15.5 -41.5t13.5 -54.5q20 -52 94 -52q35 0 60.5 29.5t27.5 88.5q-2 76 -50 92.5t-100 -14.5l-16 43l49 23q90 33 90 90q0 43 -15 60.5t-50 17.5q-63 0 -86 -45t-10 -91l-60 13 q-25 10 -24 28q-2 63 46 104.5t124 41.5t123 -40t47 -87t-39 -86q77 -41 77 -126zM1159 1303h84l-885 -1313h-84zM1430 152h-84v-80q0 -37 51 -37v-47h-195v47q49 0 49 37v80h-219v41l246 309q18 23 43 14.5t25 -33.5v-286h84v-45zM1251 197v157l-137 -157h137z" glyph-name="threequarters" horiz-adv-x="1484" unicode="¾"/><glyph d="M495 1051q40 0 68.5 -29t28.5 -70t-28.5 -69.5t-68.5 -28.5t-69 29.5t-29 68.5t29 69t69 30zM236 20q0 -102 61 -174.5t165 -72.5t163 67.5t59 175.5q0 51 -14.5 87t-14.5 65t27.5 48.5t61.5 19.5t70 -36t36 -118q0 -147 -102 -251.5t-294 -104.5t-287 100t-95 249 t95 241t194 185t106 238h49q21 -124 -52 -224.5t-118 -163t-77.5 -146t-32.5 -185.5z" glyph-name="questiondown" horiz-adv-x="921" unicode="¿"/><glyph d="M483 1540q-25 12 -34 37t6 51q10 27 43.5 30t62.5 -20l293 -221l-10 -22zM1104 141q3 -7 7.5 -22t9.5 -25t10.5 -13t13.5 -11.5t19.5 -10.5t34.5 -9t75 -11v-39q-217 10 -434 0v39q80 9 96 18t23.5 14t5.5 18t-4.5 21.5t-11.5 28t-13 31.5l-94 258h-490l-96 -283 q-16 -47 20.5 -69.5t124.5 -36.5v-39q-195 10 -381 0v39q90 10 129 40t64 101l381 1102h82zM369 475h454l-233 643z" glyph-name="Agrave" horiz-adv-x="1294" unicode="À"/><glyph d="M811 1540l-360 -145l-11 22l293 221q29 23 62.5 20t46 -30t3.5 -51.5t-34 -36.5zM1104 141q3 -7 7.5 -22t9.5 -25t10.5 -13t13.5 -11.5t19.5 -10.5t34.5 -9t75 -11v-39q-217 10 -434 0v39q80 9 96 18t23.5 14t5.5 18t-4.5 21.5t-11.5 28t-13 31.5l-94 258h-490l-96 -283 q-16 -47 20.5 -69.5t124.5 -36.5v-39q-195 10 -381 0v39q90 10 129 40t64 101l381 1102h82zM369 475h454l-233 643z" glyph-name="Aacute" horiz-adv-x="1294" unicode="Á"/><glyph d="M647 1579l-250 -184h-30q154 137 280 311q123 -172 279 -311h-31zM1104 141q3 -7 7.5 -22t9.5 -25t10.5 -13t13.5 -11.5t19.5 -10.5t34.5 -9t75 -11v-39q-217 10 -434 0v39q80 9 96 18t23.5 14t5.5 18t-4.5 21.5t-11.5 28t-13 31.5l-94 258h-490l-96 -283 q-16 -47 20.5 -69.5t124.5 -36.5v-39q-195 10 -381 0v39q90 10 129 40t64 101l381 1102h82zM369 475h454l-233 643z" glyph-name="Acircumflex" horiz-adv-x="1294" unicode="Â"/><glyph d="M346 1464h-39q-4 82 41 134.5t128 52.5t201 -64.5t165 -64.5t77.5 24.5t32.5 57.5h35q-4 -88 -50 -140.5t-126 -52.5t-152.5 35t-131 69.5t-96.5 34.5t-61.5 -26.5t-23.5 -59.5zM1104 141q3 -7 7.5 -22t9.5 -25t10.5 -13t13.5 -11.5t19.5 -10.5t34.5 -9t75 -11v-39 q-217 10 -434 0v39q80 9 96 18t23.5 14t5.5 18t-4.5 21.5t-11.5 28t-13 31.5l-94 258h-490l-96 -283q-16 -47 20.5 -69.5t124.5 -36.5v-39q-195 10 -381 0v39q90 10 129 40t64 101l381 1102h82zM369 475h454l-233 643z" glyph-name="Atilde" horiz-adv-x="1294" unicode="Ã"/><glyph d="M475 1454q-31 0 -53.5 22.5t-22.5 53.5t22.5 54.5t53.5 23.5t54.5 -23.5t23.5 -54.5t-23.5 -53.5t-54.5 -22.5zM817 1454q-31 0 -53.5 22.5t-22.5 53.5t22.5 54.5t53.5 23.5t54.5 -23.5t23.5 -54.5t-23.5 -53.5t-54.5 -22.5zM1104 141q3 -7 7.5 -22t9.5 -25t10.5 -13 t13.5 -11.5t19.5 -10.5t34.5 -9t75 -11v-39q-217 10 -434 0v39q80 9 96 18t23.5 14t5.5 18t-4.5 21.5t-11.5 28t-13 31.5l-94 258h-490l-96 -283q-16 -47 20.5 -69.5t124.5 -36.5v-39q-195 10 -381 0v39q90 10 129 40t64 101l381 1102h82zM369 475h454l-233 643z" glyph-name="Adieresis" horiz-adv-x="1294" unicode="Ä"/><glyph d="M647 1470q-78 0 -131 53.5t-53 129.5t53 129t131 53t131 -53t53 -129t-53 -129.5t-131 -53.5zM647 1778q-49 0 -80.5 -35t-31.5 -90.5t31.5 -89t80.5 -33.5t81 33.5t32 89t-32 90.5t-81 35zM1104 141q3 -7 7.5 -22t9.5 -25t10.5 -13t13.5 -11.5t19.5 -10.5t34.5 -9 t75 -11v-39q-217 10 -434 0v39q80 9 96 18t23.5 14t5.5 18t-4.5 21.5t-11.5 28t-13 31.5l-94 258h-490l-96 -283q-16 -47 20.5 -69.5t124.5 -36.5v-39q-195 10 -381 0v39q90 10 129 40t64 101l381 1102h82zM369 475h454l-233 643z" glyph-name="Aring" horiz-adv-x="1294" unicode="Å"/><glyph d="M922 4v51q84 10 111.5 22.5t27.5 49.5v301h-576l-206 -283q-29 -41 8 -67.5t121 -38.5v-39q-195 10 -388 0v39q84 10 125 38.5t95 102.5l778 1039q-29 8 -96 14v39h807q20 0 25 -7.5t9 -29.5l21 -205h-39l-21 43q-70 150 -217 150h-288q-10 0 -11 -13v-542h289 q49 0 77 21.5t36 44t20 75.5h43q-16 -166 0 -328h-43q-15 68 -32 94q-29 43 -101 43h-289v-555q0 -12 11 -12h284q147 0 205 119l66 129h45q-37 -125 -58 -295h-839zM1061 475v692q0 6 -4 19l-535 -711h539z" glyph-name="AE" horiz-adv-x="1880" unicode="Æ"/><glyph d="M617 -410q-187 0 -187 92q0 48 47 48q31 0 44.5 -18.5t15.5 -39t19 -39t58 -18.5t64.5 33t23.5 76q0 104 -157 141q-25 6 -25 22q0 8 18.5 39t30.5 58q-227 37 -362 223t-135 449.5t159.5 456t423.5 192.5q66 0 148 -17.5t145 -17.5h41q51 -203 115 -344h-66 q-66 166 -166 247.5t-250 81.5q-148 0 -260 -103q-60 -56 -95.5 -174t-35.5 -284q0 -313 126 -490t317 -177q123 0 212 74.5t181 240.5h70q-90 -162 -133 -330h-31q-53 0 -141.5 -17.5t-147.5 -17.5t-76 3l-20 -46q215 -55 215 -186q0 -74 -51.5 -116t-134.5 -42z" glyph-name="Ccedilla" horiz-adv-x="1177" unicode="Ç"/><glyph d="M342 1540q-25 12 -34 37t5 51q10 27 44 30t63 -20l293 -221l-11 -22zM51 4v51q84 10 111.5 22.5t27.5 49.5v1032q0 37 -29.5 52.5t-109.5 21.5v39h807q20 0 25.5 -7.5t9.5 -29.5l20 -205h-36l-21 43q-72 150 -217 150h-289q-12 0 -12 -13v-542h289q70 0 94 32.5t41 108.5 h43q-16 -166 0 -328h-43q-12 49 -21.5 74t-38 44t-75.5 19h-289v-555q0 -12 12 -12h283q145 0 207 119l65 129h43q-29 -100 -57 -295h-840z" glyph-name="Egrave" horiz-adv-x="1009" unicode="È"/><glyph d="M670 1540l-361 -145l-10 22l293 221q29 23 62.5 20t43.5 -30q14 -27 5.5 -51.5t-33.5 -36.5zM51 4v51q84 10 111.5 22.5t27.5 49.5v1032q0 37 -29.5 52.5t-109.5 21.5v39h807q20 0 25.5 -7.5t9.5 -29.5l20 -205h-36l-21 43q-72 150 -217 150h-289q-12 0 -12 -13v-542h289 q70 0 94 32.5t41 108.5h43q-16 -166 0 -328h-43q-12 49 -21.5 74t-38 44t-75.5 19h-289v-555q0 -12 12 -12h283q145 0 207 119l65 129h43q-29 -100 -57 -295h-840z" glyph-name="Eacute" horiz-adv-x="1009" unicode="É"/><glyph d="M506 1579l-250 -184h-31q154 137 281 311q123 -172 278 -311h-30zM51 4v51q84 10 111.5 22.5t27.5 49.5v1032q0 37 -29.5 52.5t-109.5 21.5v39h807q20 0 25.5 -7.5t9.5 -29.5l20 -205h-36l-21 43q-72 150 -217 150h-289q-12 0 -12 -13v-542h289q70 0 94 32.5t41 108.5h43 q-16 -166 0 -328h-43q-12 49 -21.5 74t-38 44t-75.5 19h-289v-555q0 -12 12 -12h283q145 0 207 119l65 129h43q-29 -100 -57 -295h-840z" glyph-name="Ecircumflex" horiz-adv-x="1009" unicode="Ê"/><glyph d="M334 1454q-31 0 -53.5 22.5t-22.5 53.5t22.5 54.5t53.5 23.5t54.5 -23.5t23.5 -54.5t-23.5 -53.5t-54.5 -22.5zM676 1454q-31 0 -53.5 22.5t-22.5 53.5t22.5 54.5t53.5 23.5t54.5 -23.5t23.5 -54.5t-23.5 -53.5t-54.5 -22.5zM51 4v51q84 10 111.5 22.5t27.5 49.5v1032 q0 37 -29.5 52.5t-109.5 21.5v39h807q20 0 25.5 -7.5t9.5 -29.5l20 -205h-36l-21 43q-72 150 -217 150h-289q-12 0 -12 -13v-542h289q70 0 94 32.5t41 108.5h43q-16 -166 0 -328h-43q-12 49 -21.5 74t-38 44t-75.5 19h-289v-555q0 -12 12 -12h283q145 0 207 119l65 129h43 q-29 -100 -57 -295h-840z" glyph-name="Edieresis" horiz-adv-x="1009" unicode="Ë"/><glyph d="M475 1417l-10 -22l-361 145q-25 12 -34 37t6 51q10 27 44 30t62 -20zM342 115q0 -37 30.5 -51.5t112.5 -24.5v-39q-217 10 -434 0v39q82 10 113 24.5t31 51.5v1042q0 37 -31 51.5t-113 24.5v39q217 -10 434 0v-39q-82 -10 -112.5 -24.5t-30.5 -51.5v-1042z" glyph-name="Igrave" horiz-adv-x="536" unicode="Ì"/><glyph d="M61 1417l293 221q29 23 63 20t44 -30q14 -27 5 -51.5t-34 -36.5l-360 -145zM342 115q0 -37 30.5 -51.5t112.5 -24.5v-39q-217 10 -434 0v39q82 10 113 24.5t31 51.5v1042q0 37 -31 51.5t-113 24.5v39q217 -10 434 0v-39q-82 -10 -112.5 -24.5t-30.5 -51.5v-1042z" glyph-name="Iacute" horiz-adv-x="536" unicode="Í"/><glyph d="M268 1706q123 -172 279 -311h-31l-248 184l-250 -184h-30q153 137 280 311zM342 115q0 -37 30.5 -51.5t112.5 -24.5v-39q-217 10 -434 0v39q82 10 113 24.5t31 51.5v1042q0 37 -31 51.5t-113 24.5v39q217 -10 434 0v-39q-82 -10 -112.5 -24.5t-30.5 -51.5v-1042z" glyph-name="Icircumflex" horiz-adv-x="536" unicode="Î"/><glyph d="M96.5 1454q-30.5 0 -53.5 22.5t-23 53.5t23 54.5t53.5 23.5t54 -23.5t23.5 -54.5t-23.5 -53.5t-54 -22.5zM438.5 1454q-30.5 0 -53.5 22.5t-23 53.5t23 54.5t53.5 23.5t54 -23.5t23.5 -54.5t-23.5 -53.5t-54 -22.5zM342 115q0 -37 30.5 -51.5t112.5 -24.5v-39 q-217 10 -434 0v39q82 10 113 24.5t31 51.5v1042q0 37 -31 51.5t-113 24.5v39q217 -10 434 0v-39q-82 -10 -112.5 -24.5t-30.5 -51.5v-1042z" glyph-name="Idieresis" horiz-adv-x="536" unicode="Ï"/><glyph d="M483 1272q315 0 494.5 -160t179.5 -460t-166 -476t-422 -176q-57 0 -147 13.5t-166 13.5t-188 -27v41q82 20 110.5 38.5t28.5 55.5v475h-156v52h156v450q0 51 -30 82t-109 39v39q23 -6 214 -3t201 3zM352 662h191v-52h-191v-442q0 -61 52.5 -86t148.5 -27 q240 -6 345.5 146.5t105.5 413t-112 432.5q-56 86 -153.5 133t-209 46t-177.5 -5v-559z" glyph-name="Eth" horiz-adv-x="1239" unicode="Ð"/><glyph d="M778 1411q-80 0 -152.5 35t-131 69.5t-96.5 34.5t-61.5 -26.5t-23.5 -59.5h-39q-4 82 41 134.5t128 52.5t201 -64.5t165 -64.5t78 24.5t33 57.5h34q-4 -88 -50 -140.5t-126 -52.5zM1020 1157v-1157h-37l-721 1135v-1020q0 -37 34 -50.5t134 -25.5v-39q-195 8 -399 0v39 q109 10 142.5 24.5t33.5 51.5v1038q0 41 -32 55.5t-120 24.5v39q150 -8 301 0l609 -967v852q0 37 -33 51.5t-137 24.5v39q197 -10 399 0v-39q-104 -12 -139 -25.5t-35 -50.5z" glyph-name="Ntilde" horiz-adv-x="1224" unicode="Ñ"/><glyph d="M825 1417l-10 -22l-360 145q-25 12 -34 37t5 51q10 27 44 30t62 -20zM1165 644q0 -288 -144 -477.5t-390 -189.5t-402.5 192.5t-156.5 476.5t149.5 471.5t397 187.5t397 -186.5t149.5 -474.5zM655 23q136 0 246.5 132t110.5 434t-121 486.5t-305 184.5 q-143 0 -249 -130.5t-106 -426.5t122 -488t302 -192z" glyph-name="Ograve" horiz-adv-x="1236" unicode="Ò"/><glyph d="M412 1417l293 221q29 23 62.5 20t43.5 -30q14 -27 5 -51.5t-34 -36.5l-360 -145zM1165 644q0 -288 -144 -477.5t-390 -189.5t-402.5 192.5t-156.5 476.5t149.5 471.5t397 187.5t397 -186.5t149.5 -474.5zM655 23q136 0 246.5 132t110.5 434t-121 486.5t-305 184.5 q-143 0 -249 -130.5t-106 -426.5t122 -488t302 -192z" glyph-name="Oacute" horiz-adv-x="1236" unicode="Ó"/><glyph d="M618 1706q123 -172 279 -311h-31l-248 184l-249 -184h-31q153 137 280 311zM1165 644q0 -288 -144 -477.5t-390 -189.5t-402.5 192.5t-156.5 476.5t149.5 471.5t397 187.5t397 -186.5t149.5 -474.5zM655 23q136 0 246.5 132t110.5 434t-121 486.5t-305 184.5 q-143 0 -249 -130.5t-106 -426.5t122 -488t302 -192z" glyph-name="Ocircumflex" horiz-adv-x="1236" unicode="Ô"/><glyph d="M782 1411q-80 0 -152.5 35t-131 69.5t-96.5 34.5t-61.5 -26.5t-23.5 -59.5h-38q-4 82 41 134.5t127.5 52.5t200.5 -64.5t165 -64.5t78 24.5t33 57.5h34q-4 -88 -50 -140.5t-126 -52.5zM1165 644q0 -288 -144 -477.5t-390 -189.5t-402.5 192.5t-156.5 476.5t149.5 471.5 t397 187.5t397 -186.5t149.5 -474.5zM655 23q136 0 246.5 132t110.5 434t-121 486.5t-305 184.5q-143 0 -249 -130.5t-106 -426.5t122 -488t302 -192z" glyph-name="Otilde" horiz-adv-x="1236" unicode="Õ"/><glyph d="M446.5 1454q-30.5 0 -53 22.5t-22.5 53.5t22.5 54.5t53 23.5t54 -23.5t23.5 -54.5t-23.5 -53.5t-54 -22.5zM788.5 1454q-30.5 0 -53 22.5t-22.5 53.5t22.5 54.5t53 23.5t54 -23.5t23.5 -54.5t-23.5 -53.5t-54 -22.5zM1165 644q0 -288 -144 -477.5t-390 -189.5 t-402.5 192.5t-156.5 476.5t149.5 471.5t397 187.5t397 -186.5t149.5 -474.5zM655 23q136 0 246.5 132t110.5 434t-121 486.5t-305 184.5q-143 0 -249 -130.5t-106 -426.5t122 -488t302 -192z" glyph-name="Odieresis" horiz-adv-x="1236" unicode="Ö"/><glyph d="M754 760l-244 -244l244 -246l-62 -61l-243 246l-244 -246l-62 61l244 246l-244 244l62 61l244 -246l243 246z" glyph-name="multiply" horiz-adv-x="897" unicode="×"/><glyph d="M1165 645q0 -289 -144 -478.5t-390 -189.5q-213 0 -363 150l-121 -158l-47 29l129 170q-158 190 -157.5 476t150 473.5t382.5 187.5t379 -150l111 145l45 -28l-119 -158q145 -180 145 -469zM231 728.5q0 -270.5 84 -447.5l588 772q-121 207 -317 207q-143 0 -249 -130.5 t-106 -401zM655 23q136 0 246.5 132t110.5 451q0 221 -80 393l-588 -772q121 -204 311 -204z" glyph-name="Oslash" horiz-adv-x="1236" unicode="Ø"/><glyph d="M494 1540q-25 12 -34 37t5 51q10 27 44 30t62 -20l293 -221l-10 -22zM1143 1157v-1042q0 -37 30.5 -51.5t112.5 -24.5v-39q-211 8 -325 0v39q35 29 34 76v112q-51 -100 -158.5 -173.5t-272.5 -73.5t-277.5 113.5t-112.5 293.5v770q0 37 -30.5 51.5t-112.5 24.5v39 q219 -10 440 0v-39q-82 -10 -112.5 -24.5t-30.5 -51.5v-776q0 -154 78.5 -247t210 -93t232.5 81t146 179v856q0 37 -30.5 51.5t-112.5 24.5v39q217 -10 434 0v-39q-82 -10 -112.5 -24.5t-30.5 -51.5z" glyph-name="Ugrave" horiz-adv-x="1316" unicode="Ù"/><glyph d="M823 1540l-360 -145l-10 22l292 221q29 23 63 20t44 -30q14 -27 5 -51.5t-34 -36.5zM1143 1157v-1042q0 -37 30.5 -51.5t112.5 -24.5v-39q-211 8 -325 0v39q35 29 34 76v112q-51 -100 -158.5 -173.5t-272.5 -73.5t-277.5 113.5t-112.5 293.5v770q0 37 -30.5 51.5 t-112.5 24.5v39q219 -10 440 0v-39q-82 -10 -112.5 -24.5t-30.5 -51.5v-776q0 -154 78.5 -247t210 -93t232.5 81t146 179v856q0 37 -30.5 51.5t-112.5 24.5v39q217 -10 434 0v-39q-82 -10 -112.5 -24.5t-30.5 -51.5z" glyph-name="Uacute" horiz-adv-x="1316" unicode="Ú"/><glyph d="M659 1579l-249 -184h-31q154 137 280 311q123 -172 279 -311h-31zM1143 1157v-1042q0 -37 30.5 -51.5t112.5 -24.5v-39q-211 8 -325 0v39q35 29 34 76v112q-51 -100 -158.5 -173.5t-272.5 -73.5t-277.5 113.5t-112.5 293.5v770q0 37 -30.5 51.5t-112.5 24.5v39 q219 -10 440 0v-39q-82 -10 -112.5 -24.5t-30.5 -51.5v-776q0 -154 78.5 -247t210 -93t232.5 81t146 179v856q0 37 -30.5 51.5t-112.5 24.5v39q217 -10 434 0v-39q-82 -10 -112.5 -24.5t-30.5 -51.5z" glyph-name="Ucircumflex" horiz-adv-x="1316" unicode="Û"/><glyph d="M485.5 1454q-30.5 0 -53 22.5t-22.5 53.5t22.5 54.5t53 23.5t54 -23.5t23.5 -54.5t-23.5 -53.5t-54 -22.5zM827.5 1454q-30.5 0 -53 22.5t-22.5 53.5t22.5 54.5t53 23.5t54 -23.5t23.5 -54.5t-23.5 -53.5t-54 -22.5zM1143 1157v-1042q0 -37 30.5 -51.5t112.5 -24.5v-39 q-211 8 -325 0v39q35 29 34 76v112q-51 -100 -158.5 -173.5t-272.5 -73.5t-277.5 113.5t-112.5 293.5v770q0 37 -30.5 51.5t-112.5 24.5v39q219 -10 440 0v-39q-82 -10 -112.5 -24.5t-30.5 -51.5v-776q0 -154 78.5 -247t210 -93t232.5 81t146 179v856q0 37 -30.5 51.5 t-112.5 24.5v39q217 -10 434 0v-39q-82 -10 -112.5 -24.5t-30.5 -51.5z" glyph-name="Udieresis" horiz-adv-x="1316" unicode="Ü"/><glyph d="M766 1540l-360 -145l-11 22l293 221q29 23 62.5 20t46 -30t3.5 -51.5t-34 -36.5zM668 115q0 -37 31.5 -50.5t113.5 -17.5v-47q-219 10 -434 0v39q82 10 112.5 24.5t30.5 51.5v448l-329 596q-37 70 -162 74v39q219 -2 434 0v-39q-147 -6 -111 -74l289 -532l266 514 q23 45 -6 67.5t-133 24.5v39q203 -2 406 0v-39q-102 -2 -144.5 -25.5t-66.5 -70.5l-297 -574v-448z" glyph-name="Yacute" horiz-adv-x="1206" unicode="Ý"/><glyph d="M530 1026q231 0 362.5 -103.5t131.5 -281.5t-130 -282.5t-364 -104.5h-188v-139q0 -37 30.5 -51.5t112.5 -24.5v-39q-217 10 -434 0v39q82 10 113 24.5t31 51.5v1042q0 37 -31 51.5t-113 24.5v39q217 -10 434 0v-39q-82 -10 -112.5 -24.5t-30.5 -51.5v-131h188zM573 303 q289 0 289 337t-289 337h-231v-674h231z" glyph-name="Thorn" horiz-adv-x="1064" unicode="Þ"/><glyph d="M633 719q387 -61 387 -374q0 -155 -116 -250t-302 -95h-86v55h72q127 0 197.5 79t70.5 210t-71.5 231.5t-161.5 100.5l-306 -47v-422q0 -88 -58 -147.5t-148 -59.5h-80v39q80 6 109.5 21.5t29.5 52.5v905q0 121 97.5 187.5t234.5 66.5q195 0 283.5 -84t88.5 -195 q0 -209 -241 -274zM317 991v-323l58 10q184 33 262 113.5t78 190.5t-53.5 174.5t-151.5 64.5t-145.5 -48.5t-47.5 -181.5z" glyph-name="germandbls" horiz-adv-x="1071" unicode="ß"/><glyph d="M680 1171l-10 -22l-361 145q-25 12 -34 37t6 51q10 27 43.5 30t62.5 -19zM801 164q0 -49 26.5 -63.5t90.5 -10.5v-43q-74 -16 -139.5 -43t-90.5 -27q-31 0 -31 33l9 160q-45 -76 -129 -135.5t-195 -59.5t-201 63.5t-90 197.5q0 70 24.5 122t88.5 105q126 105 493 182 l2 29q4 177 -8 232t-38.5 74t-98 19t-129 -30.5t-76 -74.5t-28 -88t-25.5 -75t-52 -31t-55.5 20.5t-19.5 53.5q0 111 118 190.5t269.5 79.5t210.5 -45t70 -174q4 -49 4 -135v-526zM394 41q89 0 159 63.5t104 133.5v358q-295 -67 -381 -177q-68 -87 -67.5 -179t48.5 -145.5 t137 -53.5z" glyph-name="agrave" horiz-adv-x="948" unicode="à"/><glyph d="M266 1171l293 222q29 23 62.5 19.5t46 -30.5t3.5 -51t-34 -37l-361 -145zM801 164q0 -49 26.5 -63.5t90.5 -10.5v-43q-74 -16 -139.5 -43t-90.5 -27q-31 0 -31 33l9 160q-45 -76 -129 -135.5t-195 -59.5t-201 63.5t-90 197.5q0 70 24.5 122t88.5 105q126 105 493 182 l2 29q4 177 -8 232t-38.5 74t-98 19t-129 -30.5t-76 -74.5t-28 -88t-25.5 -75t-52 -31t-55.5 20.5t-19.5 53.5q0 111 118 190.5t269.5 79.5t210.5 -45t70 -174q4 -49 4 -135v-526zM394 41q89 0 159 63.5t104 133.5v358q-295 -67 -381 -177q-68 -87 -67.5 -179t48.5 -145.5 t137 -53.5z" glyph-name="aacute" horiz-adv-x="948" unicode="á"/><glyph d="M473 1460q123 -172 279 -311h-31l-248 184l-250 -184h-30q153 137 280 311zM801 164q0 -49 26.5 -63.5t90.5 -10.5v-43q-74 -16 -139.5 -43t-90.5 -27q-31 0 -31 33l9 160q-45 -76 -129 -135.5t-195 -59.5t-201 63.5t-90 197.5q0 70 24.5 122t88.5 105q126 105 493 182 l2 29q4 177 -8 232t-38.5 74t-98 19t-129 -30.5t-76 -74.5t-28 -88t-25.5 -75t-52 -31t-55.5 20.5t-19.5 53.5q0 111 118 190.5t269.5 79.5t210.5 -45t70 -174q4 -49 4 -135v-526zM394 41q89 0 159 63.5t104 133.5v358q-295 -67 -381 -177q-68 -87 -67.5 -179t48.5 -145.5 t137 -53.5z" glyph-name="acircumflex" horiz-adv-x="948" unicode="â"/><glyph d="M637 1165q-80 0 -152.5 35t-131 70t-96.5 35t-61.5 -27t-23.5 -59h-39q-4 82 41 134t128 52t201 -64.5t165 -64.5t77.5 24.5t32.5 57.5h35q-4 -88 -50 -140.5t-126 -52.5zM801 164q0 -49 26.5 -63.5t90.5 -10.5v-43q-74 -16 -139.5 -43t-90.5 -27q-31 0 -31 33l9 160 q-45 -76 -129 -135.5t-195 -59.5t-201 63.5t-90 197.5q0 70 24.5 122t88.5 105q126 105 493 182l2 29q4 177 -8 232t-38.5 74t-98 19t-129 -30.5t-76 -74.5t-28 -88t-25.5 -75t-52 -31t-55.5 20.5t-19.5 53.5q0 111 118 190.5t269.5 79.5t210.5 -45t70 -174q4 -49 4 -135 v-526zM394 41q89 0 159 63.5t104 133.5v358q-295 -67 -381 -177q-68 -87 -67.5 -179t48.5 -145.5t137 -53.5z" glyph-name="atilde" horiz-adv-x="948" unicode="ã"/><glyph d="M301 1208q-31 0 -53.5 22.5t-22.5 53.5t22.5 54.5t53.5 23.5t54.5 -23.5t23.5 -54.5t-23.5 -53.5t-54.5 -22.5zM643 1208q-31 0 -53.5 22.5t-22.5 53.5t22.5 54.5t53.5 23.5t54.5 -23.5t23.5 -54.5t-23.5 -53.5t-54.5 -22.5zM801 164q0 -49 26.5 -63.5t90.5 -10.5v-43 q-74 -16 -139.5 -43t-90.5 -27q-31 0 -31 33l9 160q-45 -76 -129 -135.5t-195 -59.5t-201 63.5t-90 197.5q0 70 24.5 122t88.5 105q126 105 493 182l2 29q4 177 -8 232t-38.5 74t-98 19t-129 -30.5t-76 -74.5t-28 -88t-25.5 -75t-52 -31t-55.5 20.5t-19.5 53.5 q0 111 118 190.5t269.5 79.5t210.5 -45t70 -174q4 -49 4 -135v-526zM394 41q89 0 159 63.5t104 133.5v358q-295 -67 -381 -177q-68 -87 -67.5 -179t48.5 -145.5t137 -53.5z" glyph-name="adieresis" horiz-adv-x="948" unicode="ä"/><glyph d="M473 1225q-78 0 -131 53t-53 129t53 129t131 53t131 -53t53 -129t-53 -129t-131 -53zM473 1284q49 0 81 34t32 89t-32 90t-81 35t-81 -35t-32 -90t32 -89t81 -34zM801 164q0 -49 26.5 -63.5t90.5 -10.5v-43q-74 -16 -139.5 -43t-90.5 -27q-31 0 -31 33l9 160 q-45 -76 -129 -135.5t-195 -59.5t-201 63.5t-90 197.5q0 70 24.5 122t88.5 105q126 105 493 182l2 29q4 177 -8 232t-38.5 74t-98 19t-129 -30.5t-76 -74.5t-28 -88t-25.5 -75t-52 -31t-55.5 20.5t-19.5 53.5q0 111 118 190.5t269.5 79.5t210.5 -45t70 -174q4 -49 4 -135 v-526zM394 41q89 0 159 63.5t104 133.5v358q-295 -67 -381 -177q-68 -87 -67.5 -179t48.5 -145.5t137 -53.5z" glyph-name="aring" horiz-adv-x="948" unicode="å"/><glyph d="M1391 532h-566q-2 -246 83 -375.5t220 -129.5q86 0 145.5 36.5t102.5 122.5q10 27 31 27h23q18 0 12 -25q-74 -209 -334 -208q-115 0 -209 53q-49 -10 -117.5 -33t-96.5 -23t-28 33l9 160q-45 -76 -129 -135.5t-195 -59.5t-201 63.5t-90 197.5q0 70 24.5 122t88.5 105 q126 105 493 182l2 29q2 209 -14 256q-25 72 -116 71.5t-147 -31t-73.5 -74.5t-27 -89t-25.5 -76t-52 -31t-55.5 20.5t-19.5 53.5q0 111 118 190.5t285 79.5q117 0 173.5 -32.5t76.5 -106.5q119 137 294 137t283.5 -107.5t108.5 -309.5q1 -93 -77 -93zM1090 999 q-125 0 -195 -114.5t-70 -311.5h502q1 426 -237 426zM394 41q89 0 158.5 63.5t104.5 133.5v360q-293 -67 -381 -179q-68 -87 -67.5 -179t48.5 -145.5t137 -53.5z" glyph-name="ae" horiz-adv-x="1529" unicode="æ"/><glyph d="M515 -410q-187 0 -187 92q0 48 47 48q31 0 44 -18.5t15 -39t19.5 -39t58.5 -18.5t64.5 33t23.5 76q0 104 -158 141q-25 6 -24 22q0 8 17.5 38t29.5 57q-184 18 -294 163.5t-110 374.5t120 375.5t311 146.5q152 0 240.5 -76.5t90.5 -170.5q0 -27 -24.5 -53.5t-54.5 -26.5 t-54 20.5t-22 48.5q2 92 -37 153.5t-125 61.5q-131 0 -209 -119.5t-78 -353t87 -366.5t212 -133q96 0 157.5 50t78.5 120q2 16 18 16h39q18 0 10 -25q-74 -209 -309 -208h-6l-21 -46q215 -55 215 -186q0 -74 -51 -116t-134 -42z" glyph-name="ccedilla" horiz-adv-x="884" unicode="ç"/><glyph d="M692 1171l-10 -22l-360 145q-25 12 -34 37t5 51q10 27 44 30t62 -19zM829 213q18 0 13 -25q-74 -209 -334 -208q-201 0 -324 151.5t-123 391t118 379.5t295 140t285.5 -107.5t108.5 -309.5q0 -92 -77 -93h-566q-2 -246 83 -375.5t220 -129.5q86 0 145.5 36.5t102.5 122.5 q10 27 31 27h22zM727 573q0 426 -238 426q-125 0 -194.5 -114.5t-69.5 -311.5h502z" glyph-name="egrave" horiz-adv-x="929" unicode="è"/><glyph d="M279 1171l292 222q29 23 63 19.5t44 -30.5q14 -27 5 -51t-34 -37l-360 -145zM829 213q18 0 13 -25q-74 -209 -334 -208q-201 0 -324 151.5t-123 391t118 379.5t295 140t285.5 -107.5t108.5 -309.5q0 -92 -77 -93h-566q-2 -246 83 -375.5t220 -129.5q86 0 145.5 36.5 t102.5 122.5q10 27 31 27h22zM727 573q0 426 -238 426q-125 0 -194.5 -114.5t-69.5 -311.5h502z" glyph-name="eacute" horiz-adv-x="929" unicode="é"/><glyph d="M485 1460q123 -172 279 -311h-31l-248 184l-249 -184h-31q153 137 280 311zM829 213q18 0 13 -25q-74 -209 -334 -208q-201 0 -324 151.5t-123 391t118 379.5t295 140t285.5 -107.5t108.5 -309.5q0 -92 -77 -93h-566q-2 -246 83 -375.5t220 -129.5q86 0 145.5 36.5 t102.5 122.5q10 27 31 27h22zM727 573q0 426 -238 426q-125 0 -194.5 -114.5t-69.5 -311.5h502z" glyph-name="ecircumflex" horiz-adv-x="929" unicode="ê"/><glyph d="M313.5 1208q-30.5 0 -53 22.5t-22.5 53.5t22.5 54.5t53 23.5t54 -23.5t23.5 -54.5t-23.5 -53.5t-54 -22.5zM655.5 1208q-30.5 0 -53 22.5t-22.5 53.5t22.5 54.5t53 23.5t54 -23.5t23.5 -54.5t-23.5 -53.5t-54 -22.5zM829 213q18 0 13 -25q-74 -209 -334 -208 q-201 0 -324 151.5t-123 391t118 379.5t295 140t285.5 -107.5t108.5 -309.5q0 -92 -77 -93h-566q-2 -246 83 -375.5t220 -129.5q86 0 145.5 36.5t102.5 122.5q10 27 31 27h22zM727 573q0 426 -238 426q-125 0 -194.5 -114.5t-69.5 -311.5h502z" glyph-name="edieresis" horiz-adv-x="929" unicode="ë"/><glyph d="M438 1171l-10 -22l-360 145q-25 12 -34 37t5 51q10 27 44 30t62 -19zM303 115q0 -59 117 -76v-39q-188 8 -377 0v39q117 14 117 76v755q0 47 -28 65.5t-91 16.5v39q77 8 146 30.5t79 22.5q49 0 49 -38q0 -10 -6 -88t-6 -150v-653z" glyph-name="igrave" horiz-adv-x="460" unicode="ì"/><glyph d="M25 1171l292 222q29 23 63 19.5t44 -30.5q14 -27 5 -51t-34 -37l-360 -145zM303 115q0 -59 117 -76v-39q-188 8 -377 0v39q117 14 117 76v755q0 47 -28 65.5t-91 16.5v39q77 8 146 30.5t79 22.5q49 0 49 -38q0 -10 -6 -88t-6 -150v-653z" glyph-name="iacute" horiz-adv-x="460" unicode="í"/><glyph d="M231 1460q123 -172 279 -311h-31l-248 184l-249 -184h-31q153 137 280 311zM303 115q0 -59 117 -76v-39q-188 8 -377 0v39q117 14 117 76v755q0 47 -28 65.5t-91 16.5v39q77 8 146 30.5t79 22.5q49 0 49 -38q0 -10 -6 -88t-6 -150v-653z" glyph-name="icircumflex" horiz-adv-x="460" unicode="î"/><glyph d="M57.5 1208q-30.5 0 -53 22.5t-22.5 53.5t22.5 54.5t53 23.5t54 -23.5t23.5 -54.5t-23.5 -53.5t-54 -22.5zM399.5 1208q-30.5 0 -53 22.5t-22.5 53.5t22.5 54.5t53 23.5t54 -23.5t23.5 -54.5t-23.5 -53.5t-54 -22.5zM303 115q0 -59 117 -76v-39q-188 8 -377 0v39 q117 14 117 76v755q0 47 -28 65.5t-91 16.5v39q77 8 146 30.5t79 22.5q49 0 49 -38q0 -10 -6 -88t-6 -150v-653z" glyph-name="idieresis" horiz-adv-x="460" unicode="ï"/><glyph d="M905 166q0 -49 26.5 -63.5t90.5 -10.5v-45q-74 -16 -139.5 -43t-84.5 -27t-28.5 11.5t-7.5 25.5l20 148q-16 -63 -96 -121.5t-194 -58.5q-195 0 -313 148.5t-118 390.5t123 381.5t293 139.5t285 -141v227q0 35 -6 60l-252 -74v53l231 68q-55 76 -231 39v51q137 37 232 30 t134 -79l119 35v-54l-100 -28q16 -61 16 -144v-919zM213 541q0 -298 101.5 -406t203.5 -108t170 73.5t74 153.5v590q-117 158 -263 158t-216 -111t-70 -350z" glyph-name="eth" horiz-adv-x="1062" unicode="ð"/><glyph d="M690 1165q-80 0 -152.5 35t-131 70t-96.5 35t-61.5 -27t-23.5 -59h-39q-4 82 41 134t128 52t201 -64.5t165 -64.5t77.5 24.5t32.5 57.5h35q-4 -88 -50 -140.5t-126 -52.5zM901 115q0 -59 117 -76v-39q-186 10 -375 0v39q117 18 117 76v585q0 283 -158 283 q-170 0 -309 -184v-684q0 -57 117 -76v-39q-188 8 -375 0v39q115 14 115 76v743q0 88 -119 76v39q78 10 147.5 40.5t79.5 30.5q39 0 35 -34l-19 -181q63 98 189 169q82 46 166 46q139 0 205.5 -75.5t66.5 -272.5v-581z" glyph-name="ntilde" horiz-adv-x="1048" unicode="ñ"/><glyph d="M709 1171l-11 -22l-360 145q-25 12 -34 37t5 51q10 27 44 30t63 -19zM499 1042q183 0 312 -144t129 -382t-127 -387t-310 -149t-312.5 146t-129.5 384t127.5 385t310.5 147zM776 485q0 225 -85 369.5t-226 144.5q-244 0 -244 -452q0 -229 85 -374.5t226 -145.5 q244 -1 244 458z" glyph-name="ograve" horiz-adv-x="1001" unicode="ò"/><glyph d="M295 1171l293 222q29 23 62.5 19.5t43.5 -30.5q14 -27 5 -51t-33 -37l-361 -145zM499 1042q183 0 312 -144t129 -382t-127 -387t-310 -149t-312.5 146t-129.5 384t127.5 385t310.5 147zM776 485q0 225 -85 369.5t-226 144.5q-244 0 -244 -452q0 -229 85 -374.5 t226 -145.5q244 -1 244 458z" glyph-name="oacute" horiz-adv-x="1001" unicode="ó"/><glyph d="M502 1460q123 -172 278 -311h-30l-248 184l-250 -184h-31q154 137 281 311zM499 1042q183 0 312 -144t129 -382t-127 -387t-310 -149t-312.5 146t-129.5 384t127.5 385t310.5 147zM776 485q0 225 -85 369.5t-226 144.5q-244 0 -244 -452q0 -229 85 -374.5t226 -145.5 q244 -1 244 458z" glyph-name="ocircumflex" horiz-adv-x="1001" unicode="ô"/><glyph d="M665 1165q-80 0 -152.5 35t-130.5 70t-96 35t-61.5 -27t-23.5 -59h-39q-4 82 41 134t128 52t200.5 -64.5t164.5 -64.5t78 24.5t33 57.5h35q-4 -88 -50.5 -140.5t-126.5 -52.5zM499 1042q183 0 312 -144t129 -382t-127 -387t-310 -149t-312.5 146t-129.5 384t127.5 385 t310.5 147zM776 485q0 225 -85 369.5t-226 144.5q-244 0 -244 -452q0 -229 85 -374.5t226 -145.5q244 -1 244 458z" glyph-name="otilde" horiz-adv-x="1001" unicode="õ"/><glyph d="M329.5 1208q-30.5 0 -53 22.5t-22.5 53.5t22.5 54.5t53 23.5t54.5 -23.5t24 -54.5t-24 -53.5t-54.5 -22.5zM671.5 1208q-30.5 0 -53 22.5t-22.5 53.5t22.5 54.5t53 23.5t54.5 -23.5t24 -54.5t-24 -53.5t-54.5 -22.5zM499 1042q183 0 312 -144t129 -382t-127 -387 t-310 -149t-312.5 146t-129.5 384t127.5 385t310.5 147zM776 485q0 225 -85 369.5t-226 144.5q-244 0 -244 -452q0 -229 85 -374.5t226 -145.5q244 -1 244 458z" glyph-name="odieresis" horiz-adv-x="1001" unicode="ö"/><glyph d="M527 758q-28 0 -49 21t-21 49t21.5 50.5t48 22.5t49 -22.5t22.5 -50.5t-21.5 -49t-49.5 -21zM143 569h717v-65h-717v65zM527 131q-28 0 -49 21.5t-21 49.5t21.5 50t48 22t49 -22t22.5 -50t-21.5 -49.5t-49.5 -21.5z" glyph-name="divide" horiz-adv-x="1044" unicode="÷"/><glyph d="M940 515q0 -237 -127 -386t-300 -149t-296 118l-55 -71l-45 28l61 84q-117 150 -117 379.5t127 376.5t297.5 147t288.5 -106l86 113l45 -29l-92 -125q127 -143 127 -380zM221 547q0 -170 45 -291l434 582q-86 162 -235 161q-244 1 -244 -452zM532 27q244 0 244 458 q0 170 -49 297l-436 -583q89 -172 241 -172z" glyph-name="oslash" horiz-adv-x="1001" unicode="ø"/><glyph d="M737 1171l-10 -22l-360 145q-25 12 -34 37t5 51q10 27 44 30t62 -19zM901 162q0 -49 27.5 -64.5t89.5 -9.5v-41q-74 -16 -138.5 -43t-93.5 -27t-24 37l16 215q-2 -2 -19.5 -26.5t-26.5 -36.5t-32.5 -40t-41.5 -44q-70 -60 -118.5 -82.5t-105.5 -22.5q-139 0 -211.5 80 t-72.5 277v559q0 45 -13.5 62.5t-44.5 15.5l-61 -2v45l219 20q41 4 41 -33v-682q0 -272 172 -272q164 0 295 225v621q0 45 -11.5 62.5t-41.5 15.5l-66 -2v45l219 20q27 2 35 -5t8 -28v-839z" glyph-name="ugrave" horiz-adv-x="1058" unicode="ù"/><glyph d="M324 1171l292 222q29 23 63 19.5t44 -30.5q14 -27 5 -51t-34 -37l-360 -145zM901 162q0 -49 27.5 -64.5t89.5 -9.5v-41q-74 -16 -138.5 -43t-93.5 -27t-24 37l16 215q-2 -2 -19.5 -26.5t-26.5 -36.5t-32.5 -40t-41.5 -44q-70 -60 -118.5 -82.5t-105.5 -22.5 q-139 0 -211.5 80t-72.5 277v559q0 45 -13.5 62.5t-44.5 15.5l-61 -2v45l219 20q41 4 41 -33v-682q0 -272 172 -272q164 0 295 225v621q0 45 -11.5 62.5t-41.5 15.5l-66 -2v45l219 20q27 2 35 -5t8 -28v-839z" glyph-name="uacute" horiz-adv-x="1058" unicode="ú"/><glyph d="M532 1460q123 -172 279 -311h-31l-248 184l-249 -184h-31q153 137 280 311zM901 162q0 -49 27.5 -64.5t89.5 -9.5v-41q-74 -16 -138.5 -43t-93.5 -27t-24 37l16 215q-2 -2 -19.5 -26.5t-26.5 -36.5t-32.5 -40t-41.5 -44q-70 -60 -118.5 -82.5t-105.5 -22.5 q-139 0 -211.5 80t-72.5 277v559q0 45 -13.5 62.5t-44.5 15.5l-61 -2v45l219 20q41 4 41 -33v-682q0 -272 172 -272q164 0 295 225v621q0 45 -11.5 62.5t-41.5 15.5l-66 -2v45l219 20q27 2 35 -5t8 -28v-839z" glyph-name="ucircumflex" horiz-adv-x="1058" unicode="û"/><glyph d="M358.5 1208q-30.5 0 -53 22.5t-22.5 53.5t22.5 54.5t53 23.5t54 -23.5t23.5 -54.5t-23.5 -53.5t-54 -22.5zM700.5 1208q-30.5 0 -53 22.5t-22.5 53.5t22.5 54.5t53 23.5t54 -23.5t23.5 -54.5t-23.5 -53.5t-54 -22.5zM901 162q0 -49 27.5 -64.5t89.5 -9.5v-41 q-74 -16 -138.5 -43t-93.5 -27t-24 37l16 215q-2 -2 -19.5 -26.5t-26.5 -36.5t-32.5 -40t-41.5 -44q-70 -60 -118.5 -82.5t-105.5 -22.5q-139 0 -211.5 80t-72.5 277v559q0 45 -13.5 62.5t-44.5 15.5l-61 -2v45l219 20q41 4 41 -33v-682q0 -272 172 -272q164 0 295 225v621 q0 45 -11.5 62.5t-41.5 15.5l-66 -2v45l219 20q27 2 35 -5t8 -28v-839z" glyph-name="udieresis" horiz-adv-x="1058" unicode="ü"/><glyph d="M322 1171l292 222q29 23 63 19.5t44 -30.5q14 -27 5 -51t-34 -37l-360 -145zM1024 1026v-39l-41 -6q-5 -2 -31 -5q-53 -6 -67 -48l-482 -1348q-10 -23 -19 -25.5t-25.5 -3t-25.5 8t-5 20.5l186 461q0 16 -154.5 395t-182 448t-42 83t-43.5 14l-61 6v39q223 -10 397 0v-39 l-70 -6q-68 0 -49 -53l271 -711l247 711q6 18 -1 30q-14 23 -54 23l-49 6v39q141 -8 301 0z" glyph-name="yacute" horiz-adv-x="1054" unicode="ý"/><glyph d="M590 1042q184 0 299 -141t115 -388t-125 -389t-303 -142t-283 114v-329q0 -49 30.5 -66.5t108.5 -11.5v-43q-86 -8 -176 -46t-121 -38t-31 28q0 8 23 44t23 114v1411q0 88 -119 76v39q76 10 147.5 41t83.5 31q31 0 31 -39v-414q43 59 122 104t175 45zM565 23 q287 0 287 454q0 306 -90 413t-182 107t-169 -50t-118 -113v-564q4 -80 85 -163.5t187 -83.5zM266 774q-4 -6 0 -12v12z" glyph-name="thorn" horiz-adv-x="1054" unicode="þ"/><glyph d="M354.5 1208q-30.5 0 -53 22.5t-22.5 53.5t22.5 54.5t53 23.5t54 -23.5t23.5 -54.5t-23.5 -53.5t-54 -22.5zM696.5 1208q-30.5 0 -53 22.5t-22.5 53.5t22.5 54.5t53 23.5t54 -23.5t23.5 -54.5t-23.5 -53.5t-54 -22.5zM1024 1026v-39l-41 -6q-5 -2 -31 -5q-53 -6 -67 -48 l-482 -1348q-10 -23 -19 -25.5t-25.5 -3t-25.5 8t-5 20.5l186 461q0 16 -154.5 395t-182 448t-42 83t-43.5 14l-61 6v39q223 -10 397 0v-39l-70 -6q-68 0 -49 -53l271 -711l247 711q6 18 -1 30q-14 23 -54 23l-49 6v39q141 -8 301 0z" glyph-name="ydieresis" horiz-adv-x="1054" unicode="ÿ"/><glyph d="M315 1511q0 -10 4 -18q-4 -8 -4 -18v36zM977 1511v-36q0 10 -4 18q4 8 4 18zM356 1477q-29 0 -37 16q8 16 37 16h580q29 0 37 -16q-8 -16 -37 -16h-580zM1104 141q3 -7 7.5 -22t9.5 -25t10.5 -13t13.5 -11.5t19.5 -10.5t34.5 -9t75 -11v-39q-217 10 -434 0v39q80 9 96 18 t23.5 14t5.5 18t-4.5 21.5t-11.5 28t-13 31.5l-94 258h-490l-96 -283q-16 -47 20.5 -69.5t124.5 -36.5v-39q-195 10 -381 0v39q90 10 129 40t64 101l381 1102h82zM369 475h454l-233 643z" glyph-name="Amacron" horiz-adv-x="1294" unicode="Ā"/><glyph d="M141 1266q0 -10 4 -19q-4 -8 -4 -18v37zM803 1266v-37q0 10 -4 18q4 9 4 19zM182 1231q-29 0 -37 16q8 16 37 17h580q29 0 37 -17q-8 -16 -37 -16h-580zM801 164q0 -49 26.5 -63.5t90.5 -10.5v-43q-74 -16 -139.5 -43t-90.5 -27q-31 0 -31 33l9 160q-45 -76 -129 -135.5 t-195 -59.5t-201 63.5t-90 197.5q0 70 24.5 122t88.5 105q126 105 493 182l2 29q4 177 -8 232t-38.5 74t-98 19t-129 -30.5t-76 -74.5t-28 -88t-25.5 -75t-52 -31t-55.5 20.5t-19.5 53.5q0 111 118 190.5t269.5 79.5t210.5 -45t70 -174q4 -49 4 -135v-526zM394 41 q89 0 158.5 63.5t104.5 133.5v358q-295 -67 -381 -177q-68 -87 -67.5 -179t48.5 -145.5t137 -53.5z" glyph-name="amacron" horiz-adv-x="948" unicode="ā"/><glyph d="M646 1415q-110 0 -181.5 74t-77.5 162h39q6 -51 67.5 -99.5t151.5 -48.5t152.5 48t68.5 100h39q-6 -88 -77.5 -162t-181.5 -74zM1104 141q3 -7 7.5 -22t9.5 -25t10.5 -13t13.5 -11.5t19.5 -10.5t34 -9t75.5 -11v-39q-217 10 -434 0v39q80 9 96 18t23.5 14t5.5 18 t-4.5 21.5t-11.5 28t-13 31.5l-94 258h-490l-96 -283q-16 -47 20.5 -69.5t124.5 -36.5v-39q-195 10 -381 0v39q90 10 129 40t64 101l381 1102h82zM369 475h454l-233 643z" glyph-name="Abreve" horiz-adv-x="1294" unicode="Ă"/><glyph d="M472 1169q-110 0 -181.5 74t-77.5 162h39q6 -51 67.5 -99.5t151.5 -48.5t152.5 48.5t68.5 99.5h39q-6 -88 -77.5 -162t-181.5 -74zM801 164q0 -49 26.5 -63.5t90.5 -10.5v-43q-74 -16 -139.5 -43t-90.5 -27q-31 0 -31 33l9 160q-45 -76 -129 -135.5t-195 -59.5t-201 63.5 t-90 197.5q0 70 24.5 122t88.5 105q126 105 493 182l2 29q4 177 -8 232t-38.5 74t-98 19t-129 -30.5t-76 -74.5t-28 -88t-25.5 -75t-52 -31t-55.5 20.5t-19.5 53.5q0 111 118 190.5t269.5 79.5t210.5 -45t70 -174q4 -49 4 -135v-526zM394 41q89 0 159 63.5t104 133.5v358 q-295 -67 -381 -177q-68 -87 -67.5 -179t48.5 -145.5t137 -53.5z" glyph-name="abreve" horiz-adv-x="948" unicode="ă"/><glyph d="M1022 -268q-72 -146 -226 -146q-88 0 -146 41t-58 121t48 135.5t136 98.5t127 66.5t39 82.5q0 23 -6 39l-94 258h-490l-96 -283q-37 -84 145 -106v-39q-51 4 -190 4t-191 -4v39q90 10 129 40t64 101l381 1102h82l428 -1141q3 -7 7.5 -22t9.5 -25t10.5 -13t13.5 -11.5 t19.5 -10.5t34 -9t75.5 -11v-39q-106 8 -146 8q-412 0 -411 -227q0 -59 33.5 -93t95.5 -34q104 0 145 98zM369 475h454l-233 643z" glyph-name="Aogonek" horiz-adv-x="1294" unicode="Ą"/><glyph d="M578 -216q0 -62 33.5 -96t95.5 -34q104 0 145 98l33 -20q-76 -145 -242 -146q-72 0 -130 40t-58 115t51 140.5t156 110.5q-4 8 -5 18l9 160q-45 -76 -129 -135.5t-195 -59.5t-201 63.5t-90 197.5q0 70 24.5 122t88.5 105q126 105 493 182l2 29q4 177 -8 232t-38.5 74 t-98 19t-129 -30.5t-76 -74.5t-28 -88t-25.5 -75t-52 -31t-55.5 20.5t-19.5 53.5q0 111 118 190.5t269.5 79.5t210.5 -45t70 -174q4 -49 4 -135v-526q0 -49 26.5 -63.5t90.5 -10.5v-43q-118 -35 -146.5 -46t-34.5 -13q-100 -45 -129.5 -93.5t-29.5 -110.5zM394 41 q89 0 158.5 63.5t104.5 133.5v358q-295 -67 -381 -177q-68 -87 -67.5 -179t48.5 -145.5t137 -53.5z" glyph-name="aogonek" horiz-adv-x="948" unicode="ą"/><glyph d="M389 1417l293 221q29 23 62.5 20t43.5 -30q14 -27 5 -51.5t-33 -36.5l-361 -145zM973 12q-53 0 -141.5 -17.5t-169.5 -17.5q-264 0 -427 195t-163 471.5t159.5 469t423.5 192.5q66 0 148 -17.5t145 -17.5h41q51 -203 115 -344h-66q-66 166 -166 247.5t-250 81.5 t-260 -103q-60 -56 -95.5 -174t-35.5 -284q0 -313 126 -490t317 -177q123 0 212 74.5t181 240.5h70q-90 -162 -133 -330h-31z" glyph-name="Cacute" horiz-adv-x="1177" unicode="Ć"/><glyph d="M287 1171l293 222q29 23 62.5 19.5t43.5 -30.5q14 -27 5 -51t-34 -37l-360 -145zM811 213q18 0 10 -25q-74 -209 -309 -208q-203 0 -327 148t-124 384t120 383t311 147q152 0 240.5 -76.5t90.5 -170.5q0 -27 -24.5 -53.5t-54.5 -26.5t-54 20.5t-22 48.5q2 92 -37 153.5 t-125 61.5q-131 0 -209 -119.5t-78 -353.5t87 -366.5t212 -132.5q96 0 157.5 50t78.5 120q2 16 18 16h39z" glyph-name="cacute" horiz-adv-x="884" unicode="ć"/><glyph d="M596 1399q-133 182 -281 311h31l250 -184l248 184h30q-149 -131 -278 -311zM973 12q-53 0 -141.5 -17.5t-169.5 -17.5q-264 0 -427 195t-163 471.5t159.5 469t423.5 192.5q66 0 148 -17.5t145 -17.5h41q51 -203 115 -344h-66q-66 166 -166 247.5t-250 81.5t-260 -103 q-60 -56 -95.5 -174t-35.5 -284q0 -313 126 -490t317 -177q123 0 212 74.5t181 240.5h70q-90 -162 -133 -330h-31z" glyph-name="Ccaron" horiz-adv-x="1177" unicode="Č"/><glyph d="M494 1153q-133 182 -281 311h31l250 -184l247 184h31q-149 -131 -278 -311zM811 213q18 0 10 -25q-74 -209 -309 -208q-203 0 -327 148t-124 384t120 383t311 147q152 0 240.5 -76.5t90.5 -170.5q0 -27 -24.5 -53.5t-54.5 -26.5t-54 20.5t-22 48.5q2 92 -37 153.5 t-125 61.5q-131 0 -209 -119.5t-78 -353.5t87 -366.5t212 -132.5q96 0 157.5 50t78.5 120q2 16 18 16h39z" glyph-name="ccaron" horiz-adv-x="884" unicode="č"/><glyph d="M621 1399q-133 182 -281 311h31l250 -184l247 184h31q-149 -131 -278 -311zM467 1272q317 0 495.5 -160t178.5 -460t-166 -476t-422 -176q-57 0 -146.5 13.5t-165 13.5t-190.5 -27v41q82 20 110.5 38.5t28.5 55.5v977q0 51 -29.5 82t-109.5 39v39q23 -6 214.5 -3t201.5 3 zM987 602q0 276 -115.5 451.5t-373.5 171.5q-96 0 -160 -4v-1053q0 -61 52.5 -86t148.5 -27q162 -4 264 71q184 136 184 476z" glyph-name="Dcaron" horiz-adv-x="1222" unicode="Ď"/><glyph d="M895 166q0 -49 26.5 -63.5t90.5 -10.5v-45q-74 -16 -139.5 -43t-85 -27t-28.5 11.5t-7 25.5l20 148q-16 -63 -96 -121.5t-195 -58.5q-195 0 -312.5 148.5t-117.5 390.5t123 381.5t293 139.5t285 -141v246q0 49 -28 65.5t-91 10.5v51q76 10 147.5 41t83.5 31q31 0 31 -39 v-1141zM1102 1143q0 14 -4 18q-20 -4 -41 -4t-46.5 24.5t-25.5 66.5t26.5 67.5t71.5 25.5t74 -38.5t29 -97t-30 -124t-83 -110.5q-14 -8 -24 2l-13 18q66 70 66 152zM508 27q102 0 169.5 73.5t74.5 153.5v590q-117 158 -263.5 157.5t-216 -111t-69.5 -349.5q0 -299 132 -439 q71 -76 173 -75z" glyph-name="dcaron" horiz-adv-x="1105" unicode="ď"/><glyph d="M483 1272q315 0 494.5 -160t179.5 -460t-166 -476t-422 -176q-57 0 -147 13.5t-166 13.5t-188 -27v41q82 20 110.5 38.5t28.5 55.5v475h-156v52h156v450q0 51 -30 82t-109 39v39q23 -6 214 -3t201 3zM352 662h191v-52h-191v-442q0 -61 52.5 -86t148.5 -27 q240 -6 345.5 146.5t105.5 413t-112 432.5q-56 86 -153.5 133t-209 46t-177.5 -5v-559z" glyph-name="Dcroat" horiz-adv-x="1239" unicode="Đ"/><glyph d="M1024 1098h-129v-932q0 -49 26.5 -63.5t90.5 -10.5v-45q-74 -16 -139.5 -43t-85 -27t-28.5 11.5t-7 25.5l20 148q-16 -63 -96 -121.5t-195 -58.5q-195 0 -312.5 148.5t-117.5 390.5t123 381.5t293 139.5t285 -141v197h-109v35h109v14q0 49 -28 65.5t-91 10.5v51 q76 10 147.5 41t83.5 31q31 0 31 -39v-174h129v-35zM203 541q0 -299 132 -439q71 -76 173 -75.5t170 74t74 153.5v590q-117 158 -263.5 157.5t-216 -111t-69.5 -349.5z" glyph-name="dcroat" horiz-adv-x="1062" unicode="đ"/><glyph d="M174 1511q0 -10 4 -18q-4 -8 -4 -18v36zM836 1511v-36q0 10 -5 18q5 8 5 18zM215 1477q-29 0 -37 16q8 16 37 16h580q29 0 36 -16q-8 -16 -36 -16h-580zM51 4v51q84 10 111.5 22.5t27.5 49.5v1032q0 37 -29.5 52.5t-109.5 21.5v39h807q20 0 25.5 -7.5t9.5 -29.5l20 -205 h-36l-21 43q-72 150 -217 150h-289q-12 0 -12 -13v-542h289q70 0 94 32.5t41 108.5h43q-16 -166 0 -328h-43q-12 49 -21.5 74t-38 44t-75.5 19h-289v-555q0 -12 12 -12h283q145 0 207 119l65 129h43q-29 -100 -57 -295h-840z" glyph-name="Emacron" horiz-adv-x="1009" unicode="Ē"/><glyph d="M154 1266q0 -10 4 -19q-4 -8 -4 -18v37zM815 1266v-37q0 10 -4 18q4 9 4 19zM195 1231q-29 0 -37 16q8 16 37 17h579q29 0 37 -17q-8 -16 -37 -16h-579zM791 532h-566q-2 -246 83 -375.5t220 -129.5q86 0 145.5 36.5t102.5 122.5q10 27 31 27h22q18 0 13 -25 q-74 -209 -334 -208q-201 0 -324 151.5t-123 391t118 379.5t295 140t285.5 -107.5t108.5 -309.5q1 -93 -77 -93zM489 999q-125 0 -194.5 -114.5t-69.5 -311.5h502q0 426 -238 426z" glyph-name="emacron" horiz-adv-x="929" unicode="ē"/><glyph d="M506 1452q-33 0 -56.5 23.5t-23.5 55.5t23.5 56.5t56.5 24.5t56.5 -24.5t23.5 -56.5t-23.5 -55.5t-56.5 -23.5zM51 4v51q84 10 111.5 22.5t27.5 49.5v1032q0 37 -29.5 52.5t-109.5 21.5v39h807q20 0 25.5 -7.5t9.5 -29.5l20 -205h-36l-21 43q-72 150 -217 150h-289 q-12 0 -12 -13v-542h289q70 0 94 32.5t41 108.5h43q-16 -166 0 -328h-43q-12 49 -21.5 74t-38 44t-75.5 19h-289v-555q0 -12 12 -12h283q145 0 207 119l65 129h43q-29 -100 -57 -295h-840z" glyph-name="Edotaccent" horiz-adv-x="1009" unicode="Ė"/><glyph d="M485.5 1206q-32.5 0 -56 23.5t-23.5 55.5t23.5 56.5t56 24.5t56 -24.5t23.5 -56.5t-23.5 -55.5t-56 -23.5zM829 213q18 0 13 -25q-74 -209 -334 -208q-201 0 -324 151.5t-123 391t118 379.5t295 140t285.5 -107.5t108.5 -309.5q0 -92 -77 -93h-566q-2 -246 83 -375.5 t220 -129.5q86 0 145.5 36.5t102.5 122.5q10 27 31 27h22zM727 573q0 426 -238 426q-125 0 -194.5 -114.5t-69.5 -311.5h502z" glyph-name="edotaccent" horiz-adv-x="929" unicode="ė"/><glyph d="M897 -264q-73 -146 -227 -146q-88 0 -145.5 40t-57.5 120t64.5 146.5t156.5 107.5h-637v51q84 10 111.5 22.5t27.5 49.5v1032q0 37 -29.5 52.5t-109.5 21.5v39h807q20 0 25.5 -7.5t9.5 -29.5l20 -205h-36l-21 43q-72 150 -217 150h-289q-12 0 -12 -13v-542h289 q70 0 94 32.5t41 108.5h43q-16 -166 0 -328h-43q-12 49 -21.5 74t-38 44t-75.5 19h-289v-555q0 -12 12 -12h283q145 0 207 119l65 129h43q-29 -100 -57 -295h-166q-135 -98 -135 -223q0 -55 34 -89t95 -34q104 0 145 98z" glyph-name="Eogonek" horiz-adv-x="999" unicode="Ę"/><glyph d="M805 -268q-73 -146 -225 -146q-86 0 -145.5 40t-59.5 117t56 138.5t144 102.5q-41 -4 -67 -4q-201 0 -324 151.5t-123 391t118 379.5t295 140t285.5 -107.5t108.5 -309.5q1 -93 -77 -93h-566q-2 -246 83 -375.5t220 -129.5q86 0 145.5 36.5t102.5 122.5q10 27 31 27h22 q18 0 13 -25q-47 -133 -170 -180h2q-174 -94 -174 -231q0 -55 33.5 -89t95.5 -34q104 0 145 98zM489 999q-125 0 -194.5 -114.5t-69.5 -311.5h502q0 426 -238 426z" glyph-name="eogonek" horiz-adv-x="929" unicode="ę"/><glyph d="M506 1399q-133 182 -281 311h31l250 -184l248 184h30q-149 -131 -278 -311zM51 4v51q84 10 111.5 22.5t27.5 49.5v1032q0 37 -29.5 52.5t-109.5 21.5v39h807q20 0 25.5 -7.5t9.5 -29.5l20 -205h-36l-21 43q-72 150 -217 150h-289q-12 0 -12 -13v-542h289q70 0 94 32.5 t41 108.5h43q-16 -166 0 -328h-43q-12 49 -21.5 74t-38 44t-75.5 19h-289v-555q0 -12 12 -12h283q145 0 207 119l65 129h43q-29 -100 -57 -295h-840z" glyph-name="Ecaron" horiz-adv-x="1009" unicode="Ě"/><glyph d="M485 1153q-133 182 -280 311h31l249 -184l248 184h31q-150 -131 -279 -311zM829 213q18 0 13 -25q-74 -209 -334 -208q-201 0 -324 151.5t-123 391t118 379.5t295 140t285.5 -107.5t108.5 -309.5q0 -92 -77 -93h-566q-2 -246 83 -375.5t220 -129.5q86 0 145.5 36.5 t102.5 122.5q10 27 31 27h22zM727 573q0 426 -238 426q-125 0 -194.5 -114.5t-69.5 -311.5h502z" glyph-name="ecaron" horiz-adv-x="929" unicode="ě"/><glyph d="M1104 422v-141q0 -80 4 -183l41 -4q8 -2 8 -10v-41q-31 6 -78 6t-160.5 -36t-236.5 -36q-285 0 -447.5 194t-162.5 472.5t157.5 470t421.5 191.5q72 0 153 -17.5t144 -17.5h41q51 -203 115 -344h-66q-66 168 -163 248.5t-249 80.5t-264 -103q-60 -56 -95.5 -174 t-35.5 -284q0 -313 126 -490t317 -177q150 0 191.5 27.5t59 49t29 81t11.5 188.5t-11 147q-16 29 -106 37l-47 6v35q262 -8 438 4v-39l-55 -10q-80 -10 -80 -131zM612.5 -301q-20.5 0 -46 23.5t-25.5 66.5t26.5 68.5t71.5 25.5t73.5 -39t28.5 -94q1 -139 -110 -237 q-16 -10 -27 0l-12 20q66 66 65 150q0 14 -4 20q-20 -4 -40.5 -4z" glyph-name="Gcommaaccent" horiz-adv-x="1290" unicode="Ģ"/><glyph d="M493.5 1296q20.5 0 46 -24.5t25.5 -67.5t-25.5 -67.5t-70.5 -24.5t-74.5 38t-29.5 96t29.5 125t82.5 112q14 8 25 -2l14 -19q-68 -68 -67 -151q0 -14 4 -19q20 4 40.5 4zM909 1040q61 0 71.5 -16.5t10.5 -53t-11 -49t-32.5 -9.5t-50.5 8.5t-51.5 5.5t-33.5 -20.5t1 -47.5 q39 -88 39 -174q0 -147 -101.5 -257t-269.5 -110q-37 0 -108.5 14.5t-115.5 14.5t-67.5 -19.5t-23.5 -53t49 -55t158 -40.5l262 -39q164 -25 238.5 -85t74.5 -191t-129 -219t-325.5 -88t-311 78.5t-114.5 226.5t106 147q70 0 70 -63q0 -20 -13.5 -61.5t-13.5 -88.5 q0 -78 79 -138t206 -60q322 0 321 260q0 78 -46 108.5t-161 50.5l-299 47q-139 25 -197.5 68t-58.5 111t61.5 107.5t164.5 27.5q-84 49 -133.5 130t-49.5 177q0 150 94.5 254t281 104t294.5 -141q29 139 135 139zM480 362q114 0 169.5 94.5t55.5 223.5t-56.5 224t-169 95 t-169 -96t-56.5 -224t56 -222.5t170 -94.5z" glyph-name="gcommaaccent" horiz-adv-x="1042" unicode="ģ"/><glyph d="M1071 1157v-1042q0 -37 31 -51.5t112 -24.5v-39q-217 10 -434 0v39q82 10 113 24.5t31 51.5v497h-582v-497q0 -37 30.5 -51.5t112.5 -24.5v-39q-217 10 -434 0v39q82 10 113 24.5t31 51.5v1042q0 37 -31 51.5t-113 24.5v39q217 -10 434 0v-39q-82 -10 -112.5 -24.5 t-30.5 -51.5v-340h582v340q0 37 -31 51.5t-113 24.5v39q217 -10 434 0v-39q-82 -10 -112.5 -24.5t-30.5 -51.5zM342 659h582v111h-582v-111z" glyph-name="Hbar" horiz-adv-x="1284" unicode="Ħ"/><glyph d="M901 115q0 -59 117 -76v-39q-186 10 -375 0v39q117 18 117 76v585q0 283 -158 283q-152 0 -309 -184v-684q0 -57 117 -76v-39q-188 8 -375 0v39q115 14 115 76v948h-109v55h109v41q0 88 -119 76v39q76 10 147.5 41t83.5 31q31 0 31 -39v-189h121v-55h-121v-127l-8 -98 q37 61 131 133.5t223 72.5t195.5 -76.5t66.5 -271.5v-581z" glyph-name="hbar" horiz-adv-x="1058" unicode="ħ"/><glyph d="M-63 1475v36q0 -10 4 -18q-4 -8 -4 -18zM598 1511v-36q0 10 -4 18q4 8 4 18zM557 1509q29 0 37 -16q-8 -16 -37 -16h-580q-29 0 -36 16q8 16 36 16h580zM342 1157v-1042q0 -37 30.5 -51.5t112.5 -24.5v-39q-217 10 -434 0v39q82 10 113 24.5t31 51.5v1042q0 37 -31 51.5 t-113 24.5v39q217 -10 434 0v-39q-82 -10 -112.5 -24.5t-30.5 -51.5z" glyph-name="Imacron" horiz-adv-x="536" unicode="Ī"/><glyph d="M-102 1229v37q0 -10 4 -19q-4 -8 -4 -18zM559 1266v-37q0 10 -4 18q4 9 4 19zM518 1264q29 0 37 -17q-8 -16 -37 -16h-579q-29 0 -37 16q8 16 37 17h579zM303 115q0 -59 117 -76v-39q-188 8 -377 0v39q117 14 117 76v755q0 47 -28 65.5t-91 16.5v39q77 8 146 30.5 t79 22.5q49 0 49 -38q0 -10 -6 -88t-6 -150v-653z" glyph-name="imacron" horiz-adv-x="460" unicode="ī"/><glyph d="M479 -258q-72 -145 -226 -145q-87 0 -145.5 39.5t-58.5 123.5q0 139 209 244q-72 0 -207 -4v39q82 10 113 24.5t31 51.5v1042q0 37 -31 51.5t-113 24.5v39q217 -10 434 0v-39q-82 -10 -112.5 -24.5t-30.5 -51.5v-1042q0 -37 30.5 -51.5t112.5 -24.5v-39q-119 4 -186 4 q-127 -94 -127 -217q0 -57 35 -91t96 -34q106 0 143 100z" glyph-name="Iogonek" horiz-adv-x="536" unicode="Į"/><glyph d="M231.5 1206q-32.5 0 -56 23.5t-23.5 55.5t23.5 56.5t56 24.5t56 -24.5t23.5 -56.5t-23.5 -55.5t-56 -23.5zM33 -247q0 79 61.5 143.5t149.5 107.5q-133 0 -201 -4v39q117 14 117 76v755q0 47 -28 65.5t-91 16.5v39q77 8 146 30.5t79 22.5q49 0 49 -38q0 -10 -6 -88 t-6 -150v-653q0 -59 117 -76v-39q-90 4 -133 4q-131 -94 -131 -219q0 -55 33.5 -89t95.5 -34q104 0 145 98l33 -20q-76 -145 -242 -146q-72 0 -130 40t-58 119z" glyph-name="iogonek" horiz-adv-x="456" unicode="į"/><glyph d="M303 115q0 -59 117 -76v-39q-188 8 -377 0v39q117 14 117 76v755q0 47 -28 65.5t-91 16.5v39q77 8 146 30.5t79 22.5q49 0 49 -38q0 -10 -6 -88t-6 -150v-653z" glyph-name="dotlessi" horiz-adv-x="460" unicode="ı"/><glyph d="M342 115q0 -37 30.5 -51.5t112.5 -24.5v-39q-217 10 -434 0v39q82 10 113 24.5t31 51.5v1042q0 37 -31 51.5t-113 24.5v39q217 -10 434 0v-39q-82 -10 -112.5 -24.5t-30.5 -51.5v-1042zM893 1157v-989q0 -291 -100.5 -407.5t-296.5 -116.5v41q119 0 185.5 102t66.5 211 v1159q0 37 -31 51.5t-115 24.5v39q219 -10 434 0v-39q-82 -10 -112.5 -24.5t-30.5 -51.5z" glyph-name="IJ" horiz-adv-x="1089" unicode="Ĳ"/><glyph d="M218 1249q-32 0 -55.5 23.5t-23.5 55.5t23.5 55.5t55.5 23.5t57.5 -23.5t25.5 -55.5t-25.5 -55.5t-57.5 -23.5zM731 1249q-31 0 -55.5 23.5t-24.5 55.5t24.5 55.5t55.5 23.5t56.5 -23.5t25.5 -54.5t-25.5 -55.5t-56.5 -24.5zM303 115q0 -59 117 -76v-39q-188 8 -377 0v39 q117 14 117 76v755q0 47 -28 65.5t-91 16.5v39q77 8 146 30.5t79 22.5q49 0 49 -38q0 -10 -6 -88t-6 -150v-653zM784 1044q47 0 47 -38q0 -10 -6 -88t-6 -150v-682q0 -291 -95 -407.5t-282 -116.5l-6 41q113 2 177.5 96t64.5 215v956q0 47 -28.5 65.5t-92.5 16.5v39 q79 8 148 30.5t79 22.5z" glyph-name="ij" horiz-adv-x="952" unicode="ĳ"/><glyph d="M332 115q0 -37 30.5 -51.5t112.5 -24.5v-39q-217 10 -434 0v39q82 10 112.5 24.5t30.5 51.5v1042q0 37 -30.5 51.5t-112.5 24.5v39q217 -10 434 0v-39q-82 -10 -112.5 -24.5t-30.5 -51.5v-579l497 583q47 55 -47 66q-23 4 -75 6v39q188 -10 376 0v-39q-99 0 -131.5 -17 t-48.5 -36l-422 -496l377 -485q66 -86 143.5 -134.5t122.5 -50.5l-49 -39q-137 0 -220 38t-159 143l-311 417l-53 -63v-395zM602 -117q45 0 74 -39t29 -94q0 -139 -111 -237q-16 -10 -27 0l-12 20q66 66 66 150q0 14 -5 20q-20 -4 -40.5 -4t-46 23.5t-25.5 66.5t26.5 68.5 t71.5 25.5z" glyph-name="Kcommaaccent" horiz-adv-x="1175" unicode="Ķ"/><glyph d="M303 115q0 -57 117 -76v-39q-152 8 -377 0v39q117 14 117 76v1044q0 88 -119 76v39q76 10 146.5 41t82.5 31q33 0 33 -39v-752q233 199 373 375q37 49 -51 59v37q141 -10 284 0v-37q-84 -10 -111.5 -27t-58.5 -49l-331 -331l327 -414q49 -63 116 -106.5t110 -47.5 l-50 -39q-211 0 -346 170l-262 340v-370zM508 -117q45 0 73.5 -39t28.5 -94q0 -139 -110 -237q-16 -10 -27 0l-12 20q66 66 65 150q0 14 -4 20q-20 -4 -40.5 -4t-46 23.5t-25.5 66.5t26.5 68.5t71.5 25.5z" glyph-name="kcommaaccent" horiz-adv-x="980" unicode="ķ"/><glyph d="M340 1417l293 221q29 23 62.5 20t43.5 -30q14 -27 5 -51.5t-33 -36.5l-361 -145zM184 123v1034q0 37 -30.5 51.5t-112.5 24.5v39q217 -10 434 0v-39q-82 -10 -112.5 -24.5t-30.5 -51.5v-1096q0 -12 12 -12h293q150 0 207 117l65 129h45q-33 -104 -59 -295q-426 8 -850 0 v51q84 10 111.5 22.5t27.5 49.5z" glyph-name="Lacute" horiz-adv-x="995" unicode="Ĺ"/><glyph d="M10 1417l293 221q29 23 63 20t46 -30t3 -51.5t-34 -36.5l-361 -145zM283 133q0 -94 116 -76v-37q-186 -43 -227 -43q-33 0 -33 37v1145q0 88 -119 76v39q76 10 147 41t83 31q33 0 33 -39v-1174z" glyph-name="lacute" horiz-adv-x="440" unicode="ĺ"/><glyph d="M184 123v1034q0 37 -30.5 51.5t-112.5 24.5v39q217 -10 434 0v-39q-82 -10 -112.5 -24.5t-30.5 -51.5v-1096q0 -12 12 -12h293q150 0 207 117l65 129h45q-33 -104 -59 -295q-426 8 -850 0v51q84 10 111.5 22.5t27.5 49.5zM518 -301q-21 0 -46.5 23.5t-25.5 66.5t27 68.5 t72 25.5t73.5 -39t28.5 -94q1 -139 -110 -237q-16 -10 -27 0l-12 20q66 66 65 150q0 14 -4 20q-20 -4 -41 -4z" glyph-name="Lcommaaccent" horiz-adv-x="995" unicode="Ļ"/><glyph d="M283 133q0 -94 116 -76v-37q-186 -43 -227 -43q-33 0 -33 37v1145q0 88 -119 76v39q76 10 147 41t83 31q33 0 33 -39v-1174zM186.5 -301q-20.5 0 -46 23.5t-25.5 66.5t26.5 68.5t71.5 25.5t73.5 -39t28.5 -94q1 -139 -110 -237q-16 -10 -27 0l-12 20q66 66 65 150 q0 14 -4 20q-20 -4 -40.5 -4z" glyph-name="lcommaaccent" horiz-adv-x="440" unicode="ļ"/><glyph d="M184 123v1034q0 37 -30.5 51.5t-112.5 24.5v39q217 -10 434 0v-39q-82 -10 -112.5 -24.5t-30.5 -51.5v-1096q0 -12 12 -12h293q150 0 207 117l65 129h45q-33 -104 -59 -295q-426 8 -850 0v51q84 10 111.5 22.5t27.5 49.5zM754 1067q0 14 -4 18q-20 -4 -41 -4t-46.5 24.5 t-25.5 66.5t26.5 68t71.5 26t74 -39t29 -97t-30 -124t-83 -111q-14 -8 -25 2l-12 18q66 70 66 152z" glyph-name="Lcaron" horiz-adv-x="1093" unicode="Ľ"/><glyph d="M283 133q0 -94 116 -76v-37q-186 -43 -227 -43q-33 0 -33 37v1145q0 88 -119 76v39q76 10 147 41t83 31q33 0 33 -39v-1174zM518 1149q-21 0 -46.5 24.5t-25.5 67.5t26 67.5t71 24.5t74.5 -38t29.5 -96t-29.5 -124.5t-82.5 -111.5q-14 -8 -25 2l-14 18q68 68 67 152 q0 14 -4 18q-20 -4 -41 -4z" glyph-name="lcaron" horiz-adv-x="495" unicode="ľ"/><glyph d="M184 123v1034q0 37 -30.5 51.5t-112.5 24.5v39q217 -10 434 0v-39q-82 -10 -112.5 -24.5t-30.5 -51.5v-1096q0 -12 12 -12h293q150 0 207 117l65 129h45q-33 -104 -59 -295q-426 8 -850 0v51q84 10 111.5 22.5t27.5 49.5zM644 709q-40 0 -68.5 29.5t-28.5 68.5t28.5 68.5 t68.5 29.5t68.5 -28.5t28.5 -69.5t-28.5 -69.5t-68.5 -28.5z" glyph-name="Ldot" horiz-adv-x="995" unicode="Ŀ"/><glyph d="M283 133q0 -94 116 -76v-37q-186 -43 -227 -43q-33 0 -33 37v1145q0 88 -119 76v39q76 10 147 41t83 31q33 0 33 -39v-1174zM522 705q-39 0 -67.5 29.5t-28.5 68.5t28.5 68.5t67.5 29.5t69 -28.5t30 -69.5t-30 -69.5t-69 -28.5z" glyph-name="ldot" horiz-adv-x="665" unicode="ŀ"/><glyph d="M184 123v418l-153 -45v51l153 45v565q0 37 -30.5 51.5t-112.5 24.5v39q217 -10 434 0v-39q-82 -10 -112.5 -24.5t-30.5 -51.5v-522l219 63v-51l-219 -63v-523q0 -12 12 -12h293q150 0 207 117l65 129h45q-33 -104 -59 -295q-426 8 -850 0v51q84 10 111.5 22.5t27.5 49.5z " glyph-name="Lslash" horiz-adv-x="995" unicode="Ł"/><glyph d="M371 133q0 -94 116 -76v-37q-182 -43 -220 -43t-38 37v559l-209 -61v51l209 62v534q0 88 -118 76v39q78 10 147.5 41t79.5 31q33 0 33 -39v-639l194 57v-51l-194 -58v-483z" glyph-name="lslash" horiz-adv-x="585" unicode="ł"/><glyph d="M408 1417l292 221q29 23 63 20t44 -30q14 -27 5 -51.5t-34 -36.5l-360 -145zM1020 1157v-1157h-37l-721 1135v-1020q0 -37 34 -50.5t134 -25.5v-39q-195 8 -399 0v39q109 10 142.5 24.5t33.5 51.5v1038q0 41 -32 55.5t-120 24.5v39q150 -8 301 0l609 -967v852 q0 37 -33 51.5t-137 24.5v39q197 -10 399 0v-39q-104 -12 -139 -25.5t-35 -50.5z" glyph-name="Nacute" horiz-adv-x="1224" unicode="Ń"/><glyph d="M319 1171l293 222q29 23 63 19.5t44 -30.5q14 -27 5 -51t-34 -37l-360 -145zM901 115q0 -59 117 -76v-39q-186 10 -375 0v39q117 18 117 76v585q0 283 -158 283q-170 0 -309 -184v-684q0 -57 117 -76v-39q-188 8 -375 0v39q115 14 115 76v743q0 88 -119 76v39 q78 10 147.5 40.5t79.5 30.5q39 0 35 -34l-19 -181q63 98 189 169q82 46 166 46q139 0 205.5 -75.5t66.5 -272.5v-581z" glyph-name="nacute" horiz-adv-x="1048" unicode="ń"/><glyph d="M1020 1157v-1157h-37l-721 1135v-1020q0 -37 34 -50.5t134 -25.5v-39q-195 8 -399 0v39q109 10 142.5 24.5t33.5 51.5v1038q0 41 -32 55.5t-120 24.5v39q150 -8 301 0l609 -967v852q0 37 -33 51.5t-137 24.5v39q197 -10 399 0v-39q-104 -12 -139 -25.5t-35 -50.5z M629 -317q0 14 -4 20q-20 -4 -41 -4t-46.5 23.5t-25.5 66.5t26.5 68.5t71.5 25.5t74 -39t29 -94q0 -139 -111 -237q-16 -10 -27 0l-12 20q66 66 66 150z" glyph-name="Ncommaaccent" horiz-adv-x="1224" unicode="Ņ"/><glyph d="M901 115q0 -59 117 -76v-39q-186 10 -375 0v39q117 18 117 76v585q0 283 -158 283q-170 0 -309 -184v-684q0 -57 117 -76v-39q-188 8 -375 0v39q115 14 115 76v743q0 88 -119 76v39q78 10 147.5 40.5t79.5 30.5q39 0 35 -34l-19 -181q63 98 189 169q82 46 166 46 q139 0 205.5 -75.5t66.5 -272.5v-581zM541 -317q0 14 -4 20q-20 -4 -41 -4t-46.5 23.5t-25.5 66.5t26.5 68.5t71.5 25.5t74 -39t29 -94q0 -139 -111 -237q-16 -10 -27 0l-12 20q66 66 66 150z" glyph-name="ncommaaccent" horiz-adv-x="1048" unicode="ņ"/><glyph d="M614 1399q-133 182 -280 311h31l249 -184l248 184h31q-150 -131 -279 -311zM1020 1157v-1157h-37l-721 1135v-1020q0 -37 34 -50.5t134 -25.5v-39q-195 8 -399 0v39q109 10 142.5 24.5t33.5 51.5v1038q0 41 -32 55.5t-120 24.5v39q150 -8 301 0l609 -967v852 q0 37 -33 51.5t-137 24.5v39q197 -10 399 0v-39q-104 -12 -139 -25.5t-35 -50.5z" glyph-name="Ncaron" horiz-adv-x="1224" unicode="Ň"/><glyph d="M526 1153q-133 182 -280 311h30l250 -184l248 184h31q-150 -131 -279 -311zM901 115q0 -59 117 -76v-39q-186 10 -375 0v39q117 18 117 76v585q0 283 -158 283q-170 0 -309 -184v-684q0 -57 117 -76v-39q-188 8 -375 0v39q115 14 115 76v743q0 88 -119 76v39 q78 10 147.5 40.5t79.5 30.5q39 0 35 -34l-19 -181q63 98 189 169q82 46 166 46q139 0 205.5 -75.5t66.5 -272.5v-581z" glyph-name="ncaron" horiz-adv-x="1048" unicode="ň"/><glyph d="M1020 1157v-1157q0 -205 -100.5 -280.5t-296.5 -75.5v41q121 0 186 94t65 207v186l-612 963v-1020q0 -37 34 -50.5t134 -25.5v-39q-195 8 -399 0v39q109 10 142.5 24.5t33.5 51.5v1038q0 41 -32 55.5t-120 24.5v39q150 -8 301 0l609 -967v852q0 37 -33 51.5t-137 24.5v39 q197 -10 399 0v-39q-104 -12 -139 -25.5t-35 -50.5z" glyph-name="Eng" horiz-adv-x="1224" unicode="Ŋ"/><glyph d="M629 1044q139 0 205.5 -75.5t66.5 -272.5v-610q0 -291 -95 -407.5t-282 -116.5l-6 41q113 2 177.5 96t64.5 215v786q0 283 -158 283q-170 0 -309 -184v-684q0 -57 117 -76v-39q-188 8 -375 0v39q115 14 115 76v743q0 88 -119 76v39q78 10 147.5 40.5t79.5 30.5 q39 0 35 -34l-19 -181q63 98 167 156.5t188 58.5z" glyph-name="eng" horiz-adv-x="1024" unicode="ŋ"/><glyph d="M287 1511q0 -10 4 -18q-4 -8 -4 -18v36zM948 1511v-36q0 10 -4 18q4 8 4 18zM328 1477q-29 0 -37 16q8 16 37 16h579q29 0 37 -16q-8 -16 -37 -16h-579zM618.5 1305q247.5 0 397 -186.5t149.5 -474.5t-144 -477.5t-390 -189.5t-402.5 192.5t-156.5 476.5t149.5 471.5 t397 187.5zM655 23q136 0 246 132q111 132 111 434t-121 486.5t-305 184.5q-143 0 -249 -130.5t-106 -426.5t122 -488t302 -192z" glyph-name="Omacron" horiz-adv-x="1236" unicode="Ō"/><glyph d="M170 1266q0 -10 4 -19q-4 -8 -4 -18v37zM831 1266v-37q0 10 -4 18q4 9 4 19zM211 1231q-29 0 -37 16q8 16 37 17h580q29 0 36 -17q-8 -16 -36 -16h-580zM499 1042q183 0 312 -144t129 -382t-127 -387t-310 -149t-312.5 146t-129.5 384t127.5 385t310.5 147zM532 27 q244 0 244 458q0 225 -85 369.5t-226 144.5q-244 0 -244 -452q0 -229 85 -374.5t226 -145.5z" glyph-name="omacron" horiz-adv-x="1001" unicode="ō"/><glyph d="M332 1417l266 221q27 23 57.5 20t38.5 -30q27 -57 -24 -88l-328 -145zM647 1417l266 221q27 23 57.5 20t39.5 -30q27 -57 -25 -88l-328 -145zM1165 644q0 -288 -144 -477.5t-390 -189.5t-402.5 192.5t-156.5 476.5t149.5 471.5t397 187.5t397 -186.5t149.5 -474.5z M655 23q136 0 246.5 132t110.5 434t-121 486.5t-305 184.5q-143 0 -249 -130.5t-106 -426.5t122 -488t302 -192z" glyph-name="Ohungarumlaut" horiz-adv-x="1236" unicode="Ő"/><glyph d="M215 1171l266 222q27 23 57.5 19.5t39.5 -30.5q27 -57 -25 -88l-328 -145zM530 1171l267 222q27 23 57.5 19.5t38.5 -30.5q27 -57 -25 -88l-327 -145zM499 1042q183 0 312 -144t129 -382t-127 -387t-310 -149t-312.5 146t-129.5 384t127.5 385t310.5 147zM776 485 q0 225 -85 369.5t-226 144.5q-244 0 -244 -452q0 -229 85 -374.5t226 -145.5q244 -1 244 458z" glyph-name="ohungarumlaut" horiz-adv-x="1001" unicode="ő"/><glyph d="M666 -23q-260 0 -427 188.5t-167 471.5t159.5 475.5t423.5 192.5q61 0 134 -15.5t83 -17.5h113l4 4q2 -2 2 -4h686q20 0 25.5 -7.5t9.5 -29.5l23 -205h-39l-21 43q-72 150 -217 150h-289q-12 0 -12 -13v-542h291q49 0 76.5 21.5t36 44t20.5 75.5h43q-16 -166 0 -328h-43 q-15 68 -32 94q-29 43 -101 43h-291v-555q0 -12 12 -12h283q150 0 207 119l65 129h45q-31 -100 -59 -295h-704l-2 -2v-2l-5 4h-120q-154 -27 -213 -27zM231 692q0 -315 127 -490t319 -175t335 219v745q-55 123 -156.5 193.5t-242.5 70.5t-249 -102q-60 -57 -96.5 -175 t-36.5 -286z" glyph-name="OE" horiz-adv-x="1830" unicode="Œ"/><glyph d="M1505 532h-565q-2 -246 83 -375.5t218 -129.5q170 0 248 159q14 27 33 27h20q20 0 14 -25q-74 -209 -324.5 -208.5t-375.5 213.5q-59 -100 -152.5 -156.5t-197.5 -56.5q-186 0 -315.5 146t-129.5 384t127 385t308 147q227 0 356 -198q115 199 350 198q162 0 270.5 -107.5 t108.5 -309.5q0 -93 -76 -93zM1202 999q-123 0 -192.5 -114.5t-69.5 -311.5h500q0 426 -238 426zM776 485v41q-8 209 -93 341t-218 132q-244 0 -244 -452q0 -229 85 -374.5t226 -145.5q244 -1 244 458z" glyph-name="oe" horiz-adv-x="1642" unicode="œ"/><glyph d="M768 1540l-360 -145l-11 22l293 221q29 23 62.5 20t46 -30t3.5 -51.5t-34 -36.5zM997 940q0 -119 -103 -215t-337 -145l207 -299q78 -109 170 -181.5t145 -76.5l-28 -39q-125 0 -217.5 64.5t-200.5 203.5l-225 303q-10 0 -17 -2l-53 -8v-432q0 -37 29.5 -52.5 t109.5 -21.5v-39q-213 10 -426 0v39q80 6 109.5 21.5t29.5 52.5v991q0 55 -29.5 88t-109.5 41v39q74 -4 160 -4l317 4q469 0 469 -332zM836 938q0 127 -78 205t-232 78t-188 -2v-629l65 10q248 45 340.5 128t92.5 210z" glyph-name="Racute" horiz-adv-x="1110" unicode="Ŕ"/><glyph d="M176 1171l293 222q29 23 62.5 19.5t43.5 -30.5q14 -27 5 -51t-33 -37l-361 -145zM558 1047q94 0 136.5 -28t42.5 -69q0 -86 -73 -86q-57 0 -81.5 53.5t-92.5 53.5q-68 -1 -136 -85q-25 -32 -44 -68t-21 -38v-665q0 -59 112 -76v-39q-184 14 -372 0v39q121 14 121 76v741 q0 88 -119 76v39q78 10 145.5 41.5t77.5 31.5q39 0 35 -34l-31 -193q129 230 300 230z" glyph-name="racute" horiz-adv-x="768" unicode="ŕ"/><glyph d="M997 940q0 -119 -103 -215t-337 -145l207 -299q78 -109 170 -181.5t145 -76.5l-28 -39q-125 0 -217.5 64.5t-200.5 203.5l-225 303q-10 0 -17 -2l-53 -8v-432q0 -37 29.5 -52.5t109.5 -21.5v-39q-213 10 -426 0v39q80 6 109.5 21.5t29.5 52.5v991q0 55 -29.5 88 t-109.5 41v39q74 -4 160 -4l317 4q469 0 469 -332zM836 938q0 127 -78 205t-232 78t-188 -2v-629l65 10q248 45 340.5 128t92.5 210zM600 -117q45 0 73.5 -39t28.5 -94q0 -139 -110 -237q-16 -10 -27 0l-12 20q66 66 65 150q0 14 -4 20q-20 -4 -40.5 -4t-46 23.5t-25.5 66.5 t26.5 68.5t71.5 25.5z" glyph-name="Rcommaaccent" horiz-adv-x="1110" unicode="Ŗ"/><glyph d="M558 1047q94 0 136.5 -28t42.5 -69q0 -86 -73 -86q-57 0 -81.5 53.5t-92.5 53.5q-68 -1 -136 -85q-25 -32 -44 -68t-21 -38v-665q0 -59 112 -76v-39q-184 14 -372 0v39q121 14 121 76v741q0 88 -119 76v39q78 10 145.5 41.5t77.5 31.5q39 0 35 -34l-31 -193 q129 230 300 230zM184.5 -301q-20.5 0 -46 23.5t-25.5 66.5t26.5 68.5t71.5 25.5t73.5 -39t28.5 -94q1 -139 -110 -237q-16 -10 -27 0l-12 20q66 66 65 150q0 14 -4 20q-20 -4 -40.5 -4z" glyph-name="rcommaaccent" horiz-adv-x="768" unicode="ŗ"/><glyph d="M604 1399q-133 182 -280 311h30l250 -184l248 184h31q-150 -131 -279 -311zM997 940q0 -119 -103 -215t-337 -145l207 -299q78 -109 170 -181.5t145 -76.5l-28 -39q-125 0 -217.5 64.5t-200.5 203.5l-225 303q-10 0 -17 -2l-53 -8v-432q0 -37 29.5 -52.5t109.5 -21.5v-39 q-213 10 -426 0v39q80 6 109.5 21.5t29.5 52.5v991q0 55 -29.5 88t-109.5 41v39q74 -4 160 -4l317 4q469 0 469 -332zM836 938q0 127 -78 205t-232 78t-188 -2v-629l65 10q248 45 340.5 128t92.5 210z" glyph-name="Rcaron" horiz-adv-x="1110" unicode="Ř"/><glyph d="M383 1153q-133 182 -281 311h31l250 -184l248 184h31q-150 -131 -279 -311zM558 1047q94 0 136.5 -28t42.5 -69q0 -86 -73 -86q-57 0 -81.5 53.5t-92.5 53.5q-68 -1 -136 -85q-25 -32 -44 -68t-21 -38v-665q0 -59 112 -76v-39q-184 14 -372 0v39q121 14 121 76v741 q0 88 -119 76v39q78 10 145.5 41.5t77.5 31.5q39 0 35 -34l-31 -193q129 230 300 230z" glyph-name="rcaron" horiz-adv-x="768" unicode="ř"/><glyph d="M244 1417l293 221q29 23 62.5 20t43.5 -30q14 -27 5 -51.5t-34 -36.5l-360 -145zM59 977q0 137 98.5 232.5t276.5 95.5q94 0 168 -22.5t84 -22.5q35 0 45 28h39l12 -256l-24 2q-20 2 -31 25q-35 82 -122 140t-189.5 58t-167 -66.5t-64.5 -165.5t61.5 -158.5t203.5 -121.5 q73 -25 169 -77q98 -52 116 -67q86 -69 106 -109q42 -82 41 -152q0 -158 -115 -261.5t-262 -103.5q-106 0 -215 38t-121 38q-41 0 -55 -47h-45l-17 272h41q10 0 25 -26q37 -96 133 -160.5t224 -64.5t195.5 70.5t67.5 195.5t-142 209q-66 38 -205.5 98t-235 151t-95.5 228z " glyph-name="Sacute" horiz-adv-x="931" unicode="Ś"/><glyph d="M166 1171l293 222q29 23 62.5 19.5t43.5 -30.5q14 -27 5 -51t-33 -37l-361 -145zM727 270q0 -121 -91 -204.5t-200 -83.5q-70 0 -149.5 32.5t-119.5 32.5t-52 -45h-37l-23 266h13q45 0 47 -22q16 -84 120.5 -151.5t186.5 -67.5t128 48t46 128t-56.5 130t-137 93t-91.5 49 q-125 68 -187.5 143.5t-62.5 175t77 174t198 74.5q68 0 135.5 -28.5t96 -28.5t42.5 41h39l19 -246h-19q-20 0 -33 23q-45 82 -123.5 141.5t-153.5 59.5t-116 -49.5t-41 -121t46 -118.5t106.5 -80t102.5 -55.5t58.5 -31.5t55.5 -32.5t57 -39.5q69 -58 94 -105t25 -101z" glyph-name="sacute" horiz-adv-x="778" unicode="ś"/><glyph d="M472 -410q-187 0 -187 92q0 48 47 48q31 0 44 -18.5t15 -39t19.5 -39t58.5 -18.5t64.5 33t23.5 76q0 104 -158 141q-25 6 -24 22q0 6 14 30t33 63q-72 10 -154 40.5t-100 30.5q-41 0 -55 -47h-45l-17 272h41q10 0 25 -26q37 -96 133 -160.5t224 -64.5t195.5 70.5 t67.5 195.5t-142 209q-66 38 -205.5 98t-235 151t-95.5 228t98.5 232.5t276.5 95.5q94 0 168 -22.5t84 -22.5q35 0 45 28h39l12 -256l-24 2q-20 2 -31 25q-35 82 -122 140t-189.5 58t-167 -66.5t-64.5 -165.5t61.5 -158.5t203.5 -121.5q73 -25 169 -77q98 -52 116 -67 q86 -69 106 -109q42 -82 41 -152q0 -158 -115 -261.5t-262 -103.5q-29 0 -43 2l-19 -43q215 -55 215 -186q0 -74 -51 -116t-134 -42z" glyph-name="Scedilla" horiz-adv-x="931" unicode="Ş"/><glyph d="M297 -113l51 105q-25 6 -83 30.5t-98 24.5t-52 -45h-37l-23 266h13q45 0 47 -22q16 -84 120.5 -151.5t186.5 -67.5t128 48t46 128t-56.5 130t-137 93t-91.5 49q-125 68 -187.5 143.5t-62.5 175t77 174t198 74.5q68 0 135.5 -28.5t96 -28.5t42.5 41h39l19 -246h-19 q-20 0 -33 23q-45 82 -123.5 141.5t-153.5 59.5t-116 -49.5t-41 -121t46 -118.5t106.5 -80t102.5 -55.5t58.5 -31.5t55.5 -32.5t57 -39.5q69 -58 94 -105t25 -101q0 -121 -91 -204.5t-200 -83.5q-35 0 -49 2l-22 -50q215 -55 215 -186q0 -74 -51.5 -116t-134.5 -42 q-187 0 -187 92q0 48 47 48q31 0 44 -18.5t15 -39t19.5 -39t58.5 -18.5t64.5 33t23.5 76q0 104 -157 141q-25 6 -25 22z" glyph-name="scedilla" horiz-adv-x="778" unicode="ş"/><glyph d="M451 1399q-133 182 -281 311h31l250 -184l247 184h31q-149 -131 -278 -311zM59 977q0 137 98.5 232.5t276.5 95.5q94 0 168 -22.5t84 -22.5q35 0 45 28h39l12 -256l-24 2q-20 2 -31 25q-35 82 -122 140t-189.5 58t-167 -66.5t-64.5 -165.5t61.5 -158.5t203.5 -121.5 q73 -25 169 -77q98 -52 116 -67q86 -69 106 -109q42 -82 41 -152q0 -158 -115 -261.5t-262 -103.5q-106 0 -215 38t-121 38q-41 0 -55 -47h-45l-17 272h41q10 0 25 -26q37 -96 133 -160.5t224 -64.5t195.5 70.5t67.5 195.5t-142 209q-66 38 -205.5 98t-235 151t-95.5 228z " glyph-name="Scaron" horiz-adv-x="931" unicode="Š"/><glyph d="M373 1153q-133 182 -281 311h31l250 -184l248 184h30q-149 -131 -278 -311zM727 270q0 -121 -91 -204.5t-200 -83.5q-70 0 -149.5 32.5t-119.5 32.5t-52 -45h-37l-23 266h13q45 0 47 -22q16 -84 120.5 -151.5t186.5 -67.5t128 48t46 128t-56.5 130t-137 93t-91.5 49 q-125 68 -187.5 143.5t-62.5 175t77 174t198 74.5q68 0 135.5 -28.5t96 -28.5t42.5 41h39l19 -246h-19q-20 0 -33 23q-45 82 -123.5 141.5t-153.5 59.5t-116 -49.5t-41 -121t46 -118.5t106.5 -80t102.5 -55.5t58.5 -31.5t55.5 -32.5t57 -39.5q69 -58 94 -105t25 -101z" glyph-name="scaron" horiz-adv-x="778" unicode="š"/><glyph d="M791 1227h-203v-1112q0 -37 30.5 -51.5t112.5 -24.5v-39q-217 10 -434 0v39q82 10 112.5 24.5t30.5 51.5v1112h-176q-66 0 -97.5 -36t-98.5 -173h-37l75 276h23q68 -23 152 -22h522q85 -1 153 22h23l-68 -276h-41q10 117 -3 163t-76 46zM529 -410q-187 0 -187 92 q0 48 47 48q31 0 44 -18.5t15.5 -39t19.5 -39t58 -18.5t64.5 33t23.5 76q0 104 -157 141q-25 6 -25 22q0 6 18.5 38.5t36.5 74.5h41l-28 -66q215 -55 215 -186q0 -74 -51.5 -116t-134.5 -42z" glyph-name="Tcommaaccent" horiz-adv-x="1009" unicode="Ţ"/><glyph d="M318 -410q-187 0 -187 92q0 48 47 48q31 0 44.5 -18.5t15.5 -39t19 -39t58 -18.5t64.5 33t23.5 76q0 104 -157 141q-25 6 -25 22q0 6 18.5 38.5t36.5 74.5h25q-158 25 -158 227v750h-98q-14 0 -14 12v25q0 12 14 12q84 0 127 63.5t66 215.5h47v-279h235q14 0 15 -12v-25 q0 -12 -15 -12h-235v-789q0 -133 110 -133q86 0 133 80v-61q-23 -29 -71.5 -53.5t-88 -24.5t-51.5 2l-28 -64q215 -55 215 -186q0 -74 -51.5 -116t-134.5 -42z" glyph-name="tcommaaccent" horiz-adv-x="585" unicode="ţ"/><glyph d="M508 1399q-133 182 -281 311h31l250 -184l248 184h30q-149 -131 -278 -311zM791 1227h-203v-1112q0 -37 30.5 -51.5t112.5 -24.5v-39q-217 10 -434 0v39q82 10 112.5 24.5t30.5 51.5v1112h-176q-66 0 -97.5 -36t-98.5 -173h-37l75 276h23q68 -23 152 -22h522 q85 -1 153 22h23l-68 -276h-41q10 117 -3 163t-76 46z" glyph-name="Tcaron" horiz-adv-x="1009" unicode="Ť"/><glyph d="M705 1108q0 14 -5 18q-20 -4 -40.5 -4t-46 24.5t-25.5 66.5t26.5 68t71.5 26t73.5 -39t28.5 -97t-29.5 -124t-82.5 -111q-14 -8 -25 2l-12 18q66 70 66 152zM354 -4q-211 0 -211 231v750h-98q-14 0 -14 12v25q0 12 14 12q84 0 127 63.5t66 215.5h47v-279h235q14 0 15 -12 v-25q0 -12 -15 -12h-235v-789q0 -133 110 -133q86 0 133 80v-61q-23 -29 -71.5 -53.5t-102.5 -24.5z" glyph-name="tcaron" horiz-adv-x="743" unicode="ť"/><glyph d="M791 1227h-203v-565h237q14 0 15 -15v-18q0 -14 -15 -15h-237v-499q0 -37 30.5 -51.5t112.5 -24.5v-39q-217 10 -434 0v39q82 10 112.5 24.5t30.5 51.5v499h-245q-16 0 -17 15v18q0 14 17 15h245v565h-176q-66 0 -97.5 -36t-98.5 -173h-37l75 276h23q68 -23 152 -22h522 q85 -1 153 22h23l-68 -276h-41q10 117 -3 163t-76 46z" glyph-name="Tbar" horiz-adv-x="1019" unicode="Ŧ"/><glyph d="M520 977h-235v-248h227q20 0 20 -16v-21q0 -14 -20 -14h-227v-490q0 -133 110 -133q86 0 133 80v-61q-23 -29 -71.5 -53.5t-102.5 -24.5q-211 0 -211 231v451h-96q-16 0 -16 14v21q0 12 3 14t13 2h96v248h-98q-14 0 -14 12v25q0 12 14 12q84 0 127 63.5t66 215.5h47v-279 h235q14 0 15 -12v-25q-1 -12 -15 -12z" glyph-name="tbar" horiz-adv-x="591" unicode="ŧ"/><glyph d="M326 1511q0 -10 4 -18q-4 -8 -4 -18v36zM987 1511v-36q0 10 -4 18q4 8 4 18zM367 1477q-29 0 -37 16q8 16 37 16h579q29 0 37 -16q-8 -16 -37 -16h-579zM1143 1157v-1042q0 -37 30.5 -51.5t112.5 -24.5v-39q-211 8 -325 0v39q35 29 34 76v112q-51 -100 -158.5 -173.5 t-272.5 -73.5t-277.5 113.5t-112.5 293.5v770q0 37 -30.5 51.5t-112.5 24.5v39q219 -10 440 0v-39q-82 -10 -112.5 -24.5t-30.5 -51.5v-776q0 -154 78.5 -247t210 -93t232.5 81t146 179v856q0 37 -30.5 51.5t-112.5 24.5v39q217 -10 434 0v-39q-82 -10 -112.5 -24.5 t-30.5 -51.5z" glyph-name="Umacron" horiz-adv-x="1316" unicode="Ū"/><glyph d="M199 1266q0 -10 4 -19q-4 -8 -4 -18v37zM860 1266v-37q0 10 -4 18q4 9 4 19zM240 1231q-29 0 -37 16q8 16 37 17h579q29 0 37 -17q-8 -16 -37 -16h-579zM901 162q0 -49 27.5 -64.5t89.5 -9.5v-41q-74 -16 -138.5 -43t-93.5 -27t-24 37l16 215q-2 -2 -19.5 -26.5 t-26.5 -36.5t-32.5 -40t-41.5 -44q-70 -60 -118.5 -82.5t-105.5 -22.5q-139 0 -211.5 80t-72.5 277v559q0 45 -13.5 62.5t-44.5 15.5l-61 -2v45l219 20q41 4 41 -33v-682q0 -272 172 -272q164 0 295 225v621q0 45 -11.5 62.5t-41.5 15.5l-66 -2v45l219 20q27 2 35 -5t8 -28 v-839z" glyph-name="umacron" horiz-adv-x="1058" unicode="ū"/><glyph d="M531 1169q-110 0 -181 74t-78 162h39q6 -51 67.5 -99.5t152 -48.5t152.5 48.5t69 99.5h39q-6 -88 -78 -162t-182 -74zM901 162q0 -49 27.5 -64.5t89.5 -9.5v-41q-74 -16 -138.5 -43t-93.5 -27t-24 37l16 215q-2 -2 -19.5 -26.5t-26.5 -36.5t-32.5 -40t-41.5 -44 q-70 -60 -118.5 -82.5t-105.5 -22.5q-139 0 -211.5 80t-72.5 277v559q0 45 -13.5 62.5t-44.5 15.5l-61 -2v45l219 20q41 4 41 -33v-682q0 -272 172 -272q164 0 295 225v621q0 45 -11.5 62.5t-41.5 15.5l-66 -2v45l219 20q27 2 35 -5t8 -28v-839z" glyph-name="ubreve" horiz-adv-x="1058" unicode="ŭ"/><glyph d="M657.5 1470q-77.5 0 -131 53.5t-53.5 129.5t53.5 129t131 53t131 -53t53.5 -129t-53.5 -129.5t-131 -53.5zM657.5 1778q-49.5 0 -81 -35t-31.5 -90.5t31.5 -89t81 -33.5t81 33.5t31.5 89t-31.5 90.5t-81 35zM1143 1157v-1042q0 -37 30.5 -51.5t112.5 -24.5v-39 q-211 8 -325 0v39q35 29 34 76v112q-51 -100 -158.5 -173.5t-272.5 -73.5t-277.5 113.5t-112.5 293.5v770q0 37 -30.5 51.5t-112.5 24.5v39q219 -10 440 0v-39q-82 -10 -112.5 -24.5t-30.5 -51.5v-776q0 -154 78.5 -247t210 -93t232.5 81t146 179v856q0 37 -30.5 51.5 t-112.5 24.5v39q217 -10 434 0v-39q-82 -10 -112.5 -24.5t-30.5 -51.5z" glyph-name="Uring" horiz-adv-x="1316" unicode="Ů"/><glyph d="M530.5 1225q-77.5 0 -131 53t-53.5 129t53.5 129t131 53t131 -53t53.5 -129t-53.5 -129t-131 -53zM530.5 1284q49.5 0 81 34t31.5 89t-31.5 90t-81 35t-81 -35t-31.5 -90t31.5 -89t81 -34zM901 162q0 -49 27.5 -64.5t89.5 -9.5v-41q-74 -16 -138.5 -43t-93.5 -27t-24 37 l16 215q-2 -2 -19.5 -26.5t-26.5 -36.5t-32.5 -40t-41.5 -44q-70 -60 -118.5 -82.5t-105.5 -22.5q-139 0 -211.5 80t-72.5 277v559q0 45 -13.5 62.5t-44.5 15.5l-61 -2v45l219 20q41 4 41 -33v-682q0 -272 172 -272q164 0 295 225v621q0 45 -11.5 62.5t-41.5 15.5l-66 -2v45 l219 20q27 2 35 -5t8 -28v-839z" glyph-name="uring" horiz-adv-x="1058" unicode="ů"/><glyph d="M709 1540l-328 -145l-10 22l266 221q27 23 57.5 20t38.5 -30q27 -57 -24 -88zM696 1395l-10 22l266 221q27 23 57.5 20t39.5 -30q27 -57 -25 -88zM1143 1157v-1042q0 -37 30.5 -51.5t112.5 -24.5v-39q-211 8 -325 0v39q35 29 34 76v112q-51 -100 -158.5 -173.5 t-272.5 -73.5t-277.5 113.5t-112.5 293.5v770q0 37 -30.5 51.5t-112.5 24.5v39q219 -10 440 0v-39q-82 -10 -112.5 -24.5t-30.5 -51.5v-776q0 -154 78.5 -247t210 -93t232.5 81t146 179v856q0 37 -30.5 51.5t-112.5 24.5v39q217 -10 434 0v-39q-82 -10 -112.5 -24.5 t-30.5 -51.5z" glyph-name="Uhungarumlaut" horiz-adv-x="1316" unicode="Ű"/><glyph d="M244 1171l266 222q27 23 57.5 19.5t38.5 -30.5q27 -57 -24 -88l-328 -145zM559 1171l266 222q27 23 57.5 19.5t39.5 -30.5q27 -57 -25 -88l-328 -145zM901 162q0 -49 27.5 -64.5t89.5 -9.5v-41q-74 -16 -138.5 -43t-93.5 -27t-24 37l16 215q-2 -2 -19.5 -26.5 t-26.5 -36.5t-32.5 -40t-41.5 -44q-70 -60 -118.5 -82.5t-105.5 -22.5q-139 0 -211.5 80t-72.5 277v559q0 45 -13.5 62.5t-44.5 15.5l-61 -2v45l219 20q41 4 41 -33v-682q0 -272 172 -272q164 0 295 225v621q0 45 -11.5 62.5t-41.5 15.5l-66 -2v45l219 20q27 2 35 -5t8 -28 v-839z" glyph-name="uhungarumlaut" horiz-adv-x="1058" unicode="ű"/><glyph d="M1143 1157v-1042q0 -37 30.5 -51.5t112.5 -24.5v-39q-211 8 -325 0v39q35 29 34 76v112q-90 -176 -288 -231h2q-141 -76 -142 -219q0 -55 34 -89t95 -34q104 0 146 98l32 -20q-76 -145 -241 -146q-72 0 -130.5 40t-58.5 117t56.5 142.5t132.5 98.5q-37 -4 -60 -4 q-174 0 -286.5 113.5t-112.5 293.5v770q0 37 -30.5 51.5t-112.5 24.5v39q219 -10 440 0v-39q-82 -10 -112.5 -24.5t-30.5 -51.5v-776q0 -154 78.5 -247t210 -93t232.5 81t146 179v856q0 37 -30.5 51.5t-112.5 24.5v39q217 -10 434 0v-39q-82 -10 -112.5 -24.5t-30.5 -51.5z " glyph-name="Uogonek" horiz-adv-x="1316" unicode="Ų"/><glyph d="M985 -268q-73 -146 -227 -146q-88 0 -145.5 40t-57.5 116t52 141.5t159 108.5q-4 6 -4 22l16 215q-2 -2 -19.5 -26.5t-26.5 -36.5t-32.5 -40t-41.5 -44q-70 -60 -118.5 -82.5t-105.5 -22.5q-139 0 -211.5 80t-72.5 277v559q0 45 -13.5 62.5t-44.5 15.5l-61 -2v45l219 20 q41 4 41 -33v-682q0 -272 172 -272q164 0 295 225v621q0 45 -11.5 62.5t-41.5 15.5l-66 -2v45l219 20q27 2 35 -5t8 -28v-839q0 -49 27.5 -64.5t89.5 -9.5v-41q-86 -22 -131.5 -40.5t-55.5 -22.5q-96 -43 -124.5 -91.5t-28.5 -109.5t33.5 -95t95.5 -34q104 0 145 98z" glyph-name="uogonek" horiz-adv-x="1058" unicode="ų"/><glyph d="M942 1579l-250 -184h-30q154 137 280 311q123 -172 279 -311h-31zM1468 1272q197 -10 392 0v-39q-92 -10 -134.5 -24.5t-52.5 -49.5l-379 -1177h-61l-313 909l-287 -909h-60l-405 1177q-12 35 -41 50.5t-107 23.5v39q215 -8 420 0v-39q-78 -10 -101.5 -24.5t-10.5 -49.5 l329 -956l234 770h2l-64 186q-12 35 -35.5 49.5t-91.5 24.5v39q197 -8 414 0v-39q-84 -12 -112.5 -26.5t-16.5 -47.5l332 -956l299 956q10 35 -22.5 48.5t-127.5 25.5v39z" glyph-name="Wcircumflex" horiz-adv-x="1880" unicode="Ŵ"/><glyph d="M811 1333l-250 -184h-31q154 137 281 311q123 -172 279 -311h-31zM1229 1026h356v-39l-57 -10q-94 -27 -119 -100l-315 -877h-11l-286 786l-281 -786h-12l-320 885q-29 78 -92 92l-61 10v39h399v-41l-63 -8q-59 -8 -33 -92l223 -641l215 608l-10 33q-29 86 -88 92l-53 8 v41h378v-41l-55 -8q-61 -8 -31 -92l224 -641l223 633q33 84 -82 100l-49 8v41z" glyph-name="wcircumflex" horiz-adv-x="1615" unicode="ŵ"/><glyph d="M602 1579l-250 -184h-30q154 137 280 311q123 -172 279 -311h-31zM668 115q0 -37 31.5 -50.5t113.5 -17.5v-47q-219 10 -434 0v39q82 10 112.5 24.5t30.5 51.5v448l-329 596q-37 70 -162 74v39q219 -2 434 0v-39q-147 -6 -111 -74l289 -532l266 514q23 45 -6 67.5 t-133 24.5v39q203 -2 406 0v-39q-102 -2 -144.5 -25.5t-66.5 -70.5l-297 -574v-448z" glyph-name="Ycircumflex" horiz-adv-x="1206" unicode="Ŷ"/><glyph d="M528 1460q123 -172 279 -311h-31l-248 184l-249 -184h-31q153 137 280 311zM1024 1026v-39l-41 -6q-5 -2 -31 -5q-53 -6 -67 -48l-482 -1348q-10 -23 -19 -25.5t-25.5 -3t-25.5 8t-5 20.5l186 461q0 16 -154.5 395t-182 448t-42 83t-43.5 14l-61 6v39q223 -10 397 0v-39 l-70 -6q-68 0 -49 -53l271 -711l247 711q6 18 -1 30q-14 23 -54 23l-49 6v39q141 -8 301 0z" glyph-name="ycircumflex" horiz-adv-x="1054" unicode="ŷ"/><glyph d="M430 1454q-31 0 -53.5 22.5t-22.5 53.5t22.5 54.5t53.5 23.5t54.5 -23.5t23.5 -54.5t-23.5 -53.5t-54.5 -22.5zM772 1454q-31 0 -53.5 22.5t-22.5 53.5t22.5 54.5t53.5 23.5t54.5 -23.5t23.5 -54.5t-23.5 -53.5t-54.5 -22.5zM668 115q0 -37 31.5 -50.5t113.5 -17.5v-47 q-219 10 -434 0v39q82 10 112.5 24.5t30.5 51.5v448l-329 596q-37 70 -162 74v39q219 -2 434 0v-39q-147 -6 -111 -74l289 -532l266 514q23 45 -6 67.5t-133 24.5v39q203 -2 406 0v-39q-102 -2 -144.5 -25.5t-66.5 -70.5l-297 -574v-448z" glyph-name="Ydieresis" horiz-adv-x="1206" unicode="Ÿ"/><glyph d="M324 1417l292 221q29 23 63 20t44 -30q14 -27 5 -51.5t-34 -36.5l-360 -145zM936 39v-39q-449 8 -895 0l774 1227h-524q-59 0 -87 -32t-98 -177h-34l75 276h23q63 -23 152 -22h688l-770 -1223h387q51 0 95 20.5t64.5 40t49.5 52.5l102 125h61q-76 -123 -116 -232l35 -4 q18 0 18 -12z" glyph-name="Zacute" horiz-adv-x="1064" unicode="Ź"/><glyph d="M227 1171l293 222q29 23 62.5 19.5t46 -30.5t3.5 -51t-34 -37l-360 -145zM66 0q-10 0 -19.5 15.5t-3.5 29.5l600 938l-356 2q-63 0 -93 -35t-102 -184h-29l76 283h23q68 -23 160 -23q293 0 505 4l-630 -991l387 -2q82 -2 114.5 38t104.5 199h31l-66 -274h-702z" glyph-name="zacute" horiz-adv-x="868" unicode="ź"/><glyph d="M530.5 1452q-32.5 0 -56 23.5t-23.5 55.5t23.5 56.5t56 24.5t56 -24.5t23.5 -56.5t-23.5 -55.5t-56 -23.5zM936 39v-39q-449 8 -895 0l774 1227h-524q-59 0 -87 -32t-98 -177h-34l75 276h23q63 -23 152 -22h688l-770 -1223h387q51 0 95 20.5t64.5 40t49.5 52.5l102 125 h61q-76 -123 -116 -232l35 -4q18 0 18 -12z" glyph-name="Zdotaccent" horiz-adv-x="1064" unicode="Ż"/><glyph d="M434 1206q-33 0 -56.5 23.5t-23.5 55.5t23.5 56.5t56.5 24.5t56.5 -24.5t23.5 -56.5t-23.5 -55.5t-56.5 -23.5zM66 0q-10 0 -19.5 15.5t-3.5 29.5l600 938l-356 2q-63 0 -93 -35t-102 -184h-29l76 283h23q68 -23 160 -23q293 0 505 4l-630 -991l387 -2q82 -2 114.5 38 t104.5 199h31l-66 -274h-702z" glyph-name="zdotaccent" horiz-adv-x="868" unicode="ż"/><glyph d="M530 1399q-133 182 -280 311h31l249 -184l248 184h31q-150 -131 -279 -311zM936 39v-39q-449 8 -895 0l774 1227h-524q-59 0 -87 -32t-98 -177h-34l75 276h23q63 -23 152 -22h688l-770 -1223h387q51 0 95 20.5t64.5 40t49.5 52.5l102 125h61q-76 -123 -116 -232l35 -4 q18 0 18 -12z" glyph-name="Zcaron" horiz-adv-x="1064" unicode="Ž"/><glyph d="M436 1153q-133 182 -280 311h30l250 -184l248 184h31q-150 -131 -279 -311zM66 0q-10 0 -19.5 15.5t-3.5 29.5l600 938l-356 2q-63 0 -93 -35t-102 -184h-29l76 283h23q68 -23 160 -23q293 0 505 4l-630 -991l387 -2q82 -2 114.5 38t104.5 199h31l-66 -274h-702z" glyph-name="zcaron" horiz-adv-x="868" unicode="ž"/><glyph d="M1010 1278q-28 0 -59 -14.5t-55 -38t-54 -209.5l-13 -80h279q10 0 17.5 -5t2.5 -13l-10 -23q-10 -18 -21 -38.5t-46 -20.5h-236l-121 -871q-27 -180 -122 -279.5t-236 -99.5q-92 0 -163 44t-97 106q-16 25 -6 61.5t46 53.5t66.5 7t38.5 -38q5 -10 8.5 -30.5t8 -36 t8.5 -21.5t16.5 -32t65.5 -26q86 0 125 68t57 199l125 895h-107q-23 0 -18 20l10 80h129l8 55q53 375 379 375q191 0 271 -141q18 -25 11 -62t-41 -57t-65.5 -13t-42.5 33q-2 4 -7 20.5t-7 22t-7 20.5t-9 20t-11.5 17.5t-13.5 17.5t-16.5 13.5t-20.5 11.5t-24.5 6t-42.5 3z " glyph-name="florin" horiz-adv-x="1306" unicode="ƒ"/><glyph d="M59 977q0 137 98.5 232.5t276.5 95.5q94 0 168 -22.5t84 -22.5q35 0 45 28h39l12 -256l-24 2q-20 2 -31 25q-35 82 -122 140t-189.5 58t-167 -66.5t-64.5 -165.5t61.5 -158.5t203.5 -121.5q73 -25 169 -77q98 -52 116 -67q86 -69 106 -109q42 -82 41 -152 q0 -158 -115 -261.5t-262 -103.5q-106 0 -215 38t-121 38q-41 0 -55 -47h-45l-17 272h41q10 0 25 -26q37 -96 133 -160.5t224 -64.5t195.5 70.5t67.5 195.5t-142 209q-66 38 -205.5 98t-235 151t-95.5 228zM465 -317q0 14 -4 20q-20 -4 -41 -4t-46.5 23.5t-25.5 66.5 t26.5 68.5t71.5 25.5t74 -39t29 -94q0 -139 -111 -237q-16 -10 -26 0l-13 20q66 66 66 150z" glyph-name="Scommaaccent" horiz-adv-x="931" unicode="Ș"/><glyph d="M727 270q0 -121 -91 -204.5t-200 -83.5q-70 0 -149.5 32.5t-119.5 32.5t-52 -45h-37l-23 266h13q45 0 47 -22q16 -84 120.5 -151.5t186.5 -67.5t128 48t46 128t-56.5 130t-137 93t-91.5 49q-125 68 -187.5 143.5t-62.5 175t77 174t198 74.5q68 0 135.5 -28.5t96 -28.5 t42.5 41h39l19 -246h-19q-20 0 -33 23q-45 82 -123.5 141.5t-153.5 59.5t-116 -49.5t-41 -121t46 -118.5t106.5 -80t102.5 -55.5t58.5 -31.5t55.5 -32.5t57 -39.5q69 -58 94 -105t25 -101zM344 -301q-21 0 -46.5 23.5t-25.5 66.5t27 68.5t72 25.5t73.5 -39t28.5 -94 q0 -139 -111 -237q-16 -10 -26 0l-12 20q66 66 65 150q0 14 -4 20q-20 -4 -41 -4z" glyph-name="scommaaccent" horiz-adv-x="778" unicode="ș"/><glyph d="M791 1227h-203v-1112q0 -37 30.5 -51.5t112.5 -24.5v-39q-217 10 -434 0v39q82 10 112.5 24.5t30.5 51.5v1112h-176q-66 0 -97.5 -36t-98.5 -173h-37l75 276h23q68 -23 152 -22h522q85 -1 153 22h23l-68 -276h-41q10 117 -3 163t-76 46zM504 -117q45 0 73.5 -39t28.5 -94 q0 -139 -110 -237q-16 -10 -27 0l-12 20q66 66 65 150q0 14 -4 20q-20 -4 -41 -4t-46 23.5t-25 66.5t26.5 68.5t71.5 25.5z" glyph-name="uni021A" horiz-adv-x="1009" unicode="Ț"/><glyph d="M354 -4q-211 0 -211 231v750h-98q-14 0 -14 12v25q0 12 14 12q84 0 127 63.5t66 215.5h47v-279h235q14 0 15 -12v-25q0 -12 -15 -12h-235v-789q0 -133 110 -133q86 0 133 80v-61q-23 -29 -71.5 -53.5t-102.5 -24.5zM268.5 -301q-20.5 0 -46 23.5t-25.5 66.5t26.5 68.5 t71.5 25.5t73.5 -39t28.5 -94q1 -139 -110 -237q-16 -10 -27 0l-12 20q66 66 65 150q0 14 -4 20q-20 -4 -40.5 -4z" glyph-name="uni021B" horiz-adv-x="585" unicode="ț"/><glyph d="M287 1044q47 0 47 -38q0 -10 -6 -88t-6 -150v-682q0 -291 -95.5 -407.5t-281.5 -116.5l-6 41q113 2 177 96t64 215v956q0 47 -28.5 65.5t-92.5 16.5v39q77 8 147.5 30.5t80.5 22.5z" glyph-name="uni0237" horiz-adv-x="456" unicode="ȷ"/><glyph d="M383 1460q123 -172 279 -311h-31l-248 184l-250 -184h-31q154 137 281 311z" glyph-name="circumflex" horiz-adv-x="763" unicode="ˆ"/><glyph d="M383 1153q-133 182 -281 311h31l250 -184l248 184h31q-150 -131 -279 -311z" glyph-name="caron" horiz-adv-x="763" unicode="ˇ"/><glyph d="M361 1169q-110 0 -181 74t-78 162h39q6 -51 67.5 -99.5t152 -48.5t152.5 48.5t69 99.5h39q-6 -88 -78 -162t-182 -74z" glyph-name="breve" horiz-adv-x="731" unicode="˘"/><glyph d="M182.5 1206q-32.5 0 -56.5 23.5t-24 55.5t24 56.5t56.5 24.5t56 -24.5t23.5 -56.5t-23.5 -55.5t-56 -23.5z" glyph-name="dotaccent" horiz-adv-x="364" unicode="˙"/><glyph d="M287 1225q-78 0 -131.5 53t-53.5 129t53.5 129t131.5 53t131 -53t53 -129t-53 -129t-131 -53zM287 1284q49 0 80.5 34t31.5 89t-31.5 90t-80.5 35t-81 -35t-32 -90t32 -89t81 -34z" glyph-name="ring" horiz-adv-x="526" unicode="˚"/><glyph d="M306 -414q-87 0 -145.5 40t-58.5 121t68 147.5t162 109.5h35q-141 -100 -142 -227q0 -55 35 -89t96 -34q106 0 144 98l32 -20q-73 -146 -226 -146z" glyph-name="ogonek" horiz-adv-x="628" unicode="˛"/><glyph d="M604 1165q-80 0 -152.5 35t-131 70t-96.5 35t-61.5 -27t-23.5 -59h-39q-4 82 41 134t128 52t201 -64.5t165 -64.5t77.5 24.5t32.5 57.5h35q-4 -88 -50 -140.5t-126 -52.5z" glyph-name="tilde" horiz-adv-x="894" unicode="˜"/><glyph d="M104 1171l267 222q27 23 56.5 19.5t39.5 -30.5q27 -57 -25 -88l-329 -145zM420 1171l266 222q27 23 57.5 19.5t41 -30t3 -51t-29.5 -37.5l-328 -145z" glyph-name="hungarumlaut" horiz-adv-x="1228" unicode="˝"/><glyph d="M-102 1171l-11 -22l-362 145q-25 12 -33 37t4 51.5t45 29.5t64 -19z" glyph-name="gravecomb" unicode="̀"/><glyph d="M-510 1171l293 222q29 23 62.5 19.5t43.5 -30.5q14 -27 5 -51t-33 -37l-361 -145z" glyph-name="acutecomb" unicode="́"/><glyph d="M-381 1460q123 -172 279 -311h-31l-248 184l-250 -184h-31q154 137 281 311z" glyph-name="uni0302" unicode="̂"/><glyph d="M-275 1165q-80 0 -152.5 35t-130.5 70t-96 35t-61.5 -27t-23.5 -59h-39q-4 82 41 134t128 52t200.5 -64.5t164.5 -64.5t78 24.5t33 57.5h35q-4 -88 -50.5 -140.5t-126.5 -52.5z" glyph-name="tildecomb" unicode="̃"/><glyph d="M-764 1229v37q0 -10 4 -19q-4 -8 -4 -18zM-102 1266v-37q0 10 -4 18q4 9 4 19zM-143 1264q29 0 37 -17q-8 -16 -37 -16h-580q-29 0 -37 16q8 16 37 17h580z" glyph-name="uni0304" unicode="̄"/><glyph d="M-361 1169q-110 0 -181.5 74t-78.5 162h39q6 -51 67.5 -99.5t152 -48.5t153 48.5t68.5 99.5h39q-6 -88 -77.5 -162t-181.5 -74z" glyph-name="uni0306" unicode="̆"/><glyph d="M-182.5 1206q-32.5 0 -56 23.5t-23.5 55.5t23.5 56.5t56 24.5t56.5 -24.5t24 -56.5t-24 -55.5t-56.5 -23.5z" glyph-name="uni0307" unicode="̇"/><glyph d="M-522.5 1208q-30.5 0 -53 22.5t-22.5 53.5t22.5 54.5t53 23.5t54.5 -23.5t24 -54.5t-24 -53.5t-54.5 -22.5zM-180.5 1208q-30.5 0 -53 22.5t-22.5 53.5t22.5 54.5t53 23.5t54.5 -23.5t24 -54.5t-24 -53.5t-54.5 -22.5z" glyph-name="uni0308" unicode="̈"/><glyph d="M-287 1225q-78 0 -131 53t-53 129t53 129t131 53t131.5 -53t53.5 -129t-53.5 -129t-131.5 -53zM-287 1284q49 0 81 34t32 89t-32 90t-81 35t-80.5 -35t-31.5 -90t31.5 -89t80.5 -34z" glyph-name="uni030A" unicode="̊"/><glyph d="M-788 1171l266 222q27 23 56.5 19.5t39.5 -30.5q27 -57 -25 -88l-329 -145zM-473 1171l266 222q27 23 57.5 19.5t41 -30t3 -51t-29.5 -37.5l-328 -145z" glyph-name="uni030B" unicode="̋"/><glyph d="M-381 1153q-133 182 -281 311h31l250 -184l248 184h31q-150 -131 -279 -311z" glyph-name="uni030C" unicode="̌"/><glyph d="M-186 -315q0 14 -4 18q-20 -4 -41 -4t-46.5 23.5t-25.5 66.5t26.5 68.5t71.5 25.5t74 -39t29 -94q0 -141 -113 -237q-14 -10 -25 2l-12 18q66 66 66 152z" glyph-name="uni0326" unicode="̦"/><glyph d="M-288 -410q-187 0 -187 92q0 48 47 48q31 0 44 -18.5t15 -39t19.5 -39t58.5 -18.5t64.5 33t23.5 76q0 104 -157 141q-25 6 -25 22q0 6 18.5 38.5t36.5 74.5h41l-28 -66q215 -55 215 -186q0 -74 -51.5 -116t-134.5 -42z" glyph-name="uni0327" unicode="̧"/><glyph d="M-329 -414q-87 0 -145 40t-58 121t67.5 147.5t161.5 109.5h35q-141 -100 -142 -227q0 -55 35 -89t96 -34q106 0 144 98l33 -20q-73 -146 -227 -146z" glyph-name="uni0328" unicode="̨"/><glyph d="M-750 532q-14 0 -14 15v18q0 14 14 15h633q14 0 15 -15v-18q0 -14 -15 -15h-633z" glyph-name="uni0335" unicode="̵"/><glyph d="M1124 0h-1083l559 1298zM162 123h749l-360 934z" glyph-name="Delta" horiz-adv-x="1165" unicode="Δ"/><glyph d="M1161 0h-319v203q117 10 182.5 141t65.5 378t-117 386t-303.5 139t-303 -139t-116.5 -386t66.5 -378t183.5 -141v-203h-322q-53 0 -63 47l-33 180h24l33 -59q51 -96 140 -96h157q23 0 28 16t1 66q-158 41 -271.5 202.5t-113.5 345.5q0 236 175 419.5t414.5 183.5 t415 -183.5t175.5 -419.5q0 -176 -117 -342.5t-271 -205.5q-6 -49 -0.5 -65.5t31.5 -16.5h119q127 0 178 96l35 59h22l-32 -180q-10 -47 -64 -47z" glyph-name="Omega" horiz-adv-x="1339" unicode="Ω"/><glyph d="M901 162q0 -49 27.5 -64.5t89.5 -9.5v-41q-74 -16 -138.5 -43t-93.5 -27t-24 37l16 215q-2 -2 -19.5 -26.5t-26.5 -36.5t-32.5 -40t-41.5 -44q-70 -60 -118.5 -82.5t-105.5 -22.5q-164 0 -229 105q2 -96 19.5 -166t50.5 -116.5t30 -71.5q-14 -98 -67.5 -128t-77.5 29 q-10 29 -10 74v1190q0 45 -13.5 62.5t-44.5 15.5l-61 -2v45l219 20q41 4 41 -33v-682q0 -272 172 -272q164 0 295 225v621q0 45 -11.5 62.5t-41.5 15.5l-66 -2v45l219 20q27 2 35 -5t8 -28v-839z" glyph-name="mu" horiz-adv-x="1058" unicode="μ"/><glyph d="M1042 184q80 0 80 -80q0 -43 -53 -83.5t-139 -40.5t-140.5 80.5t-54.5 205.5v602h-160v-655q0 -225 -188 -225q-49 0 -104 18l-27 39q76 -20 131 45.5t55 126.5v651h-159q-74 0 -94.5 -49t-2.5 -147l-10 12q-80 115 -51 177.5t135 62.5h846v-56h-215q-16 0 -19.5 -5 t-3.5 -25v-709q0 -96 50 -96q39 0 48 52t27 75.5t49 23.5z" glyph-name="pi" horiz-adv-x="1234" unicode="π"/><glyph d="M778 1540q-25 12 -34 37t6 51q10 27 43.5 30t62.5 -20l293 -221l-10 -22zM1468 1272q197 -10 392 0v-39q-92 -10 -134.5 -24.5t-52.5 -49.5l-379 -1177h-61l-313 909l-287 -909h-60l-405 1177q-12 35 -41 50.5t-107 23.5v39q215 -8 420 0v-39q-78 -10 -101.5 -24.5 t-10.5 -49.5l329 -956l234 770h2l-64 186q-12 35 -35.5 49.5t-91.5 24.5v39q197 -8 414 0v-39q-84 -12 -112.5 -26.5t-16.5 -47.5l332 -956l299 956q10 35 -22.5 48.5t-127.5 25.5v39z" glyph-name="Wgrave" horiz-adv-x="1880" unicode="Ẁ"/><glyph d="M647 1294q-25 12 -34 37t5 51q10 27 44 30t63 -19l293 -222l-10 -22zM1229 1026h356v-39l-57 -10q-94 -27 -119 -100l-315 -877h-11l-286 786l-281 -786h-12l-320 885q-29 78 -92 92l-61 10v39h399v-41l-63 -8q-59 -8 -33 -92l223 -641l215 608l-10 33q-29 86 -88 92 l-53 8v41h378v-41l-55 -8q-61 -8 -31 -92l224 -641l223 633q33 84 -82 100l-49 8v41z" glyph-name="wgrave" horiz-adv-x="1615" unicode="ẁ"/><glyph d="M1106 1540l-361 -145l-10 22l293 221q29 23 62.5 20t45.5 -30t3.5 -51.5t-33.5 -36.5zM1468 1272q197 -10 392 0v-39q-92 -10 -134.5 -24.5t-52.5 -49.5l-379 -1177h-61l-313 909l-287 -909h-60l-405 1177q-12 35 -41 50.5t-107 23.5v39q215 -8 420 0v-39 q-78 -10 -101.5 -24.5t-10.5 -49.5l329 -956l234 770h2l-64 186q-12 35 -35.5 49.5t-91.5 24.5v39q197 -8 414 0v-39q-84 -12 -112.5 -26.5t-16.5 -47.5l332 -956l299 956q10 35 -22.5 48.5t-127.5 25.5v39z" glyph-name="Wacute" horiz-adv-x="1880" unicode="Ẃ"/><glyph d="M975 1294l-361 -145l-10 22l293 222q29 23 63 19t46 -30.5t3 -51t-34 -36.5zM1229 1026h356v-39l-57 -10q-94 -27 -119 -100l-315 -877h-11l-286 786l-281 -786h-12l-320 885q-29 78 -92 92l-61 10v39h399v-41l-63 -8q-59 -8 -33 -92l223 -641l215 608l-10 33 q-29 86 -88 92l-53 8v41h378v-41l-55 -8q-61 -8 -31 -92l224 -641l223 633q33 84 -82 100l-49 8v41z" glyph-name="wacute" horiz-adv-x="1615" unicode="ẃ"/><glyph d="M770 1454q-31 0 -53.5 22.5t-22.5 53.5t22.5 54.5t53.5 23.5t54.5 -23.5t23.5 -54.5t-23.5 -53.5t-54.5 -22.5zM1112 1454q-31 0 -53.5 22.5t-22.5 53.5t22.5 54.5t53.5 23.5t54.5 -23.5t23.5 -54.5t-23.5 -53.5t-54.5 -22.5zM1468 1272q197 -10 392 0v-39 q-92 -10 -134.5 -24.5t-52.5 -49.5l-379 -1177h-61l-313 909l-287 -909h-60l-405 1177q-12 35 -41 50.5t-107 23.5v39q215 -8 420 0v-39q-78 -10 -101.5 -24.5t-10.5 -49.5l329 -956l234 770h2l-64 186q-12 35 -35.5 49.5t-91.5 24.5v39q197 -8 414 0v-39 q-84 -12 -112.5 -26.5t-16.5 -47.5l332 -956l299 956q10 35 -22.5 48.5t-127.5 25.5v39z" glyph-name="Wdieresis" horiz-adv-x="1880" unicode="Ẅ"/><glyph d="M639 1208q-31 0 -53.5 22.5t-22.5 53.5t22.5 54.5t53.5 23.5t54.5 -23.5t23.5 -54.5t-23.5 -53.5t-54.5 -22.5zM981 1208q-31 0 -53.5 22.5t-22.5 53.5t22.5 54.5t53.5 23.5t54.5 -23.5t23.5 -54.5t-23.5 -53.5t-54.5 -22.5zM1229 1026h356v-39l-57 -10 q-94 -27 -119 -100l-315 -877h-11l-286 786l-281 -786h-12l-320 885q-29 78 -92 92l-61 10v39h399v-41l-63 -8q-59 -8 -33 -92l223 -641l215 608l-10 33q-29 86 -88 92l-53 8v41h378v-41l-55 -8q-61 -8 -31 -92l224 -641l223 633q33 84 -82 100l-49 8v41z" glyph-name="wdieresis" horiz-adv-x="1615" unicode="ẅ"/><glyph d="M438 1540q-25 12 -34 37t6 51q10 27 43.5 30t62.5 -20l293 -221l-10 -22zM668 115q0 -37 31.5 -50.5t113.5 -17.5v-47q-219 10 -434 0v39q82 10 112.5 24.5t30.5 51.5v448l-329 596q-37 70 -162 74v39q219 -2 434 0v-39q-147 -6 -111 -74l289 -532l266 514q23 45 -6 67.5 t-133 24.5v39q203 -2 406 0v-39q-102 -2 -144.5 -25.5t-66.5 -70.5l-297 -574v-448z" glyph-name="Ygrave" horiz-adv-x="1206" unicode="Ỳ"/><glyph d="M733 1171l-10 -22l-361 145q-25 12 -34 37t6 51q10 27 44 30t62 -19zM1024 1026v-39l-41 -6q-5 -2 -31 -5q-53 -6 -67 -48l-482 -1348q-10 -23 -19 -25.5t-25.5 -3t-25.5 8t-5 20.5l186 461q0 16 -154.5 395t-182 448t-42 83t-43.5 14l-61 6v39q223 -10 397 0v-39l-70 -6 q-68 0 -49 -53l271 -711l247 711q6 18 -1 30q-14 23 -54 23l-49 6v39q141 -8 301 0z" glyph-name="ygrave" horiz-adv-x="1054" unicode="ỳ"/><glyph d="M61 549h1192v-72h-1192v72z" glyph-name="endash" horiz-adv-x="1366" unicode="–"/><glyph d="M51 549h1678v-72h-1678v72z" glyph-name="emdash" horiz-adv-x="1820" unicode="—"/><glyph d="M51 549h1678v-72h-1678v72z" glyph-name="afii00208" horiz-adv-x="1820" unicode="―"/><glyph d="M135 1114q0 -14 4 -20q20 4 41 4t46.5 -23.5t25.5 -66.5t-25.5 -69t-70.5 -26t-75 39t-30 95q0 141 113 237q14 10 24 0l15 -20q-68 -63 -68 -150z" glyph-name="quoteleft" horiz-adv-x="303" unicode="‘"/><glyph d="M168 1081q0 14 -4 19q-20 -4 -41 -4t-46.5 23.5t-25.5 66.5t26.5 68.5t71.5 25.5t74 -39t29 -94q0 -140 -111 -238q-16 -10 -26 2l-13 19q66 66 66 151z" glyph-name="quoteright" horiz-adv-x="303" unicode="’"/><glyph d="M184 -10q-20 0 -45.5 23.5t-25.5 66.5t26.5 68.5t71.5 25.5t73.5 -39t28.5 -94q1 -140 -110 -238q-16 -10 -27 0l-12 21q66 66 65 149q0 14 -4 21q-21 -4 -41 -4z" glyph-name="quotesinglbase" horiz-adv-x="425" unicode="‚"/><glyph d="M135 1114q0 -14 4 -20q20 4 41 4t46.5 -23.5t25.5 -66.5t-26.5 -69t-71.5 -26t-74 39t-29 95q0 141 113 237q14 10 24 0l13 -20q-66 -66 -66 -150zM461 1098q21 0 46 -23.5t25 -66.5t-26.5 -69t-71.5 -26t-73.5 39t-28.5 95q-1 141 112 237q14 10 25 0l12 -20 q-66 -66 -65 -150q0 -14 4 -20q20 4 41 4z" glyph-name="quotedblleft" horiz-adv-x="583" unicode="“"/><glyph d="M184 1096q-20 0 -45.5 23.5t-25.5 66.5t26.5 68.5t71.5 25.5t73.5 -39t28.5 -94q1 -140 -110 -238q-16 -10 -27 2l-12 19q66 66 65 151q0 14 -4 19q-21 -4 -41 -4zM510 1068q0 26 -4 32q-20 -4 -42 -4t-46.5 24.5t-24.5 66.5t25.5 67.5t70.5 25.5t75 -39t30 -94 q0 -142 -113 -238q-14 -10 -24 2l-15 19q27 25 47.5 68.5t20.5 69.5z" glyph-name="quotedblright" horiz-adv-x="575" unicode="”"/><glyph d="M477 -10q-21 0 -46 24.5t-25 66.5t26.5 67.5t71.5 25.5t74.5 -39t29.5 -94q1 -142 -112 -238q-14 -12 -27 0l-12 21q66 61 65 149q0 14 -4 21q-20 -4 -41 -4zM184 -10q-20 0 -45.5 23.5t-25.5 66.5t26.5 68.5t71.5 25.5t73.5 -39t28.5 -94q1 -140 -110 -238 q-16 -10 -27 0l-12 21q66 66 65 149q0 14 -4 21q-21 -4 -41 -4z" glyph-name="quotedblbase" horiz-adv-x="720" unicode="„"/><glyph d="M827 1030q39 0 70 -31.5t31 -73.5t-31 -75t-59 -33t-104.5 43t-149.5 39l4 -94l102 -105l-125 -417h-12l-125 417l102 105l5 94q-74 4 -150.5 -39t-104.5 -43t-59 33t-31 75t31 73.5t70 31.5q14 0 93 -43t155 -37q6 68 -37 143.5t-43 106.5t30.5 62.5t69.5 31.5t69.5 -32 t30.5 -62t-43 -106t-36 -144q76 -6 154.5 37t92.5 43z" glyph-name="dagger" horiz-adv-x="1118" unicode="†"/><glyph d="M836 416q30 0 61 -32t31 -74t-31 -74.5t-61 -32.5t-100.5 45t-160.5 39q-4 -66 40 -143.5t44 -109.5t-30.5 -63.5t-69.5 -31.5t-69.5 31.5t-30.5 63.5t44 109.5t40 143.5q-89 7 -160 -38.5t-101 -45.5t-61 32.5t-31 74.5t31 74t61 32t100.5 -45t160.5 -39v88l-113 198 l113 195v88q-89 7 -160 -38.5t-101 -45.5t-61 33t-31 75t31 73.5t61 31.5t100.5 -45t160.5 -39q4 66 -40 143.5t-44 109.5t30.5 63.5t69.5 31.5t69.5 -31t30.5 -63t-44 -110t-40 -144q89 -7 160 38.5t101 45.5t61 -31.5t31 -73.5t-31 -75t-61 -33t-100.5 45t-160.5 39v-88 l113 -197l-113 -196v-88q89 -7 160 38.5t101 45.5z" glyph-name="daggerdbl" horiz-adv-x="1101" unicode="‡"/><glyph d="M251 475q-52 0 -90 38t-38 89t38 89t89 38t90 -38t39 -89t-38 -89t-90 -38z" glyph-name="bullet" horiz-adv-x="501" unicode="•"/><glyph d="M522 -20q-39 0 -67.5 28.5t-28.5 69.5t28.5 69.5t67.5 28.5t67.5 -28.5t28.5 -69.5t-28.5 -69.5t-67.5 -28.5zM845 -20q-40 0 -68.5 29.5t-28.5 68.5t28.5 68.5t68.5 29.5t68.5 -28.5t28.5 -69.5t-28.5 -69.5t-68.5 -28.5zM199 -20q-39 0 -68 29.5t-29 68.5t29 68.5 t68 29.5t68.5 -28.5t29.5 -69.5t-29.5 -69.5t-68.5 -28.5z" glyph-name="ellipsis" horiz-adv-x="1064" unicode="…"/><glyph d="M537 1024q0 -117 -61.5 -200t-162 -83t-161 83t-60.5 200t60.5 199t161 82t162 -82t61.5 -199zM1018 1303h72l-824 -1313h-67zM313 780q111 0 111 243t-111 243q-106 0 -106 -243t106 -243zM1159 260q0 -117 -61.5 -200t-160.5 -83t-160.5 83t-61.5 200t61.5 199 t160.5 82t160.5 -82t61.5 -199zM1688 260q0 -117 -61 -200t-161 -83t-161.5 83t-61.5 200t61.5 199t160.5 82t161 -82t62 -199zM936 16q111 0 111 243t-111 243q-106 0 -106 -243t106 -243zM1464 16q111 0 111 243t-111 243q-106 0 -106 -243t106 -243z" glyph-name="perthousand" horiz-adv-x="1779" unicode="‰"/><glyph d="M72 471q180 129 311 279v-31l-184 -250l184 -248v-31q-129 148 -311 281z" glyph-name="guilsinglleft" horiz-adv-x="434" unicode="‹"/><glyph d="M362 471q-182 -133 -311 -281v31l185 248l-185 250v31q131 -150 311 -279z" glyph-name="guilsinglright" horiz-adv-x="434" unicode="›"/><glyph d="M567 1303h84l-887 -1313h-81z" glyph-name="fraction" horiz-adv-x="292" unicode="⁄"/><glyph d="M1157 12q-53 0 -141 -17.5t-170 -17.5q-227 0 -381 145.5t-195 369.5h-190l12 63h168q-4 57 -4 90t2 53h-145l14 66h137q35 236 189.5 388.5t386.5 152.5q66 0 147.5 -17.5t145.5 -17.5h41q51 -203 114 -344h-65q-66 166 -166.5 247.5t-246.5 81.5t-261 -99t-131 -392 h549l-15 -66h-536v-4q0 -82 8 -139h508l-12 -63h-488q39 -221 154.5 -343t271.5 -122q123 0 212 74.5t181 240.5h70q-90 -162 -133 -330h-31z" glyph-name="Euro" horiz-adv-x="1441" unicode="€"/><glyph d="M485 1272q12 0 21.5 -8.5t9.5 -18.5l6 -98h-45l-16 33q-8 16 -27 16h-92v-317q0 -20 53 -21v-51h-227v51q51 0 51 21v317h-90q-18 0 -27 -16l-16 -33h-45l6 98q0 10 9.5 18.5t21.5 8.5h407zM1206 1184v-297q0 -16 6.5 -20.5t36.5 -12.5v-47h-200v47q29 8 37 13t8 20v225 l-158 -256q-10 -23 -28.5 -22.5t-30.5 22.5l-177 258v-227q0 -14 8.5 -19.5t36.5 -13.5v-47h-167v47q31 8 38 13t7 20v297q0 18 -8.5 24t-36.5 13v51h155l187 -283l184 283h137v-49q-23 -8 -29 -14.5t-6 -24.5z" glyph-name="trademark" horiz-adv-x="1290" unicode="™"/><glyph d="M236 868q0 -33 59 -37v-28h-209v28q59 4 59 37v371l-63 -20v41l115 51q27 6 33 -2t6 -29v-412zM934 1303h84l-885 -1313h-84zM1161 131q0 -53 -62.5 -103.5t-138.5 -50.5t-135 50.5t-59 112.5t82 128q-53 42 -53 98t44 95t120 39t121.5 -38t45.5 -92t-53 -98 q88 -45 88 -141zM1049 374q0 79 -79 79t-79 -80q0 -62 57 -78l45 -12q18 -6 37 24.5t19 66.5zM1057 133q0 43 -18.5 62.5t-71.5 33.5l-49 13q-16 4 -43 -27t-27 -76q0 -113 113 -112q96 0 96 106z" glyph-name="oneeighth" horiz-adv-x="1267" unicode="⅛"/><glyph d="M324 784q-84 0 -142.5 49.5t-58.5 104.5t47 55q31 0 43 -11t15.5 -41.5t13.5 -54.5q20 -52 94 -52q35 0 60.5 29.5t27.5 88.5q-2 76 -50 92.5t-100 -14.5l-16 43l49 23q90 33 90 90q0 43 -15 60.5t-50 17.5q-63 0 -86 -45t-10 -91l-60 13q-25 10 -24 28q-2 63 46 104.5 t124 41.5t123 -40t47 -87t-39 -86q77 -41 77 -126t-61 -138.5t-145 -53.5zM1180 1303h82l-885 -1313h-82zM1442 131q0 -53 -62.5 -103.5t-139.5 -50.5t-135 50.5t-58 112.5t81 128q-53 42 -53 98t44 95t120 39t122 -38t46 -92t-53 -98q88 -45 88 -141zM1329 374q0 79 -79 79 t-79 -80q1 -62 58 -78l45 -12q18 -6 36.5 24.5t18.5 66.5zM1337 133q0 43 -18.5 62.5t-71.5 33.5l-49 13q-16 4 -43 -27t-27 -76q0 -113 113 -112q96 0 96 106z" glyph-name="threeeighths" horiz-adv-x="1501" unicode="⅜"/><glyph d="M524 982q0 -83 -58 -134t-145 -51t-140.5 42t-57.5 117q-2 20 11 32.5t33.5 12.5t32 -9t14.5 -17t5 -29.5t4 -27.5q20 -74 99 -74q45 0 72.5 30.5t27.5 79.5q0 150 -119 150q-47 0 -100 -45h-51l20 256h268l15 10h39l-7 -72l-24 -20h-246l-6 -96q69 18 131 18t122 -45 t60 -128zM1143 1303h84l-885 -1313h-84zM1405 131q0 -53 -62.5 -103.5t-139.5 -50.5t-135 50.5t-58 112.5t82 128q-54 42 -54 98t44 95t120 39t122 -38t46 -92t-53 -98q88 -45 88 -141zM1292 374q0 79 -78 79t-79 -80q0 -62 57 -78l45 -12q18 -6 36.5 24.5t18.5 66.5z M1300 133q0 43 -18 62.5t-72 33.5l-49 13q-16 4 -42.5 -27t-26.5 -76q0 -113 112 -112q96 0 96 106z" glyph-name="fiveeighths" horiz-adv-x="1503" unicode="⅝"/><glyph d="M176 1311h338l-256 -512h-22q-23 0 -30 13t1 28l205 389h-248l-12 -35h-39l20 88q6 29 43 29zM1092 1303h84l-885 -1313h-84zM1354 131q0 -53 -62.5 -103.5t-139.5 -50.5t-135.5 50.5t-58.5 112.5t82 128q-53 42 -53 98t44 95t120 39t122 -38t46 -92t-53 -98 q88 -45 88 -141zM1241 374q0 79 -79 79t-79 -80q1 -62 58 -78l45 -12q18 -6 36.5 24.5t18.5 66.5zM1249 133q0 43 -18.5 62.5t-71.5 33.5l-49 13q-16 4 -43 -27t-27 -76q0 -113 113 -112q96 0 96 106z" glyph-name="seveneighths" horiz-adv-x="1484" unicode="⅞"/><glyph d="M438 1303q112 0 237 -62.5t205.5 -247.5t80.5 -414t-79 -363t-171.5 -185t-214.5 -51q-193 0 -308.5 136t-115.5 305t116.5 279.5t282.5 110.5q121 0 210 -53t124 -99q0 209 -55.5 348.5t-125 196t-172.5 56.5t-214 -91l-37 58q125 76 237 76zM809 569q0 59 -96.5 126 t-220.5 67t-194.5 -101t-70.5 -257t67.5 -266.5t201 -110.5t223.5 141t90 401z" glyph-name="partialdiff" horiz-adv-x="1032" unicode="∂"/><glyph d="M1133 514q0 -219 -156 -374.5t-375 -155.5q-156 0 -285 84l-45 -68h-41l58 86q-100 74 -158.5 186.5t-58.5 241.5q0 219 155.5 374.5t374.5 155.5q145 0 270 -73l58 88h41l-70 -107q106 -74 169 -189.5t63 -248.5zM119 514q0 -117 53 -218t143 -169l531 805 q-115 66 -244 65q-201 0 -342 -142t-141 -341zM602 31q201 0 342 142t141 341q0 123 -56 227.5t-155 171.5l-532 -807q123 -75 260 -75z" glyph-name="emptyset" horiz-adv-x="1204" unicode="∅"/><glyph d="M1108 1638v-2048h-86v1964h-793v-1964h-86v2048h965z" glyph-name="product" horiz-adv-x="1251" unicode="∏"/><glyph d="M1024 1638v-84h-778l620 -942l-620 -938h778v-84h-881v84l594 940l-594 940v84h881z" glyph-name="summation" horiz-adv-x="1167" unicode="∑"/><glyph d="M143 569h717v-65h-717v65z" glyph-name="minus" horiz-adv-x="1003" unicode="−"/><glyph d="M1425 1640v-32l-55 -17q-88 -23 -137 -161l-631 -1817q-10 10 -16 27l-301 667q-57 127 -140 158l-43 16v33q100 -8 187 -4l332 -711l598 1841h206zM651 -410h-57l8 23q16 -23 49 -23z" glyph-name="radical" horiz-adv-x="1425" unicode="√"/><glyph d="M1018 901q68 0 118 -16.5t104 -54t89 -117.5t35 -190.5t-35 -190.5t-112.5 -134.5t-166.5 -54.5t-154 33t-101.5 79t-57.5 112q-39 -121 -129 -172.5t-158 -51.5t-116.5 16.5t-102 54.5t-86 118t-32.5 190.5t32.5 190.5t109.5 134t187 54t189.5 -69.5t105.5 -155.5 q37 123 125 174t156 51zM434 295q119 0 200 52t81 176t-81 176.5t-200 52.5q-279 0 -278 -230q-1 -227 278 -227zM1040 295q117 0 196 52t79 176t-79 176.5t-196 52.5q-283 0 -282 -230q-1 -227 282 -227z" glyph-name="infinity" horiz-adv-x="1476" unicode="∞"/><glyph d="M598 1587q-127 0 -127 -229v-1510q0 -162 -43 -225t-181 -63t-202 151q-23 82 21 103q33 18 63.5 -0.5t30.5 -46.5q4 -12 10 -41t9 -37t9.5 -26.5t12.5 -24l18 -16.5t53 -11q127 0 127 229v1510q0 160 44 224t173 64q57 0 99.5 -24.5t61.5 -51t41 -62.5q48 -80 -5 -109 q-35 -18 -67.5 -4t-36.5 45q-9 33 -15 60.5t-18 61t-78 33.5z" glyph-name="integral" horiz-adv-x="874" unicode="∫"/><glyph d="M712 590q-79 0 -201 66.5t-169 66.5t-88.5 -24t-56.5 -68h-54q72 168 240 168q78 0 185.5 -56.5t174.5 -56.5q94 0 150 80h57q-31 -82 -95 -129t-143 -47zM712 242q-79 0 -201 66.5t-169 66.5t-88.5 -24t-56.5 -68h-54q72 168 240 168q78 0 185.5 -56.5t174.5 -56.5 q94 0 150 80h57q-31 -82 -95 -129t-143 -47z" glyph-name="approxequal" horiz-adv-x="1093" unicode="≈"/><glyph d="M860 688h-217l-125 -303h342v-66h-371l-133 -319h-92l133 319h-254v66h281l127 303h-408v66h435l110 262h92l-108 -262h188v-66z" glyph-name="notequal" horiz-adv-x="1044" unicode="≠"/><glyph d="M143 723q356 137 750 350v-51q-346 -207 -731 -340q391 -139 731 -342v-51q-393 213 -750 350v84zM893 117v-66h-717v66h717z" glyph-name="lessequal" horiz-adv-x="1036" unicode="≤"/><glyph d="M893 723v-84q-356 -137 -750 -350v51q340 203 731 342q-385 133 -731 340v51q394 -213 750 -350zM143 117h717v-66h-717v66z" glyph-name="greaterequal" horiz-adv-x="1036" unicode="≥"/><glyph d="M772 635l-266 -635h-168l-266 635l266 637h168zM616 635l-194 506l-195 -506l195 -506z" glyph-name="lozenge" horiz-adv-x="843" unicode="◊"/><glyph d="M1110 1042q190 0 305 -140t115 -388t-121 -390t-307 -142q-82 0 -167 44t-116 44q-59 0 -90 -70h-24q-20 0 -21 23v1062q0 206 -65.5 243.5t-129.5 37.5q-199 0 -198 -340h239q14 0 15 -12v-25q0 -12 -15 -12h-239v-862q0 -59 117 -76v-39q-188 8 -377 0v39 q117 14 116 76v862h-92q-14 0 -14 12v25q0 12 14 12h92q4 195 97.5 292t244.5 97q338 0 338 -350v-166q47 59 124 101t159 42zM1100 23q143 0 210.5 107.5t67.5 337.5t-67 379.5t-213 149.5t-271 -159v-602q2 -55 84.5 -134t188.5 -79z" glyph-name="f_b.dlig" horiz-adv-x="1581"/><glyph d="M1436 115q0 -59 116 -76v-39q-186 10 -374 0v39q57 8 86.5 24.5t29.5 51.5v585q0 283 -154 283t-313 -184v-684q0 -57 117 -76v-39q-186 8 -375 0v39q115 14 115 76v970q0 206 -65.5 243.5t-129.5 37.5q-199 0 -198 -340h239q14 0 15 -12v-25q0 -12 -15 -12h-239v-862 q0 -59 117 -76v-39q-188 8 -377 0v39q117 14 116 76v862h-92q-14 0 -14 12v25q0 12 14 12h92q4 195 97.5 292t244.5 97q338 0 338 -350v-129l-8 -98q37 61 132 133.5t223 72.5t195 -76.5t67 -271.5v-581z" glyph-name="f_h.dlig" horiz-adv-x="1583"/><glyph d="M827 115q0 -57 117 -76v-39q-188 10 -377 0v39q117 14 117 76v970q0 206 -65.5 243.5t-129.5 37.5q-199 0 -198 -340h246q14 0 14 -12v-25q0 -12 -14 -12h-246v-862q0 -59 117 -76v-39q-188 8 -377 0v39q117 14 116 76v862h-86q-14 0 -14 12v25q0 12 14 12h86 q4 195 97.5 292t244.5 97q338 0 338 -350v-510q242 205 373 375q37 49 -51 59v37q143 -10 285 0v-37q-21 0 -33 -3t-25.5 -5t-18.5 -4t-16.5 -6t-18.5 -9.5t-23 -14.5t-35 -34l-332 -331l328 -414q49 -63 116.5 -106.5t108.5 -47.5l-49 -39q-211 0 -346 170l-263 340v-370z " glyph-name="f_k.dlig" horiz-adv-x="1515"/><glyph d="M1083 640q0 -124 -26.5 -238.5t-80.5 -214t-150.5 -159t-221.5 -59.5t-221 60.5t-150.5 160t-82 214t-27.5 237.5t27.5 235.5t82 211t150.5 157t221 58.5t221.5 -58.5t150.5 -157t80.5 -211t26.5 -236.5zM603 18q173 0 248 144.5t75 477.5t-75 474t-248 141t-247.5 -141 t-74.5 -474t74.5 -477.5t247.5 -144.5z" glyph-name="zero.tnum" horiz-adv-x="1228"/><glyph d="M698 115q0 -55 158 -76v-39q-227 10 -459 0v39q158 20 158 76v975q0 49 -27.5 60t-117.5 3v47q109 14 174 51t86 37q41 0 41 -43q0 -16 -6.5 -85.5t-6.5 -147.5v-897z" glyph-name="one.tnum" horiz-adv-x="1228"/><glyph d="M913 0h-753l-2 41q96 90 143 134t160.5 167t175 212t116 211.5t54.5 234.5t-59.5 184.5t-168 72.5t-171 -67.5t-62.5 -175.5q0 -51 14.5 -87t14.5 -66t-28.5 -48t-62.5 -18t-68 33.5t-34 111.5q0 152 102.5 258.5t301.5 106.5t292 -100.5t93 -252.5q0 -104 -36 -196 t-137.5 -204t-225.5 -223t-238 -202h454q72 0 109 12.5t55 53.5l64 129h33l-70 -275q-12 -47 -66 -47z" glyph-name="two.tnum" horiz-adv-x="1228"/><glyph d="M1065 392q0 -160 -140.5 -288.5t-324.5 -128.5t-302 96.5t-130 198.5q-6 53 15.5 86t66.5 33t66.5 -37.5t41.5 -123.5t73.5 -145.5t173.5 -59.5t208 97.5t88 243.5t-75.5 224t-154.5 78t-175 -45l-29 63l88 35q250 96 248 303q0 106 -58.5 170.5t-154.5 64.5t-152.5 -62 t-56.5 -171q0 -45 10 -77t10 -56q0 -70 -75 -70q-41 0 -76 38t-35 110q0 152 102.5 244t271.5 92t266 -86t97 -199q0 -205 -260 -293q158 35 265.5 -70t107.5 -265z" glyph-name="three.tnum" horiz-adv-x="1228"/><glyph d="M936 389h-80v-274q0 -37 31 -51.5t112 -24.5v-39q-217 10 -434 0v39q82 10 113 24.5t31 51.5v274h-514l-13 64l641 852h33v-848h27q72 0 104 53l23 39h34l-38 -113q-12 -47 -70 -47zM709 457v622l-469 -622h469z" glyph-name="four.tnum" horiz-adv-x="1228"/><glyph d="M621 868q213 0 327.5 -137t114.5 -317t-135.5 -308.5t-321.5 -128.5t-304 95.5t-132 199.5q-10 119 84 119q43 0 62.5 -36t39.5 -113q59 -217 248 -217q131 0 213 97t82 270t-103.5 294t-248.5 121q-73 0 -105 -12.5t-47.5 -17.5t-39 -21.5t-30 -19.5t-30.5 -23l-23 -21 h-45l52 582h471q70 0 105.5 11t55.5 46h64l-35 -137q-12 -47 -66 -47h-561l-39 -416q57 66 152 101.5t195 35.5z" glyph-name="five.tnum" horiz-adv-x="1228"/><glyph d="M662 811q164 0 280.5 -110.5t116.5 -279.5t-116 -305t-306 -136q-123 0 -216 51t-171 184.5t-78 388.5t87 411t191.5 222t230.5 66t249 -76l-35 -58q-111 91 -214 91t-173 -56.5t-125 -196.5t-55 -348q50 69 148.5 110.5t185.5 41.5zM324 569q0 -260 90 -401t223 -141 t199.5 110.5t66.5 266.5t-70.5 257t-194.5 101t-219 -67t-95 -126z" glyph-name="six.tnum" horiz-adv-x="1228"/><glyph d="M444 -25q-66 0 -65 56q0 20 161 346t373 768h-485q-4 0 -27.5 1t-33 0t-32 -3t-34.5 -8.5t-35 -18.5t-47 -59h-37l62 233h16q82 -18 193 -18h561l-490 -1221q-31 -76 -80 -76z" glyph-name="seven.tnum" horiz-adv-x="1228"/><glyph d="M1079 346q0 -143 -117.5 -256t-347 -113t-347 113t-117.5 256q0 111 73.5 207t227.5 133q-117 39 -166 124.5t-49 153.5t16 116t54 102.5t118 88.5t190.5 34t190.5 -34t133 -110t53 -171t-48 -180t-165 -124q154 -37 227.5 -133t73.5 -207zM841 981q0 276 -228 276 q-228 -1 -228 -277t229 -275q227 0 227 276zM613 27q151 0 225.5 86t74.5 231t-74.5 231.5t-224 86.5t-226.5 -86.5t-77 -231.5t75.5 -231t226.5 -86z" glyph-name="eight.tnum" horiz-adv-x="1228"/><glyph d="M563 469q-164 0 -280.5 109.5t-116.5 278.5t115.5 305t306.5 136q123 0 216 -51t171 -186t78 -387t-87 -410t-191.5 -223.5t-230.5 -65.5t-249 76l35 58q111 -91 214 -91t172.5 56.5t125 196t55.5 347.5q-46 -63 -147 -106t-187 -43zM901 709q0 260 -90 401t-223 141 t-199.5 -110.5t-66.5 -266.5t70.5 -257t194.5 -101t219 67t95 126z" glyph-name="nine.tnum" horiz-adv-x="1228"/><glyph d="M444 237.5q0 -110.5 -45 -185.5t-141 -75t-141 74t-45 186t45 187.5t141 75.5t141 -76t45 -186.5zM160 238q0 -202 97 -201q97 0 97 202t-96 201q-98 0 -98 -202z" glyph-name="zero.dnom" horiz-adv-x="516"/><glyph d="M236 53q0 -33 59 -37v-28h-209v28q59 4 59 37v371l-63 -21v41l115 52q27 6 33 -2.5t6 -28.5v-412z" glyph-name="one.dnom" horiz-adv-x="366"/><glyph d="M373 355q0 38 -21.5 69t-60.5 31t-58.5 -13.5t-25.5 -44.5t-1 -52t3 -32q-20 -43 -63.5 -28.5t-43.5 41.5q-4 78 48.5 130t145.5 52t142 -43t49 -105t-35.5 -94.5t-154.5 -95.5t-131 -107h242q33 0 43 17l18 26h47l-20 -90q-6 -29 -43 -28h-361q14 66 47 116t62 73.5 t71 47.5t56 34.5t29.5 34t15.5 61.5z" glyph-name="two.dnom" horiz-adv-x="608"/><glyph d="M324 -23q-84 0 -142.5 49.5t-58.5 104.5t47 55q31 0 43 -11t15.5 -41t13.5 -54q20 -53 94 -53q35 0 60.5 29.5t27.5 88.5q-2 76 -50 92.5t-100 -14.5l-16 43l49 23q90 33 90 90q0 43 -15 60.5t-50 17.5q-63 0 -86 -45t-10 -90l-60 12q-25 10 -24 28q-2 63 46 104.5 t124 41.5t123 -40t47 -87t-39 -86q77 -41 77 -126t-61 -138.5t-145 -53.5z" glyph-name="three.dnom" horiz-adv-x="632"/><glyph d="M510 152h-84v-80q0 -37 51 -37v-47h-196v47q49 0 49 37v80h-217v41l245 309q18 23 43 14.5t25 -33.5v-286h84v-45zM330 197v157l-135 -157h135z" glyph-name="four.dnom" horiz-adv-x="612"/><glyph d="M524 163q0 -83 -58 -134.5t-145 -51.5t-140.5 42t-57.5 118q-2 20 11 32.5t33.5 12.5t32 -9t14.5 -17.5t5 -30t4 -27.5q20 -74 99 -73q45 0 72.5 30.5t27.5 79.5q0 150 -119 150q-47 0 -100 -45h-51l20 256h268l15 10h39l-7 -72l-24 -20h-246l-6 -97q69 19 131 19 t122 -45t60 -128z" glyph-name="five.dnom" horiz-adv-x="636"/><glyph d="M307 457q-49 0 -78.5 -49.5t-35.5 -120.5q49 27 113 27t112.5 -44t48.5 -114t-51 -124.5t-140 -54.5t-136.5 72t-47.5 172t56.5 193.5t154.5 93.5q63 0 105 -29q12 -8 13 -14.5t-9 -22.5q-14 -12 -24.5 -9t-36 13.5t-44.5 10.5zM285 31q88 0 88 118t-82 117 q-35 0 -69 -19.5t-34 -31.5q-2 -88 24 -136t73 -48z" glyph-name="six.dnom" horiz-adv-x="561"/><glyph d="M176 496h338l-256 -512h-22q-23 0 -30 13t1 28l205 389h-248l-12 -35h-39l20 88q6 29 43 29z" glyph-name="seven.dnom" horiz-adv-x="595"/><glyph d="M502 131q0 -53 -62.5 -103.5t-139.5 -50.5t-135.5 50.5t-58.5 112.5t82 128q-53 42 -53 98t44 95t120 39t122 -38t46 -92t-53 -98q88 -45 88 -141zM389 374q0 79 -79 79t-79 -80q1 -62 58 -78l45 -12q18 -6 36.5 24.5t18.5 66.5zM397 133q0 43 -18.5 62.5t-71.5 33.5 l-49 13q-16 4 -43 -27t-27 -76q0 -113 113 -112q96 0 96 106z" glyph-name="eight.dnom" horiz-adv-x="608"/><glyph d="M252 29q47 0 76.5 49t36.5 123q-53 -29 -115 -29t-111 43t-49 114t51 125t141 54t137.5 -72t47.5 -172t-56.5 -193.5t-154.5 -93.5q-66 0 -93 20t-25.5 26t9.5 20q14 12 24.5 9t36 -13t44.5 -10zM274 455q-90 0 -90 -118t84 -118q35 0 68 19.5t33 31.5q2 88 -23 136.5 t-72 48.5z" glyph-name="nine.dnom" horiz-adv-x="559"/><glyph d="M444 1054.5q0 -110.5 -45 -185t-141 -74.5t-141 73.5t-45 185.5t45 187.5t141 75.5t141 -76t45 -186.5zM160 1056q0 -202 97 -202t97 202t-96 201q-98 1 -98 -201z" glyph-name="zero.numr" horiz-adv-x="516"/><glyph d="M236 868q0 -33 59 -37v-28h-209v28q59 4 59 37v371l-63 -20v41l115 51q27 6 33 -2t6 -29v-412z" glyph-name="one.numr" horiz-adv-x="366"/><glyph d="M373 1160q0 38 -21.5 69t-60.5 31t-58.5 -13.5t-25.5 -44.5t-1 -52.5t3 -31.5q-20 -43 -63.5 -28.5t-43.5 40.5q-4 78 48.5 130.5t145.5 52.5t142 -43t49 -106t-36 -94.5t-155 -96.5t-130 -105h242q33 0 43 17l18 26h47l-20 -90q-6 -29 -43 -28h-361q14 66 47 115.5 t62 73.5t71 48t56 34.5t29.5 34t15.5 61.5z" glyph-name="two.numr" horiz-adv-x="608"/><glyph d="M324 784q-84 0 -142.5 49.5t-58.5 104.5t47 55q31 0 43 -11t15.5 -41.5t13.5 -54.5q20 -52 94 -52q35 0 60.5 29.5t27.5 88.5q-2 76 -50 92.5t-100 -14.5l-16 43l49 23q90 33 90 90q0 43 -15 60.5t-50 17.5q-63 0 -86 -45t-10 -91l-60 13q-25 10 -24 28q-2 63 46 104.5 t124 41.5t123 -40t47 -87t-39 -86q77 -41 77 -126t-61 -138.5t-145 -53.5z" glyph-name="three.numr" horiz-adv-x="632"/><glyph d="M510 952h-84v-80q0 -37 51 -36v-48h-196v48q49 0 49 36v80h-217v41l245 310q18 23 43 14.5t25 -33.5v-287h84v-45zM330 997v158l-135 -158h135z" glyph-name="four.numr" horiz-adv-x="612"/><glyph d="M524 982q0 -83 -58 -134t-145 -51t-140.5 42t-57.5 117q-2 20 11 32.5t33.5 12.5t32 -9t14.5 -17t5 -29.5t4 -27.5q20 -74 99 -74q45 0 72.5 30.5t27.5 79.5q0 150 -119 150q-47 0 -100 -45h-51l20 256h268l15 10h39l-7 -72l-24 -20h-246l-6 -96q69 18 131 18t122 -45 t60 -128z" glyph-name="five.numr" horiz-adv-x="636"/><glyph d="M307 1262q-49 0 -78.5 -49.5t-35.5 -120.5q49 26 113 26t112.5 -43t48.5 -114t-51 -125t-140 -54t-136.5 72t-47.5 172t56.5 193.5t154.5 93.5q63 0 105 -29q12 -8 13 -14.5t-9 -22.5q-14 -12 -24.5 -9t-36 13.5t-44.5 10.5zM285 836q88 0 88 118t-82 117 q-35 0 -69 -19.5t-34 -31.5q-2 -88 24 -136t73 -48z" glyph-name="six.numr" horiz-adv-x="561"/><glyph d="M176 1311h338l-256 -512h-22q-23 0 -30 13t1 28l205 389h-248l-12 -35h-39l20 88q6 29 43 29z" glyph-name="seven.numr" horiz-adv-x="598"/><glyph d="M502 946q0 -53 -62.5 -103t-139.5 -50t-135.5 50t-58.5 112t82 128q-53 43 -53 99t44 94.5t120 38.5t122 -38.5t46 -92.5t-53 -97q88 -45 88 -141zM389 1189q0 79 -79 79t-79 -80q1 -62 58 -78l45 -12q18 -6 36.5 24.5t18.5 66.5zM397 948q0 43 -18.5 62.5t-71.5 33.5 l-49 13q-16 4 -43 -27t-27 -76q0 -113 113 -112q96 0 96 106z" glyph-name="eight.numr" horiz-adv-x="608"/><glyph d="M252 836q47 0 76.5 49t36.5 123q-53 -29 -115 -29t-111 43t-49 114t51 125t141 54t137.5 -72t47.5 -172t-56.5 -193.5t-154.5 -93.5q-66 0 -93 20t-25.5 26t9.5 20q14 12 24.5 9t36 -13t44.5 -10zM274 1262q-90 0 -90 -118t84 -118q35 0 68 19.5t33 31.5q2 88 -23 136.5 t-72 48.5z" glyph-name="nine.numr" horiz-adv-x="559"/></font>
</defs>
</svg>
