<svg fill="#D47C41" width="100" height="100" viewbox="0 0 100 100" xmlns="http://www.w3.org/2000/svg"><path d="M49.863 0C22.324 0 0 22.324 0 49.863c0 27.539 22.324 49.863 49.863 49.863 27.539 0 49.863-22.324 49.863-49.863C99.726 22.324 77.402 0 49.863 0zm-.758 9.902c3.57 0 6.465 2.89 6.465 6.442 0 3.57-2.89 6.464-6.465 6.464-3.547 0-6.437-2.89-6.441-6.464.004-3.551 2.894-6.442 6.441-6.442zM77.05 30.726l-19.184 2.426.008 19.203 9.293 31.023c.492 1.961-.687 3.918-2.625 4.402s-3.918-.582-4.406-2.543L50.616 57h-2.933l-8.758 28.828c-.734 1.883-2.828 2.746-4.707 2.012-1.86-.726-2.996-2.844-2.262-4.726L40 52.67v-19.52l-17.676-2.406c-1.812-.144-3.047-1.742-2.898-3.558.133-1.828 1.781-3.184 3.598-3.04L44.496 26h9.418l22.867-1.886a3.284 3.284 0 0 1 3.418 3.171c.07 1.82-1.332 3.368-3.149 3.442z"/></svg>