<svg xmlns="http://www.w3.org/2000/svg" width="258.177" height="200"><path fill="#454546" d="M181.507 199.929H5.982A5.982 5.982 0 010 193.947V6A5.982 5.982 0 015.982.018h175.524A5.983 5.983 0 01187.489 6v187.947a5.982 5.982 0 01-5.982 5.982zM11.965 187.964h163.559V11.982H11.965v175.982z"/><path fill="#454546" d="M157.147 51.727H30.126a5.983 5.983 0 010-11.964h127.021a5.982 5.982 0 010 11.964zM141.052 86.758H30.126a5.983 5.983 0 010-11.965h110.926a5.983 5.983 0 010 11.965zM110.601 121.786H30.126a5.983 5.983 0 010-11.965h80.475a5.983 5.983 0 010 11.965zM110.601 159.511H30.126a5.983 5.983 0 010-11.965h80.475a5.982 5.982 0 010 11.965z"/><path fill="#52A7DD" d="M215.654 40.581l-19.792 20.432-62.64 64.671-1.523 31.212h35.887l84.608-90.717-34.146-28.293"/><path fill="#454546" d="M167.586 162.879h-35.887a5.981 5.981 0 01-5.975-6.275l1.523-31.212a5.98 5.98 0 011.678-3.87l82.432-85.104c.374-.385.787-.71 1.228-.974a5.985 5.985 0 019.28-2.165l34.146 28.294a5.984 5.984 0 01.558 8.687l-84.608 90.717a5.979 5.979 0 01-4.375 1.902zm-29.606-11.965h27.004l78.507-84.175-24.878-20.614-79.526 82.104-1.107 22.685z"/><path fill="#1D7CBA" d="M164.96 150.599l78.157-83.809-7.724-6.389-85.976 90.198"/><g><path fill="#454546" d="M231.096 93.044a5.96 5.96 0 01-3.953-1.494l-32.625-28.743a5.982 5.982 0 01-.534-8.443 5.981 5.981 0 018.444-.534l32.625 28.743a5.982 5.982 0 01-3.957 10.471z"/></g></svg>