<svg xmlns="http://www.w3.org/2000/svg" width="196.941" height="200"><path fill="#52A7DD" d="M22.838 87.45l75.633-55.004 76.285 55.004v106.734h-49.111v-63.08H74.133v63.08H22.838z"/><path fill="#1D7CBA" d="M98.796 40.194l51.887 59.419 1.026 86.723v6.3l15.652 1.548 10.52-16.57-3.769-90.628-75.641-54.54z"/><path fill="#454546" d="M191.121 80.387c-1.2 0-2.412-.372-3.453-1.14L98.155 13.058 9.288 79.235a5.816 5.816 0 01-6.945-9.328L94.669 1.153a5.816 5.816 0 016.931-.011l92.983 68.754a5.816 5.816 0 01-3.462 10.491z"/><path fill="#454546" d="M174.756 199.999h-49.111a5.815 5.815 0 01-5.814-5.814v-57.266H79.948v57.266a5.815 5.815 0 01-5.815 5.814H22.838a5.815 5.815 0 01-5.815-5.814V87.45c0-1.86.89-3.608 2.395-4.703l75.633-55.004a5.817 5.817 0 016.821-.014l76.285 55.004a5.814 5.814 0 012.414 4.716v106.734a5.816 5.816 0 01-5.815 5.816zm-43.297-11.629h37.482V90.426L98.485 39.625 28.653 90.411v97.958h39.666v-57.266a5.815 5.815 0 015.815-5.815h51.511a5.816 5.816 0 015.815 5.815v57.267h-.001zM174.756 67.508a5.815 5.815 0 01-5.814-5.815V41.395a5.815 5.815 0 0111.629 0v20.299a5.815 5.815 0 01-5.815 5.814z"/></svg>