<svg width="18" height="18" viewbox="0 0 18 18" xmlns="http://www.w3.org/2000/svg"><path d="M0 0v18h18V0H0zm9.521 15.338c-.266.54-.773.894-1.36 1.066-.903.207-1.767.089-2.41-.297-.43-.264-.765-.67-.993-1.138l1.37-.84c.012.006.048.071.097.155.174.293.325.5.621.646.292.1.93.163 1.178-.35.15-.26.102-1.098.102-2.025 0-1.456.007-2.907.007-4.347H9.82c0 1.584.009 3.084 0 4.63.004.947.086 1.792-.298 2.5zm6.995-.476c-.586 2.004-3.854 2.07-5.16.745-.276-.312-.449-.475-.613-.835.694-.399.694-.399 1.369-.79.367.564.706.874 1.316 1.001.828.101 1.66-.183 1.474-1.062-.192-.718-1.695-.893-2.718-1.66-1.038-.698-1.282-2.393-.428-3.36.284-.36.769-.626 1.278-.755l.53-.068c1.02-.021 1.658.248 2.126.77.13.133.236.275.435.583-.543.346-.541.343-1.32.847a1.255 1.255 0 0 0-.733-.68c-.452-.138-1.023.011-1.141.49-.041.147-.033.284.032.527.184.418.799.6 1.35.854 1.59.644 2.126 1.335 2.258 2.157.127.708-.031 1.167-.055 1.236z" fill-rule="nonzero" fill="#F0DB4F"/></svg>