<svg xmlns="http://www.w3.org/2000/svg" width="301.931" height="200"><path fill="#52A7DD" d="M284.357 69.724L150.37 122.916 61.348 87.012 5.409 64.449 151.525 5.985 295.33 64.451l-10.973 5.273"/><path fill="#52A7DD" d="M60.999 94.113v99.922h185.825V86.901"/><path fill="#1D7CBA" d="M150.37 12.22l82.373 51.005-81.79 52.441 57.609-10.357.185 88.726h38.077l2.693-110.248 44.9-18.131L150.953 5.985z"/><path fill="#454546" d="M295.915 131.316a5.992 5.992 0 01-5.991-5.993V73.052a5.957 5.957 0 01-2.774 2.241l-133.987 53.191a5.99 5.99 0 01-4.452-.012L3.75 70.006A5.99 5.99 0 010 64.441a5.987 5.987 0 013.766-5.554L149.883.423a6.01 6.01 0 014.482.012L298.17 58.901a5.99 5.99 0 013.735 5.55v60.872a5.99 5.99 0 01-5.99 5.993zM22.063 64.472l128.906 51.989 130.013-51.612-128.89-52.402L22.063 64.472z"/><path fill="#454546" d="M246.824 200.026H60.999a5.991 5.991 0 01-5.991-5.991V89.121a5.992 5.992 0 0111.983 0v98.925h173.842V86.901a5.991 5.991 0 0111.982 0v107.134a5.99 5.99 0 01-5.991 5.991z"/></svg>