<svg fill="#10967A" width="100pt" height="100pt" viewBox="0 0 100 100" xmlns="http://www.w3.org/2000/svg"><path d="M61.281 5c-3.512.887-7.176 2.969-9.313 5.406s-3.675 5.645-4.375 9.656c-20.508-9.379-40.465 6.22-39.469 29.344.997 23.13 18.051 55.59 41.594 42.31C72.191 104.585 87 76.937 91.029 56.683c-9.762-1.34-17.313-10.559-17.313-21.719 0-5.21 1.626-9.992 4.376-13.75-6.555-4.058-15.13-5.101-25.16-.812.597-2.84 1.535-4.738 3.093-6.531 1.559-1.793 4.184-3.227 7.313-4.438-.168-2.12-.969-3.617-2.063-4.437"/></svg>