<svg fill="#868686" width="100pt" height="100pt" viewBox="0 0 100 100" xmlns="http://www.w3.org/2000/svg"><path d="M78.125 0c-5.559 0-10.617 3.883-14.477 10.227-14.297 9.578-34.723 11.648-44.898 11.648C8.395 21.875 0 30.27 0 40.625s8.394 18.75 18.75 18.75c10.176 0 30.602 2.07 44.898 11.648 3.86 6.344 8.918 10.227 14.477 10.227C90.207 81.25 100 63.062 100 40.625S90.207 0 78.125 0zm0 68.75c-1.742-.555-5.992-5.875-8.117-15.754 6.305-.637 11.242-5.898 11.242-12.371s-4.938-11.734-11.242-12.371c2.16-10.043 6.433-15.352 8.117-15.754 2.11.547 9.375 10.039 9.375 28.125 0 17.867-7.008 27.367-9.375 28.125zM18.75 65.625c-1.398 0-2.766-.145-4.106-.367 1.258 11.527 3.243 25.297 4.106 29.34.918 4.3 4.375 5.402 6.25 5.402h12.5c2.23 0 6.332-1.629 6.25-6.594-.043-2.738-3.555-13.855-5.043-25.59-7.152-1.543-14.266-2.191-19.957-2.191z"/></svg>