<svg fill="#1C7CBA" width="100" height="100" viewBox="0 0 100 100" xmlns="http://www.w3.org/2000/svg"><path d="M62.281 10H37.886l8.629-8.59c1.96-1.96 5.172-1.937 7.137.028zM5.554 42.473v50.074l25.039-25.039zm47.309 33.082l4.66-3.332h-14.66l4.684 3.332zm13.262-12.223h-31.91l4.684 4.445H61.46zM26.668 28.891V50h21.109V28.891zm47.789 25.523c-.2-.059-.414.031-.633.031h-47.57c-.156 0-.308-.105-.457-.074l4.637 4.52h39.453zm-.543-26.637H56.976c-1.293 0-2.344 1.484-2.344 2.777 0 1.293 1.051 2.778 2.344 2.778h16.938c1.293 0 2.344-1.485 2.344-2.778s-1.051-2.777-2.344-2.777zM20 21.109h60v28.422l5.555-5.98V20.23c0-2.774-2.438-5.786-5.211-5.786H19.739c-2.777 0-5.293 3.012-5.293 5.786v23.25L20 49.43zm53.914 15.559H56.976c-1.293 0-2.344.93-2.344 2.223s1.051 2.222 2.344 2.222h16.938c1.293 0 2.344-.93 2.344-2.222 0-1.297-1.051-2.223-2.344-2.223zm2.344 10.555c0-1.293-1.051-2.777-2.344-2.777H56.976c-1.293 0-2.344 1.484-2.344 2.777 0 1.293 1.051 2.777 2.344 2.777h16.938c1.293 0 2.344-1.484 2.344-2.777zm-7.961 20.285l25.035 25.039V42.473zM52.359 84.094a3.223 3.223 0 0 1-4.555 0L35.77 72.059 8.3 99.543a3.88 3.88 0 0 0 1.809.457h79.949c.652 0 1.266-.172 1.809-.457L64.39 72.066z"/></svg>