<svg fill="#1C7CBA" width="100" height="100" viewbox="0 0 100 100" xmlns="http://www.w3.org/2000/svg"><path d="M75.203 60.25c0 .617.11 1.21.328 1.742.223.528.531 1.016.926 1.41.398.375.883.704 1.453.95.066.02.133.043.2.066a5.3 5.3 0 0 0 1.5.285h.222c.992 0 1.851-.242 2.555-.683.53-.332.949-.727 1.3-1.235.09-.133.176-.265.243-.418V58.2a5.213 5.213 0 0 0-.641-.926 2.834 2.834 0 0 0-.375-.375 5.689 5.689 0 0 0-.574-.418c-.352-.222-.75-.394-1.168-.527s-.883-.176-1.344-.176c-.441 0-.883.043-1.3.176-.2.043-.376.09-.552.176a4.967 4.967 0 0 0-1.476.969 4.639 4.639 0 0 0-.969 1.433 2.417 2.417 0 0 0-.152.551c-.133.371-.176.77-.176 1.168zm22.191-5.688c.418 1.434.64 2.954.64 4.497 0 .84-.066 1.675-.242 2.511a13.028 13.028 0 0 1-.707 2.426c-.328.77-.703 1.5-1.168 2.184a8.489 8.489 0 0 1-1.632 1.785c-.637.508-1.32.926-2.07 1.21-.77.31-1.61.462-2.489.462a6.515 6.515 0 0 1-1.652-.2c-.508-.152-.95-.328-1.344-.593a5.81 5.81 0 0 1-1.563-1.477c-.64.461-1.367.86-2.16 1.145-2.117.77-4.715.707-6.765-.153a8.67 8.67 0 0 1-2.844-1.875 8.203 8.203 0 0 1-1.52-2.07 10.295 10.295 0 0 1-.351-.727c-.442-1.058-.66-2.203-.66-3.437 0-1.191.242-2.36.707-3.414.242-.574.55-1.102.902-1.61.289-.418.617-.816.992-1.19a8.983 8.983 0 0 1 2.36-1.677c.156-.066.332-.152.484-.218 1.875-.817 4.14-.926 6.148-.333.153.043.309.11.465.157.352.133.684.265 1.012.418v-1.059h4.32v12.207c0 .75.133 1.145.242 1.344.157.266.328.465.532.594.195.109.46.175.793.175.75 0 1.32-.199 1.808-.593a4.91 4.91 0 0 0 1.235-1.543 7.492 7.492 0 0 0 .66-1.918c.133-.66.199-1.524.199-2.536 0-1.12-.176-2.246-.484-3.304a12.59 12.59 0 0 0-1.387-3.04c-.57-.949-1.3-1.808-2.137-2.6-.816-.794-1.765-1.478-2.777-2.052a13.607 13.607 0 0 0-3.328-1.32c-.223-.066-.465-.11-.684-.152-2.16-.485-4.562-.418-6.68.152a13.829 13.829 0 0 0-3.304 1.387c-.067.043-.133.09-.2.132-.949.551-1.808 1.258-2.578 2.028-.285.265-.55.55-.793.86a12.835 12.835 0 0 0-1.367 1.917 15.058 15.058 0 0 0-1.367 3.281 13.221 13.221 0 0 0-.484 3.637c0 1.277.152 2.512.484 3.68.067.261.152.508.219.75a15.97 15.97 0 0 0 1.144 2.558 13.094 13.094 0 0 0 2.16 2.778 13.355 13.355 0 0 0 2.778 2.16 13.802 13.802 0 0 0 3.305 1.387c2.359.64 5.046.64 7.406-.02a14.233 14.233 0 0 0 3.394-1.477l.461-.285 2.227 3.7-.461.285a18.158 18.158 0 0 1-4.43 1.941 18.16 18.16 0 0 1-4.937.684c-1.653 0-3.262-.223-4.805-.66a18.432 18.432 0 0 1-4.34-1.805 18.757 18.757 0 0 1-3.656-2.844 18.26 18.26 0 0 1-2.844-3.656c-.793-1.344-1.387-2.801-1.828-4.34a2.922 2.922 0 0 1-.09-.398c-.375-1.41-.55-2.887-.55-4.43 0-1.633.218-3.262.64-4.781.441-1.543 1.035-2.996 1.828-4.32a16.173 16.173 0 0 1 2.469-3.262c.11-.133.242-.266.375-.395a16.92 16.92 0 0 1 3.02-2.445c.199-.133.417-.266.64-.395 1.344-.77 2.8-1.39 4.34-1.808 2.492-.684 5.246-.813 7.824-.395.64.09 1.254.219 1.852.375 1.543.418 2.996.992 4.32 1.742a17.831 17.831 0 0 1 6.5 6.192 17.102 17.102 0 0 1 1.793 4.066zM82.914 25.102v12.605a27.682 27.682 0 0 0-2.379-.11c-4.762 0-9.21 1.454-12.87 3.965l-2.536-3.37 17.785-13.157v.067zM80.758 21.113L45.102 47.336 9.754 20.914c.66-.375 1.434-.57 2.27-.57h66.132a4.725 4.725 0 0 1 2.602.77z"/><path d="M61.586 40.836l2.668 3.527c-4.121 4.164-6.676 9.895-6.676 16.195 0 1.324.11 2.602.328 3.856H12.023a4.83 4.83 0 0 1-1.144-.133l17.828-23.578 16.395 12.316zM25.18 38.059L7.575 61.329a4.692 4.692 0 0 1-.309-1.676v-34.55c0-.177 0-.333.02-.485z"/></svg>