<svg fill="#D5403A" width="100" height="100" viewBox="0 10 100 90" xmlns="http://www.w3.org/2000/svg"><path d="M92.602 71.301h-.3V23.399c0-3.8-3.102-6.8-6.802-6.8l-70.898.003c-3.8 0-6.8 3.102-6.8 6.8v47.899h-6.5v4.602c0 4.199 3.398 7.5 7.5 7.5H91c4.199 0 7.5-3.399 7.5-7.5V71.3zm-9.703 0H59.102v.5c0 1.398-1.2 2.602-2.602 2.602l-13-.004c-1.398 0-2.601-1.2-2.601-2.602v-.5l-23.797.004V25.899H83v45.402zm-15.5-22.102c-.602-1.398 0-3 1.398-3.7 1.399-.6 3 0 3.7 1.4.601 1.398 0 3.1-1.399 3.698-.3.102-.5.2-.8.2-1.196.101-2.4-.496-2.9-1.598zm4.703 8.5c1.5.2 2.602 1.602 2.398 3.2-.199 1.3-1.199 2.198-2.398 2.3h-.8a2.699 2.699 0 0 1-2.302-3.2c.2-1.398 1.602-2.5 3.102-2.3zm-28.203-4.2c-2 3.2-1.102 7.5 2.102 9.5 3.199 2 7.5 1.102 9.5-2.1 1.199-1.9 1.398-4.102.601-6.102l8.2-15.398c.699-1.301.3-2.899-1-3.7-1.2-.8-2.801-.5-3.7.7l-10.5 14c-2 .101-4 1.203-5.203 3.101zm7.3 1.4c1.302.8 1.7 2.5.802 3.8-.801 1.3-2.5 1.7-3.801.8-1.301-.8-1.7-2.5-.801-3.8.8-1.3 2.5-1.7 3.8-.8zm-25.897 8.5c-.602-2.4-.899-4.9-.801-7.4.102-2.5.602-4.898 1.398-7.3.399-1.2.899-2.3 1.5-3.5l.399-.7.101-.198.2-.301.199-.399c.3-.5.7-1 1-1.601 1.5-2 3.2-3.801 5.2-5.301s4.198-2.7 6.6-3.602c2.4-.898 4.801-1.398 7.4-1.601 2.5-.2 5.1.101 7.5.699.6.102 1.1.3 1.6.5l-1.199 1.2-3.699 4.898c-1.3-.2-2.601-.301-3.898-.301-1.8.101-3.7.398-5.399 1-1.699.601-3.398 1.398-4.898 2.5-1.5 1.101-2.8 2.398-4 3.898-.3.399-.602.7-.8 1.102l-.2.3v.102s.102-.101 0 0l-.102.2-.398.699c-.398.699-.8 1.601-1.102 2.5-.699 1.699-1 3.601-1.199 5.5-.101 1.898 0 3.8.5 5.601.399 1.7 1 3.301 1.899 4.801h-6.5c-.602-.996-1-2.195-1.301-3.297z"/></svg>
