<svg width="740" height="280" viewbox="0 0 740 280" xmlns="http://www.w3.org/2000/svg"><g fill-rule="nonzero" fill="none"><path fill="#616161" d="M544.62 229.7l21.378-54.059h61.724L598.43 93.637 635.066.989 740 279.6h-77.385l-17.932-49.9H544.62z"/><path fill="#FB8C00" d="M478.6 279.601L590.935.99H516.46l-76.843 180.046L384.974.99H327.73l-58.672 180.045-41.377-82.043-37.445 115.36 38.018 65.249h73.291l53.02-161.462 50.55 161.462z"/><path d="M70.693 183.958h45.872c13.895 0 26.269-1.551 37.12-4.653l11.863-36.548 33.156-102.146a81.616 81.616 0 0 0-8.653-11.358C173.028 10.41 148.121.989 115.331.989H0V279.6h70.693v-95.643.001zm60.718-118.872c6.65 6.692 9.974 15.648 9.974 26.867 0 11.306-2.924 20.272-8.771 26.9-6.411 7.364-18.215 11.045-35.412 11.045h-26.51v-74.85h26.705c16.027 0 27.365 3.346 34.014 10.038z" fill="#616161"/></g></svg>