<svg width="175" height="101" viewBox="0 0 175 101" xmlns="http://www.w3.org/2000/svg"><path d="M11.9 82.2L.6 78.5 31.5.8l11.3 3.9-30.9 77.5zm41.5 0l-11.3-3.7L73 .8l11.3 3.9-30.9 77.5zm90.1-9.9c0 4.867-.7 9.1-2.1 12.7-1.4 3.6-3.367 6.583-5.9 8.95-2.533 2.367-5.617 4.133-9.25 5.3-3.633 1.167-7.65 1.75-12.05 1.75s-8.917-.667-13.55-2c-4.633-1.333-8.65-3.267-12.05-5.8l8.2-11.7c2.4 2.133 5.05 3.717 7.95 4.75 2.9 1.033 5.75 1.55 8.55 1.55 4.8 0 8.35-1.267 10.65-3.8 2.3-2.533 3.45-5.9 3.45-10.1v-3h-.3c-1.533 2-3.6 3.6-6.2 4.8-2.6 1.2-5.567 1.8-8.9 1.8-3.8 0-7.167-.683-10.1-2.05-2.933-1.367-5.417-3.217-7.45-5.55-2.033-2.333-3.583-5.05-4.65-8.15-1.067-3.1-1.6-6.383-1.6-9.85 0-3.467.533-6.767 1.6-9.9 1.067-3.133 2.617-5.9 4.65-8.3 2.033-2.4 4.517-4.317 7.45-5.75 2.933-1.433 6.267-2.15 10-2.15 3.133 0 6.133.633 9 1.9s5.167 3.233 6.9 5.9h.2v-6.4h15.5v45.1zm-15.6-20.5c0-1.667-.283-3.267-.85-4.8a12.207 12.207 0 0 0-2.45-4.05 11.587 11.587 0 0 0-3.8-2.75c-1.467-.667-3.133-1-5-1s-3.517.333-4.95 1c-1.433.667-2.65 1.567-3.65 2.7-1 1.133-1.767 2.467-2.3 4-.533 1.533-.8 3.167-.8 4.9 0 1.667.267 3.267.8 4.8s1.3 2.883 2.3 4.05c1 1.167 2.217 2.1 3.65 2.8 1.433.7 3.083 1.05 4.95 1.05s3.55-.35 5.05-1.05c1.5-.7 2.767-1.617 3.8-2.75s1.833-2.467 2.4-4 .85-3.167.85-4.9zm46.4-40.5c0 1.267-.25 2.45-.75 3.55a9.16 9.16 0 0 1-2 2.85c-.833.8-1.833 1.433-3 1.9a9.739 9.739 0 0 1-3.65.7c-2.667 0-4.9-.883-6.7-2.65-1.8-1.767-2.7-3.883-2.7-6.35 0-1.2.233-2.35.7-3.45a8.18 8.18 0 0 1 2-2.85c.867-.8 1.867-1.45 3-1.95s2.367-.75 3.7-.75c1.267 0 2.483.233 3.65.7 1.167.467 2.167 1.1 3 1.9.833.8 1.5 1.75 2 2.85s.75 2.283.75 3.55zM156.7 77V27.2h16.4V77h-16.4z" fill="#5A5A5A" fill-rule="evenodd"/></svg>
