<svg fill="#1C7CBA" width="100" height="100" viewbox="0 0 100 100" xmlns="http://www.w3.org/2000/svg"><path d="M50 13c7.156 0 14.355 2.73 19.812 8.188 4.059 4.058 6.52 9.093 7.563 14.344C87.965 37.586 95.998 46.837 95.998 58c0 12.668-10.331 23-23 23H62a2.998 2.998 0 0 1-3.042-3c0-.805.32-1.575.894-2.137A2.982 2.982 0 0 1 62 75h11c9.426 0 17-7.575 17-17 0-8.899-6.769-16.148-15.437-16.938a3 3 0 0 1-2.688-2.625 21.955 21.955 0 0 0-6.313-13.031C61.257 21.102 55.636 19 50 19s-11.223 2.098-15.53 6.407a22.007 22.007 0 0 0-6.313 18.219 3.01 3.01 0 0 1-.723 2.355 3.017 3.017 0 0 1-2.246 1.02H24c-7.809 0-14 6.19-14 14s6.191 14 14 14h14a2.981 2.981 0 0 1 2.148.863A3 3 0 0 1 38 81H24C12.973 81 4 72.028 4 61c0-10.406 8.02-18.883 18.188-19.812-.047-7.239 2.523-14.492 8.03-20C35.673 15.735 42.845 13 50 13zm0 34c1 0 1.527.32 2.031.781l11 10c1.27 1.18 1.246 3.094.188 4.25s-3.086 1.242-4.25.188l-5.97-5.438v27.22a3 3 0 0 1-6 0V56.78l-5.968 5.438c-1.164 1.054-3.129.91-4.25-.188-1.184-1.156-.965-3.183.188-4.25l11-10c.593-.543 1.03-.781 2.03-.781z"/></svg>