<svg fill="#1D7CBB" width="100pt" height="100pt" viewBox="0 0 100 100" xmlns="http://www.w3.org/2000/svg"><path d="M73.449 58.324c-.512 0-1.012.031-1.512.082-.113.012-.218.02-.324.031-.48.063-.957.137-1.437.239-.075.02-.145.043-.22.05-.425.106-.843.22-1.26.356-.083.031-.177.05-.263.082-.449.156-.886.332-1.312.531-.094.043-.188.094-.281.137-.407.199-.793.406-1.176.637a.7.7 0 0 0-.125.074c-.406.25-.8.52-1.176.812-.082.063-.176.137-.262.2-.375.3-.738.605-1.093.937-.032.031-.063.074-.094.105-.324.313-.637.645-.926 1a1.446 1.446 0 0 0-.125.137L41.281 53.437c.012-.05.02-.105.031-.156.051-.23.106-.457.137-.688a.897.897 0 0 0 .02-.175c.042-.23.074-.457.105-.676.012-.113.02-.219.031-.332.02-.176.031-.356.043-.531.02-.293.02-.582.02-.875 0-.293-.012-.582-.02-.875-.012-.125-.02-.25-.031-.375-.012-.168-.02-.325-.043-.489-.012-.113-.031-.218-.05-.332a8.267 8.267 0 0 0-.075-.531c-.012-.074-.031-.137-.043-.207-.043-.207-.082-.418-.125-.625l20.582-10.293c.043.043.082.082.125.137.293.343.605.675.926 1 .031.031.062.074.094.105.343.332.718.645 1.093.938.082.074.176.136.262.199.387.293.77.562 1.176.812a.7.7 0 0 1 .125.075c.387.23.77.437 1.176.636.093.043.187.094.28.137.427.2.864.375 1.313.531.082.032.176.051.262.082.418.137.832.25 1.262.356.074.02.144.043.219.05.468.106.949.176 1.437.239.106.012.219.02.324.031.5.05 1 .082 1.512.082 8.332 0 15.113-6.781 15.113-15.113s-6.781-15.113-15.113-15.113-15.113 6.781-15.113 15.113c0 1.168.137 2.324.395 3.438L38.137 40.305a15.021 15.021 0 0 0-11.574-5.418c-8.332 0-15.125 6.78-15.125 15.113s6.78 15.113 15.125 15.113c4.55 0 8.738-2.012 11.574-5.418L58.73 69.988a15.114 15.114 0 0 0-.395 3.437c0 8.332 6.781 15.113 15.113 15.113s15.113-6.781 15.113-15.113c0-8.344-6.781-15.102-15.113-15.102zm0-39.875c4.469 0 8.105 3.637 8.105 8.105s-3.636 8.106-8.105 8.106a8.05 8.05 0 0 1-7.238-4.488 7.976 7.976 0 0 1-.864-3.614c-.015-4.476 3.633-8.109 8.102-8.109zM33.801 53.613a8.068 8.068 0 0 1-7.238 4.488c-4.47 0-8.106-3.636-8.106-8.105s3.637-8.106 8.106-8.106A8.05 8.05 0 0 1 33.8 46.38a8 8 0 0 1 .863 3.613 7.887 7.887 0 0 1-.863 3.621zm39.648 27.938c-4.469 0-8.105-3.637-8.105-8.105 0-1.262.292-2.481.863-3.614a8.068 8.068 0 0 1 7.238-4.488c4.469 0 8.106 3.637 8.106 8.105s-3.633 8.102-8.102 8.102z"/></svg>