<svg xmlns="http://www.w3.org/2000/svg" width="198.76" height="200"><path fill="#52A7DD" d="M6.006 6.006h186.748v139.035h-43.807v48.945L90.33 144.418H6.006z"/><path fill="#1D7CBA" d="M153.28 9.761l18.344 110.063H119.214l23.324 60.623 6.409 3.931.405-8.91.698-24.021-.173-5.94s21.838-2.271 22.36-2.271c.525 0 10.658.086 10.658.086l6.291-2.184 3.569-6.811-1.562-109.541-1.572-18.781-36.341 3.756z"/><path fill="#454546" d="M148.948 199.992a6.004 6.004 0 01-3.878-1.419l-56.938-48.148H6.006A6.005 6.005 0 010 144.419V6.006A6.006 6.006 0 016.006 0h186.748a6.006 6.006 0 016.006 6.006v139.035a6.007 6.007 0 01-6.006 6.006h-37.801v42.939a6.006 6.006 0 01-6.005 6.006zM12.012 138.414H90.33c1.42 0 2.793.504 3.877 1.421l48.734 41.208v-36.002a6.005 6.005 0 016.005-6.006h37.801V12.012H12.012v126.402z"/><path fill="#454546" d="M145.039 56.435H30.686a6.006 6.006 0 010-12.011h114.353a6.006 6.006 0 010 12.011zM76.343 106.002H30.686a6.006 6.006 0 010-12.012h45.658a6.006 6.006 0 11-.001 12.012zM145.039 106.002H99.38a6.007 6.007 0 010-12.012h45.659a6.007 6.007 0 010 12.012z"/></svg>