<svg fill="#1D7CBB" width="100" height="100" viewBox="0 0 100 100" xmlns="http://www.w3.org/2000/svg"><path d="M81.031 38.305l6-5.234-5.086-5.832-6.008 5.238a39.143 39.143 0 0 1 5.094 5.828zm-27.668-12.23V18.11h7.738V6.501H37.886v11.61h7.739v7.964c-17.41 1.926-30.957 16.676-30.957 34.598 0 19.234 15.594 34.824 34.824 34.824 19.234.004 34.828-15.59 34.828-34.82 0-17.926-13.543-32.672-30.957-34.602zm-3.871 61.688c-14.961 0-27.086-12.125-27.086-27.086 0-14.961 12.125-27.086 27.086-27.086 14.96 0 27.086 12.125 27.086 27.086.004 14.961-12.125 27.086-27.086 27.086zm3.871-46.438h-7.738v23.219h19.348v-7.738h-11.61z" fill-rule="evenodd"/></svg>