<svg width="284" height="284" viewBox="0 0 284 284" xmlns="http://www.w3.org/2000/svg"><g fill="#FFB13B" fill-rule="nonzero"><g stroke-width="38.009" stroke="#000"><path d="M57.851 126.149c-8.754-8.755-22.948-8.755-31.702 0-8.755 8.754-8.755 22.948 0 31.702 8.754 8.755 22.948 8.755 31.702 0H226.15c8.754 8.755 22.948 8.755 31.702 0 8.755-8.754 8.755-22.948 0-31.702-8.754-8.755-22.948-8.755-31.702 0H57.85z"/><path d="M93.706 71.29c0-12.381-10.036-22.418-22.417-22.418-12.38 0-22.417 10.037-22.417 22.417 0 12.381 10.037 22.417 22.417 22.417l119.005 119.005c0 12.38 10.036 22.417 22.417 22.417 12.38 0 22.417-10.037 22.417-22.417 0-12.381-10.037-22.417-22.417-22.417L93.706 71.289z"/><path d="M157.851 57.851c8.755-8.754 8.755-22.948 0-31.702-8.754-8.755-22.948-8.755-31.702 0-8.755 8.754-8.755 22.948 0 31.702V226.15c-8.755 8.754-8.755 22.948 0 31.702 8.754 8.755 22.948 8.755 31.702 0 8.755-8.754 8.755-22.948 0-31.702V57.85z"/><path d="M212.71 93.706c12.381 0 22.418-10.036 22.418-22.417 0-12.38-10.037-22.417-22.417-22.417-12.381 0-22.417 10.037-22.417 22.417L71.289 190.294c-12.38 0-22.417 10.036-22.417 22.417 0 12.38 10.037 22.417 22.417 22.417 12.381 0 22.417-10.037 22.417-22.417L212.711 93.706z"/></g><path d="M57.851 126.149c-8.754-8.755-22.948-8.755-31.702 0-8.755 8.754-8.755 22.948 0 31.702 8.754 8.755 22.948 8.755 31.702 0H226.15c8.754 8.755 22.948 8.755 31.702 0 8.755-8.754 8.755-22.948 0-31.702-8.754-8.755-22.948-8.755-31.702 0H57.85z"/><path d="M93.706 71.29c0-12.381-10.036-22.418-22.417-22.418-12.38 0-22.417 10.037-22.417 22.417 0 12.381 10.037 22.417 22.417 22.417l119.005 119.005c0 12.38 10.036 22.417 22.417 22.417 12.38 0 22.417-10.037 22.417-22.417 0-12.381-10.037-22.417-22.417-22.417L93.706 71.289z"/><path d="M157.851 57.851c8.755-8.754 8.755-22.948 0-31.702-8.754-8.755-22.948-8.755-31.702 0-8.755 8.754-8.755 22.948 0 31.702V226.15c-8.755 8.754-8.755 22.948 0 31.702 8.754 8.755 22.948 8.755 31.702 0 8.755-8.754 8.755-22.948 0-31.702V57.85z"/><path d="M212.71 93.706c12.381 0 22.418-10.036 22.418-22.417 0-12.38-10.037-22.417-22.417-22.417-12.381 0-22.417 10.037-22.417 22.417L71.289 190.294c-12.38 0-22.417 10.036-22.417 22.417 0 12.38 10.037 22.417 22.417 22.417 12.381 0 22.417-10.037 22.417-22.417L212.711 93.706z"/></g></svg>
