<svg xmlns="http://www.w3.org/2000/svg" width="225.889" height="200"><path fill="#454546" d="M185.628 159.056a5.993 5.993 0 01-3.871-1.417l-44.175-37.358H73.814a5.993 5.993 0 01-5.993-5.993V6.013A5.993 5.993 0 0173.814.02h146.083a5.993 5.993 0 015.992 5.993v108.759a5.993 5.993 0 01-5.992 5.992h-28.276v32.299a5.993 5.993 0 01-5.993 5.993zm-105.821-50.76h59.969c1.417 0 2.788.502 3.87 1.417l35.989 30.433v-25.374a5.993 5.993 0 015.993-5.993h28.275V12.006H79.807v96.29z"/><path fill="#52A7DD" d="M164.017 34.919H5.993v117.649h37.069v41.419l49.602-41.944h71.353z"/><path fill="#1D7CBA" d="M139.584 132.47l-55.259.26-36.199 50.927-5.064 6.88 49.602-38.494 70.251 1.02V34.919l-3.355 1.743z"/><path fill="#454546" d="M131.848 83.944H41.76a5.993 5.993 0 110-11.985h90.088a5.993 5.993 0 010 11.985zM97.951 116.013H41.76a5.994 5.994 0 010-11.986h56.191a5.994 5.994 0 010 11.986zM202.279 51.911h-20.37a5.993 5.993 0 110-11.986h20.37c3.309 0 5.994 2.683 5.994 5.993s-2.685 5.993-5.994 5.993zM202.279 83.944h-20.37a5.993 5.993 0 110-11.985h20.37a5.994 5.994 0 015.994 5.993 5.994 5.994 0 01-5.994 5.992z"/><path fill="#454546" d="M43.061 199.98a5.99 5.99 0 01-5.991-5.994V158.56H5.993A5.993 5.993 0 010 152.568V34.919a5.993 5.993 0 015.993-5.993h158.024a5.994 5.994 0 015.993 5.993v117.124a5.993 5.993 0 01-5.993 5.993H94.858l-47.926 40.526a5.983 5.983 0 01-3.871 1.418zm-31.075-53.405h31.076a5.993 5.993 0 015.993 5.993v28.504l39.739-33.604a6.003 6.003 0 013.87-1.416h65.36V40.912H11.986v105.663z"/></svg>