<svg fill="#1C7CBA" width="100pt" height="100pt" viewBox="0 0 100 100" xmlns="http://www.w3.org/2000/svg"><path d="M50 5C25.148 5 5 25.145 5 50s20.148 45 45 45c24.855 0 45-20.145 45-45S74.855 5 50 5zm11.168 48.434c.77.77 2.281 1.008 3.313.84 3.41-.55 6.902.574 9.343 3.02a10.766 10.766 0 0 1 3.133 8.363.584.584 0 0 1-.578.543c-.188-.004-.188-.004-5.715-4.004a3.386 3.386 0 0 0-2.578-.606 3.406 3.406 0 0 0-2.234 1.414l-.368.528a3.489 3.489 0 0 0 .856 4.855L72.5 72.7c.028.015.055.039.078.062a.59.59 0 0 1 .168.461.568.568 0 0 1-.238.426 10.75 10.75 0 0 1-6.3 2.047 10.74 10.74 0 0 1-7.614-3.172 10.824 10.824 0 0 1-3.02-9.332c.164-1.031-.07-2.547-.84-3.317l-5.261-5.265-1.387 1.394 1.344 1.344c.746.746.746 1.961 0 2.707L34.403 75.082a6.363 6.363 0 0 1-4.531 1.871 6.366 6.366 0 0 1-4.535-1.87l-.461-.462a6.366 6.366 0 0 1-1.872-4.535 6.373 6.373 0 0 1 1.872-4.531l15.05-15.02a1.913 1.913 0 0 1 2.708.004l1.328 1.328 1.394-1.387-5.168-5.172c-.765-.77-2.277-1.008-3.312-.84-3.41.551-6.907-.574-9.348-3.015a10.75 10.75 0 0 1-3.129-8.36.593.593 0 0 1 .29-.468.59.59 0 0 1 .546-.016c.031.012.055.031.086.05l5.371 3.891c.75.547 1.664.758 2.574.606a3.396 3.396 0 0 0 2.239-1.414l.367-.524a3.491 3.491 0 0 0-.856-4.855l-6.16-4.313a.582.582 0 0 1-.254-.472c0-.188.086-.367.238-.48a10.715 10.715 0 0 1 13.91 1.124 10.813 10.813 0 0 1 3.02 9.336c-.164 1.027.074 2.543.844 3.317l5.187 5.19 9.961-9.913c.45-.445 1.082-1.301 1.371-1.867l2.477-4.786c.34-.66 1.129-1.43 1.789-1.761l4.863-2.414c.703-.348 1.766-.168 2.313.379l1.87 1.87c.575.575.723 1.587.34 2.301l-2.535 4.711c-.351.649-1.136 1.422-1.793 1.762l-4.785 2.477c-.562.293-1.422.922-1.867 1.37l-9.91 9.966z"/><path d="M43.91 42.602a.964.964 0 0 0 0 1.355l12.188 12.184a.957.957 0 0 0 1.352-1.355L45.266 42.602a.957.957 0 0 0-1.356 0z"/></svg>