<svg width="100pt" height="100pt" viewBox="0 0 100 100" xmlns="http://www.w3.org/2000/svg"><path d="M20.102 68.109C15.489 71.999 6.211 79.3 2 82.593a49.173 49.173 0 0027.59 12.328c27.129 2.984 51.539-16.586 54.523-43.711a59.4 59.4 0 00-.066-13.473l11.19-8.973-13.608-1.496.004.016c-2.657-7.363-7.372-13.645-14.914-16.605-11.582-4.54-26.008 3.965-27.43 16.875-.739 6.719 1.835 13.035 6.414 17.324L16.34 20.44S-2.492 46.866 20.1 68.108zM57.09 27.964a4.782 4.782 0 015.273-4.23 4.78 4.78 0 11-5.273 4.23z"/></svg>