<?xml version="1.0" encoding="UTF-8"?>
<svg width="100pt" height="100pt" version="1.1" viewBox="0 0 100 100" xmlns="http://www.w3.org/2000/svg">
	<path d="m20.102 68.109c-4.6133 3.8906-13.891 11.191-18.102 14.484 7.418 6.6641 16.918 11.156 27.59 12.328 27.129 2.9844 51.539-16.586 54.523-43.711 0.46484-4.2148 0.49219-8.8555-0.066406-13.473l11.191-8.9727-13.609-1.4961 0.003906 0.015625c-2.6562-7.3633-7.3711-13.645-14.914-16.605-11.582-4.5391-26.008 3.9648-27.43 16.875-0.73828 6.7188 1.8359 13.035 6.4141 17.324l-29.363-24.438s-18.832 26.426 3.7617 47.668zm36.988-40.145c0.28906-2.625 2.6484-4.5156 5.2734-4.2305 2.6211 0.28906 4.5156 2.6484 4.2266 5.2734-0.28906 2.6211-2.6484 4.5156-5.2734 4.2266-2.6211-0.28516-4.5156-2.6445-4.2266-5.2695z" />
</svg>
