<svg xmlns="http://www.w3.org/2000/svg" width="203.333" height="190.167" viewBox="0 0 203 190">
	<path fill="#f9f9f9" d="M155.936 42.506h40.851s-35.945 26.2-35.974 26.218c-.193.142 3.154 10.443 3.311 11.087 2.085 8.585 3.476 17.398 3.781 26.234 1.118 32.262-16.411 59.314-46.303 70.701-9.122 3.476-13.61 5.247-23.33 6.327-46.589 5.178-73.218-12.18-91.722-34.552l37.805-26.751S-12.35 83.357 32.159 29.091c0 0 61.042 52.525 61.177 52.639-10.397-8.958-18.13-24.854-17.994-38.576.313-31.339 40.042-46.235 62.243-30.741 5.426 3.789 11.302 12.131 14.288 18.1 1.471 2.949 3.661 11.993 4.063 11.993z" />
	<circle fill="#444" stroke="#444" stroke-width="12" stroke-linecap="round" stroke-linejoin="round" cx="121.914" cy="46.925" r="11.356" />
</svg>
