<svg xmlns="http://www.w3.org/2000/svg" width="203.333" height="190.167"><path fill="#52A7DD" d="M155.936 42.506h40.851s-35.945 26.2-35.974 26.218c-.193.142 3.154 10.443 3.311 11.087 2.085 8.585 3.476 17.398 3.781 26.234 1.118 32.262-16.411 59.314-46.303 70.701-9.122 3.476-13.61 5.247-23.33 6.327-46.589 5.178-73.218-12.18-91.722-34.552l37.805-26.751S-12.35 83.357 32.159 29.091c0 0 61.042 52.525 61.177 52.639-10.397-8.958-18.13-24.854-17.994-38.576.313-31.339 40.042-46.235 62.243-30.741 5.426 3.789 11.302 12.131 14.288 18.1 1.471 2.949 3.661 11.993 4.063 11.993z"/><path fill="#1D7CBA" d="M137.108 128.875c-6.886 11.335-16.76 20.67-28.382 27.035-4.793 2.624-9.904 4.688-15.16 6.181-5.103 1.447-10.581 2.603-15.878 3.031a90.904 90.904 0 01-29.141-2.372 133.187 133.187 0 01-20.144-6.705c-1.779-.758-7.495-3.62-9.205-4.522-2.789-1.474-9.356-4.967-12.649-5.014v2.014s33.152 48.827 95.119 33.458c16.19-4.015 34.558-12.748 46.714-24.261 14.865-14.079 19.555-34.314 20.213-54.103.303-9.095-10.609-27.863-13.11-36.641-.303-1.057-.623.973-.655 1.181-.201 1.303-.243 2.621-.449 3.923-.402 2.554-.954 5.082-1.445 7.621-.144.742-.283 1.486-.413 2.232-.634 3.652-1.261 7.307-1.995 10.939a167.376 167.376 0 01-.666 3.13c-2.564 11.446-6.65 22.828-12.754 32.873z"/><path fill="none" stroke="#454546" stroke-width="12" stroke-linecap="round" stroke-linejoin="round" d="M155.936 42.506h40.851s-35.945 26.2-35.974 26.218c-.193.142 3.154 10.443 3.311 11.087 2.085 8.585 3.476 17.398 3.781 26.234 1.212 35.036-21.617 64.38-54.805 73.405-24.273 6.6-50.614 6.706-73.651-4.45-6.029-2.921-12.016-6.656-17.224-10.886-1.446-1.174-15.913-15.425-15.675-15.593l37.805-26.751S-12.35 83.357 32.159 29.091c0 0 61.042 52.525 61.177 52.639-10.397-8.958-18.13-24.854-17.994-38.576.313-31.339 40.042-46.235 62.243-30.741 5.426 3.789 11.302 12.131 14.288 18.1 1.471 2.949 3.661 11.993 4.063 11.993z"/><circle fill="none" stroke="#454546" stroke-width="12" stroke-linecap="round" stroke-linejoin="round" cx="121.914" cy="46.925" r="11.356"/></svg>