<svg fill="#4A4A4A" width="100" height="100" version="1.1" viewBox="10 10 80 80" xmlns="http://www.w3.org/2000/svg">
 <path d="m39.25 30.57c2.75-7.8398 6.8594-12.57 10.75-12.57s8 4.7305 10.75 12.57zm0.35156-10.828v-0.003907c-5.957 2.0586-11.176 5.8281-15 10.832h9.8281c1.1211-3.8672 2.8672-7.5273 5.1719-10.832zm-7.8906 30.258c-0.019532-4.9922 0.49609-9.9766 1.5273-14.859h-11.566c-4.8945 9.3008-4.8945 20.418 0 29.719h11.566c-1.0312-4.8828-1.5469-9.8672-1.5273-14.859zm4.5781 0c-0.027343 5 0.52344 9.9883 1.6523 14.859h24.117c1.1289-4.8711 1.6797-9.8594 1.6523-14.859 0.027343-5-0.52344-9.9883-1.6523-14.859h-24.117c-1.1289 4.8711-1.6797 9.8594-1.6523 14.859zm39.109-19.43c-3.8242-5.0039-9.043-8.7734-15-10.832 2.3047 3.3047 4.0508 6.9648 5.1719 10.832zm-15 49.691c5.957-2.0586 11.176-5.8281 15-10.832h-9.8281c-1.1211 3.8672-2.8672 7.5273-5.1719 10.832zm-35.797-10.832c3.8242 5.0039 9.043 8.7734 15 10.832-2.3047-3.3047-4.0508-6.9648-5.1719-10.832zm42.16-34.289c1.0312 4.8828 1.5469 9.8672 1.5273 14.859 0.019532 4.9922-0.49609 9.9766-1.5273 14.859h11.566c4.8945-9.3008 4.8945-20.418 0-29.719zm-27.512 34.289c2.75 7.8398 6.8594 12.57 10.75 12.57s8-4.7305 10.75-12.57z"/>
</svg>
