<svg width="24px" height="24px" viewBox="0 0 24 24" enable-background="new 0 0 24 24" xml:space="preserve">
  <path d="M10.498,15.691l-0.727,3.924c-0.037,0.2,0.052,0.404,0.225,0.514c0.173,0.11,0.394,0.102,0.56-0.018l3.232-2.34
    L10.498,15.691z"/>
  <rect x="10.29" y="9.445" transform="matrix(0.5343 -0.8453 0.8453 0.5343 -2.5855 18.4118)" width="10.254" height="4.215"/>
  <path d="M23.711,5.383c0.528-0.836,0.389-1.902-0.269-2.586l0.197-0.312c0.148-0.232,0.078-0.541-0.155-0.69l-2.717-1.717
    C20.534-0.07,20.226,0,20.078,0.232l-3.168,5.014l3.561,2.252l2.401-3.799c0.204,0.348,0.223,0.787-0.006,1.15l-3.434,5.436
    c-0.148,0.233-0.078,0.542,0.156,0.689c0.233,0.148,0.542,0.078,0.689-0.156L23.711,5.383z"/>
  <path d="M9.354,20.146l-1.5-1.5c-0.195-0.195-0.512-0.195-0.707,0L5.5,20.293l-1.647-1.646c-0.195-0.195-0.512-0.195-0.707,0
    l-3,3c-0.196,0.195-0.195,0.512,0,0.707c0.195,0.195,0.511,0.195,0.707,0L3.5,19.706l1.647,1.647
    c0.195,0.195,0.512,0.195,0.707,0L7.5,19.706l1.146,1.147c0.195,0.195,0.512,0.195,0.707,0
    C9.549,20.659,9.549,20.342,9.354,20.146z"/>
</svg>